<svg class="bp-logo bp-logo-icon" xmlns="http://www.w3.org/2000/svg" width="212" height="212" viewBox="0 0 212 212"><style>.bp-color-1{fill:#c7261f}.bp-color-2{fill:#364c74}.bp-color-3{fill:#717788}</style><path d="M146.821 48.7084C149.041 50.5225 149.097 53.8194 147.105 55.8168L109.579 93.437C107.619 95.4021 104.414 95.3758 102.422 93.3782L64.9295 55.7914C62.9261 53.783 62.903 50.5291 65.0389 48.7334C88.431 29.0678 122.854 29.1183 146.821 48.7084Z" class="bp-color-2"/><path d="M163.329 64.8421C161.519 62.617 158.23 62.5604 156.238 64.5578L118.712 102.178C116.752 104.143 116.778 107.356 118.771 109.353L156.263 146.94C158.267 148.948 161.512 148.972 163.304 146.83C182.92 123.379 182.869 88.87 163.329 64.8421Z" class="bp-color-1"/><path d="M48.6714 146.795C50.481 149.02 53.7696 149.077 55.7619 147.079L93.2877 109.459C95.2478 107.494 95.2215 104.282 93.229 102.284L55.7367 64.6972C53.7332 62.6887 50.4875 62.6656 48.6964 64.8069C29.0802 88.2579 29.1306 122.767 48.6714 146.795Z" class="bp-color-2"/><path d="M36 184L50.4215 170.092L64.843 156.183L102.369 118.563C104.329 116.598 107.533 116.624 109.526 118.622L147.018 156.209L161.009 170.104L175 184L106 206.5L36 184Z" class="bp-color-3"/><path fill-rule="evenodd" clip-rule="evenodd" d="M212 106C212 164.542 164.542 212 106 212C47.4578 212 0 164.542 0 106C0 47.4578 47.4578 0 106 0C164.542 0 212 47.4578 212 106ZM106 191C152.944 191 191 152.944 191 106C191 59.0558 152.944 21 106 21C59.0558 21 21 59.0558 21 106C21 152.944 59.0558 191 106 191Z" class="bp-color-3"/></svg>