<svg width="802" height="144" viewBox="0 0 802 144" fill="none" xmlns="http://www.w3.org/2000/svg">
<path d="M99.7275 33.0849C101.235 34.3172 101.273 36.5566 99.9201 37.9133L74.4309 63.4667C73.0995 64.8014 70.923 64.7835 69.5696 63.4267L44.1031 37.8961C42.7423 36.5318 42.7266 34.3216 44.1774 33.1019C60.0663 19.7442 83.4477 19.7785 99.7275 33.0849Z" fill="#364C74"/>
<path d="M110.94 44.0437C109.711 42.5323 107.477 42.4939 106.124 43.8506L80.6348 69.404C79.3034 70.7388 79.3212 72.9208 80.6747 74.2776L106.141 99.8082C107.502 101.172 109.707 101.188 110.923 99.7337C124.247 83.8048 124.213 60.3645 110.94 44.0437Z" fill="#C7261F"/>
<path d="M33.0598 99.7098C34.289 101.221 36.5227 101.26 37.876 99.9029L63.3652 74.3495C64.6966 73.0147 64.6788 70.8327 63.3253 69.4759L37.8589 43.9453C36.498 42.581 34.2934 42.5653 33.0768 44.0198C19.7526 59.9487 19.7868 83.389 33.0598 99.7098Z" fill="#364C74"/>
<path d="M24.4528 124.981L44.0443 106.087L69.5335 80.5333C70.8649 79.1986 73.0414 79.2165 74.3949 80.5733L99.8613 106.104L118.868 124.981L72 140.264L24.4528 124.981Z" fill="#717788"/>
<path fill-rule="evenodd" clip-rule="evenodd" d="M144 72C144 111.765 111.765 144 72 144C32.2355 144 0 111.765 0 72C0 32.2355 32.2355 0 72 0C111.765 0 144 32.2355 144 72ZM72 129.736C103.887 129.736 129.736 103.887 129.736 72C129.736 40.1134 103.887 14.2642 72 14.2642C40.1134 14.2642 14.2642 40.1134 14.2642 72C14.2642 103.887 40.1134 129.736 72 129.736Z" fill="#717788"/>
<path d="M245.172 90.8438C245.172 92.3438 244.906 93.9531 244.375 95.6719C243.875 97.3906 243.031 98.9844 241.844 100.453C240.688 101.922 239.172 103.156 237.297 104.156C235.422 105.125 233.125 105.609 230.406 105.609H184.141C183.266 105.609 182.453 105.453 181.703 105.141C180.953 104.828 180.297 104.406 179.734 103.875C179.203 103.312 178.781 102.656 178.469 101.906C178.156 101.156 178 100.344 178 99.4688V44.5312C178 43.6875 178.156 42.8906 178.469 42.1406C178.781 41.3906 179.203 40.7344 179.734 40.1719C180.297 39.6094 180.953 39.1719 181.703 38.8594C182.453 38.5469 183.266 38.3906 184.141 38.3906H224.922C226.422 38.3906 228.031 38.6562 229.75 39.1875C231.469 39.7188 233.062 40.5781 234.531 41.7656C236.031 42.9219 237.266 44.4375 238.234 46.3125C239.234 48.1875 239.734 50.4844 239.734 53.2031V55.5C239.734 57.6562 239.375 59.9844 238.656 62.4844C237.938 64.9531 236.781 67.2969 235.188 69.5156C236.562 70.3594 237.844 71.375 239.031 72.5625C240.25 73.75 241.312 75.125 242.219 76.6875C243.125 78.25 243.844 80.0156 244.375 81.9844C244.906 83.9531 245.172 86.125 245.172 88.5V90.8438ZM232.984 88.5C232.984 86.9062 232.734 85.4844 232.234 84.2344C231.734 82.9531 231.031 81.8594 230.125 80.9531C229.219 80.0469 228.125 79.3594 226.844 78.8906C225.562 78.3906 224.125 78.1406 222.531 78.1406H195.062V65.8594H217.047C218.641 65.8594 220.078 65.625 221.359 65.1562C222.641 64.6562 223.734 63.9531 224.641 63.0469C225.547 62.1406 226.234 61.0625 226.703 59.8125C227.203 58.5312 227.453 57.0938 227.453 55.5V53.2031C227.453 51.4531 226.609 50.5781 224.922 50.5781H190.188V93.4219H230.406C230.625 93.4219 230.891 93.4062 231.203 93.375C231.516 93.3438 231.797 93.25 232.047 93.0938C232.297 92.9375 232.516 92.6719 232.703 92.2969C232.891 91.9219 232.984 91.4062 232.984 90.75V88.5Z" fill="#364C74"/>
<path d="M321.297 99.4688C321.297 100.344 321.141 101.156 320.828 101.906C320.516 102.656 320.078 103.312 319.516 103.875C318.953 104.406 318.297 104.828 317.547 105.141C316.797 105.453 316 105.609 315.156 105.609H287.688C285.094 105.609 282.469 105.328 279.812 104.766C277.156 104.203 274.578 103.344 272.078 102.188C269.609 101 267.281 99.5 265.094 97.6875C262.906 95.875 260.984 93.7344 259.328 91.2656C257.703 88.7656 256.422 85.9219 255.484 82.7344C254.547 79.5156 254.078 75.9375 254.078 72V38.3906H266.266V72C266.266 75.4375 266.734 78.3438 267.672 80.7188C268.641 83.0938 269.859 85.0781 271.328 86.6719C272.797 88.2656 274.406 89.5156 276.156 90.4219C277.906 91.3281 279.562 92 281.125 92.4375C282.719 92.875 284.109 93.1562 285.297 93.2812C286.516 93.375 287.312 93.4219 287.688 93.4219H309.109V38.3906H321.297V99.4688Z" fill="#364C74"/>
<path d="M397.234 105.609H341.641C340.766 105.609 339.953 105.453 339.203 105.141C338.453 104.828 337.797 104.406 337.234 103.875C336.703 103.312 336.281 102.656 335.969 101.906C335.656 101.156 335.5 100.344 335.5 99.4688V38.3906H347.688V93.4219H397.234V105.609Z" fill="#364C74"/>
<path d="M461.172 78.1406H422.688V65.8594H461.172V78.1406ZM466.656 105.609H422.688C421 105.609 419.156 105.312 417.156 104.719C415.156 104.125 413.297 103.156 411.578 101.812C409.891 100.438 408.469 98.6719 407.312 96.5156C406.188 94.3281 405.625 91.6562 405.625 88.5V44.5312C405.625 43.6875 405.781 42.8906 406.094 42.1406C406.406 41.3906 406.828 40.7344 407.359 40.1719C407.922 39.6094 408.578 39.1719 409.328 38.8594C410.078 38.5469 410.891 38.3906 411.766 38.3906H466.656V50.5781H417.812V88.5C417.812 90.0938 418.234 91.3125 419.078 92.1562C419.922 93 421.156 93.4219 422.781 93.4219H466.656V105.609Z" fill="#364C74"/>
<path d="M539.219 50.5781H512.359V105.609H500.172V50.5781H473.266V38.3906H539.219V50.5781Z" fill="#364C74"/>
<path d="M614.922 66.5156C614.922 69.2969 614.578 71.7812 613.891 73.9688C613.203 76.1562 612.266 78.0938 611.078 79.7812C609.922 81.4375 608.578 82.8594 607.047 84.0469C605.516 85.2344 603.906 86.2031 602.219 86.9531C600.562 87.7031 598.875 88.25 597.156 88.5938C595.469 88.9375 593.875 89.1094 592.375 89.1094H564.812V76.9219H592.375C593.938 76.7969 595.344 76.4844 596.594 75.9844C597.875 75.4531 598.969 74.75 599.875 73.875C600.781 73 601.484 71.9531 601.984 70.7344C602.484 69.4844 602.734 68.0781 602.734 66.5156V60.9844C602.578 59.4531 602.25 58.0469 601.75 56.7656C601.25 55.4844 600.562 54.3906 599.688 53.4844C598.844 52.5781 597.812 51.875 596.594 51.375C595.375 50.8438 593.969 50.5781 592.375 50.5781H564.906C563.281 50.5781 562.047 51 561.203 51.8438C560.359 52.6875 559.938 53.9062 559.938 55.5V105.609H547.75V55.5C547.75 52.375 548.312 49.7188 549.438 47.5312C550.594 45.3438 552.016 43.5781 553.703 42.2344C555.422 40.8906 557.281 39.9219 559.281 39.3281C561.281 38.7031 563.125 38.3906 564.812 38.3906H592.375C595.125 38.3906 597.594 38.75 599.781 39.4688C601.969 40.1562 603.891 41.0938 605.547 42.2812C607.234 43.4375 608.656 44.7812 609.812 46.3125C611 47.8438 611.969 49.4531 612.719 51.1406C613.5 52.7969 614.062 54.4844 614.406 56.2031C614.75 57.8906 614.922 59.4844 614.922 60.9844V66.5156Z" fill="#C7261F"/>
<path d="M695.922 78.4219C695.922 82.5156 695.219 86.2812 693.812 89.7188C692.406 93.1562 690.453 96.125 687.953 98.625C685.453 101.125 682.484 103.078 679.047 104.484C675.641 105.859 671.922 106.547 667.891 106.547H651.391C647.359 106.547 643.625 105.859 640.188 104.484C636.75 103.078 633.781 101.125 631.281 98.625C628.781 96.125 626.812 93.1562 625.375 89.7188C623.969 86.2812 623.266 82.5156 623.266 78.4219V65.5781C623.266 61.5156 623.969 57.7656 625.375 54.3281C626.812 50.8594 628.781 47.8906 631.281 45.4219C633.781 42.9219 636.75 40.9688 640.188 39.5625C643.625 38.1562 647.359 37.4531 651.391 37.4531H667.891C671.922 37.4531 675.641 38.1562 679.047 39.5625C682.484 40.9688 685.453 42.9219 687.953 45.4219C690.453 47.8906 692.406 50.8594 693.812 54.3281C695.219 57.7656 695.922 61.5156 695.922 65.5781V78.4219ZM683.734 65.5781C683.734 63.1719 683.344 61 682.562 59.0625C681.812 57.0938 680.734 55.4219 679.328 54.0469C677.953 52.6406 676.281 51.5625 674.312 50.8125C672.375 50.0312 670.234 49.6406 667.891 49.6406H651.391C649.016 49.6406 646.844 50.0312 644.875 50.8125C642.938 51.5625 641.266 52.6406 639.859 54.0469C638.453 55.4219 637.359 57.0938 636.578 59.0625C635.828 61 635.453 63.1719 635.453 65.5781V78.4219C635.453 80.8281 635.828 83.0156 636.578 84.9844C637.359 86.9219 638.453 88.5938 639.859 90C641.266 91.375 642.938 92.4531 644.875 93.2344C646.844 93.9844 649.016 94.3594 651.391 94.3594H667.797C670.172 94.3594 672.328 93.9844 674.266 93.2344C676.234 92.4531 677.922 91.375 679.328 90C680.734 88.5938 681.812 86.9219 682.562 84.9844C683.344 83.0156 683.734 80.8281 683.734 78.4219V65.5781Z" fill="#C7261F"/>
<path d="M720.25 105.609H708.062V38.3906H720.25V105.609Z" fill="#C7261F"/>
<path d="M801.672 100.406C801.672 101.281 801.5 102.094 801.156 102.844C800.844 103.594 800.406 104.25 799.844 104.812C799.312 105.344 798.672 105.766 797.922 106.078C797.172 106.391 796.375 106.547 795.531 106.547C794.781 106.547 794.016 106.406 793.234 106.125C792.484 105.844 791.812 105.391 791.219 104.766L746.688 58.2656V105.609H734.5V43.5938C734.5 42.3438 734.844 41.2188 735.531 40.2188C736.25 39.1875 737.156 38.4219 738.25 37.9219C739.406 37.4531 740.594 37.3438 741.812 37.5938C743.031 37.8125 744.078 38.375 744.953 39.2812L789.484 85.7344V38.3906H801.672V100.406Z" fill="#C7261F"/>
</svg>
