<svg class="bp-logo bp-logo-full" xmlns="http://www.w3.org/2000/svg" width="505" height="144" viewBox="0 0 505 144"><style>.bp-color-1{fill:#c7261f}.bp-color-2{fill:#364c74}.bp-color-3{fill:#717788}</style><path d="M99.7275 33.0849C101.235 34.3172 101.273 36.5566 99.9201 37.9133L74.4309 63.4667C73.0995 64.8014 70.923 64.7835 69.5696 63.4267L44.1031 37.8961C42.7423 36.5318 42.7266 34.3216 44.1774 33.1019C60.0663 19.7442 83.4477 19.7785 99.7275 33.0849Z" class="bp-color-2"/><path d="M110.94 44.0437C109.711 42.5323 107.477 42.4939 106.124 43.8506L80.6348 69.404C79.3034 70.7388 79.3212 72.9208 80.6747 74.2776L106.141 99.8082C107.502 101.172 109.707 101.188 110.923 99.7337C124.247 83.8048 124.213 60.3645 110.94 44.0437Z" class="bp-color-1"/><path d="M33.0598 99.7098C34.289 101.221 36.5227 101.26 37.876 99.9029L63.3652 74.3495C64.6966 73.0147 64.6788 70.8327 63.3253 69.4759L37.8589 43.9453C36.498 42.581 34.2934 42.5653 33.0768 44.0198C19.7526 59.9487 19.7868 83.389 33.0598 99.7098Z" class="bp-color-2"/><path d="M24.4528 124.981L44.0443 106.087L69.5335 80.5333C70.8649 79.1986 73.0414 79.2165 74.3949 80.5733L99.8613 106.104L118.868 124.981L72 140.264L24.4528 124.981Z" class="bp-color-3"/><path fill-rule="evenodd" clip-rule="evenodd" d="M144 72C144 111.765 111.765 144 72 144C32.2355 144 0 111.765 0 72C0 32.2355 32.2355 0 72 0C111.765 0 144 32.2355 144 72ZM72 129.736C103.887 129.736 129.736 103.887 129.736 72C129.736 40.1134 103.887 14.2642 72 14.2642C40.1134 14.2642 14.2642 40.1134 14.2642 72C14.2642 103.887 40.1134 129.736 72 129.736Z" class="bp-color-3"/><path d="M179 37.0139H195.871C201.63 37.0139 205.831 38.3657 208.473 41.0694C211.116 43.7056 212.437 47.7949 212.437 53.3375V56.1764C212.437 59.8264 211.827 62.8005 210.608 65.0986C209.456 67.3968 207.66 69.0528 205.221 70.0667V70.2695C210.777 72.162 213.555 77.0963 213.555 85.0722V91.1556C213.555 96.6306 212.098 100.821 209.185 103.728C206.339 106.567 202.138 107.986 196.582 107.986H179V37.0139ZM194.55 65.9097C196.786 65.9097 198.446 65.3352 199.53 64.1861C200.682 63.037 201.258 61.1106 201.258 58.4069V54.4528C201.258 51.8843 200.783 50.0255 199.835 48.8764C198.954 47.7273 197.531 47.1528 195.566 47.1528H190.18V65.9097H194.55ZM196.582 97.8472C198.547 97.8472 200.004 97.3403 200.953 96.3264C201.901 95.2449 202.376 93.4199 202.376 90.8514V84.6667C202.376 81.4222 201.8 79.1917 200.648 77.975C199.564 76.6907 197.734 76.0486 195.16 76.0486H190.18V97.8472H196.582Z" class="bp-color-2"/><path d="M236.351 109C230.931 109 226.798 107.479 223.952 104.438C221.106 101.328 219.683 96.9009 219.683 91.1556V37.0139H230.863V91.9667C230.863 94.4 231.337 96.1574 232.286 97.2389C233.302 98.3204 234.725 98.8611 236.554 98.8611C238.384 98.8611 239.773 98.3204 240.721 97.2389C241.738 96.1574 242.246 94.4 242.246 91.9667V37.0139H253.019V91.1556C253.019 96.9009 251.596 101.328 248.75 104.438C245.904 107.479 241.771 109 236.351 109Z" class="bp-color-2"/><path d="M260.981 37.0139H272.161V97.8472H290.556V107.986H260.981V37.0139Z" class="bp-color-2"/><path d="M295.917 37.0139H326.407V47.1528H307.097V65.9097H322.443V76.0486H307.097V97.8472H326.407V107.986H295.917V37.0139Z" class="bp-color-2"/><path d="M341.579 47.1528H329.891V37.0139H364.446V47.1528H352.758V107.986H341.579V47.1528Z" class="bp-color-2"/><path d="M369.859 37.0139H386.323C391.879 37.0139 396.046 38.5009 398.824 41.475C401.602 44.4491 402.991 48.8088 402.991 54.5542V61.55C402.991 67.2954 401.602 71.6551 398.824 74.6292C396.046 77.6032 391.879 79.0903 386.323 79.0903H381.039V107.986H369.859V37.0139ZM386.323 68.9514C388.153 68.9514 389.508 68.4444 390.389 67.4306C391.337 66.4167 391.812 64.6931 391.812 62.2597V53.8444C391.812 51.4111 391.337 49.6875 390.389 48.6736C389.508 47.6597 388.153 47.1528 386.323 47.1528H381.039V68.9514H386.323Z" class="bp-color-1"/><path d="M425.223 109C419.734 109 415.534 107.445 412.62 104.336C409.707 101.227 408.25 96.8333 408.25 91.1556V53.8444C408.25 48.1667 409.707 43.7731 412.62 40.6639C415.534 37.5546 419.734 36 425.223 36C430.711 36 434.912 37.5546 437.825 40.6639C440.739 43.7731 442.195 48.1667 442.195 53.8444V91.1556C442.195 96.8333 440.739 101.227 437.825 104.336C434.912 107.445 430.711 109 425.223 109ZM425.223 98.8611C429.085 98.8611 431.016 96.5292 431.016 91.8653V53.1347C431.016 48.4708 429.085 46.1389 425.223 46.1389C421.361 46.1389 419.43 48.4708 419.43 53.1347V91.8653C419.43 96.5292 421.361 98.8611 425.223 98.8611Z" class="bp-color-1"/><path d="M449.756 37.0139H460.935V107.986H449.756V37.0139Z" class="bp-color-1"/><path d="M469.308 37.0139H483.333L494.208 79.4958H494.411V37.0139H504.371V107.986H492.887L479.471 56.1764H479.268V107.986H469.308V37.0139Z" class="bp-color-1"/></svg>