<?xml version="1.0" encoding="utf-8"?>
<!-- Generator: Adobe Illustrator 25.0.0, SVG Export Plug-In . SVG Version: 6.00 Build 0)  -->
<svg version="1.1" id="Layer_1" xmlns="http://www.w3.org/2000/svg" xmlns:xlink="http://www.w3.org/1999/xlink" x="0px" y="0px"
	 viewBox="0 0 526.33 120.42" style="enable-background:new 0 0 526.33 120.42;" xml:space="preserve">
<style type="text/css">
	.st0{fill:#717272;}
	.st1{fill:#CECDCD;}
	.st2{fill:#212121;}
	.st3{fill:#F7A6AD;}
	.st4{fill:#F16774;}
	.st5{fill:#CB1F3E;}
	.st6{fill:#50BCC7;}
	.st7{fill:#74CDD6;}
	.st8{fill:#0C7B86;}
</style>
<path class="st0" d="M81.92,92.97l-0.83-1.45l-15.05-26.4L34.14,9.15C29.15,0.4,17.84-2.59,9.12,2.45
	C0.4,7.48-2.57,18.71,2.42,27.46l47.78,83.83c0.02,0.05,0.06,0.09,0.09,0.14c0.21,0.36,0.43,0.7,0.66,1.04
	c0.12,0.17,0.23,0.35,0.36,0.52c0.22,0.3,0.45,0.58,0.69,0.86c0.15,0.19,0.3,0.38,0.46,0.56c0.23,0.26,0.48,0.51,0.73,0.75
	c0.18,0.18,0.35,0.36,0.53,0.52c0.27,0.24,0.55,0.46,0.83,0.69c0.18,0.15,0.36,0.3,0.55,0.44c0.31,0.23,0.63,0.44,0.95,0.65
	c0.18,0.12,0.35,0.24,0.53,0.34c0.37,0.22,0.74,0.42,1.12,0.61c0.14,0.07,0.29,0.15,0.43,0.22c0.43,0.2,0.86,0.39,1.3,0.56
	c0.1,0.04,0.2,0.08,0.3,0.12c0.46,0.17,0.93,0.31,1.4,0.44c0.09,0.03,0.19,0.06,0.29,0.08c0.45,0.12,0.91,0.22,1.37,0.3
	c0.14,0.02,0.28,0.05,0.42,0.07c0.4,0.06,0.81,0.11,1.22,0.15c0.22,0.02,0.44,0.04,0.66,0.05c0.32,0.02,0.64,0.02,0.96,0.02
	c0.32,0,0.64-0.01,0.96-0.02c0.22-0.01,0.44-0.03,0.66-0.05c0.4-0.04,0.81-0.08,1.22-0.15c0.14-0.02,0.28-0.05,0.41-0.07
	c0.46-0.08,0.92-0.18,1.37-0.3c0.1-0.02,0.19-0.05,0.29-0.08c0.47-0.13,0.94-0.27,1.4-0.44c0.1-0.04,0.2-0.08,0.31-0.12
	c0.44-0.17,0.87-0.35,1.3-0.56c0.15-0.07,0.28-0.14,0.43-0.22c0.38-0.19,0.76-0.39,1.12-0.61c0.18-0.11,0.36-0.23,0.53-0.34
	c0.32-0.21,0.64-0.42,0.95-0.65c0.19-0.14,0.37-0.29,0.56-0.45c0.28-0.23,0.56-0.45,0.83-0.69c0.18-0.17,0.35-0.35,0.53-0.52
	c0.25-0.25,0.5-0.49,0.74-0.75c0.16-0.18,0.31-0.37,0.46-0.56c0.24-0.29,0.47-0.57,0.69-0.86c0.11-0.15,0.21-0.31,0.31-0.46
	c0.01-0.02,0.03-0.05,0.04-0.07c0.23-0.34,0.46-0.68,0.66-1.03C85.01,105.93,85.29,98.89,81.92,92.97z"/>
<path class="st1" d="M122.97,2.45c-8.72-5.04-20.03-2.05-25.02,6.7L66.04,65.12L50.17,92.97c-3.37,5.91-3.1,12.95,0.12,18.45
	c0.21,0.36,0.43,0.7,0.66,1.04c0.12,0.17,0.23,0.35,0.36,0.52c0.22,0.3,0.45,0.58,0.69,0.86c0.15,0.19,0.3,0.38,0.46,0.56
	c0.23,0.26,0.48,0.51,0.73,0.75c0.18,0.18,0.35,0.36,0.53,0.52c0.27,0.24,0.55,0.46,0.83,0.69c0.18,0.15,0.36,0.3,0.55,0.44
	c0.31,0.23,0.63,0.44,0.95,0.65c0.18,0.12,0.35,0.24,0.53,0.34c0.37,0.22,0.74,0.42,1.12,0.61c0.14,0.07,0.29,0.15,0.43,0.22
	c0.43,0.2,0.86,0.39,1.3,0.56c0.1,0.04,0.2,0.08,0.3,0.12c0.46,0.17,0.93,0.31,1.4,0.44c0.09,0.03,0.19,0.06,0.29,0.08
	c0.45,0.12,0.91,0.22,1.37,0.3c0.14,0.02,0.28,0.05,0.42,0.07c0.4,0.06,0.81,0.11,1.22,0.15c0.22,0.02,0.44,0.04,0.66,0.05
	c0.32,0.02,0.64,0.02,0.96,0.02c0.32,0,0.64-0.01,0.96-0.02c0.22-0.01,0.44-0.03,0.66-0.05c0.4-0.04,0.81-0.08,1.22-0.15
	c0.14-0.02,0.28-0.05,0.41-0.07c0.46-0.08,0.92-0.18,1.37-0.3c0.1-0.02,0.19-0.05,0.29-0.08c0.47-0.13,0.94-0.27,1.4-0.44
	c0.1-0.04,0.2-0.08,0.31-0.12c0.44-0.17,0.87-0.35,1.3-0.56c0.15-0.07,0.28-0.14,0.43-0.22c0.38-0.19,0.76-0.39,1.12-0.61
	c0.18-0.11,0.36-0.23,0.53-0.34c0.32-0.21,0.64-0.42,0.95-0.65c0.19-0.14,0.37-0.29,0.56-0.45c0.28-0.23,0.56-0.45,0.83-0.69
	c0.18-0.17,0.35-0.35,0.53-0.52c0.25-0.25,0.5-0.49,0.74-0.75c0.16-0.18,0.31-0.37,0.46-0.56c0.24-0.29,0.47-0.57,0.69-0.86
	c0.11-0.15,0.21-0.31,0.31-0.46c0.01-0.02,0.03-0.05,0.04-0.07c0.23-0.34,0.46-0.68,0.66-1.03c0.03-0.05,0.06-0.09,0.09-0.14
	l47.78-83.83C134.66,18.71,131.69,7.48,122.97,2.45z"/>
<path class="st2" d="M81.92,92.97l-0.83-1.45l-15.05-26.4L50.17,92.97c-3.37,5.91-3.1,12.95,0.12,18.45
	c0.21,0.36,0.43,0.7,0.66,1.04c0.12,0.17,0.23,0.35,0.36,0.52c0.22,0.3,0.45,0.58,0.69,0.86c0.15,0.19,0.3,0.38,0.46,0.56
	c0.23,0.26,0.48,0.51,0.73,0.75c0.18,0.18,0.35,0.36,0.53,0.52c0.27,0.24,0.55,0.46,0.83,0.69c0.18,0.15,0.36,0.3,0.55,0.44
	c0.31,0.23,0.63,0.44,0.95,0.65c0.18,0.12,0.35,0.24,0.53,0.34c0.37,0.22,0.74,0.42,1.12,0.61c0.14,0.07,0.29,0.15,0.43,0.22
	c0.43,0.2,0.86,0.39,1.3,0.56c0.1,0.04,0.2,0.08,0.3,0.12c0.46,0.17,0.93,0.31,1.4,0.44c0.09,0.03,0.19,0.06,0.29,0.08
	c0.45,0.12,0.91,0.22,1.37,0.3c0.14,0.02,0.28,0.05,0.42,0.07c0.4,0.06,0.81,0.11,1.22,0.15c0.22,0.02,0.44,0.04,0.66,0.05
	c0.32,0.02,0.64,0.02,0.96,0.02c0.32,0,0.64-0.01,0.96-0.02c0.22-0.01,0.44-0.03,0.66-0.05c0.4-0.04,0.81-0.08,1.22-0.15
	c0.14-0.02,0.28-0.05,0.41-0.07c0.46-0.08,0.92-0.18,1.37-0.3c0.1-0.02,0.19-0.05,0.29-0.08c0.47-0.13,0.94-0.27,1.4-0.44
	c0.1-0.04,0.2-0.08,0.31-0.12c0.44-0.17,0.87-0.35,1.3-0.56c0.15-0.07,0.28-0.14,0.43-0.22c0.38-0.19,0.76-0.39,1.12-0.61
	c0.18-0.11,0.36-0.23,0.53-0.34c0.32-0.21,0.64-0.42,0.95-0.65c0.19-0.14,0.37-0.29,0.56-0.45c0.28-0.23,0.56-0.45,0.83-0.69
	c0.18-0.17,0.35-0.35,0.53-0.52c0.25-0.25,0.5-0.49,0.74-0.75c0.16-0.18,0.31-0.37,0.46-0.56c0.24-0.29,0.47-0.57,0.69-0.86
	c0.11-0.15,0.21-0.31,0.31-0.46c0.01-0.02,0.03-0.05,0.04-0.07c0.23-0.34,0.46-0.68,0.66-1.03C85.01,105.93,85.29,98.89,81.92,92.97
	z"/>
<path class="st0" d="M292.56,92.97l-0.83-1.45l-15.05-26.4L244.78,9.15c-4.99-8.75-16.29-11.74-25.02-6.7
	c-8.72,5.04-11.69,16.27-6.7,25.02l47.78,83.83c0.03,0.05,0.06,0.09,0.09,0.14c0.21,0.36,0.44,0.7,0.66,1.04
	c0.12,0.17,0.23,0.35,0.36,0.52c0.21,0.3,0.45,0.58,0.69,0.86c0.16,0.19,0.3,0.38,0.46,0.56c0.23,0.26,0.49,0.51,0.74,0.75
	c0.18,0.18,0.35,0.36,0.53,0.52c0.26,0.24,0.55,0.46,0.83,0.69c0.18,0.15,0.36,0.3,0.55,0.44c0.31,0.23,0.63,0.44,0.95,0.65
	c0.18,0.12,0.35,0.24,0.53,0.34c0.36,0.22,0.74,0.42,1.12,0.61c0.14,0.07,0.28,0.15,0.43,0.22c0.43,0.2,0.86,0.39,1.3,0.56
	c0.1,0.04,0.2,0.08,0.3,0.12c0.46,0.17,0.93,0.31,1.4,0.44c0.1,0.03,0.2,0.06,0.29,0.08c0.46,0.12,0.91,0.22,1.37,0.3
	c0.14,0.02,0.28,0.05,0.41,0.07c0.41,0.06,0.81,0.11,1.22,0.15c0.22,0.02,0.44,0.04,0.66,0.05c0.32,0.02,0.64,0.02,0.96,0.02
	c0.32,0,0.64-0.01,0.96-0.02c0.22-0.01,0.44-0.03,0.66-0.05c0.4-0.04,0.81-0.08,1.22-0.15c0.14-0.02,0.28-0.05,0.42-0.07
	c0.46-0.08,0.92-0.18,1.37-0.3c0.1-0.02,0.19-0.05,0.29-0.08c0.47-0.13,0.93-0.27,1.4-0.44c0.1-0.04,0.2-0.08,0.3-0.12
	c0.44-0.17,0.87-0.35,1.3-0.56c0.14-0.07,0.29-0.14,0.43-0.22c0.38-0.19,0.76-0.39,1.12-0.61c0.18-0.11,0.35-0.23,0.53-0.34
	c0.32-0.21,0.65-0.42,0.95-0.65c0.19-0.14,0.37-0.29,0.55-0.45c0.28-0.23,0.56-0.45,0.83-0.69c0.18-0.17,0.36-0.35,0.53-0.52
	c0.25-0.25,0.5-0.49,0.74-0.75c0.16-0.18,0.31-0.37,0.46-0.56c0.24-0.29,0.47-0.57,0.69-0.86c0.11-0.15,0.21-0.31,0.31-0.46
	c0.02-0.02,0.03-0.05,0.04-0.07c0.23-0.34,0.46-0.68,0.67-1.03C295.66,105.93,295.93,98.89,292.56,92.97z"/>
<path class="st1" d="M333.61,2.45c-8.72-5.04-20.03-2.05-25.02,6.7l-31.91,55.98l-15.87,27.85c-3.37,5.91-3.1,12.95,0.12,18.45
	c0.21,0.36,0.44,0.7,0.66,1.04c0.12,0.17,0.23,0.35,0.36,0.52c0.21,0.3,0.45,0.58,0.69,0.86c0.16,0.19,0.3,0.38,0.46,0.56
	c0.23,0.26,0.49,0.51,0.74,0.75c0.18,0.18,0.35,0.36,0.53,0.52c0.26,0.24,0.55,0.46,0.83,0.69c0.18,0.15,0.36,0.3,0.55,0.44
	c0.31,0.23,0.63,0.44,0.95,0.65c0.18,0.12,0.35,0.24,0.53,0.34c0.36,0.22,0.74,0.42,1.12,0.61c0.14,0.07,0.28,0.15,0.43,0.22
	c0.43,0.2,0.86,0.39,1.3,0.56c0.1,0.04,0.2,0.08,0.3,0.12c0.46,0.17,0.93,0.31,1.4,0.44c0.1,0.03,0.2,0.06,0.29,0.08
	c0.46,0.12,0.91,0.22,1.37,0.3c0.14,0.02,0.28,0.05,0.41,0.07c0.41,0.06,0.81,0.11,1.22,0.15c0.22,0.02,0.44,0.04,0.66,0.05
	c0.32,0.02,0.64,0.02,0.96,0.02c0.32,0,0.64-0.01,0.96-0.02c0.22-0.01,0.44-0.03,0.66-0.05c0.4-0.04,0.81-0.08,1.22-0.15
	c0.14-0.02,0.28-0.05,0.42-0.07c0.46-0.08,0.92-0.18,1.37-0.3c0.1-0.02,0.19-0.05,0.29-0.08c0.47-0.13,0.93-0.27,1.4-0.44
	c0.1-0.04,0.2-0.08,0.3-0.12c0.44-0.17,0.87-0.35,1.3-0.56c0.14-0.07,0.29-0.14,0.43-0.22c0.38-0.19,0.76-0.39,1.12-0.61
	c0.18-0.11,0.35-0.23,0.53-0.34c0.32-0.21,0.65-0.42,0.95-0.65c0.19-0.14,0.37-0.29,0.55-0.45c0.28-0.23,0.56-0.45,0.83-0.69
	c0.18-0.17,0.36-0.35,0.53-0.52c0.25-0.25,0.5-0.49,0.74-0.75c0.16-0.18,0.31-0.37,0.46-0.56c0.24-0.29,0.47-0.57,0.69-0.86
	c0.11-0.15,0.21-0.31,0.31-0.46c0.02-0.02,0.03-0.05,0.04-0.07c0.23-0.34,0.46-0.68,0.67-1.03c0.03-0.05,0.06-0.09,0.09-0.14
	l47.78-83.83C345.3,18.71,342.33,7.48,333.61,2.45z"/>
<path class="st2" d="M292.56,92.97l-0.83-1.45l-15.05-26.4l-15.87,27.85c-3.37,5.91-3.1,12.95,0.12,18.45
	c0.21,0.36,0.44,0.7,0.66,1.04c0.12,0.17,0.23,0.35,0.36,0.52c0.21,0.3,0.45,0.58,0.69,0.86c0.16,0.19,0.3,0.38,0.46,0.56
	c0.23,0.26,0.49,0.51,0.74,0.75c0.18,0.18,0.35,0.36,0.53,0.52c0.26,0.24,0.55,0.46,0.83,0.69c0.18,0.15,0.36,0.3,0.55,0.44
	c0.31,0.23,0.63,0.44,0.95,0.65c0.18,0.12,0.35,0.24,0.53,0.34c0.36,0.22,0.74,0.42,1.12,0.61c0.14,0.07,0.28,0.15,0.43,0.22
	c0.43,0.2,0.86,0.39,1.3,0.56c0.1,0.04,0.2,0.08,0.3,0.12c0.46,0.17,0.93,0.31,1.4,0.44c0.1,0.03,0.2,0.06,0.29,0.08
	c0.46,0.12,0.91,0.22,1.37,0.3c0.14,0.02,0.28,0.05,0.41,0.07c0.41,0.06,0.81,0.11,1.22,0.15c0.22,0.02,0.44,0.04,0.66,0.05
	c0.32,0.02,0.64,0.02,0.96,0.02c0.32,0,0.64-0.01,0.96-0.02c0.22-0.01,0.44-0.03,0.66-0.05c0.4-0.04,0.81-0.08,1.22-0.15
	c0.14-0.02,0.28-0.05,0.42-0.07c0.46-0.08,0.92-0.18,1.37-0.3c0.1-0.02,0.19-0.05,0.29-0.08c0.47-0.13,0.93-0.27,1.4-0.44
	c0.1-0.04,0.2-0.08,0.3-0.12c0.44-0.17,0.87-0.35,1.3-0.56c0.14-0.07,0.29-0.14,0.43-0.22c0.38-0.19,0.76-0.39,1.12-0.61
	c0.18-0.11,0.35-0.23,0.53-0.34c0.32-0.21,0.65-0.42,0.95-0.65c0.19-0.14,0.37-0.29,0.55-0.45c0.28-0.23,0.56-0.45,0.83-0.69
	c0.18-0.17,0.36-0.35,0.53-0.52c0.25-0.25,0.5-0.49,0.74-0.75c0.16-0.18,0.31-0.37,0.46-0.56c0.24-0.29,0.47-0.57,0.69-0.86
	c0.11-0.15,0.21-0.31,0.31-0.46c0.02-0.02,0.03-0.05,0.04-0.07c0.23-0.34,0.46-0.68,0.67-1.03
	C295.66,105.93,295.93,98.89,292.56,92.97z"/>
<path class="st1" d="M379.42,27.45l0.83,1.45l15.05,26.4l31.9,55.98c4.99,8.75,16.29,11.74,25.02,6.7
	c8.72-5.04,11.69-16.27,6.7-25.02L411.14,9.13c-0.03-0.05-0.06-0.09-0.09-0.14c-0.21-0.36-0.43-0.7-0.66-1.04
	c-0.12-0.17-0.23-0.35-0.35-0.52c-0.22-0.3-0.45-0.58-0.69-0.86c-0.15-0.18-0.3-0.38-0.46-0.55c-0.23-0.26-0.49-0.51-0.73-0.75
	c-0.18-0.17-0.35-0.36-0.54-0.52c-0.26-0.24-0.54-0.46-0.83-0.69c-0.19-0.15-0.37-0.3-0.55-0.44c-0.31-0.23-0.63-0.44-0.95-0.65
	c-0.18-0.12-0.35-0.24-0.53-0.34c-0.37-0.22-0.74-0.42-1.12-0.61c-0.14-0.07-0.29-0.15-0.43-0.22c-0.43-0.2-0.87-0.39-1.3-0.56
	c-0.1-0.04-0.2-0.08-0.3-0.12c-0.46-0.17-0.93-0.31-1.4-0.44c-0.1-0.03-0.19-0.06-0.29-0.08c-0.45-0.12-0.91-0.22-1.37-0.3
	c-0.14-0.03-0.28-0.05-0.42-0.07c-0.4-0.06-0.81-0.11-1.22-0.15c-0.22-0.02-0.44-0.04-0.66-0.05C395.93,0.01,395.61,0,395.3,0
	c-0.32,0-0.64,0.01-0.96,0.02c-0.22,0.01-0.44,0.03-0.66,0.05c-0.41,0.04-0.81,0.08-1.22,0.15c-0.14,0.02-0.28,0.05-0.41,0.07
	c-0.46,0.08-0.92,0.18-1.38,0.3c-0.1,0.02-0.19,0.05-0.29,0.08c-0.47,0.13-0.93,0.28-1.4,0.44c-0.1,0.04-0.2,0.08-0.3,0.12
	c-0.44,0.17-0.87,0.35-1.3,0.56c-0.14,0.07-0.28,0.15-0.42,0.22c-0.38,0.19-0.75,0.39-1.12,0.61c-0.18,0.11-0.36,0.23-0.53,0.34
	c-0.32,0.21-0.65,0.42-0.95,0.65c-0.19,0.14-0.37,0.3-0.56,0.45c-0.28,0.22-0.56,0.45-0.83,0.69c-0.18,0.17-0.36,0.35-0.53,0.52
	c-0.25,0.25-0.5,0.49-0.74,0.75c-0.16,0.18-0.31,0.37-0.46,0.55c-0.24,0.28-0.47,0.57-0.69,0.86c-0.11,0.15-0.21,0.31-0.31,0.46
	c-0.02,0.02-0.03,0.04-0.05,0.06c-0.23,0.34-0.46,0.68-0.66,1.04C376.32,14.5,376.05,21.54,379.42,27.45z"/>
<path class="st0" d="M338.37,117.98c8.72,5.04,20.03,2.04,25.02-6.7L395.3,55.3l15.88-27.85c3.37-5.91,3.1-12.95-0.12-18.45
	c-0.21-0.36-0.43-0.7-0.66-1.04c-0.12-0.17-0.23-0.35-0.35-0.52c-0.22-0.3-0.45-0.58-0.69-0.86c-0.15-0.18-0.3-0.38-0.46-0.55
	c-0.23-0.26-0.49-0.51-0.73-0.75c-0.18-0.17-0.35-0.36-0.54-0.52c-0.26-0.24-0.54-0.46-0.83-0.69c-0.19-0.15-0.37-0.3-0.55-0.44
	c-0.31-0.23-0.63-0.44-0.95-0.65c-0.18-0.12-0.35-0.24-0.53-0.34c-0.37-0.22-0.74-0.42-1.12-0.61c-0.14-0.07-0.29-0.15-0.43-0.22
	c-0.43-0.2-0.87-0.39-1.3-0.56c-0.1-0.04-0.2-0.08-0.3-0.12c-0.46-0.17-0.93-0.31-1.4-0.44c-0.1-0.03-0.19-0.06-0.29-0.08
	c-0.45-0.12-0.91-0.22-1.37-0.3c-0.14-0.03-0.28-0.05-0.42-0.07c-0.4-0.06-0.81-0.11-1.22-0.15c-0.22-0.02-0.44-0.04-0.66-0.05
	C395.93,0.01,395.61,0,395.3,0c-0.32,0-0.64,0.01-0.96,0.02c-0.22,0.01-0.44,0.03-0.66,0.05c-0.41,0.04-0.81,0.08-1.22,0.15
	c-0.14,0.02-0.28,0.05-0.41,0.07c-0.46,0.08-0.92,0.18-1.38,0.3c-0.1,0.02-0.19,0.05-0.29,0.08c-0.47,0.13-0.93,0.28-1.4,0.44
	c-0.1,0.04-0.2,0.08-0.3,0.12c-0.44,0.17-0.87,0.35-1.3,0.56c-0.14,0.07-0.28,0.15-0.42,0.22c-0.38,0.19-0.75,0.39-1.12,0.61
	c-0.18,0.11-0.36,0.23-0.53,0.34c-0.32,0.21-0.65,0.42-0.95,0.65c-0.19,0.14-0.37,0.3-0.56,0.45c-0.28,0.22-0.56,0.45-0.83,0.69
	c-0.18,0.17-0.36,0.35-0.53,0.52c-0.25,0.25-0.5,0.49-0.74,0.75c-0.16,0.18-0.31,0.37-0.46,0.55c-0.24,0.28-0.47,0.57-0.69,0.86
	c-0.11,0.15-0.21,0.31-0.31,0.46c-0.02,0.02-0.03,0.04-0.05,0.06c-0.23,0.34-0.46,0.68-0.66,1.04c-0.03,0.05-0.06,0.09-0.09,0.14
	l-47.78,83.83C326.68,101.71,329.65,112.94,338.37,117.98z"/>
<path class="st2" d="M379.42,27.45l0.83,1.45l15.05,26.4l15.88-27.85c3.37-5.91,3.1-12.95-0.12-18.45c-0.21-0.36-0.43-0.7-0.66-1.04
	c-0.12-0.17-0.23-0.35-0.35-0.52c-0.22-0.3-0.45-0.58-0.69-0.86c-0.15-0.18-0.3-0.38-0.46-0.55c-0.23-0.26-0.49-0.51-0.73-0.75
	c-0.18-0.17-0.35-0.36-0.54-0.52c-0.26-0.24-0.54-0.46-0.83-0.69c-0.19-0.15-0.37-0.3-0.55-0.44c-0.31-0.23-0.63-0.44-0.95-0.65
	c-0.18-0.12-0.35-0.24-0.53-0.34c-0.37-0.22-0.74-0.42-1.12-0.61c-0.14-0.07-0.29-0.15-0.43-0.22c-0.43-0.2-0.87-0.39-1.3-0.56
	c-0.1-0.04-0.2-0.08-0.3-0.12c-0.46-0.17-0.93-0.31-1.4-0.44c-0.1-0.03-0.19-0.06-0.29-0.08c-0.45-0.12-0.91-0.22-1.37-0.3
	c-0.14-0.03-0.28-0.05-0.42-0.07c-0.4-0.06-0.81-0.11-1.22-0.15c-0.22-0.02-0.44-0.04-0.66-0.05C395.93,0.01,395.61,0,395.3,0
	c-0.32,0-0.64,0.01-0.96,0.02c-0.22,0.01-0.44,0.03-0.66,0.05c-0.41,0.04-0.81,0.08-1.22,0.15c-0.14,0.02-0.28,0.05-0.41,0.07
	c-0.46,0.08-0.92,0.18-1.38,0.3c-0.1,0.02-0.19,0.05-0.29,0.08c-0.47,0.13-0.93,0.28-1.4,0.44c-0.1,0.04-0.2,0.08-0.3,0.12
	c-0.44,0.17-0.87,0.35-1.3,0.56c-0.14,0.07-0.28,0.15-0.42,0.22c-0.38,0.19-0.75,0.39-1.12,0.61c-0.18,0.11-0.36,0.23-0.53,0.34
	c-0.32,0.21-0.65,0.42-0.95,0.65c-0.19,0.14-0.37,0.3-0.56,0.45c-0.28,0.22-0.56,0.45-0.83,0.69c-0.18,0.17-0.36,0.35-0.53,0.52
	c-0.25,0.25-0.5,0.49-0.74,0.75c-0.16,0.18-0.31,0.37-0.46,0.55c-0.24,0.28-0.47,0.57-0.69,0.86c-0.11,0.15-0.21,0.31-0.31,0.46
	c-0.02,0.02-0.03,0.04-0.05,0.06c-0.23,0.34-0.46,0.68-0.66,1.04C376.32,14.5,376.05,21.54,379.42,27.45z"/>
<g>
	<path class="st3" d="M526.33,66.55h-0.03l-0.11-48.07c0-0.06-0.01-0.11-0.01-0.16c0-0.41-0.03-0.82-0.07-1.23
		c-0.02-0.21-0.03-0.42-0.05-0.63c-0.04-0.37-0.11-0.73-0.17-1.09c-0.04-0.23-0.07-0.47-0.13-0.71c-0.07-0.34-0.17-0.68-0.27-1.02
		c-0.07-0.24-0.13-0.48-0.21-0.72c-0.11-0.34-0.25-0.67-0.38-1.01c-0.09-0.22-0.17-0.44-0.26-0.66c-0.15-0.35-0.33-0.69-0.51-1.03
		c-0.1-0.19-0.19-0.38-0.29-0.56c-0.21-0.37-0.44-0.73-0.67-1.08c-0.09-0.14-0.17-0.27-0.26-0.4c-0.27-0.39-0.56-0.76-0.86-1.12
		c-0.07-0.08-0.14-0.17-0.21-0.25c-0.32-0.38-0.65-0.73-1-1.08c-0.07-0.07-0.14-0.14-0.21-0.21c-0.34-0.33-0.69-0.64-1.05-0.93
		c-0.11-0.09-0.22-0.18-0.33-0.27c-0.32-0.25-0.65-0.5-0.99-0.73c-0.18-0.12-0.36-0.25-0.55-0.37c-0.27-0.17-0.54-0.33-0.82-0.49
		c-0.28-0.16-0.56-0.31-0.84-0.45c-0.2-0.1-0.4-0.19-0.6-0.28c-0.37-0.17-0.75-0.33-1.13-0.47c-0.13-0.05-0.26-0.1-0.4-0.14
		c-0.44-0.16-0.89-0.3-1.34-0.42c-0.1-0.03-0.19-0.05-0.29-0.07c-0.47-0.12-0.95-0.22-1.44-0.3c-0.11-0.02-0.21-0.03-0.32-0.05
		c-0.46-0.07-0.93-0.12-1.41-0.16c-0.16-0.01-0.32-0.01-0.48-0.02c-0.42-0.02-0.85-0.03-1.28-0.02c-0.21,0-0.42,0.02-0.63,0.04
		c-0.39,0.02-0.77,0.05-1.14,0.09c-0.24,0.03-0.47,0.08-0.7,0.11c-0.36,0.06-0.71,0.11-1.06,0.19c-0.24,0.06-0.48,0.13-0.72,0.19
		c-0.34,0.09-0.68,0.18-1.01,0.29c-0.23,0.08-0.45,0.17-0.67,0.25c-0.35,0.13-0.69,0.26-1.02,0.41c-0.17,0.08-0.33,0.16-0.5,0.25
		c-0.03,0.01-0.05,0.02-0.07,0.03c-0.37,0.18-0.73,0.37-1.09,0.57c-5.51,3.2-9.22,9.19-9.2,15.99l0,1.67l0.07,30.39l0.04,16.05h0.03
		l0.08,35.38c0.02,10.07,8.38,18.25,18.46,18.17c10.07-0.08,18.19-8.38,18.17-18.46L526.33,66.55z"/>
	<path class="st4" d="M526.11,17.08c-0.02-0.21-0.03-0.42-0.05-0.63c-0.04-0.37-0.11-0.73-0.17-1.09c-0.04-0.23-0.07-0.47-0.13-0.71
		c-0.07-0.34-0.17-0.68-0.27-1.02c-0.07-0.24-0.13-0.48-0.21-0.72c-0.11-0.34-0.25-0.67-0.38-1.01c-0.09-0.22-0.17-0.44-0.26-0.66
		c-0.15-0.35-0.33-0.69-0.51-1.03c-0.1-0.19-0.19-0.38-0.29-0.56c-0.21-0.37-0.44-0.73-0.67-1.08c-0.09-0.14-0.17-0.27-0.26-0.4
		c-0.27-0.39-0.56-0.76-0.86-1.12c-0.07-0.08-0.14-0.17-0.21-0.25c-0.32-0.38-0.65-0.73-1-1.08c-0.07-0.07-0.14-0.14-0.21-0.21
		c-0.34-0.33-0.69-0.64-1.05-0.93c-0.11-0.09-0.22-0.18-0.33-0.27c-0.32-0.25-0.65-0.5-0.99-0.73c-0.18-0.12-0.36-0.25-0.55-0.37
		c-0.27-0.17-0.54-0.33-0.82-0.49c-0.28-0.16-0.56-0.31-0.84-0.45c-0.2-0.1-0.4-0.19-0.6-0.28c-0.37-0.17-0.75-0.33-1.13-0.47
		c-0.13-0.05-0.26-0.1-0.4-0.14c-0.44-0.16-0.89-0.3-1.34-0.42c-0.1-0.03-0.19-0.05-0.29-0.07c-0.47-0.12-0.95-0.22-1.44-0.3
		c-0.11-0.02-0.21-0.03-0.32-0.05c-0.46-0.07-0.93-0.12-1.41-0.16c-0.16-0.01-0.32-0.01-0.48-0.02c-0.42-0.02-0.85-0.03-1.28-0.02
		c-0.21,0-0.42,0.02-0.63,0.04c-0.39,0.02-0.77,0.05-1.14,0.09c-0.24,0.03-0.47,0.08-0.7,0.11c-0.36,0.06-0.71,0.11-1.06,0.19
		c-0.24,0.06-0.48,0.13-0.72,0.19c-0.34,0.09-0.68,0.18-1.01,0.29c-0.23,0.08-0.45,0.17-0.67,0.25c-0.35,0.13-0.69,0.26-1.02,0.41
		c-0.17,0.08-0.33,0.16-0.5,0.25c-0.03,0.01-0.05,0.02-0.07,0.03c-0.37,0.18-0.73,0.37-1.09,0.57c-0.05,0.03-0.1,0.05-0.15,0.08
		l-5.26,3.13l0-0.05l-6.95,4.14l0,0.07l-15.92,9.48c-8.66,5.15-11.61,16.38-6.51,25.07c5.1,8.68,16.41,11.66,25.07,6.51l0.35-0.21
		l0-0.02l0.24-0.14l27.55-16.4c5.85-3.48,9.08-9.74,9-16.11C526.17,17.9,526.15,17.49,526.11,17.08z"/>
	<path class="st5" d="M489.56,18.76l0,1.67l0.07,30.39l27.55-16.4c5.85-3.48,9.08-9.74,9-16.11c0-0.41-0.03-0.82-0.07-1.23
		c-0.02-0.21-0.03-0.42-0.05-0.63c-0.04-0.37-0.11-0.73-0.17-1.09c-0.04-0.23-0.07-0.47-0.13-0.71c-0.07-0.34-0.17-0.68-0.27-1.02
		c-0.07-0.24-0.13-0.48-0.21-0.72c-0.11-0.34-0.25-0.67-0.38-1.01c-0.09-0.22-0.17-0.44-0.26-0.66c-0.15-0.35-0.33-0.69-0.51-1.03
		c-0.1-0.19-0.19-0.38-0.29-0.56c-0.21-0.37-0.44-0.73-0.67-1.08c-0.09-0.14-0.17-0.27-0.26-0.4c-0.27-0.39-0.56-0.76-0.86-1.12
		c-0.07-0.08-0.14-0.17-0.21-0.25c-0.32-0.38-0.65-0.73-1-1.08c-0.07-0.07-0.14-0.14-0.21-0.21c-0.34-0.33-0.69-0.64-1.05-0.93
		c-0.11-0.09-0.22-0.18-0.33-0.27c-0.32-0.25-0.65-0.5-0.99-0.73c-0.18-0.12-0.36-0.25-0.55-0.37c-0.27-0.17-0.54-0.33-0.82-0.49
		c-0.28-0.16-0.56-0.31-0.84-0.45c-0.2-0.1-0.4-0.19-0.6-0.28c-0.37-0.17-0.75-0.33-1.13-0.47c-0.13-0.05-0.26-0.1-0.4-0.14
		c-0.44-0.16-0.89-0.3-1.34-0.42c-0.1-0.03-0.19-0.05-0.29-0.07c-0.47-0.12-0.95-0.22-1.44-0.3c-0.11-0.02-0.21-0.03-0.32-0.05
		c-0.46-0.07-0.93-0.12-1.41-0.16c-0.16-0.01-0.32-0.01-0.48-0.02c-0.42-0.02-0.85-0.03-1.28-0.02c-0.21,0-0.42,0.02-0.63,0.04
		c-0.39,0.02-0.77,0.05-1.14,0.09c-0.24,0.03-0.47,0.08-0.7,0.11c-0.36,0.06-0.71,0.11-1.06,0.19c-0.24,0.06-0.48,0.13-0.72,0.19
		c-0.34,0.09-0.68,0.18-1.01,0.29c-0.23,0.08-0.45,0.17-0.67,0.25c-0.35,0.13-0.69,0.26-1.02,0.41c-0.17,0.08-0.33,0.16-0.5,0.25
		c-0.03,0.01-0.05,0.02-0.07,0.03c-0.37,0.18-0.73,0.37-1.09,0.57C493.25,5.97,489.55,11.96,489.56,18.76z"/>
</g>
<path class="st1" d="M171.26,0.73c-10.07,0-18.31,8.24-18.31,18.31v30.23v0.73v51v1.11c0,9.44,7.24,17.27,16.44,18.22
	c0.61,0.06,1.23,0.09,1.85,0.09c2.73,0,5.32-0.61,7.65-1.69c4.07-1.88,7.35-5.2,9.15-9.31c0.98-2.24,1.54-4.71,1.54-7.31v-52.1
	v-0.73V19.05C189.57,8.97,181.33,0.73,171.26,0.73z"/>
<path class="st2" d="M171.23,83.75c-9.76,0-17.72,7.64-18.29,17.26v1.11c0,9.44,7.24,17.27,16.44,18.22
	c0.61,0.06,1.23,0.09,1.85,0.09c2.73,0,5.32-0.61,7.65-1.69c4.07-1.88,7.35-5.2,9.15-9.31c0.98-2.25,1.54-4.73,1.54-7.33
	C189.57,91.96,181.36,83.75,171.23,83.75z"/>
<path class="st6" d="M351.57,120.39c-0.04,0.01-0.08,0.03-0.12,0.04c0.03-0.01,0.05-0.01,0.07-0.02
	C351.54,120.4,351.56,120.39,351.57,120.39z"/>
<path class="st6" d="M355.75,120.42c-0.11-0.02-0.23-0.03-0.34-0.04c0.07,0.01,0.14,0.02,0.22,0.03
	C355.67,120.41,355.71,120.42,355.75,120.42z"/>
<path class="st6" d="M357.95,120.42c-0.03-0.01-0.06-0.02-0.09-0.03c0.02,0.01,0.03,0.02,0.05,0.02
	C357.93,120.42,357.94,120.42,357.95,120.42z"/>
<path class="st6" d="M359.32,120.36c0.04,0.02,0.08,0.04,0.12,0.06c-0.05-0.03-0.1-0.07-0.16-0.1c-0.15-0.09-0.3-0.15-0.45-0.23
	c0.07,0.03,0.13,0.07,0.2,0.11C359.12,120.25,359.22,120.3,359.32,120.36z"/>
<path class="st6" d="M358.57,120.42c-0.17-0.08-0.33-0.15-0.5-0.22c0.05,0.02,0.09,0.05,0.14,0.07
	C358.33,120.32,358.46,120.37,358.57,120.42z"/>
<path class="st6" d="M356.74,120.42c-0.25-0.06-0.5-0.12-0.75-0.16C356.24,120.3,356.49,120.36,356.74,120.42
	C356.74,120.42,356.74,120.42,356.74,120.42z"/>
<path class="st7" d="M350.3,120.2c-0.17,0.07-0.34,0.14-0.51,0.23c0.12-0.06,0.24-0.1,0.36-0.16
	C350.2,120.24,350.25,120.22,350.3,120.2z"/>
<path class="st7" d="M350.5,120.38c-0.03,0.01-0.06,0.02-0.09,0.04c0.01,0,0.03-0.01,0.04-0.01
	C350.47,120.4,350.49,120.39,350.5,120.38z"/>
<path class="st7" d="M349.35,120.19c0.07-0.04,0.13-0.08,0.2-0.11c-0.15,0.08-0.31,0.15-0.46,0.24c-0.06,0.03-0.11,0.07-0.16,0.1
	c0.04-0.02,0.08-0.04,0.12-0.07C349.14,120.3,349.24,120.25,349.35,120.19z"/>
<path class="st7" d="M356.92,120.42c-0.04-0.01-0.08-0.03-0.13-0.04c0.02,0,0.03,0.01,0.05,0.02
	C356.87,120.41,356.89,120.42,356.92,120.42z"/>
<path class="st6" d="M357.92,120.42c-0.02-0.01-0.03-0.02-0.05-0.02c-0.06-0.02-0.12-0.05-0.18-0.07c-0.25-0.09-0.51-0.17-0.77-0.24
	c-0.03-0.01-0.05-0.01-0.08-0.02C357.21,120.16,357.57,120.28,357.92,120.42z"/>
<path class="st6" d="M356.73,120.42c-0.24-0.06-0.49-0.12-0.74-0.16c-0.08-0.01-0.16-0.03-0.24-0.04c-0.04-0.01-0.08-0.01-0.12-0.01
	C356,120.26,356.37,120.33,356.73,120.42z"/>
<path class="st6" d="M359.03,120.42c-0.07-0.04-0.13-0.07-0.2-0.11c-0.08-0.04-0.17-0.09-0.25-0.13c-0.12-0.06-0.24-0.1-0.36-0.16
	C358.49,120.15,358.76,120.28,359.03,120.42z"/>
<path class="st6" d="M352.73,120.21c-0.04,0.01-0.08,0.01-0.12,0.01c-0.08,0.01-0.16,0.03-0.24,0.04c-0.25,0.04-0.49,0.1-0.74,0.16
	C352,120.33,352.37,120.26,352.73,120.21z"/>
<path class="st6" d="M352.73,120.41c-0.04,0.01-0.08,0.01-0.12,0.01C352.65,120.42,352.69,120.41,352.73,120.41L352.73,120.41z"/>
<path class="st6" d="M352.38,120.26c-0.25,0.04-0.49,0.1-0.74,0.16c0,0,0,0,0,0C351.89,120.36,352.13,120.31,352.38,120.26z"/>
<path class="st6" d="M350.15,120.03c-0.12,0.05-0.24,0.1-0.36,0.16c-0.08,0.04-0.16,0.08-0.24,0.12c-0.07,0.04-0.13,0.07-0.2,0.11
	C349.61,120.28,349.88,120.15,350.15,120.03z"/>
<path class="st6" d="M351.53,120.06c-0.03,0.01-0.05,0.01-0.07,0.02c-0.26,0.07-0.52,0.15-0.77,0.25c-0.06,0.02-0.12,0.05-0.17,0.07
	c-0.02,0.01-0.04,0.02-0.05,0.02C350.8,120.28,351.16,120.16,351.53,120.06z"/>
<path class="st8" d="M356.79,120.42c-0.02,0-0.03-0.01-0.05-0.01c0,0,0,0,0,0C356.76,120.42,356.78,120.42,356.79,120.42z"/>
<path class="st8" d="M351.62,120.41c-0.02,0-0.03,0.01-0.05,0.01C351.59,120.42,351.6,120.42,351.62,120.41
	C351.62,120.41,351.62,120.41,351.62,120.41z"/>
<polygon class="st8" points="356.75,120.42 356.74,120.42 356.73,120.42 "/>
<path class="st8" d="M358.21,120.42c-0.05-0.02-0.09-0.05-0.14-0.07c-0.04-0.02-0.08-0.03-0.12-0.05c-0.01,0-0.02-0.01-0.04-0.01
	C358.02,120.34,358.11,120.38,358.21,120.42z"/>
<path class="st8" d="M351.62,120.4c-0.02,0-0.03,0.01-0.04,0.01c-0.02,0-0.03,0.01-0.05,0.02
	C351.56,120.41,351.59,120.4,351.62,120.4z"/>
<path class="st8" d="M350.45,120.3c-0.01,0-0.03,0.01-0.04,0.01c-0.04,0.01-0.08,0.03-0.12,0.04c-0.05,0.02-0.09,0.05-0.14,0.07
	C350.25,120.38,350.35,120.33,350.45,120.3z"/>
<path class="st8" d="M351.64,120.42c0,0-0.01,0-0.01,0c0,0,0,0,0,0C351.62,120.42,351.63,120.42,351.64,120.42z"/>
<path class="st8" d="M351.64,120.42c0,0-0.01,0-0.02,0C351.63,120.42,351.63,120.42,351.64,120.42
	C351.64,120.42,351.64,120.42,351.64,120.42z"/>
<path class="st8" d="M356.84,120.42c-0.02,0-0.03-0.01-0.05-0.02c-0.02,0-0.03-0.01-0.04-0.01
	C356.78,120.4,356.81,120.41,356.84,120.42z"/>
<polygon class="st8" points="351.64,120.42 351.64,120.42 351.64,120.42 "/>
</svg>
