<svg class="svgicon svgicon-section-title" xmlns="http://www.w3.org/2000/svg" width="14" height="16" viewBox="0 0 14 16"><path d="M11.4171 4.11888C11.4495 4.1073 11.473 4.03781 11.4847 4.00596C11.5729 3.80618 11.6375 3.56296 11.6522 3.34581C11.6522 3.32844 11.6963 3.33133 11.7051 3.33712C11.7257 3.34581 11.9431 3.62666 11.9696 3.67009C12.3986 4.30129 12.5337 5.14095 12.4456 5.89086C12.284 7.22853 11.185 8.35483 10.1007 9.07289L9.67173 9.33926C9.79808 9.32189 9.93325 9.27846 10.0537 9.24082C10.3446 9.14817 10.4915 9.00919 10.7971 9.19739C11.2732 9.48693 11.7169 10.6567 11.8608 11.1836C11.8843 11.2763 11.9167 11.366 11.9108 11.4645C11.8373 11.4239 11.7551 11.4066 11.6757 11.3892C11.3819 11.3255 11.0175 11.2705 10.7178 11.2502C10.6943 11.2502 10.5973 11.2357 10.5973 11.2734C11.1145 11.421 11.6522 11.644 12.1194 11.9075C12.9334 12.3649 13.521 13.3928 13.8149 14.2441C14.1087 15.0953 13.95 14.6813 14 14.9013C13.7414 14.7855 13.4975 14.6349 13.239 14.5162C9.61884 12.8253 5.62848 13.3899 2.31102 15.4456C2.08183 15.5875 1.78798 15.8336 1.5676 15.9436C1.34722 16.0537 1.52353 15.9697 1.49121 15.9639C1.70865 15.3211 2.04656 14.7507 2.46088 14.2151C2.69008 13.9169 3.01624 13.6244 3.11614 13.248C3.15728 13.1004 3.1279 12.7993 3.23368 12.7066C3.37179 12.585 3.7861 12.6458 3.9771 12.6342C4.5589 12.5995 5.18772 12.4837 5.62554 12.0957C5.65787 12.0667 5.6755 12.0175 5.71076 11.9885L5.32876 12.142C4.87625 12.2781 4.39435 12.3418 3.92421 12.2549C3.95065 12.1507 4.0388 12.0667 4.06819 11.9625C4.15046 11.6701 3.98591 11.3255 4.07994 11.0823C4.17397 10.8391 4.24155 10.9809 4.36203 11.0244C4.91739 11.2184 5.70194 11.1807 6.26905 11.0331C6.45123 10.9867 6.63048 10.9288 6.78621 10.8217L5.93701 10.9607C5.55502 10.9636 5.12601 11.0244 4.76459 10.8854C4.40317 10.7464 4.54421 10.6248 4.48544 10.3063C4.54421 10.2745 4.61179 10.2542 4.66762 10.2195C4.75871 10.1644 5.00554 9.94729 5.05843 9.92703C5.24355 9.85464 5.72839 9.817 5.96934 9.76199C6.64811 9.60853 7.30337 9.35664 7.88518 8.97734C7.87048 8.95128 7.82053 8.97155 7.79702 8.97734C7.37977 9.04972 6.9537 9.20897 6.52763 9.16844C7.42679 8.3751 8.18489 7.35303 8.53456 6.20356C8.82547 5.25098 8.83428 4.22311 8.60802 3.25605L8.50812 2.94335C8.70793 4.56477 8.3612 6.18329 7.4738 7.5586C7.09768 8.14347 6.54233 8.77177 5.99872 9.20029C5.95758 9.23213 5.75777 9.39428 5.73133 9.37111C5.47862 8.14636 4.61767 7.14745 3.78316 6.25278C2.68714 5.08015 1.215 3.86988 0.612622 2.35559C0.5803 2.27162 0.427503 1.87206 0.465702 1.81994C1.57642 1.41169 2.69008 1.01792 3.77141 0.537284C4.99672 0.50833 5.8518 1.56804 6.3719 2.5351L6.65692 3.09391C6.51882 2.40191 6.23085 1.68675 5.82242 1.10478C5.41398 0.522807 5.30819 0.548866 4.97909 0.239059C4.64999 -0.0707474 4.91445 0.172465 5.00554 0.140616C5.42279 0.00163729 6.35133 -0.0215258 6.79503 0.0161143C8.15845 0.13193 9.98908 1.15111 10.8765 2.16739C11.3319 2.69145 11.4495 3.45873 11.4142 4.13046L11.4171 4.11888Z"/><path d="M2.21112 5.02224C2.63425 5.4855 3.08676 5.92271 3.50401 6.38886C4.61179 7.6194 6.18384 9.42323 3.77141 10.3671C3.36003 10.5293 2.38448 10.7783 2.08183 10.3555C1.82618 9.99652 2.00249 9.35084 1.75566 9.0005C1.50884 8.65016 1.50884 8.85863 1.45007 8.6878C1.3913 8.51697 1.45301 8.47933 1.50884 8.34325C0.982861 8.18979 1.40893 7.65125 1.02988 7.40514C0.750728 7.22563 0.0425717 7.06638 0.00143404 6.6784C-0.0308884 6.3686 0.492148 5.82716 0.665514 5.5492C0.838879 5.27124 0.994615 4.94117 0.991677 4.89484C0.988738 4.84852 0.741912 4.85141 0.686082 4.83694C0.59793 4.81377 0.336412 4.67769 0.304089 4.59951C0.271767 4.52134 0.45101 4.57056 0.483332 4.56477C0.568546 4.55319 0.968169 4.45474 0.988738 4.38236L0.882956 3.29369L1.07983 3.64114C1.40599 4.13915 1.80268 4.58504 2.20524 5.02514L2.21112 5.02224Z"/></svg>