<svg class="svgicon svgicon-nav" xmlns="http://www.w3.org/2000/svg" width="12" height="10" viewBox="0 0 12 10"><path fill-rule="evenodd" clip-rule="evenodd" d="M12 0.833333C12 0.61232 11.9097 0.400358 11.7489 0.244078C11.5882 0.0877975 11.3702 0 11.1429 0H0.857143C0.629814 0 0.411796 0.0877975 0.251051 0.244078C0.0903052 0.400358 0 0.61232 0 0.833333C0 1.05435 0.0903052 1.26631 0.251051 1.42259C0.411796 1.57887 0.629814 1.66667 0.857143 1.66667H11.1429C11.3702 1.66667 11.5882 1.57887 11.7489 1.42259C11.9097 1.26631 12 1.05435 12 0.833333ZM12 5C12 4.77899 11.9097 4.56702 11.7489 4.41074C11.5882 4.25446 11.3702 4.16667 11.1429 4.16667H6C5.77267 4.16667 5.55465 4.25446 5.39391 4.41074C5.23316 4.56702 5.14286 4.77899 5.14286 5C5.14286 5.22101 5.23316 5.43298 5.39391 5.58926C5.55465 5.74554 5.77267 5.83333 6 5.83333H11.1429C11.3702 5.83333 11.5882 5.74554 11.7489 5.58926C11.9097 5.43298 12 5.22101 12 5ZM12 9.16667C12 8.94565 11.9097 8.73369 11.7489 8.57741C11.5882 8.42113 11.3702 8.33333 11.1429 8.33333H0.857143C0.629814 8.33333 0.411796 8.42113 0.251051 8.57741C0.0903052 8.73369 0 8.94565 0 9.16667C0 9.38768 0.0903052 9.59964 0.251051 9.75592C0.411796 9.9122 0.629814 10 0.857143 10H11.1429C11.3702 10 11.5882 9.9122 11.7489 9.75592C11.9097 9.59964 12 9.38768 12 9.16667Z"/></svg>