<svg class="svgicon svgicon-play" xmlns="http://www.w3.org/2000/svg" width="34" height="34" viewBox="0 0 34 34"><path d="M17 0C21.5087 0 25.8327 1.79107 29.0208 4.97918C32.2089 8.1673 34 12.4913 34 17C34 21.5087 32.2089 25.8327 29.0208 29.0208C25.8327 32.2089 21.5087 34 17 34C12.4913 34 8.1673 32.2089 4.97918 29.0208C1.79107 25.8327 0 21.5087 0 17C0 12.4913 1.79107 8.1673 4.97918 4.97918C8.1673 1.79107 12.4913 0 17 0ZM3.1875 17C3.1875 20.6633 4.64274 24.1766 7.23309 26.7669C9.82343 29.3573 13.3367 30.8125 17 30.8125C20.6633 30.8125 24.1766 29.3573 26.7669 26.7669C29.3573 24.1766 30.8125 20.6633 30.8125 17C30.8125 13.3367 29.3573 9.82343 26.7669 7.23309C24.1766 4.64274 20.6633 3.1875 17 3.1875C13.3367 3.1875 9.82343 4.64274 7.23309 7.23309C4.64274 9.82343 3.1875 13.3367 3.1875 17ZM13.5554 11.1074L22.6164 16.5452C22.6947 16.5925 22.7594 16.6593 22.8044 16.7389C22.8494 16.8186 22.873 16.9085 22.873 17C22.873 17.0915 22.8494 17.1814 22.8044 17.2611C22.7594 17.3407 22.6947 17.4075 22.6164 17.4547L13.5554 22.8926C13.4748 22.9412 13.3828 22.9674 13.2887 22.9688C13.1947 22.9701 13.102 22.9464 13.02 22.9002C12.9381 22.8539 12.87 22.7867 12.8225 22.7055C12.7751 22.6243 12.7501 22.5319 12.75 22.4379V11.5642C12.7497 11.47 12.7744 11.3774 12.8217 11.2959C12.869 11.2143 12.9371 11.1469 13.0191 11.1004C13.1011 11.0539 13.194 11.03 13.2882 11.0312C13.3824 11.0325 13.4746 11.0587 13.5554 11.1074Z"/></svg>