<svg class="svgicon svgicon-related-article" xmlns="http://www.w3.org/2000/svg" width="322" height="26" viewBox="0 0 322 26"><style>.color-1{fill:#c0c0c3}.color-2{fill:#35343e}</style><path d="M46.4 17.5C48.1 16.8 49.4 15.7 50.3 14.3C51.2 12.9 51.7 11.2 51.7 9.3C51.7 7.4 51.2 5.7 50.3 4.3C49.4 2.9 48.1 1.8 46.4 1.1C44.7 0.3 42.7 0 40.4 0H29.2V25.8H35.2V18.6H40.4C40.4 18.6 40.6 18.6 40.7 18.6L45.7 25.8H52.1L46.3 17.5H46.4ZM46.2 24.8L41.5 18L41.2 17.6H40.7C40.7 17.6 40.6 17.6 40.5 17.6H34.3V24.8H30.3V1H40.5C42.7 1 44.5 1.4 46.1 2.1C47.6 2.8 48.7 3.7 49.5 4.9C50.3 6.1 50.7 7.6 50.7 9.4C50.7 11.2 50.3 12.6 49.5 13.8C48.7 15 47.6 15.9 46.1 16.6L45 17.1L45.7 18.1L50.4 24.8H46.2Z" class="color-1"/><path d="M46.6 9.4C46.6 7.7 46 6.3 44.9 5.3C43.8 4.4 42.2 3.9 40.1 3.9H34.2V14.9H40.1C42.2 14.9 43.8 14.4 44.9 13.5C46 12.5 46.6 11.1 46.6 9.4ZM40.1 13.9H35.2V4.9H40.1C41.9 4.9 43.3 5.3 44.2 6.1C45.1 6.9 45.6 8 45.6 9.4C45.6 10.8 45.1 11.9 44.2 12.7C43.3 13.5 41.9 13.9 40.1 13.9Z" class="color-1"/><path d="M50.8 4.9H59.1V25.8H65.1V4.9H73.4V0H50.9V4.9H50.8ZM72.3 1V3.9H64V24.8H60V3.9H51.7V1H72.3Z" class="color-1"/><path d="M308 5.5L307.1 3.3L306.2 5.5L302.1 15.4L301.5 16.8H312.7L312.1 15.4L308 5.5ZM303 15.8L307.1 5.9L311.2 15.8H303Z" class="color-1"/><path d="M304.2 0L292.7 25.8H298.8L301.1 20.3H313.1L315.4 25.8H321.7L310.2 0H304.2ZM314 19.9L313.7 19.3H300.4L300.1 19.9L298.1 24.8H294.2L304.8 1H309.4L320 24.8H315.9L313.9 19.9H314Z" class="color-1"/><path d="M236.9 15.7L224.1 0H219.2V25.8H225.1V10.1L238 25.8H242.9V0H237V15.7H236.9ZM237.9 1H241.8V24.8H238.4L225.8 9.5L224 7.3V24.8H220.1V1H223.6L237.9 18.5V1Z" class="color-1"/><path d="M75.2 25.8H81.2V0H75.2V25.8ZM76.2 1H80.2V24.8H76.2V1Z" class="color-1"/><path d="M14.4 3.3L13.5 5.5L9.4 15.4L8.8 16.8H20L19.4 15.4L15.3 5.5L14.4 3.3ZM10.3 15.8L14.4 5.9L18.5 15.8H10.3Z" class="color-1"/><path d="M11.5 0L0 25.8H6.1L8.4 20.3H20.4L22.7 25.8H29L17.4 0H11.5ZM23.3 24.8L21.3 19.9L21 19.3H7.7L7.4 19.9L5.4 24.8H1.5L12.2 1H16.8L27.4 24.8H23.3Z" class="color-1"/><path d="M264.4 15.7L251.6 0H246.7V25.8H252.6V10.1L265.5 25.8H270.4V0H264.5V15.7H264.4ZM265.4 1H269.3V24.8H265.9L253.3 9.5L251.5 7.3V24.8H247.6V1H251.1L265.4 18.5V1Z" class="color-1"/><path d="M193.5 3.3L192.6 5.5L188.5 15.4L187.9 16.8H199.1L198.5 15.4L194.4 5.5L193.5 3.3ZM189.4 15.8L193.5 5.9L197.6 15.8H189.4Z" class="color-1"/><path d="M190.6 0L179.3 25.3V20.9H166.4V0H160.4V25.8H185.2L187.5 20.3H199.5L201.8 25.8H208.1L196.6 0H190.6ZM178.3 24.8H161.4V1H165.4V21.9H178.3V24.8ZM202.4 24.8L200.4 19.9L200.1 19.3H186.8L186.5 19.9L184.5 24.8H180.6L191.2 1H195.8L206.4 24.8H202.3H202.4Z" class="color-1"/><path d="M102.4 0L91 12V0H85.1V25.8H91V19.3L94.5 15.7L102.8 25.8H109.8L98.5 11.5L109.2 0H102.4ZM107.5 24.8H103.1L95.1 15L94.4 14.1L93.6 14.9L90.1 18.5L89.8 18.8V24.7H85.9V1H89.8V14.5L91.5 12.7L102.6 1H106.5L97.4 10.8L96.8 11.4L97.3 12.1L107.3 24.8H107.5Z" class="color-1"/><path d="M209.4 25.8H215.4V0H209.4V25.8ZM210.4 1H214.4V24.8H210.4V1Z" class="color-1"/><path d="M291.6 0L284.7 11.5L277.8 0H271.5L281.5 16.6V25.8H287.5V16.7L297.5 0H291.6ZM286.6 16.2V16.4C286.5 16.4 286.5 16.7 286.5 16.7V24.8H282.5V16.1C282.4 16.1 273.3 1 273.3 1H277.3L283.9 12L284.8 13.4L285.7 12L292.3 1H295.8L286.7 16.1L286.6 16.2Z" class="color-1"/><path d="M138.3 0H132.3V25.8H151.2V20.9H138.3V0ZM150.3 21.9V24.8H133.4V1H137.4V21.9H150.3Z" class="color-1"/><path d="M115.9 15.1H127.9V10.5H115.9V4.9H129.5V0H110V25.8H130V21H116V15L115.9 15.1ZM128.9 22V24.8H110.9V1H128.4V3.8H114.8V11.4H126.8V14H114.8V22H128.9Z" class="color-1"/><path d="M27.9994 15.5C28.9994 15.1 29.6994 14.5 30.1994 13.7C30.6994 12.9 30.9994 12 30.9994 10.9C30.9994 9.8 30.6994 8.8 30.1994 8C29.6994 7.2 28.8994 6.6 27.9994 6.2C26.9994 5.8 25.8994 5.5 24.5994 5.5H18.1994V20.2H21.5994V16.1H24.5994C24.5994 16.1 24.6994 16.1 24.7994 16.1L27.5994 20.2H31.2994L27.9994 15.5ZM26.7994 12.8C26.2994 13.2 25.4994 13.5 24.3994 13.5H21.5994V8.4H24.3994C25.3994 8.4 26.1994 8.6 26.7994 9.1C27.3994 9.6 27.5994 10.2 27.5994 11C27.5994 11.8 27.2994 12.4 26.7994 12.9V12.8Z" class="color-2"/><path d="M31.5994 8.3H36.2994V20.3H39.6994V8.3H44.3994V5.6H31.5994V8.3Z" class="color-2"/><path d="M190.199 5.6H186.799L180.199 20.3H183.699L184.999 17.1H191.799L193.099 20.3H196.699L190.099 5.6H190.199ZM186.099 14.5L188.399 8.9L190.699 14.5H185.999H186.099Z" class="color-2"/><path d="M145.699 14.5L138.299 5.6H135.499V20.3H138.899V11.3L146.199 20.3H148.999V5.6H145.699V14.5Z" class="color-2"/><path d="M49.4994 5.6H46.0994V20.3H49.4994V5.6Z" class="color-2"/><path d="M6.99941 5.6L0.399414 20.3H3.89941L5.19941 17.1H11.9994L13.2994 20.3H16.8994L10.2994 5.6H6.89941H6.99941ZM6.29941 14.5L8.59941 8.9L10.8994 14.5H6.19941H6.29941Z" class="color-2"/><path d="M162.399 14.5L155.099 5.6H152.299V20.3H155.699V11.3L162.999 20.3H165.799V5.6H162.399V14.5Z" class="color-2"/><path d="M117.499 5.6L111.099 20V17.5H103.699V5.6H100.299V20.3H114.399L115.699 17.1H122.499L123.799 20.3H127.399L120.799 5.6H117.399H117.499ZM116.899 14.5L119.199 8.9L121.499 14.5H116.799H116.899Z" class="color-2"/><path d="M66.4994 5.6H62.6994L56.1994 12.4V5.6H52.7994V20.3H56.1994V16.6L58.1994 14.5L62.8994 20.3H66.7994L60.3994 12.1L66.4994 5.6Z" class="color-2"/><path d="M132.199 5.6H128.799V20.3H132.199V5.6Z" class="color-2"/><path d="M178.499 5.6L174.599 12.1L170.699 5.6H167.099L172.699 15V20.3H176.099V15.1L181.899 5.6H178.499Z" class="color-2"/><path d="M85.4994 5.6H82.0994V20.3H92.8994V17.5H85.4994V5.6Z" class="color-2"/><path d="M71.5994 14.1H78.3994V11.5H71.5994V8.3H79.2994V5.6H68.1994V20.3H79.5994V17.5H71.5994V14.1Z" class="color-2"/></svg>