<svg class="svgicon svgicon-share-other" xmlns="http://www.w3.org/2000/svg" width="24" height="24" viewBox="0 0 24 24"><path d="M16.1624 2.94055C17.7631 1.33319 20.105 1.2997 21.4009 2.60122C22.7002 3.90496 22.6656 6.26241 21.0627 7.86977L18.3581 10.5855C18.2058 10.7436 18.1217 10.9552 18.1239 11.1747C18.1261 11.3942 18.2144 11.6041 18.3699 11.7591C18.5253 11.9141 18.7354 12.0018 18.9549 12.0034C19.1745 12.005 19.3858 11.9203 19.5435 11.7676L22.2492 9.05184C24.3824 6.90982 24.6503 3.49084 22.5875 1.41914C20.5224 -0.653678 17.1101 -0.383553 14.9748 1.75847L9.5655 7.19111C7.43238 9.33313 7.16449 12.7521 9.22728 14.8227C9.30432 14.9028 9.39655 14.9668 9.49858 15.0109C9.60061 15.055 9.7104 15.0783 9.82155 15.0795C9.93269 15.0808 10.043 15.0598 10.1459 15.018C10.2489 14.9761 10.3425 14.9142 10.4213 14.8358C10.5001 14.7574 10.5625 14.6641 10.6048 14.5613C10.6471 14.4585 10.6686 14.3483 10.6679 14.2372C10.6672 14.126 10.6444 14.0162 10.6007 13.9139C10.5571 13.8117 10.4936 13.7192 10.4138 13.6417C9.11454 12.338 9.15026 9.98054 10.7521 8.37318L16.1624 2.94055Z"/><path d="M14.7738 9.17574C14.6169 9.0184 14.4039 8.92983 14.1817 8.92951C13.9595 8.9292 13.7463 9.01717 13.589 9.17407C13.4316 9.33097 13.343 9.54395 13.3427 9.76616C13.3424 9.98836 13.4304 10.2016 13.5873 10.3589C14.8866 11.6627 14.852 14.019 13.2491 15.6275L7.83869 21.059C6.2369 22.6664 3.89504 22.6998 2.5991 21.3983C1.29981 20.0946 1.33553 17.7371 2.93732 16.1298L5.64306 13.414C5.72068 13.3361 5.78219 13.2437 5.82408 13.142C5.86598 13.0403 5.88743 12.9314 5.88723 12.8214C5.88702 12.7114 5.86515 12.6026 5.82288 12.5011C5.7806 12.3995 5.71874 12.3073 5.64083 12.2297C5.56292 12.1521 5.47048 12.0906 5.3688 12.0487C5.26712 12.0068 5.15818 11.9853 5.04821 11.9856C4.93823 11.9858 4.82938 12.0076 4.72785 12.0499C4.62633 12.0922 4.53413 12.154 4.45651 12.232L1.75076 14.9477C-0.382355 17.0908 -0.650251 20.5087 1.41255 22.5804C3.47757 24.6543 6.88989 24.3831 9.02524 22.2411L14.4356 16.8084C16.5687 14.6675 16.8366 11.2463 14.7738 9.17574Z"/></svg>