<svg class="svgicon svgicon-github" xmlns="http://www.w3.org/2000/svg" width="55" height="55" viewBox="0 0 55 55"><path d="M27.5 0C20.2065 0 13.2118 2.89731 8.05456 8.05456C2.89731 13.2118 0 20.2065 0 27.5C0 34.7935 2.89731 41.7882 8.05456 46.9454C13.2118 52.1027 20.2065 55 27.5 55C34.7935 55 41.7882 52.1027 46.9454 46.9454C52.1027 41.7882 55 34.7935 55 27.5C55 20.2065 52.1027 13.2118 46.9454 8.05456C41.7882 2.89731 34.7935 0 27.5 0ZM34.7485 49.9194H34.5354C34.3752 49.9302 34.2144 49.9073 34.0636 49.852C33.9128 49.7968 33.7753 49.7104 33.66 49.5985C33.5511 49.4859 33.4664 49.3522 33.4112 49.2055C33.3561 49.0589 33.3315 48.9025 33.3392 48.746V45.524C33.3544 44.453 33.3621 43.3713 33.3621 42.279C33.3581 41.4813 33.2416 40.6882 33.016 39.9231C32.8024 39.1497 32.3713 38.4537 31.774 37.9179C33.3713 37.7641 34.9415 37.4012 36.4444 36.8385C37.7122 36.3565 38.859 35.6024 39.804 34.6294C40.7367 33.6508 41.431 32.4683 41.8321 31.1781C42.3188 29.5978 42.5508 27.9501 42.5196 26.2969C42.5305 25.1423 42.3285 23.9957 41.9238 22.9144C41.514 21.8242 40.8951 20.8246 40.1019 19.9719C40.2734 19.542 40.3978 19.0948 40.4731 18.6381C40.5495 18.1798 40.5877 17.7184 40.5877 17.254C40.5877 16.6551 40.519 16.0646 40.3815 15.4825C40.2593 14.8871 40.0899 14.3025 39.875 13.734C39.7939 13.7027 39.7076 13.6872 39.6206 13.6881H39.3685C38.8399 13.6942 38.3251 13.779 37.824 13.9425C37.2728 14.1005 36.7343 14.2997 36.2129 14.5383C35.6944 14.7733 35.1888 15.0357 34.6981 15.3244C34.2062 15.6162 33.7685 15.8927 33.385 16.154C29.5294 15.082 25.4545 15.082 21.599 16.154C21.1688 15.8669 20.7317 15.5903 20.2881 15.3244C19.7917 15.0311 19.2774 14.7693 18.7481 14.5406C18.2272 14.2965 17.6868 14.0965 17.1325 13.9425C16.6428 13.7806 16.1311 13.6948 15.6154 13.6881H15.3633C15.2772 13.6875 15.1917 13.703 15.1113 13.734C14.897 14.3045 14.7209 14.8886 14.5842 15.4825C14.4619 16.0661 14.4001 16.6566 14.3985 17.254C14.3985 17.7184 14.4375 18.1798 14.5154 18.6381C14.5933 19.0965 14.7156 19.541 14.8821 19.9719C14.0911 20.8259 13.4745 21.8262 13.0671 22.9167C12.66 23.9975 12.4557 25.1442 12.4644 26.2992C12.4334 27.9436 12.6592 29.5827 13.1335 31.1575C13.5483 32.4477 14.2404 33.6325 15.1594 34.6317C16.1104 35.5988 17.2563 36.3504 18.519 36.8408C20.0154 37.4138 21.5829 37.7804 23.1779 37.9317C22.731 38.3339 22.3775 38.829 22.1421 39.3823C21.9167 39.9286 21.7626 40.5016 21.6838 41.0873C20.843 41.4902 19.9233 41.7015 18.991 41.706C18.1255 41.7388 17.2716 41.4983 16.5504 41.0185C15.8592 40.5066 15.2739 39.8653 14.8271 39.1302C14.6278 38.821 14.404 38.5282 14.1579 38.2548C13.899 37.9667 13.6136 37.7035 13.3054 37.4688C13.0023 37.2408 12.6691 37.0557 12.3154 36.9188C11.9679 36.7664 11.5926 36.6876 11.2131 36.6873C11.1215 36.6904 11.0298 36.698 10.9381 36.7102C10.813 36.711 10.6884 36.7263 10.5669 36.756C10.4601 36.7836 10.3592 36.8302 10.269 36.8935C10.2284 36.9169 10.1946 36.9502 10.1705 36.9903C10.1464 37.0304 10.133 37.076 10.1315 37.1227C10.1411 37.233 10.1748 37.3398 10.2302 37.4357C10.2857 37.5315 10.3615 37.614 10.4523 37.6773C10.6662 37.8469 10.8434 37.9775 10.984 38.0692L11.0527 38.1173C11.3583 38.3541 11.6501 38.6085 11.9281 38.8804C12.1863 39.1065 12.4155 39.3586 12.6156 39.6367C12.8234 39.9086 12.9999 40.1997 13.145 40.5098C13.3131 40.8153 13.4895 41.169 13.6744 41.5708C14.1052 42.6571 14.8706 43.576 15.8606 44.1948C16.8988 44.7517 18.0629 45.029 19.2431 44.9992C19.6434 44.9992 20.0422 44.9763 20.4394 44.9304C20.8335 44.8678 21.2269 44.7983 21.6196 44.7219V48.7163C21.6267 48.8773 21.5998 49.038 21.5405 49.188C21.4813 49.3379 21.3911 49.4737 21.2758 49.5863C21.1605 49.699 21.0228 49.7861 20.8715 49.8419C20.7203 49.8977 20.559 49.921 20.3981 49.9102H20.256C14.912 48.1838 10.3599 44.6061 7.41943 39.8214C4.47899 35.0367 3.34346 29.3594 4.21731 23.8117C5.09116 18.2641 7.91696 13.2108 12.1859 9.56166C16.4548 5.91254 21.8863 3.90745 27.5023 3.90745C33.1183 3.90745 38.5498 5.91254 42.8187 9.56166C47.0876 13.2108 49.9134 18.2641 50.7873 23.8117C51.6611 29.3594 50.5256 35.0367 47.5852 39.8214C44.6447 44.6061 40.0926 48.1838 34.7485 49.9102V49.9194Z"/></svg>