<svg class="svgicon svgicon-logo-icon" xmlns="http://www.w3.org/2000/svg" width="269" height="301" viewBox="0 0 269 301"><path d="M184.4 192.6L58.2 66.3999C56.8 64.6999 55.3 63.2999 53.6 61.8999C51.9 60.5999 50.1 59.3999 48.2 58.3999C46 57.2999 43.8 56.3999 41.4 55.6999C41.3 55.6999 41.2 55.6999 41.1 55.5999C38.6 54.9999 36 54.5999 33.3 54.5999H32.9C30.8 54.5999 28.7 54.7999 26.6 55.2999C24.5 55.6999 22.5 56.3999 20.5 57.1999C18.7 57.9999 16.9 58.8999 15.2 60.0999C13.5 61.1999 11.9 62.4999 10.4 64.0999C3.2 71.2999 0.1 81.0999 1.2 90.4999L1 268.8C1 286.5 15.3 301 33.1 301C50.8 301 65.3 286.7 65.3 268.9V164.5C65.4 164.5 108.1 207.2 108.1 207.2L138.9 238C151.5 250.6 171.8 250.6 184.4 238C197 225.4 197 205.1 184.4 192.5V192.6Z" class="color-1"/><path d="M236.7 0.999902C236.6 0.999902 236.5 0.999902 236.4 0.999902C228.2 0.999902 220 4.1999 213.8 10.3999L138.6 85.5999C132.3 91.8999 129.2 100.1 129.2 108.3C129.2 116.5 132.3 124.8 138.6 131C151.2 143.6 171.5 143.6 184.1 131L204.6 110.5V118.7L204.5 215.1C204.5 232.8 218.8 247.3 236.6 247.3C254.4 247.3 268.8 233 268.8 215.2L269 33.0999C269 15.3999 254.7 0.899902 236.9 0.899902L236.7 0.999902Z" class="color-2"/></svg>