<svg class="svgicon svgicon-pdf" xmlns="http://www.w3.org/2000/svg" width="30" height="36" viewBox="0 0 30 36"><path fill-rule="evenodd" clip-rule="evenodd" d="M8.34946 19.8007C9.05489 19.8007 9.73168 20.0852 10.2305 20.5915C10.7292 21.0978 11.0097 21.7847 11.0097 22.5007C11.0095 23.2166 10.7293 23.9036 10.2305 24.4099C9.7317 24.916 9.05475 25.2006 8.34946 25.2007H7.46221V26.1004C7.46206 26.5974 7.06536 27.0002 6.57573 27.0002C6.08624 27 5.68939 26.5973 5.68924 26.1004V20.7004C5.68924 20.2035 6.08615 19.8008 6.57573 19.8007H8.34946ZM7.46221 23.4004H8.34946C8.5844 23.4004 8.80976 23.3051 8.97597 23.1366C9.14214 22.9679 9.2358 22.7392 9.23594 22.5007C9.23594 22.262 9.14226 22.0328 8.97597 21.864C8.80974 21.6954 8.58447 21.6002 8.34946 21.6002H7.46221V23.4004Z"/><path fill-rule="evenodd" clip-rule="evenodd" d="M14.5564 19.8007C15.4971 19.8007 16.3995 20.1795 17.0647 20.8546C17.7299 21.5297 18.1031 22.4456 18.1031 23.4004C18.103 24.3551 17.7298 25.2712 17.0647 25.9463C16.3995 26.6212 15.4969 27.0002 14.5564 27.0002H13.6699C13.1804 27 12.7828 26.5973 12.7826 26.1004V20.7004C12.7826 20.2035 13.1803 19.8008 13.6699 19.8007H14.5564ZM14.5564 25.2007C15.0266 25.2007 15.4776 25.0103 15.8102 24.673C16.1427 24.3355 16.33 23.8777 16.3301 23.4004C16.3301 22.923 16.1427 22.4655 15.8102 22.1279C15.4776 21.7903 15.0267 21.6002 14.5564 21.6002V25.2007Z"/><path d="M23.4235 19.8007C23.9133 19.8007 24.3108 20.2033 24.3108 20.7004C24.3106 21.1973 23.9132 21.6002 23.4235 21.6002H21.6505V22.9502H23.4235C23.9133 22.9502 24.3108 23.3536 24.3108 23.8507C24.3105 24.3475 23.9131 24.7504 23.4235 24.7504H21.6505V26.1004C21.6504 26.5974 21.2529 27.0002 20.7633 27.0002C20.2739 26.9999 19.877 26.5972 19.8768 26.1004V20.7004C19.8768 20.2035 20.2738 19.801 20.7633 19.8007H23.4235Z"/><path fill-rule="evenodd" clip-rule="evenodd" d="M11.8788 1.23317e-08C12.8686 -5.70332e-05 13.849 0.197802 14.7635 0.582192C15.6779 0.966594 16.5091 1.53027 17.209 2.24056L27.7947 12.9869L28.0524 13.2615C29.3037 14.6652 30.0006 16.4944 30 18.3962V28.3502C30 30.3791 29.206 32.3248 27.7925 33.7594C26.379 35.1941 24.4619 36 22.463 36H7.53703C5.53811 35.9999 3.62098 35.194 2.20753 33.7594C0.794092 32.3248 0 30.3791 0 28.3502V7.6498C6.67698e-05 5.62097 0.794072 3.67516 2.20753 2.24056C3.62098 0.805953 5.53811 6.77804e-05 7.53703 1.23317e-08H11.8788ZM7.53703 2.70002C6.24364 2.70009 5.00314 3.22149 4.08857 4.14975C3.17401 5.078 2.66028 6.33706 2.66022 7.6498V28.3502C2.66022 29.663 3.17403 30.922 4.08857 31.8503C5.00314 32.7785 6.24364 33.2999 7.53703 33.3H22.463C23.7564 33.3 24.9968 32.7785 25.9114 31.8503C26.826 30.9219 27.3398 29.663 27.3398 28.3502V18.3954C27.3399 17.9666 27.2844 17.5437 27.1788 17.1359H17.9935C16.7002 17.1358 15.4596 16.6144 14.545 15.6862C13.6306 14.7579 13.1167 13.4988 13.1167 12.1861V2.86187C12.7905 2.77511 12.4559 2.72297 12.1183 2.70616L11.8788 2.70002H7.53703ZM15.7769 12.1861C15.777 12.7827 16.0105 13.3551 16.4261 13.777C16.8418 14.1988 17.4057 14.4358 17.9935 14.4359H25.461L15.7769 4.60614V12.1861Z"/></svg>