<svg class="svgicon logo-icon" xmlns="http://www.w3.org/2000/svg" width="108" height="56" viewBox="0 0 108 56"><path d="M53.6919 55.5996C83.3515 55.5996 107.4 43.2832 107.4 28.1037C107.4 12.9078 83.3515 0.599609 53.6919 0.599609C24.0404 0.599609 0 12.8995 0 28.1037C0 43.2832 24.0404 55.5996 53.6919 55.5996ZM63.8115 42.0985C62.9065 44.18 61.368 48.6146 57.8302 50.3835C56.7027 50.8983 55.4822 51.1782 54.2431 51.2062H53.7001C43.7943 51.2062 34.5632 49.824 26.8459 47.4792L26.5497 47.364C25.834 47.1254 25.472 46.7963 25.472 46.385C25.472 46.0394 25.6612 45.7679 25.9162 45.5129L26.4016 45.085C28.1952 43.6041 33.5595 39.7125 43.6709 35.8292C47.2169 34.4799 51.6597 32.7933 56.3082 31.806C59.0314 31.2384 69.1429 29.6916 63.8033 42.1067M90.9372 14.3805C91.1264 14.0514 91.3815 13.7716 91.8422 13.747C92.089 13.7223 92.4346 13.7799 92.9529 14.109C99.2551 17.9841 102.999 22.8382 102.999 28.0955C102.999 37.5652 90.8138 45.7185 73.38 49.281C72.261 49.5031 71.5123 49.4949 71.2655 49.2152C71.0845 49.0506 71.0352 48.738 71.2655 48.3595C71.3954 48.1296 71.5499 47.9144 71.7263 47.7178C81.2206 36.5286 88.4525 20.0162 90.5011 15.2608C90.6657 14.9317 90.8138 14.6026 90.9372 14.3805ZM43.745 14.0349C44.65 11.9616 46.1885 7.52706 49.7263 5.7664C50.7958 5.23162 52.1287 4.97657 53.3052 4.94366H53.84C63.7622 4.94366 72.9768 6.30941 80.7105 8.67066C80.7681 8.69535 80.9492 8.75294 81.0067 8.78585C81.7143 9.02444 82.0763 9.35354 82.0763 9.75668C82.0763 10.1105 81.8871 10.3737 81.6402 10.6206C81.5251 10.7357 81.3687 10.8674 81.1466 11.0484C79.3695 12.5458 73.997 16.4291 63.8856 20.3042C60.3231 21.6617 55.8886 23.3483 51.2565 24.3274C48.5251 24.9033 38.4054 26.45 43.745 14.0349ZM34.0202 6.89355C35.1391 6.67964 35.8796 6.67964 36.1511 6.95937C36.3156 7.14037 36.3568 7.43656 36.1429 7.80679C36.0083 8.03581 35.8512 8.25079 35.6739 8.44852C26.1795 19.646 18.9476 36.1501 16.8826 40.922C16.7345 41.2511 16.5782 41.5802 16.4465 41.7941C16.2655 42.1232 16.0105 42.4111 15.558 42.4358C15.3111 42.4605 14.9574 42.3864 14.4308 42.0656C8.12865 38.1987 4.40165 33.3446 4.40165 28.0873C4.40165 18.6093 16.5782 10.456 34.0202 6.90178"/></svg>