<svg class="svgicon logo" xmlns="http://www.w3.org/2000/svg" width="144" height="21" viewBox="0 0 144 21"><path d="M54.9425 3.44009V8.82072H48.8466V3.44303H45.4852V17.5657H48.8466V11.8849H54.9454V17.5657H58.3098V3.44009H54.9425ZM70.6252 3.44009L67.1078 9.03265L63.5962 3.44009H59.6285L65.433 12.6708V17.5628H68.7914V12.6708L74.5959 3.44009H70.6252ZM85.4043 3.44009V13.7893C85.4043 14.1837 85.1099 14.4986 84.692 14.4986H79.3054V3.44303H75.944V17.5657H85.8752C86.7583 17.5657 87.4706 17.3008 87.9886 16.7857C88.5037 16.2677 88.7657 15.5583 88.7657 14.6782V3.44009H85.4043ZM101.814 3.44009H91.8799V17.5628H95.2354V6.49539H100.634C101.066 6.49539 101.34 6.83683 101.34 7.20182V17.5628H104.702V6.32761C104.702 5.44458 104.437 4.73226 103.927 4.21716C103.403 3.69911 102.697 3.44009 101.814 3.44009ZM117.75 3.44009H107.816V17.5628H117.75C118.633 17.5628 119.339 17.2979 119.854 16.7828C120.375 16.2647 120.634 15.5553 120.634 14.6752V6.32761C120.634 5.44458 120.375 4.73226 119.854 4.21716C119.339 3.69911 118.63 3.44009 117.75 3.44009ZM117.276 7.22831V13.7687C117.279 13.8641 117.263 13.9593 117.228 14.0483C117.194 14.1374 117.141 14.2184 117.075 14.2867C117.008 14.3549 116.928 14.4089 116.839 14.4453C116.751 14.4817 116.656 14.4999 116.561 14.4986H111.171V6.49833H116.537C116.979 6.49833 117.273 6.80445 117.273 7.22831M126.492 3.44009C125.609 3.44009 124.897 3.69911 124.381 4.21716C123.863 4.73815 123.607 5.44752 123.607 6.32761V17.5628H126.957V13.1947H133.062V17.5628H136.42V3.44009H126.492ZM133.062 6.49833V10.1364H126.957V7.21065C126.957 6.86332 127.228 6.49539 127.675 6.49539L133.062 6.49833ZM139.69 17.5628H143.052V3.44009H139.69V17.5628ZM19.209 20.3384C29.8201 20.3384 38.4238 15.9321 38.4238 10.5014C38.4238 5.06487 29.8201 0.661469 19.209 0.661469C8.60077 0.661469 0 5.06193 0 10.5014C0 15.9321 8.60077 20.3384 19.209 20.3384ZM22.8294 15.5082C22.5056 16.2529 21.9552 17.8395 20.6895 18.4723C20.2862 18.6565 19.8495 18.7566 19.4062 18.7666H19.2119C15.668 18.7666 12.3654 18.2721 9.60449 17.4333L9.49852 17.392C9.24244 17.3067 9.11293 17.189 9.11293 17.0418C9.11293 16.9182 9.18063 16.821 9.27188 16.7298L9.44554 16.5767C10.0872 16.0469 12.0063 14.6546 15.6238 13.2653C16.8925 12.7826 18.4819 12.1792 20.145 11.826C21.1193 11.6229 24.7368 11.0695 22.8265 15.5112M32.534 5.59175C32.6017 5.47401 32.6929 5.37394 32.8578 5.36511C32.9461 5.35627 33.0697 5.37688 33.2551 5.49462C35.5098 6.88098 36.8491 8.61762 36.8491 10.4985C36.8491 13.8864 32.4898 16.8034 26.2527 18.0779C25.8523 18.1573 25.5845 18.1544 25.4962 18.0543C25.4314 17.9955 25.4138 17.8836 25.4962 17.7482C25.5426 17.6659 25.5979 17.589 25.661 17.5186C29.0578 13.5155 31.6451 7.60802 32.378 5.9067C32.4368 5.78896 32.4898 5.67122 32.534 5.59175ZM15.6503 5.46813C15.9741 4.72638 16.5245 3.13986 17.7902 2.50996C18.1729 2.31863 18.6497 2.22739 19.0706 2.21561H19.262C22.8118 2.21561 26.1084 2.70422 28.8753 3.549C28.8959 3.55783 28.9606 3.57843 28.9812 3.5902C29.2344 3.67556 29.3639 3.7933 29.3639 3.93753C29.3639 4.0641 29.2962 4.15829 29.2079 4.24659C29.1667 4.2878 29.1107 4.3349 29.0313 4.39965C28.3955 4.93536 26.4734 6.32467 22.8559 7.71104C21.5814 8.19671 19.9949 8.80011 18.3377 9.15038C17.3605 9.35643 13.74 9.90979 15.6503 5.46813ZM12.1712 2.91321C12.5715 2.83668 12.8364 2.83668 12.9335 2.93676C12.9924 3.00151 13.0071 3.10748 12.9306 3.23993C12.8825 3.32187 12.8263 3.39878 12.7628 3.46952C9.36607 7.47556 6.77877 13.3801 6.03996 15.0873C5.98698 15.2051 5.93106 15.3228 5.88396 15.3993C5.81921 15.5171 5.72796 15.6201 5.56607 15.6289C5.47776 15.6378 5.3512 15.6113 5.16282 15.4965C2.90813 14.113 1.57475 12.3764 1.57475 10.4955C1.57475 7.10469 5.93106 4.18772 12.1712 2.91615"/></svg>