<svg width="342" height="56" viewBox="0 0 342 56" fill="none" xmlns="http://www.w3.org/2000/svg">
<path d="M37.9161 43.0979L37.5539 42.4641L30.7633 30.5126L16.3219 5.16091C14.0583 1.22235 8.94273 -0.135773 5.00417 2.12777C1.06561 4.39131 -0.29252 9.50691 1.97102 13.4455L23.6105 51.3824L23.6558 51.4277C23.7463 51.6088 23.8368 51.7446 23.9726 51.8804C24.0179 51.9709 24.0632 52.0615 24.1537 52.1068C24.2443 52.2426 24.3348 52.3784 24.4706 52.5142C24.5612 52.6047 24.6064 52.6953 24.697 52.7858C24.7875 52.9216 24.9233 53.0122 25.0139 53.148C25.1044 53.2385 25.1497 53.3291 25.2402 53.3743C25.376 53.4649 25.4666 53.6007 25.6024 53.6912C25.6929 53.7365 25.7835 53.827 25.874 53.8723C26.0098 53.9629 26.1456 54.0534 26.2815 54.1439C26.372 54.1892 26.4625 54.2345 26.5078 54.2798C26.6889 54.3703 26.8247 54.4608 27.0058 54.5514C27.0511 54.5966 27.1416 54.5966 27.1869 54.6419C27.368 54.7325 27.5943 54.823 27.7754 54.9135C27.8207 54.9135 27.8659 54.9588 27.9112 54.9588C28.1376 55.0494 28.3186 55.0946 28.545 55.1399C28.5903 55.1399 28.6355 55.1852 28.6808 55.1852C28.9072 55.2304 29.0882 55.2757 29.3146 55.321C29.3599 55.321 29.4504 55.321 29.4957 55.3663C29.6768 55.4115 29.8578 55.4115 30.0389 55.4115C30.1295 55.4115 30.22 55.4115 30.3558 55.4115C30.4916 55.4115 30.6275 55.4115 30.8085 55.4115C30.9443 55.4115 31.0802 55.4115 31.2612 55.4115C31.3518 55.4115 31.4423 55.4115 31.5781 55.4115C31.7592 55.4115 31.9403 55.3663 32.1214 55.3663C32.1667 55.3663 32.2572 55.3663 32.3025 55.321C32.5288 55.2757 32.7099 55.2304 32.9363 55.1852C32.9815 55.1852 33.0268 55.1399 33.0721 55.1399C33.2984 55.0946 33.4795 55.0041 33.7059 54.9588C33.7511 54.9588 33.7964 54.9135 33.8417 54.9135C34.0228 54.823 34.2491 54.7325 34.4302 54.6419C34.4755 54.5966 34.566 54.5966 34.6113 54.5514C34.7924 54.4608 34.9734 54.3703 35.1093 54.2798C35.1998 54.2345 35.2903 54.1892 35.3356 54.1439C35.4714 54.0534 35.6072 53.9629 35.7431 53.8723C35.8336 53.827 35.9241 53.7365 36.0147 53.6912C36.1505 53.6007 36.2863 53.4649 36.3768 53.3743C36.4674 53.2838 36.5579 53.2385 36.6032 53.148C36.6937 53.0574 36.8296 52.9216 36.9201 52.7858C37.0106 52.6953 37.0559 52.6047 37.1465 52.5142C37.237 52.3784 37.3728 52.2426 37.4634 52.1068C37.5086 52.0162 37.5539 51.9709 37.5992 51.8804C37.5992 51.8804 37.5992 51.8804 37.5992 51.8351C37.6897 51.6993 37.8255 51.5182 37.9161 51.3824C39.3195 48.9831 39.4553 45.7688 37.9161 43.0979Z" fill="#C80C2C"/>
<path d="M56.5223 2.12777C52.5837 -0.135773 47.4681 1.22235 45.2046 5.16091L30.7632 30.5126L23.5652 43.0979C22.0259 45.7688 22.1618 48.9831 23.6104 51.473C23.701 51.654 23.7915 51.7899 23.9273 51.9257C23.9726 52.0162 24.0179 52.1067 24.1084 52.152C24.1989 52.2878 24.2895 52.4236 24.4253 52.5595C24.5158 52.65 24.5611 52.7405 24.6517 52.8311C24.7422 52.9669 24.878 53.0574 24.9686 53.1932C25.0591 53.2838 25.1044 53.3743 25.1949 53.4196C25.3307 53.5101 25.4213 53.646 25.5571 53.7365C25.6476 53.7818 25.7382 53.8723 25.8287 53.9176C25.9645 54.0081 26.1003 54.0987 26.2361 54.1892C26.3267 54.2345 26.4172 54.2797 26.4625 54.325C26.6436 54.4156 26.7794 54.5061 26.9605 54.5966C27.0057 54.6419 27.0963 54.6419 27.1416 54.6872C27.3226 54.7777 27.549 54.8683 27.7301 54.9588C27.7753 54.9588 27.8206 55.0041 27.8659 55.0041C28.0922 55.0946 28.2733 55.1399 28.4997 55.1852C28.5449 55.1852 28.5902 55.2304 28.6355 55.2304C28.8618 55.2757 29.0429 55.321 29.2693 55.3662C29.3145 55.3662 29.4051 55.3663 29.4504 55.4115C29.6314 55.4568 29.8125 55.4568 29.9936 55.4568C30.0842 55.4568 30.1747 55.4568 30.3105 55.4568C30.4463 55.4568 30.5821 55.4568 30.7632 55.4568C30.899 55.4568 31.0348 55.4568 31.2159 55.4568C31.3065 55.4568 31.397 55.4568 31.5328 55.4568C31.7139 55.4568 31.895 55.4115 32.0761 55.4115C32.1213 55.4115 32.2119 55.4115 32.2572 55.3662C32.4835 55.321 32.6646 55.2757 32.8909 55.2304C32.9362 55.2304 32.9815 55.1852 33.0268 55.1852C33.2531 55.1399 33.4342 55.0493 33.6605 55.0041C33.7058 55.0041 33.7511 54.9588 33.7964 54.9588C33.9774 54.8683 34.2038 54.7777 34.3849 54.6872C34.4302 54.6419 34.5207 54.6419 34.566 54.5966C34.747 54.5061 34.9281 54.4156 35.0639 54.325C35.1545 54.2797 35.245 54.2345 35.2903 54.1892C35.4261 54.0987 35.5619 54.0081 35.6977 53.9176C35.7883 53.8723 35.8788 53.7818 35.9694 53.7365C36.1052 53.646 36.241 53.5101 36.3315 53.4196C36.4221 53.3291 36.5126 53.2838 36.5579 53.1932C36.6484 53.1027 36.7842 52.9669 36.8748 52.8311C36.9653 52.7405 37.0106 52.65 37.1011 52.5595C37.1917 52.4236 37.3275 52.2878 37.418 52.152C37.4633 52.0615 37.5086 52.0162 37.5538 51.9257C37.5538 51.9257 37.5538 51.9257 37.5538 51.8804C37.6444 51.7446 37.7802 51.5635 37.8707 51.4277L37.916 51.3824L59.5555 13.4455C61.7737 9.50691 60.4609 4.39131 56.5223 2.12777Z" fill="#C80C2C"/>
<path d="M37.916 43.0978L37.5538 42.464L30.7632 30.5125L23.5652 43.0978C22.0259 45.7688 22.1618 48.983 23.6104 51.4729C23.701 51.654 23.7915 51.7898 23.9273 51.9256C23.9726 52.0162 24.0179 52.1067 24.1084 52.152C24.1989 52.2878 24.2895 52.4236 24.4253 52.5594C24.5158 52.6499 24.5611 52.7405 24.6517 52.831C24.7422 52.9668 24.878 53.0574 24.9686 53.1932C25.0591 53.2837 25.1044 53.3743 25.1949 53.4195C25.3307 53.5101 25.4213 53.6459 25.5571 53.7365C25.6476 53.7817 25.7382 53.8723 25.8287 53.9175C25.9645 54.0081 26.1003 54.0986 26.2361 54.1892C26.3267 54.2344 26.4172 54.2797 26.4625 54.325C26.6436 54.4155 26.7794 54.5061 26.9605 54.5966C27.0057 54.6419 27.0963 54.6419 27.1416 54.6871C27.3226 54.7777 27.549 54.8682 27.7301 54.9588C27.7753 54.9588 27.8206 55.004 27.8659 55.004C28.0922 55.0946 28.2733 55.1399 28.4997 55.1851C28.5449 55.1851 28.5902 55.2304 28.6355 55.2304C28.8618 55.2757 29.0429 55.3209 29.2693 55.3662C29.3145 55.3662 29.4051 55.3662 29.4504 55.4115C29.6314 55.4567 29.8125 55.4567 29.9936 55.4567C30.0842 55.4567 30.1747 55.4567 30.3105 55.4567C30.4463 55.4567 30.5821 55.4567 30.7632 55.4567C30.899 55.4567 31.0348 55.4567 31.2159 55.4567C31.3065 55.4567 31.397 55.4567 31.5328 55.4567C31.7139 55.4567 31.895 55.4115 32.0761 55.4115C32.1213 55.4115 32.2119 55.4115 32.2572 55.3662C32.4835 55.3209 32.6646 55.2757 32.8909 55.2304C32.9362 55.2304 32.9815 55.1851 33.0268 55.1851C33.2531 55.1399 33.4342 55.0493 33.6605 55.004C33.7058 55.004 33.7511 54.9588 33.7964 54.9588C33.9774 54.8682 34.2038 54.7777 34.3849 54.6871C34.4302 54.6419 34.5207 54.6419 34.566 54.5966C34.747 54.5061 34.9281 54.4155 35.0639 54.325C35.1545 54.2797 35.245 54.2344 35.2903 54.1892C35.4261 54.0986 35.5619 54.0081 35.6977 53.9175C35.7883 53.8723 35.8788 53.7817 35.9694 53.7365C36.1052 53.6459 36.241 53.5101 36.3315 53.4195C36.4221 53.329 36.5126 53.2837 36.5579 53.1932C36.6484 53.1027 36.7842 52.9668 36.8748 52.831C36.9653 52.7405 37.0106 52.6499 37.1011 52.5594C37.1917 52.4236 37.3275 52.2878 37.418 52.152C37.4633 52.0614 37.5086 52.0162 37.5538 51.9256C37.5538 51.9256 37.5538 51.9256 37.5538 51.8803C37.6444 51.7445 37.7802 51.5634 37.8707 51.4276C39.3194 48.983 39.4552 45.7688 37.916 43.0978Z" fill="#C80C2C"/>
<path d="M133.256 43.0979L132.894 42.4641L126.104 30.5126L111.662 5.16091C109.399 1.22235 104.283 -0.135773 100.345 2.12777C96.4059 4.39131 95.0478 9.50691 97.3114 13.4455L118.951 51.3824L118.996 51.4277C119.087 51.6088 119.177 51.7446 119.313 51.8804C119.358 51.9709 119.404 52.0615 119.494 52.1068C119.585 52.2426 119.72 52.3784 119.811 52.5142C119.901 52.6047 119.947 52.6953 120.037 52.7858C120.128 52.9216 120.264 53.0122 120.354 53.148C120.445 53.2385 120.49 53.3291 120.581 53.3743C120.716 53.4649 120.807 53.6007 120.943 53.6912C121.033 53.7365 121.124 53.827 121.214 53.8723C121.35 53.9629 121.486 54.0534 121.622 54.1439C121.712 54.1892 121.803 54.2345 121.848 54.2798C122.029 54.3703 122.165 54.4608 122.346 54.5514C122.391 54.5966 122.482 54.5966 122.527 54.6419C122.708 54.7325 122.935 54.823 123.116 54.9135C123.161 54.9135 123.206 54.9588 123.252 54.9588C123.478 55.0494 123.659 55.0946 123.885 55.1399C123.931 55.1399 123.976 55.1852 124.021 55.1852C124.247 55.2304 124.429 55.2757 124.655 55.321C124.7 55.321 124.791 55.321 124.836 55.3663C125.017 55.4115 125.198 55.4115 125.379 55.4115C125.47 55.4115 125.56 55.4115 125.696 55.4115C125.832 55.4115 125.968 55.4115 126.149 55.4115C126.285 55.4115 126.42 55.4115 126.602 55.4115C126.692 55.4115 126.783 55.4115 126.918 55.4115C127.1 55.4115 127.281 55.3663 127.462 55.3663C127.507 55.3663 127.598 55.3663 127.643 55.321C127.869 55.2757 128.05 55.2304 128.277 55.1852C128.322 55.1852 128.367 55.1399 128.412 55.1399C128.639 55.0946 128.82 55.0041 129.046 54.9588C129.091 54.9588 129.137 54.9135 129.182 54.9135C129.363 54.823 129.589 54.7325 129.771 54.6419C129.816 54.5966 129.906 54.5966 129.952 54.5514C130.133 54.4608 130.314 54.3703 130.45 54.2798C130.54 54.2345 130.631 54.1892 130.676 54.1439C130.812 54.0534 130.948 53.9629 131.083 53.8723C131.174 53.827 131.264 53.7365 131.355 53.6912C131.491 53.6007 131.627 53.4649 131.717 53.3743C131.808 53.2838 131.898 53.2385 131.944 53.148C132.079 53.0574 132.17 52.9216 132.26 52.7858C132.351 52.6953 132.396 52.6047 132.487 52.5142C132.577 52.3784 132.713 52.2426 132.804 52.1068C132.849 52.0162 132.894 51.9709 132.939 51.8804C132.939 51.8804 132.939 51.8804 132.939 51.8351C133.03 51.6993 133.166 51.5182 133.256 51.3824C134.66 48.9831 134.796 45.7688 133.256 43.0979Z" fill="#C80C2C"/>
<path d="M151.863 2.12777C147.924 -0.135773 142.808 1.22235 140.545 5.16091L126.104 30.5126L118.905 43.0979C117.366 45.7688 117.502 48.9831 118.951 51.473C119.041 51.654 119.132 51.7899 119.268 51.9257C119.313 52.0162 119.358 52.1067 119.449 52.152C119.539 52.2878 119.675 52.4236 119.766 52.5595C119.856 52.65 119.901 52.7405 119.992 52.8311C120.083 52.9669 120.218 53.0574 120.309 53.1932C120.399 53.2838 120.445 53.3743 120.535 53.4196C120.671 53.5101 120.762 53.646 120.897 53.7365C120.988 53.7818 121.078 53.8723 121.169 53.9176C121.305 54.0081 121.441 54.0987 121.576 54.1892C121.667 54.2345 121.758 54.2797 121.803 54.325C121.984 54.4156 122.12 54.5061 122.301 54.5966C122.346 54.6419 122.437 54.6419 122.482 54.6872C122.663 54.7777 122.889 54.8683 123.07 54.9588C123.116 54.9588 123.161 55.0041 123.206 55.0041C123.433 55.0946 123.614 55.1399 123.84 55.1852C123.885 55.1852 123.931 55.2304 123.976 55.2304C124.202 55.2757 124.383 55.321 124.61 55.3662C124.655 55.3662 124.745 55.3663 124.791 55.4115C124.972 55.4568 125.153 55.4568 125.334 55.4568C125.424 55.4568 125.515 55.4568 125.651 55.4568C125.787 55.4568 125.922 55.4568 126.104 55.4568C126.239 55.4568 126.375 55.4568 126.556 55.4568C126.647 55.4568 126.737 55.4568 126.873 55.4568C127.054 55.4568 127.235 55.4115 127.416 55.4115C127.462 55.4115 127.552 55.4115 127.597 55.3662C127.824 55.321 128.005 55.2757 128.231 55.2304C128.277 55.2304 128.322 55.1852 128.367 55.1852C128.593 55.1399 128.775 55.0493 129.001 55.0041C129.046 55.0041 129.091 54.9588 129.137 54.9588C129.318 54.8683 129.544 54.7777 129.725 54.6872C129.77 54.6419 129.861 54.6419 129.906 54.5966C130.087 54.5061 130.268 54.4156 130.404 54.325C130.495 54.2797 130.585 54.2345 130.631 54.1892C130.766 54.0987 130.902 54.0081 131.038 53.9176C131.129 53.8723 131.219 53.7818 131.31 53.7365C131.445 53.646 131.581 53.5101 131.672 53.4196C131.762 53.3291 131.853 53.2838 131.898 53.1932C132.034 53.1027 132.125 52.9669 132.215 52.8311C132.306 52.7405 132.351 52.65 132.441 52.5595C132.532 52.4236 132.668 52.2878 132.758 52.152C132.804 52.0615 132.849 52.0162 132.894 51.9257C132.894 51.9257 132.894 51.9257 132.894 51.8804C132.985 51.7446 133.121 51.5635 133.211 51.4277L133.256 51.3824L154.896 13.4455C157.159 9.50691 155.801 4.39131 151.863 2.12777Z" fill="#C80C2C"/>
<path d="M133.256 43.0978L132.894 42.464L126.104 30.5125L118.905 43.0978C117.366 45.7688 117.502 48.983 118.951 51.4729C119.041 51.654 119.132 51.7898 119.268 51.9256C119.313 52.0162 119.358 52.1067 119.449 52.152C119.539 52.2878 119.675 52.4236 119.766 52.5594C119.856 52.6499 119.901 52.7405 119.992 52.831C120.083 52.9668 120.218 53.0574 120.309 53.1932C120.399 53.2837 120.445 53.3743 120.535 53.4195C120.671 53.5101 120.762 53.6459 120.897 53.7365C120.988 53.7817 121.078 53.8723 121.169 53.9175C121.305 54.0081 121.441 54.0986 121.576 54.1892C121.667 54.2344 121.758 54.2797 121.803 54.325C121.984 54.4155 122.12 54.5061 122.301 54.5966C122.346 54.6419 122.437 54.6419 122.482 54.6871C122.663 54.7777 122.889 54.8682 123.07 54.9588C123.116 54.9588 123.161 55.004 123.206 55.004C123.433 55.0946 123.614 55.1399 123.84 55.1851C123.885 55.1851 123.931 55.2304 123.976 55.2304C124.202 55.2757 124.383 55.3209 124.61 55.3662C124.655 55.3662 124.745 55.3662 124.791 55.4115C124.972 55.4567 125.153 55.4567 125.334 55.4567C125.424 55.4567 125.515 55.4567 125.651 55.4567C125.787 55.4567 125.922 55.4567 126.104 55.4567C126.239 55.4567 126.375 55.4567 126.556 55.4567C126.647 55.4567 126.737 55.4567 126.873 55.4567C127.054 55.4567 127.235 55.4115 127.416 55.4115C127.462 55.4115 127.552 55.4115 127.597 55.3662C127.824 55.3209 128.005 55.2757 128.231 55.2304C128.277 55.2304 128.322 55.1851 128.367 55.1851C128.593 55.1399 128.775 55.0493 129.001 55.004C129.046 55.004 129.091 54.9588 129.137 54.9588C129.318 54.8682 129.544 54.7777 129.725 54.6871C129.77 54.6419 129.861 54.6419 129.906 54.5966C130.087 54.5061 130.268 54.4155 130.404 54.325C130.495 54.2797 130.585 54.2344 130.631 54.1892C130.766 54.0986 130.902 54.0081 131.038 53.9175C131.129 53.8723 131.219 53.7817 131.31 53.7365C131.445 53.6459 131.581 53.5101 131.672 53.4195C131.762 53.329 131.853 53.2837 131.898 53.1932C132.034 53.1027 132.125 52.9668 132.215 52.831C132.306 52.7405 132.351 52.6499 132.441 52.5594C132.532 52.4236 132.668 52.2878 132.758 52.152C132.804 52.0614 132.849 52.0162 132.894 51.9256C132.894 51.9256 132.894 51.9256 132.894 51.8803C132.985 51.7445 133.121 51.5634 133.211 51.4276C134.66 48.983 134.796 45.7688 133.256 43.0978Z" fill="#C80C2C"/>
<path d="M172.597 13.4454L172.959 14.0792L179.75 26.0307L194.191 51.3824C196.454 55.3209 201.57 56.6791 205.509 54.4155C209.447 52.152 210.805 47.0364 208.542 43.0978L186.902 5.16088L186.857 5.11562C186.766 4.93453 186.676 4.79872 186.54 4.66291C186.495 4.57237 186.45 4.48182 186.359 4.43655C186.268 4.30074 186.133 4.16492 186.042 4.02911C185.952 3.93857 185.906 3.84803 185.816 3.75749C185.725 3.62168 185.589 3.53114 185.499 3.39532C185.408 3.30478 185.363 3.21424 185.273 3.16897C185.137 3.07843 185.046 2.94262 184.91 2.85207C184.82 2.8068 184.729 2.71626 184.639 2.67099C184.503 2.58045 184.367 2.48991 184.186 2.39937C184.095 2.3541 184.005 2.30882 183.96 2.26355C183.779 2.17301 183.643 2.08247 183.462 1.99193C183.416 1.94665 183.326 1.94666 183.281 1.90139C183.1 1.81084 182.873 1.7203 182.692 1.62976C182.647 1.62976 182.602 1.58449 182.556 1.58449C182.33 1.49395 182.149 1.44867 181.922 1.4034C181.877 1.4034 181.832 1.35814 181.787 1.35814C181.56 1.31287 181.379 1.26759 181.153 1.22232C181.108 1.22232 181.017 1.17705 180.972 1.17705C180.791 1.13178 180.61 1.13178 180.429 1.13178C180.338 1.13178 180.247 1.13178 180.112 1.13178C179.976 1.13178 179.84 1.13178 179.659 1.13178C179.523 1.13178 179.387 1.13178 179.206 1.13178C179.116 1.13178 179.025 1.13178 178.889 1.13178C178.708 1.13178 178.527 1.17705 178.346 1.17705C178.301 1.17705 178.21 1.17705 178.165 1.22232C177.939 1.26759 177.758 1.31287 177.531 1.35814C177.486 1.35814 177.441 1.4034 177.395 1.4034C177.169 1.44867 176.988 1.53922 176.762 1.58449C176.716 1.58449 176.671 1.62976 176.626 1.62976C176.445 1.7203 176.218 1.81084 176.037 1.90139C175.992 1.94666 175.901 1.94665 175.856 1.99193C175.675 2.08247 175.494 2.17301 175.358 2.26355C175.268 2.30882 175.177 2.3541 175.132 2.39937C174.996 2.48991 174.86 2.58045 174.724 2.67099C174.634 2.71626 174.543 2.8068 174.453 2.85207C174.317 2.94262 174.181 3.03316 174.091 3.16897C174 3.25951 173.91 3.30478 173.864 3.39532C173.728 3.48586 173.638 3.62168 173.547 3.75749C173.457 3.84803 173.412 3.93857 173.321 4.02911C173.231 4.16492 173.095 4.30074 173.004 4.43655C172.959 4.48182 172.914 4.57237 172.868 4.66291C172.868 4.66291 172.868 4.6629 172.868 4.70817C172.778 4.84399 172.642 5.02507 172.551 5.16088C171.193 7.56024 171.057 10.7745 172.597 13.4454Z" fill="#C80C2C"/>
<path d="M154.036 54.4155C157.974 56.679 163.09 55.3209 165.353 51.3823L179.795 26.0307L186.993 13.4001C188.532 10.7291 188.396 7.56017 186.948 5.025C186.857 4.84392 186.767 4.70811 186.631 4.57229C186.585 4.48175 186.54 4.39121 186.45 4.34594C186.359 4.21013 186.223 4.07432 186.133 3.93851C186.042 3.84796 185.997 3.75742 185.906 3.66688C185.816 3.53107 185.68 3.44053 185.59 3.30472C185.499 3.21417 185.454 3.12363 185.363 3.07836C185.227 2.98782 185.137 2.852 185.001 2.76146C184.91 2.71619 184.82 2.62565 184.729 2.58038C184.594 2.48984 184.458 2.39929 184.277 2.30875C184.186 2.26348 184.096 2.21822 184.05 2.17295C183.869 2.0824 183.733 1.99186 183.552 1.90132C183.507 1.85605 183.417 1.85605 183.371 1.81078C183.19 1.72024 182.964 1.62969 182.783 1.53915C182.737 1.53915 182.692 1.49388 182.647 1.49388C182.421 1.40334 182.24 1.35807 182.013 1.3128C181.968 1.3128 181.923 1.26753 181.877 1.26753C181.651 1.22226 181.47 1.17699 181.244 1.13172C181.198 1.13172 181.108 1.08644 181.062 1.08644C180.881 1.04117 180.7 1.04118 180.519 1.04118C180.429 1.04118 180.338 1.04118 180.202 1.04118C180.067 1.04118 179.931 1.04118 179.75 1.04118C179.614 1.04118 179.478 1.04118 179.297 1.04118C179.206 1.04118 179.116 1.04118 178.98 1.04118C178.799 1.04118 178.618 1.08644 178.437 1.08644C178.391 1.08644 178.301 1.08645 178.256 1.13172C178.029 1.17699 177.848 1.22226 177.622 1.26753C177.577 1.26753 177.531 1.3128 177.486 1.3128C177.26 1.35807 177.079 1.44861 176.852 1.49388C176.807 1.49388 176.762 1.53915 176.716 1.53915C176.535 1.62969 176.309 1.72024 176.128 1.81078C176.083 1.85605 175.992 1.85605 175.947 1.90132C175.766 1.99186 175.585 2.0824 175.449 2.17295C175.358 2.21822 175.268 2.26348 175.223 2.30875C175.087 2.39929 174.951 2.48984 174.815 2.58038C174.725 2.62565 174.634 2.71619 174.543 2.76146C174.408 2.852 174.272 2.94255 174.181 3.07836C174.091 3.1689 174 3.21417 173.955 3.30472C173.819 3.39526 173.729 3.53107 173.638 3.66688C173.548 3.75742 173.502 3.84796 173.412 3.93851C173.321 4.07432 173.185 4.21013 173.095 4.34594C173.05 4.39121 173.004 4.48175 172.959 4.57229C172.959 4.57229 172.959 4.5723 172.959 4.61757C172.868 4.75338 172.733 4.93446 172.642 5.07028L172.597 5.11555L150.957 43.0525C148.739 47.0816 150.052 52.1519 154.036 54.4155Z" fill="#C80C2C"/>
<path d="M172.597 13.4454L172.959 14.0792L179.75 26.0307L186.948 13.4001C188.487 10.7291 188.351 7.56017 186.902 5.025C186.812 4.84392 186.721 4.70811 186.585 4.57229C186.54 4.48175 186.495 4.39121 186.404 4.34594C186.314 4.21013 186.178 4.07432 186.087 3.93851C185.997 3.84796 185.952 3.75742 185.861 3.66688C185.771 3.53107 185.635 3.44053 185.544 3.30472C185.454 3.21418 185.408 3.12363 185.318 3.07836C185.182 2.98782 185.091 2.852 184.956 2.76146C184.865 2.71619 184.775 2.62565 184.684 2.58038C184.548 2.48984 184.412 2.39929 184.231 2.30875C184.141 2.26348 184.05 2.21822 184.005 2.17295C183.824 2.0824 183.688 1.99186 183.507 1.90132C183.462 1.85605 183.371 1.85605 183.326 1.81078C183.145 1.72024 182.918 1.62969 182.737 1.53915C182.692 1.53915 182.647 1.49388 182.602 1.49388C182.375 1.40334 182.194 1.35807 181.968 1.3128C181.923 1.3128 181.877 1.26753 181.832 1.26753C181.606 1.22226 181.425 1.17699 181.198 1.13172C181.153 1.13172 181.062 1.08644 181.017 1.08644C180.836 1.04117 180.655 1.04118 180.474 1.04118C180.383 1.04118 180.293 1.04118 180.157 1.04118C180.021 1.04118 179.885 1.04118 179.704 1.04118C179.568 1.04118 179.433 1.04118 179.252 1.04118C179.161 1.04118 179.07 1.04118 178.935 1.04118C178.754 1.04118 178.572 1.08644 178.391 1.08644C178.346 1.08644 178.256 1.08645 178.21 1.13172C177.984 1.17699 177.803 1.22226 177.577 1.26753C177.531 1.26753 177.486 1.3128 177.441 1.3128C177.214 1.35807 177.033 1.44861 176.807 1.49388C176.762 1.49388 176.716 1.53915 176.671 1.53915C176.49 1.62969 176.264 1.72024 176.083 1.81078C176.037 1.85605 175.947 1.85605 175.902 1.90132C175.72 1.99186 175.539 2.0824 175.404 2.17295C175.313 2.21822 175.222 2.26348 175.177 2.30875C175.041 2.39929 174.906 2.48984 174.77 2.58038C174.679 2.62565 174.589 2.71619 174.498 2.76146C174.362 2.852 174.226 2.94255 174.136 3.07836C174.045 3.1689 173.955 3.21418 173.91 3.30472C173.774 3.39526 173.683 3.53107 173.593 3.66688C173.502 3.75742 173.457 3.84796 173.366 3.93851C173.276 4.07432 173.14 4.21013 173.049 4.34594C173.004 4.39121 172.959 4.48175 172.914 4.57229C172.914 4.57229 172.914 4.5723 172.914 4.61757C172.823 4.75338 172.687 4.93446 172.597 5.07028C171.193 7.56017 171.058 10.7744 172.597 13.4454Z" fill="#C80C2C"/>
<path d="M78.3882 0C73.8158 0 70.1036 3.71221 70.1036 8.28456V47.2175V47.7154C70.1036 51.9709 73.3631 55.5473 77.528 55.9547C77.7997 56 78.0713 56 78.3429 56C79.5652 56 80.7423 55.7284 81.8288 55.2304C83.6849 54.3702 85.1335 52.8763 85.9484 51.0202C86.4011 50.0243 86.6275 48.8925 86.6275 47.7154V8.28456C86.6728 3.71221 82.9153 0 78.3882 0Z" fill="#C80C2C"/>
<path d="M78.3428 39.3856C73.9062 39.3856 70.3299 42.8261 70.0582 47.2174V47.7154C70.0582 51.9708 73.3177 55.5472 77.4826 55.9547C77.7543 55.9999 78.0259 56 78.2975 56C79.5198 56 80.6969 55.7283 81.7834 55.2303C83.6395 54.3702 85.0881 52.8763 85.903 51.0202C86.3557 50.0242 86.5821 48.8924 86.5821 47.7154C86.6726 43.0978 82.9604 39.3856 78.3428 39.3856Z" fill="#C80C2C"/>
<path d="M227.327 20.3628C226.782 20.3628 226.36 20.2126 226.059 19.9122C225.778 19.6117 225.637 19.1799 225.637 18.6166V1.85884C225.637 1.27678 225.778 0.835541 226.059 0.535121C226.36 0.215926 226.745 0.0563279 227.214 0.0563279C227.646 0.0563279 227.965 0.140821 228.172 0.309807C228.397 0.460016 228.66 0.722883 228.96 1.09841L239.747 15.0961H239.015V1.77435C239.015 1.22984 239.156 0.807376 239.437 0.506957C239.738 0.206538 240.16 0.0563279 240.705 0.0563279C241.249 0.0563279 241.662 0.206538 241.944 0.506957C242.226 0.807376 242.367 1.22984 242.367 1.77435V18.6729C242.367 19.1987 242.235 19.6117 241.972 19.9122C241.709 20.2126 241.353 20.3628 240.902 20.3628C240.47 20.3628 240.123 20.2783 239.86 20.1093C239.616 19.9403 239.344 19.6681 239.043 19.2925L228.284 5.29489H228.989V18.6166C228.989 19.1799 228.848 19.6117 228.566 19.9122C228.284 20.2126 227.871 20.3628 227.327 20.3628Z" fill="#C80C2C"/>
<path d="M255.408 20.4191C253.85 20.4191 252.507 20.1281 251.38 19.546C250.254 18.964 249.381 18.1378 248.761 17.0676C248.16 15.9973 247.86 14.7299 247.86 13.2654C247.86 11.8384 248.151 10.5898 248.733 9.51953C249.334 8.44929 250.151 7.61375 251.183 7.01291C252.235 6.39329 253.427 6.08349 254.76 6.08349C255.737 6.08349 256.61 6.24308 257.379 6.56228C258.168 6.88147 258.835 7.34149 259.379 7.94233C259.942 8.54317 260.365 9.27544 260.646 10.1391C260.947 10.9841 261.097 11.9417 261.097 13.0119C261.097 13.3499 260.975 13.6127 260.731 13.8005C260.506 13.9695 260.177 14.054 259.745 14.054H250.705V12.0262H258.619L258.168 12.4486C258.168 11.5849 258.037 10.862 257.774 10.28C257.53 9.6979 257.164 9.25666 256.675 8.95624C256.206 8.63705 255.614 8.47745 254.901 8.47745C254.112 8.47745 253.436 8.66521 252.873 9.04074C252.329 9.39749 251.906 9.91383 251.606 10.5898C251.324 11.2469 251.183 12.0355 251.183 12.9556V13.1527C251.183 14.6924 251.54 15.8471 252.254 16.6169C252.986 17.368 254.056 17.7435 255.464 17.7435C255.952 17.7435 256.497 17.6872 257.098 17.5745C257.717 17.4431 258.299 17.2272 258.844 16.9267C259.238 16.7014 259.586 16.6075 259.886 16.6451C260.186 16.6639 260.421 16.7671 260.59 16.9549C260.778 17.1427 260.891 17.3774 260.928 17.659C260.966 17.9219 260.909 18.1941 260.759 18.4758C260.628 18.7574 260.393 19.0015 260.055 19.208C259.398 19.6211 258.637 19.9309 257.774 20.1375C256.929 20.3252 256.14 20.4191 255.408 20.4191Z" fill="#C80C2C"/>
<path d="M271.241 20.3628C270.772 20.3628 270.368 20.2501 270.03 20.0248C269.692 19.7807 269.42 19.4052 269.214 18.8982L265.13 8.47745C264.961 8.02682 264.904 7.63252 264.961 7.29455C265.036 6.9378 265.214 6.65616 265.496 6.44962C265.777 6.24308 266.153 6.13982 266.622 6.13982C267.035 6.13982 267.373 6.24308 267.636 6.44962C267.899 6.63739 268.124 7.00352 268.312 7.54803L271.72 16.9267H271.072L274.593 7.32272C274.743 6.90964 274.94 6.60922 275.184 6.42146C275.447 6.2337 275.785 6.13982 276.198 6.13982C276.611 6.13982 276.949 6.24308 277.212 6.44962C277.475 6.63739 277.672 6.92842 277.804 7.32272L281.268 16.9267H280.676L284.112 7.46354C284.3 6.95658 284.535 6.60922 284.817 6.42146C285.117 6.2337 285.446 6.13982 285.802 6.13982C286.253 6.13982 286.6 6.25247 286.844 6.47779C287.088 6.7031 287.229 6.99413 287.267 7.35088C287.304 7.68885 287.239 8.06438 287.07 8.47745L283.014 18.8982C282.826 19.3864 282.554 19.7526 282.197 19.9966C281.859 20.2407 281.456 20.3628 280.986 20.3628C280.517 20.3628 280.104 20.2407 279.747 19.9966C279.409 19.7526 279.146 19.3864 278.958 18.8982L275.269 9.12523H276.874L273.269 18.8701C273.081 19.377 272.819 19.7526 272.481 19.9966C272.143 20.2407 271.73 20.3628 271.241 20.3628Z" fill="#C80C2C"/>
<path d="M296.949 20.4191C296.142 20.4191 295.287 20.3346 294.386 20.1656C293.485 19.9966 292.677 19.7056 291.964 19.2925C291.663 19.1048 291.448 18.8889 291.316 18.6448C291.203 18.3819 291.156 18.1284 291.175 17.8843C291.213 17.6215 291.307 17.3961 291.457 17.2084C291.626 17.0206 291.832 16.8986 292.077 16.8422C292.339 16.7859 292.621 16.8329 292.921 16.9831C293.673 17.3398 294.377 17.5933 295.034 17.7435C295.691 17.8749 296.339 17.9407 296.977 17.9407C297.878 17.9407 298.545 17.7904 298.977 17.49C299.427 17.1708 299.653 16.7578 299.653 16.2508C299.653 15.8189 299.503 15.4904 299.202 15.265C298.92 15.021 298.489 14.8426 297.907 14.7299L295.09 14.1948C293.926 13.9695 293.034 13.547 292.414 12.9274C291.814 12.289 291.513 11.4723 291.513 10.4771C291.513 9.57586 291.757 8.79665 292.246 8.13948C292.752 7.48231 293.447 6.97536 294.33 6.61861C295.212 6.26186 296.226 6.08349 297.371 6.08349C298.198 6.08349 298.967 6.17737 299.681 6.36513C300.413 6.53412 301.117 6.80637 301.793 7.1819C302.075 7.3321 302.263 7.52925 302.356 7.77334C302.469 8.01744 302.497 8.27091 302.441 8.53378C302.385 8.77787 302.272 9.00319 302.103 9.20972C301.934 9.39749 301.718 9.51953 301.455 9.57586C301.211 9.61341 300.929 9.55708 300.61 9.40687C300.028 9.10645 299.465 8.89053 298.92 8.7591C298.395 8.62766 297.888 8.56194 297.4 8.56194C296.48 8.56194 295.794 8.72154 295.344 9.04074C294.912 9.35993 294.696 9.7824 294.696 10.3081C294.696 10.7024 294.827 11.031 295.09 11.2939C295.353 11.5567 295.757 11.7351 296.301 11.829L299.118 12.3641C300.338 12.5894 301.258 13.0025 301.878 13.6034C302.516 14.2042 302.835 15.0116 302.835 16.0255C302.835 17.3961 302.3 18.4758 301.23 19.2644C300.16 20.0342 298.733 20.4191 296.949 20.4191Z" fill="#C80C2C"/>
<path d="M324.459 20.4191C323.051 20.4191 321.83 20.1938 320.797 19.7432C319.765 19.2925 318.967 18.6729 318.404 17.8843C317.859 17.0769 317.587 16.1381 317.587 15.0679C317.587 14.4295 317.671 13.8381 317.84 13.2935C318.028 12.7303 318.291 12.2139 318.629 11.7445C318.986 11.2563 319.408 10.8057 319.896 10.3926C320.403 9.96077 320.976 9.55708 321.614 9.18156L322.572 8.61827L322.065 9.37871C321.239 8.55256 320.638 7.77334 320.262 7.04107C319.906 6.29003 319.727 5.5202 319.727 4.7316C319.727 3.79279 319.953 2.96664 320.403 2.25314C320.854 1.53965 321.492 0.98575 322.318 0.591451C323.145 0.19715 324.111 0 325.219 0C326.759 0 327.979 0.3943 328.881 1.1829C329.782 1.95272 330.233 3.00419 330.233 4.3373C330.233 5.0508 330.092 5.72674 329.81 6.36513C329.528 7.00352 329.078 7.61375 328.458 8.19581C327.839 8.77787 327.012 9.35055 325.98 9.91383L326.008 9.0689L330.796 14.1666H330.035C330.279 13.7536 330.495 13.3029 330.683 12.8148C330.871 12.3078 331.031 11.7727 331.162 11.2094C331.312 10.6273 331.425 10.0265 331.5 9.40687C331.575 8.93747 331.735 8.59011 331.979 8.36479C332.223 8.1207 332.57 7.99866 333.021 7.99866C333.509 7.99866 333.875 8.13948 334.119 8.42112C334.363 8.68399 334.457 9.0689 334.401 9.57586C334.307 10.4583 334.147 11.3033 333.922 12.1106C333.716 12.8992 333.453 13.6409 333.133 14.3356C332.814 15.0116 332.458 15.6406 332.063 16.2226L332.035 15.3495L334.711 18.0533C335.067 18.4101 335.246 18.7668 335.246 19.1236C335.246 19.4803 335.105 19.7807 334.823 20.0248C334.56 20.2501 334.194 20.3628 333.725 20.3628C333.312 20.3628 332.974 20.2877 332.711 20.1375C332.448 19.9685 332.157 19.7244 331.838 19.4052L330.092 17.5745H330.908C330.082 18.457 329.106 19.1517 327.979 19.6587C326.872 20.1656 325.698 20.4191 324.459 20.4191ZM324.656 17.6308C325.557 17.6308 326.355 17.4619 327.05 17.1239C327.763 16.7671 328.411 16.2414 328.993 15.5467L328.909 16.4479L323.107 10.449L324.572 10.5898L323.755 11.0686C323.116 11.4441 322.6 11.8196 322.206 12.1951C321.811 12.5519 321.52 12.9462 321.333 13.378C321.164 13.7911 321.079 14.2605 321.079 14.7863C321.079 15.6687 321.389 16.3635 322.009 16.8704C322.628 17.3774 323.511 17.6308 324.656 17.6308ZM325.219 2.50662C324.543 2.50662 323.999 2.70377 323.586 3.09807C323.173 3.4736 322.966 3.98994 322.966 4.64711C322.966 5.00386 323.022 5.34183 323.135 5.66102C323.248 5.96144 323.445 6.29941 323.727 6.67494C324.008 7.03169 324.393 7.47293 324.881 7.99866L324.093 7.94233C324.881 7.4917 325.501 7.08801 325.952 6.73127C326.421 6.37452 326.759 6.01777 326.965 5.66102C327.172 5.30427 327.275 4.90997 327.275 4.47812C327.275 3.83973 327.088 3.35155 326.712 3.01358C326.336 2.67561 325.839 2.50662 325.219 2.50662Z" fill="#C80C2C"/>
<path d="M227.439 50.8741C226.857 50.8741 226.407 50.7145 226.088 50.3953C225.787 50.0573 225.637 49.5973 225.637 49.0153V32.4265C225.637 31.8256 225.787 31.3656 226.088 31.0464C226.407 30.7272 226.857 30.5676 227.439 30.5676C228.022 30.5676 228.463 30.7272 228.763 31.0464C229.082 31.3656 229.242 31.8256 229.242 32.4265V49.0153C229.242 49.5973 229.092 50.0573 228.791 50.3953C228.491 50.7145 228.04 50.8741 227.439 50.8741Z" fill="#C80C2C"/>
<path d="M237.247 50.8741C236.684 50.8741 236.252 50.7239 235.951 50.4235C235.651 50.1043 235.501 49.6536 235.501 49.0716V38.4255C235.501 37.8434 235.651 37.4022 235.951 37.1018C236.252 36.8013 236.674 36.6511 237.219 36.6511C237.763 36.6511 238.186 36.8013 238.486 37.1018C238.787 37.4022 238.937 37.8434 238.937 38.4255V40.3407L238.627 39.6365C239.04 38.6414 239.679 37.8904 240.542 37.3834C241.425 36.8577 242.42 36.5948 243.528 36.5948C244.635 36.5948 245.546 36.8013 246.26 37.2144C246.973 37.6275 247.508 38.2565 247.865 39.1014C248.222 39.9276 248.4 40.979 248.4 42.2558V49.0716C248.4 49.6536 248.25 50.1043 247.949 50.4235C247.649 50.7239 247.217 50.8741 246.654 50.8741C246.091 50.8741 245.649 50.7239 245.33 50.4235C245.03 50.1043 244.88 49.6536 244.88 49.0716V42.4248C244.88 41.3546 244.673 40.5754 244.26 40.0872C243.866 39.599 243.246 39.3549 242.401 39.3549C241.368 39.3549 240.542 39.6835 239.923 40.3407C239.322 40.979 239.021 41.8334 239.021 42.9036V49.0716C239.021 50.2733 238.43 50.8741 237.247 50.8741Z" fill="#C80C2C"/>
<path d="M259.27 50.9304C258.463 50.9304 257.609 50.8459 256.707 50.6769C255.806 50.508 254.999 50.2169 254.285 49.8039C253.985 49.6161 253.769 49.4002 253.638 49.1561C253.525 48.8932 253.478 48.6397 253.497 48.3956C253.534 48.1328 253.628 47.9075 253.778 47.7197C253.947 47.5319 254.154 47.4099 254.398 47.3536C254.661 47.2972 254.942 47.3442 255.243 47.4944C255.994 47.8511 256.698 48.1046 257.355 48.2548C258.012 48.3862 258.66 48.452 259.299 48.452C260.2 48.452 260.866 48.3018 261.298 48.0013C261.749 47.6821 261.974 47.2691 261.974 46.7621C261.974 46.3303 261.824 46.0017 261.524 45.7764C261.242 45.5323 260.81 45.3539 260.228 45.2412L257.412 44.7061C256.247 44.4808 255.356 44.0583 254.736 43.4387C254.135 42.8003 253.835 41.9836 253.835 40.9884C253.835 40.0872 254.079 39.308 254.567 38.6508C255.074 37.9936 255.769 37.4867 256.651 37.1299C257.534 36.7732 258.548 36.5948 259.693 36.5948C260.519 36.5948 261.289 36.6887 262.002 36.8764C262.735 37.0454 263.439 37.3177 264.115 37.6932C264.396 37.8434 264.584 38.0406 264.678 38.2847C264.791 38.5288 264.819 38.7822 264.762 39.0451C264.706 39.2892 264.593 39.5145 264.424 39.721C264.255 39.9088 264.04 40.0308 263.777 40.0872C263.533 40.1247 263.251 40.0684 262.932 39.9182C262.35 39.6178 261.786 39.4018 261.242 39.2704C260.716 39.139 260.209 39.0733 259.721 39.0733C258.801 39.0733 258.116 39.2329 257.665 39.5521C257.233 39.8712 257.017 40.2937 257.017 40.8194C257.017 41.2137 257.149 41.5423 257.412 41.8052C257.674 42.0681 258.078 42.2464 258.623 42.3403L261.439 42.8754C262.66 43.1008 263.58 43.5138 264.199 44.1147C264.838 44.7155 265.157 45.5229 265.157 46.5368C265.157 47.9075 264.622 48.9871 263.551 49.7757C262.481 50.5455 261.054 50.9304 259.27 50.9304Z" fill="#C80C2C"/>
<path d="M271.98 50.8459C271.417 50.8459 270.985 50.6769 270.685 50.339C270.384 50.001 270.234 49.5316 270.234 48.9308V38.5945C270.234 37.9749 270.384 37.5054 270.685 37.1863C270.985 36.8483 271.417 36.6793 271.98 36.6793C272.544 36.6793 272.976 36.8483 273.276 37.1863C273.595 37.5054 273.755 37.9749 273.755 38.5945V48.9308C273.755 49.5316 273.605 50.001 273.304 50.339C273.004 50.6769 272.562 50.8459 271.98 50.8459ZM271.98 34.06C271.323 34.06 270.807 33.9004 270.431 33.5812C270.075 33.2433 269.896 32.7832 269.896 32.2012C269.896 31.6003 270.075 31.1403 270.431 30.8211C270.807 30.5019 271.323 30.3423 271.98 30.3423C272.656 30.3423 273.173 30.5019 273.529 30.8211C273.886 31.1403 274.065 31.6003 274.065 32.2012C274.065 32.7832 273.886 33.2433 273.529 33.5812C273.173 33.9004 272.656 34.06 271.98 34.06Z" fill="#C80C2C"/>
<path d="M286.087 56C285.074 56 284.088 55.9061 283.13 55.7184C282.191 55.5306 281.337 55.2396 280.567 54.8453C280.21 54.6575 279.966 54.4322 279.835 54.1693C279.722 53.9065 279.685 53.6342 279.722 53.3526C279.779 53.0897 279.891 52.855 280.06 52.6484C280.248 52.4419 280.473 52.3011 280.736 52.226C280.999 52.1509 281.271 52.1884 281.553 52.3386C282.379 52.7517 283.158 53.0146 283.891 53.1272C284.642 53.2587 285.28 53.3244 285.806 53.3244C287.064 53.3244 288.003 53.0146 288.622 52.395C289.261 51.7941 289.58 50.8929 289.58 49.6912V47.1564H289.833C289.552 48.114 288.96 48.8838 288.059 49.4659C287.176 50.0292 286.172 50.3108 285.045 50.3108C283.806 50.3108 282.726 50.0292 281.806 49.4659C280.886 48.8838 280.173 48.0764 279.666 47.0438C279.159 46.0111 278.906 44.8094 278.906 43.4387C278.906 42.406 279.046 41.4766 279.328 40.6505C279.628 39.8055 280.041 39.0826 280.567 38.4818C281.112 37.881 281.76 37.421 282.511 37.1018C283.28 36.7638 284.125 36.5948 285.045 36.5948C286.209 36.5948 287.223 36.8858 288.087 37.4679C288.97 38.0312 289.542 38.7822 289.805 39.721L289.523 40.4251V38.4255C289.523 37.8434 289.674 37.4022 289.974 37.1018C290.293 36.8013 290.725 36.6511 291.27 36.6511C291.833 36.6511 292.265 36.8013 292.565 37.1018C292.866 37.4022 293.016 37.8434 293.016 38.4255V49.2687C293.016 51.5031 292.424 53.1836 291.242 54.3101C290.059 55.4367 288.341 56 286.087 56ZM286.003 47.6352C286.735 47.6352 287.364 47.4662 287.89 47.1282C288.416 46.7903 288.819 46.3115 289.101 45.6919C289.401 45.0535 289.552 44.3024 289.552 43.4387C289.552 42.1432 289.232 41.1293 288.594 40.397C287.956 39.6459 287.092 39.2704 286.003 39.2704C285.271 39.2704 284.642 39.4394 284.116 39.7774C283.59 40.1153 283.177 40.5941 282.877 41.2137C282.595 41.8334 282.454 42.575 282.454 43.4387C282.454 44.7343 282.773 45.7576 283.412 46.5086C284.05 47.2597 284.914 47.6352 286.003 47.6352Z" fill="#C80C2C"/>
<path d="M300.663 50.8741C300.1 50.8741 299.668 50.7239 299.367 50.4235C299.067 50.1043 298.917 49.6536 298.917 49.0716V32.342C298.917 31.7599 299.067 31.3187 299.367 31.0183C299.668 30.7179 300.1 30.5676 300.663 30.5676C301.226 30.5676 301.658 30.7179 301.958 31.0183C302.278 31.3187 302.437 31.7599 302.437 32.342V39.6365H302.043C302.456 38.6414 303.094 37.8904 303.958 37.3834C304.841 36.8577 305.836 36.5948 306.944 36.5948C308.051 36.5948 308.962 36.8013 309.675 37.2144C310.389 37.6275 310.924 38.2565 311.281 39.1014C311.638 39.9276 311.816 40.979 311.816 42.2558V49.0716C311.816 49.6536 311.666 50.1043 311.365 50.4235C311.065 50.7239 310.633 50.8741 310.07 50.8741C309.506 50.8741 309.065 50.7239 308.746 50.4235C308.446 50.1043 308.295 49.6536 308.295 49.0716V42.4248C308.295 41.3546 308.089 40.5754 307.676 40.0872C307.282 39.599 306.662 39.3549 305.817 39.3549C304.784 39.3549 303.958 39.6835 303.339 40.3407C302.738 40.979 302.437 41.8334 302.437 42.9036V49.0716C302.437 50.2733 301.846 50.8741 300.663 50.8741Z" fill="#C80C2C"/>
<path d="M323.954 50.9304C322.733 50.9304 321.71 50.7239 320.884 50.3108C320.076 49.8977 319.476 49.2969 319.081 48.5083C318.687 47.7009 318.49 46.7058 318.49 45.5229V39.5239H317.025C316.575 39.5239 316.227 39.4112 315.983 39.1859C315.739 38.9418 315.617 38.6132 315.617 38.2002C315.617 37.7683 315.739 37.4397 315.983 37.2144C316.227 36.9891 316.575 36.8764 317.025 36.8764H318.49V34.3135C318.49 33.7314 318.64 33.2902 318.94 32.9898C319.26 32.6894 319.701 32.5391 320.264 32.5391C320.827 32.5391 321.259 32.6894 321.56 32.9898C321.86 33.2902 322.01 33.7314 322.01 34.3135V36.8764H324.996C325.446 36.8764 325.794 36.9891 326.038 37.2144C326.282 37.4397 326.404 37.7683 326.404 38.2002C326.404 38.6132 326.282 38.9418 326.038 39.1859C325.794 39.4112 325.446 39.5239 324.996 39.5239H322.01V45.3257C322.01 46.227 322.207 46.9029 322.602 47.3536C322.996 47.8042 323.634 48.0295 324.517 48.0295C324.836 48.0295 325.118 48.0013 325.362 47.945C325.606 47.8887 325.822 47.8511 326.01 47.8324C326.235 47.8136 326.423 47.8887 326.573 48.0577C326.723 48.2079 326.798 48.5271 326.798 49.0153C326.798 49.3908 326.733 49.7287 326.601 50.0292C326.488 50.3108 326.273 50.508 325.953 50.6206C325.709 50.6957 325.39 50.7614 324.996 50.8178C324.601 50.8929 324.254 50.9304 323.954 50.9304Z" fill="#C80C2C"/>
<path d="M335.749 50.9304C334.941 50.9304 334.087 50.8459 333.186 50.6769C332.284 50.508 331.477 50.2169 330.763 49.8039C330.463 49.6161 330.247 49.4002 330.116 49.1561C330.003 48.8932 329.956 48.6397 329.975 48.3956C330.012 48.1328 330.106 47.9075 330.257 47.7197C330.426 47.5319 330.632 47.4099 330.876 47.3536C331.139 47.2972 331.421 47.3442 331.721 47.4944C332.472 47.8511 333.176 48.1046 333.833 48.2548C334.491 48.3862 335.138 48.452 335.777 48.452C336.678 48.452 337.345 48.3018 337.776 48.0013C338.227 47.6821 338.452 47.2691 338.452 46.7621C338.452 46.3303 338.302 46.0017 338.002 45.7764C337.72 45.5323 337.288 45.3539 336.706 45.2412L333.89 44.7061C332.726 44.4808 331.834 44.0583 331.214 43.4387C330.613 42.8003 330.313 41.9836 330.313 40.9884C330.313 40.0872 330.557 39.308 331.045 38.6508C331.552 37.9936 332.247 37.4867 333.129 37.1299C334.012 36.7732 335.026 36.5948 336.171 36.5948C336.997 36.5948 337.767 36.6887 338.48 36.8764C339.213 37.0454 339.917 37.3177 340.593 37.6932C340.874 37.8434 341.062 38.0406 341.156 38.2847C341.269 38.5288 341.297 38.7822 341.241 39.0451C341.184 39.2892 341.072 39.5145 340.903 39.721C340.734 39.9088 340.518 40.0308 340.255 40.0872C340.011 40.1247 339.729 40.0684 339.41 39.9182C338.828 39.6178 338.265 39.4018 337.72 39.2704C337.194 39.139 336.687 39.0733 336.199 39.0733C335.279 39.0733 334.594 39.2329 334.143 39.5521C333.711 39.8712 333.495 40.2937 333.495 40.8194C333.495 41.2137 333.627 41.5423 333.89 41.8052C334.153 42.0681 334.556 42.2464 335.101 42.3403L337.917 42.8754C339.138 43.1008 340.058 43.5138 340.677 44.1147C341.316 44.7155 341.635 45.5229 341.635 46.5368C341.635 47.9075 341.1 48.9871 340.03 49.7757C338.959 50.5455 337.532 50.9304 335.749 50.9304Z" fill="#C80C2C"/>
</svg>
