<svg class="svgicon svgicon-btt" xmlns="http://www.w3.org/2000/svg" width="36" height="27" viewBox="0 0 36 27"><path fill-rule="evenodd" clip-rule="evenodd" d="M0.413785 16.5859C0.560744 16.7574 0.740054 16.8982 0.941465 17.0003C1.14288 17.1025 1.36244 17.1639 1.58761 17.1811C1.81278 17.1984 2.03914 17.1711 2.25375 17.1008C2.46836 17.0305 2.66702 16.9186 2.83837 16.7715L17.7617 3.98172L32.685 16.7715C32.855 16.9271 33.0545 17.047 33.2716 17.124C33.4888 17.2009 33.7192 17.2334 33.9492 17.2196C34.1792 17.2057 34.4041 17.1457 34.6105 17.0432C34.8168 16.9407 35.0004 16.7978 35.1504 16.6229C35.3005 16.448 35.4138 16.2447 35.4836 16.0251C35.5535 15.8056 35.5785 15.5742 35.5572 15.3448C35.5358 15.1153 35.4686 14.8925 35.3594 14.6896C35.2502 14.4867 35.1014 14.3078 34.9217 14.1636L18.88 0.413595C18.5686 0.146699 18.1719 0 17.7617 0C17.3515 0 16.9549 0.146699 16.6434 0.413595L0.601703 14.1636C0.256084 14.4603 0.0423977 14.8821 0.00759188 15.3363C-0.0272139 15.7905 0.119708 16.24 0.416078 16.5859"/><path d="M1.72003 26.353C1.36857 26.3533 1.02548 26.2458 0.736997 26.045C0.448516 25.8443 0.228512 25.5599 0.106641 25.2303C-0.0152308 24.9006 -0.033112 24.5415 0.055406 24.2014C0.143924 23.8613 0.334586 23.5564 0.601696 23.328L16.6434 9.57802C16.9548 9.31113 17.3515 9.16443 17.7617 9.16443C18.1719 9.16443 18.5685 9.31113 18.88 9.57802L34.9217 23.328C35.1888 23.5564 35.3795 23.8613 35.468 24.2014C35.5565 24.5415 35.5386 24.9006 35.4167 25.2303C35.2949 25.5599 35.0749 25.8443 34.7864 26.045C34.4979 26.2458 34.1548 26.3533 33.8034 26.353H1.72003Z"/></svg>