<svg class="svgicon svgicon-linkedin" xmlns="http://www.w3.org/2000/svg" width="37" height="35" viewBox="0 0 37 35"><path fill-rule="evenodd" clip-rule="evenodd" d="M19.5021 9.845V13.734C20.3165 12.4934 21.439 11.4856 22.7598 10.8091C24.0807 10.1326 25.5545 9.8107 27.0371 9.87479C34.9548 9.87479 36.6667 14.8248 36.6667 21.2644V34.375H29.3333V22.7517C29.3333 19.9788 28.7742 16.4129 24.4567 16.4129C20.2698 16.4129 19.5548 19.431 19.5548 22.5454V34.375H12.2444V9.845H19.5021ZM7.33332 3.68042C7.33242 4.40688 7.11708 5.11691 6.7143 5.7215C6.31151 6.32608 5.73922 6.7983 5.06915 7.07896C4.39936 7.35735 3.66189 7.43018 2.95059 7.28816C2.23928 7.14614 1.58631 6.79571 1.07478 6.28146C0.562284 5.76688 0.213375 5.11227 0.0719284 4.39992C-0.0695186 3.68758 0.0028125 2.94932 0.279824 2.27798C0.556836 1.60663 1.02616 1.03218 1.62878 0.62686C2.2314 0.221538 2.94041 0.00344301 3.66665 0C4.14933 -3.39371e-06 4.62725 0.0952911 5.07301 0.280418C5.51877 0.465544 5.92359 0.736859 6.26425 1.0788C6.60492 1.42074 6.87471 1.82657 7.05817 2.27302C7.24163 2.71947 7.33513 3.19775 7.33332 3.68042Z"/><path d="M7.33333 9.87476H0V34.375H7.33333V9.87476Z"/></svg>