<svg class="svgicon svgicon-more-down-circle" xmlns="http://www.w3.org/2000/svg" width="50" height="50" viewBox="0 0 50 50"><path d="M31.5238 21.2109C32.3048 20.4301 33.5709 20.4299 34.3519 21.2109C35.1327 21.9919 35.1327 23.2581 34.3519 24.0391L26.3304 32.0596C25.5494 32.8406 24.2833 32.8406 23.5023 32.0596L15.4818 24.0391C14.7007 23.258 14.7007 21.992 15.4818 21.2109C16.2628 20.4299 17.5288 20.4299 18.3099 21.2109L24.9163 27.8174L31.5238 21.2109Z"/><path d="M45.833 24.917C45.833 13.3648 36.4691 4.00018 24.917 4C13.3647 4 4 13.3647 4 24.917C4.00018 36.4691 13.3648 45.833 24.917 45.833C36.469 45.8328 45.8328 36.469 45.833 24.917ZM49.833 24.917C49.8328 38.6782 38.6782 49.8328 24.917 49.833C11.1557 49.833 0.000175483 38.6783 0 24.917C0 11.1555 11.1555 0 24.917 0C38.6783 0.000175495 49.833 11.1557 49.833 24.917Z"/></svg>