<svg class="svgicon svgicon-search" xmlns="http://www.w3.org/2000/svg" width="16" height="16" viewBox="0 0 16 16"><path d="M7.11621 0C9.00324 0.000125513 10.8131 0.749646 12.1475 2.08398C13.4819 3.41844 14.2314 5.229 14.2314 7.11621C14.2313 8.69976 13.7015 10.2274 12.7432 11.4668L15.752 14.4941C15.9134 14.6622 16.0025 14.8871 16 15.1201C15.9973 15.3534 15.9027 15.5767 15.7373 15.7412C15.5719 15.9056 15.3484 15.9987 15.1152 16C14.882 16.0013 14.6575 15.9106 14.4902 15.748L11.4873 12.7266C10.2442 13.6951 8.70865 14.2313 7.11621 14.2314C5.229 14.2314 3.41844 13.4819 2.08398 12.1475C0.749646 10.8131 0.000125513 9.00324 0 7.11621C0 5.229 0.749525 3.41844 2.08398 2.08398C3.41844 0.749525 5.229 0 7.11621 0ZM7.11621 1.7793C5.7008 1.7793 4.34264 2.34095 3.3418 3.3418C2.34095 4.34264 1.7793 5.7008 1.7793 7.11621C1.77942 8.53144 2.34107 9.88892 3.3418 10.8896C4.34264 11.8905 5.7008 12.4521 7.11621 12.4521C7.81689 12.4521 8.51086 12.314 9.1582 12.0459C9.80558 11.7777 10.3942 11.3851 10.8896 10.8896C11.3851 10.3942 11.7777 9.80558 12.0459 9.1582C12.314 8.51086 12.4521 7.81689 12.4521 7.11621C12.4521 6.41537 12.3141 5.72073 12.0459 5.07324C11.7777 4.42587 11.3851 3.83729 10.8896 3.3418C10.3942 2.8463 9.80558 2.45374 9.1582 2.18555C8.51086 1.91741 7.81689 1.77936 7.11621 1.7793Z"/></svg>