<svg class="svgicon svgicon-cart" xmlns="http://www.w3.org/2000/svg" width="21" height="21" viewBox="0 0 21 21"><path d="M17.1039 19.8023C17.474 19.8023 17.8289 19.6553 18.0906 19.3936C18.3523 19.132 18.4993 18.777 18.4993 18.407C18.4993 18.0369 18.3523 17.682 18.0906 17.4203C17.8289 17.1586 17.474 17.0116 17.1039 17.0116C16.7339 17.0116 16.379 17.1586 16.1173 17.4203C15.8556 17.682 15.7086 18.0369 15.7086 18.407C15.7086 18.777 15.8556 19.132 16.1173 19.3936C16.379 19.6553 16.7339 19.8023 17.1039 19.8023ZM7.80162 19.8023C8.17169 19.8023 8.5266 19.6553 8.78828 19.3936C9.04995 19.132 9.19696 18.777 9.19696 18.407C9.19696 18.0369 9.04995 17.682 8.78828 17.4203C8.5266 17.1586 8.17169 17.0116 7.80162 17.0116C7.43155 17.0116 7.07663 17.1586 6.81495 17.4203C6.55328 17.682 6.40627 18.0369 6.40627 18.407C6.40627 18.777 6.55328 19.132 6.81495 19.3936C7.07663 19.6553 7.43155 19.8023 7.80162 19.8023Z"/><path fill-rule="evenodd" clip-rule="evenodd" d="M6.32162 16.927C6.71414 16.5345 7.24651 16.314 7.80162 16.314C8.35672 16.314 8.88909 16.5345 9.28161 16.927C9.67412 17.3195 9.89464 17.8519 9.89464 18.407C9.89464 18.9621 9.67412 19.4944 9.28161 19.887C8.88909 20.2795 8.35672 20.5 7.80162 20.5C7.24651 20.5 6.71414 20.2795 6.32162 19.887C5.92911 19.4944 5.70859 18.9621 5.70859 18.407C5.70859 17.8519 5.92911 17.3195 6.32162 16.927ZM7.80162 17.7093C7.61658 17.7093 7.43913 17.7828 7.30829 17.9136C7.17745 18.0445 7.10394 18.2219 7.10394 18.407C7.10394 18.592 7.17745 18.7695 7.30829 18.9003C7.43913 19.0311 7.61658 19.1047 7.80162 19.1047C7.98665 19.1047 8.16411 19.0311 8.29495 18.9003C8.42579 18.7695 8.49929 18.592 8.49929 18.407C8.49929 18.2219 8.42579 18.0445 8.29495 17.9136C8.16411 17.7828 7.98665 17.7093 7.80162 17.7093ZM15.624 16.927C16.0165 16.5345 16.5488 16.314 17.1039 16.314C17.659 16.314 18.1914 16.5345 18.5839 16.927C18.9764 17.3195 19.197 17.8519 19.197 18.407C19.197 18.9621 18.9764 19.4944 18.5839 19.887C18.1914 20.2795 17.659 20.5 17.1039 20.5C16.5488 20.5 16.0165 20.2795 15.624 19.887C15.2314 19.4944 15.0109 18.9621 15.0109 18.407C15.0109 17.8519 15.2314 17.3195 15.624 16.927ZM17.1039 17.7093C16.9189 17.7093 16.7415 17.7828 16.6106 17.9136C16.4798 18.0445 16.4063 18.2219 16.4063 18.407C16.4063 18.592 16.4798 18.7695 16.6106 18.9003C16.7415 19.0311 16.9189 19.1047 17.1039 19.1047C17.289 19.1047 17.4664 19.0311 17.5973 18.9003C17.7281 18.7695 17.8016 18.592 17.8016 18.407C17.8016 18.2219 17.7281 18.0445 17.5973 17.9136C17.4664 17.7828 17.289 17.7093 17.1039 17.7093Z"/><path fill-rule="evenodd" clip-rule="evenodd" d="M0.127197 1.19767C0.127197 0.812359 0.439557 0.5 0.824872 0.5C2.65616 0.5 3.66487 1.51541 4.09109 2.36046H19.4295C19.6364 2.36046 19.8326 2.45228 19.9652 2.61111C20.0977 2.76994 20.153 2.9794 20.1159 3.18294L18.2555 13.4155C18.1952 13.7472 17.9062 13.9884 17.5691 13.9884H3.82952C3.08931 13.9884 2.62284 14.152 2.35836 14.3521C2.11901 14.5332 1.98766 14.7849 1.98766 15.1512C1.98766 15.5174 2.11901 15.7692 2.35836 15.9502C2.62284 16.1503 3.08931 16.314 3.82952 16.314L17.1039 16.314C17.4893 16.314 17.8016 16.6263 17.8016 17.0116C17.8016 17.3969 17.4893 17.7093 17.1039 17.7093L3.82952 17.7093C2.9102 17.7093 2.1069 17.5097 1.5165 17.063C0.900967 16.5973 0.592313 15.9188 0.592313 15.1512C0.592313 14.3835 0.900967 13.705 1.5165 13.2393C2.1069 12.7927 2.9102 12.593 3.82952 12.593H4.64007L2.93388 3.20895C2.82765 2.82394 2.28083 1.89535 0.824872 1.89535C0.439557 1.89535 0.127197 1.58299 0.127197 1.19767ZM4.45153 3.75581L6.0583 12.593H16.9868L18.5936 3.75581H4.45153Z"/></svg>