<svg class="svgicon svgicon-click-to-buy" xmlns="http://www.w3.org/2000/svg" width="55" height="45" viewBox="0 0 55 45"><path fill-rule="evenodd" clip-rule="evenodd" d="M11 6.125C9.54131 6.125 8.14236 6.70446 7.11091 7.73591C6.07946 8.76736 5.5 10.1663 5.5 11.625V14.375H49.5V11.625C49.5 10.1663 48.9205 8.76736 47.8891 7.73591C46.8576 6.70446 45.4587 6.125 44 6.125H11ZM55 11.625C55 8.70762 53.8411 5.90973 51.7782 3.84683C49.7153 1.78393 46.9174 0.625 44 0.625H11C8.08262 0.625 5.28473 1.78393 3.22183 3.84683C1.15893 5.90973 0 8.70762 0 11.625V33.625C0 36.5424 1.15893 39.3403 3.22183 41.4032C5.28473 43.4661 8.08262 44.625 11 44.625H44C46.9174 44.625 49.7153 43.4661 51.7782 41.4032C53.8411 39.3403 55 36.5424 55 33.625V11.625ZM49.5 19.875H5.5V33.625C5.5 35.0837 6.07946 36.4826 7.11091 37.5141C8.14236 38.5455 9.54131 39.125 11 39.125H44C45.4587 39.125 46.8576 38.5455 47.8891 37.5141C48.9205 36.4826 49.5 35.0837 49.5 33.625V19.875ZM11 30.875C11 29.3562 12.2312 28.125 13.75 28.125H13.7775C15.2963 28.125 16.5275 29.3562 16.5275 30.875C16.5275 32.3938 15.2963 33.625 13.7775 33.625H13.75C12.2312 33.625 11 32.3938 11 30.875ZM22 30.875C22 29.3562 23.2312 28.125 24.75 28.125H30.25C31.7688 28.125 33 29.3562 33 30.875C33 32.3938 31.7688 33.625 30.25 33.625H24.75C23.2312 33.625 22 32.3938 22 30.875Z"/></svg>