<svg class="svgicon svgicon-deal-payment" xmlns="http://www.w3.org/2000/svg" width="48" height="36" viewBox="0 0 48 36"><path d="M8.15891 10.9585L5.80214 16.9386H5.65104V17.3185L5.60487 17.4354L5.57129 17.4834V15.5067C5.57918 15.1586 5.44796 14.8217 5.2064 14.5697C4.96484 14.3177 4.63267 14.1713 4.28272 14.1625H2.28902C1.93907 14.1713 1.6069 14.3177 1.36534 14.5697C1.12379 14.8217 0.992564 15.1586 1.00045 15.5067C0.989178 16.0342 1.18841 16.5447 1.55456 16.9265C1.92071 17.3082 2.42398 17.5302 2.95429 17.5439H5.52512L4.91231 18.3955C4.33994 19.2012 3.95171 20.1216 3.77485 21.0923H3.65733V21.706H3.68881C3.66992 21.9147 3.65733 22.1235 3.65733 22.3322V29.3372H3.67832C3.72451 29.73 3.86819 30.1053 4.09642 30.4292C4.32465 30.7531 4.63026 31.0155 4.98577 31.1928V33.1882C4.97619 33.6262 5.14156 34.0501 5.44564 34.367C5.74972 34.6839 6.16771 34.868 6.60802 34.8789H8.60172C9.04184 34.868 9.45962 34.6838 9.76337 34.3669C10.0671 34.0499 10.232 33.626 10.2219 33.1882V31.4161H20.8536V30.8045H5.95324C5.54476 30.7981 5.15181 30.6478 4.84436 30.3802C4.53691 30.1127 4.33491 29.7452 4.27433 29.3434H20.8536V28.7318H4.25334V24.4821H8.26804C8.61817 24.4733 8.95055 24.327 9.19244 24.0751C9.43433 23.8231 9.56603 23.4862 9.5587 23.1379C9.57112 22.6107 9.37326 22.1001 9.00834 21.7176C8.64341 21.3351 8.1411 21.1118 7.61116 21.0965H4.37297C4.53989 20.2574 4.88317 19.4629 5.38031 18.765L6.09385 17.7714L6.18409 17.5481H20.8536V16.9386H6.42543L8.70036 11.1902C8.91319 10.6201 9.29498 10.1277 9.79524 9.77815C10.2955 9.42856 10.8907 9.23822 11.502 9.2323H20.8536V8.61864H11.502C10.7722 8.62623 10.0618 8.85399 9.46484 9.27178C8.8679 9.68958 8.41252 10.2777 8.15891 10.9585ZM4.98577 16.9386H2.95429C2.76989 16.934 2.58822 16.8933 2.41964 16.8189C2.25107 16.7444 2.0989 16.6376 1.97183 16.5046C1.84476 16.3717 1.74528 16.2151 1.67907 16.0439C1.61286 15.8726 1.58123 15.6901 1.58597 15.5067C1.58259 15.3173 1.65457 15.1343 1.78626 14.9975C1.91794 14.8606 2.09864 14.7811 2.28902 14.7762H4.28272C4.4731 14.7811 4.65381 14.8606 4.78549 14.9975C4.91717 15.1343 4.98915 15.3173 4.98577 15.5067V16.9386ZM9.63845 31.4078V33.1799C9.64465 33.4599 9.53902 33.7309 9.34469 33.9335C9.15037 34.1362 8.8832 34.254 8.60172 34.2611H6.60802C6.32654 34.254 6.05937 34.1362 5.86505 33.9335C5.67072 33.7309 5.56509 33.4599 5.57129 33.1799V31.3702C5.69386 31.3925 5.81814 31.4044 5.94275 31.4057L9.63845 31.4078ZM7.61116 21.706C7.98264 21.7158 8.33509 21.8715 8.59148 22.1391C8.84788 22.4066 8.98737 22.7642 8.97948 23.1337C8.98342 23.324 8.91146 23.5081 8.77933 23.6458C8.6472 23.7835 8.46564 23.8635 8.27433 23.8684H4.25334V22.3238C4.25442 22.1146 4.26633 21.9056 4.28902 21.6976L7.61116 21.706Z"/><path d="M13.0949 26.5569H20.8536V25.9474H13.4076L12.4695 24.4779H20.8536V23.8684H11.3761L13.0949 26.5569Z"/><path d="M46.8851 29.0241L46.7655 28.8967V3.77193H37.4475C37.3006 2.21898 36.0414 1 34.5094 1C32.9774 1 31.7203 2.21898 31.5713 3.77193H22.2618V34.8727H41.0362L41.1558 35L41.2775 34.8727H46.7655V29.1493L46.8851 29.0241ZM34.5136 1.60949C35.1026 1.62253 35.6664 1.84977 36.0983 2.24823C36.5303 2.64669 36.8005 3.18876 36.8578 3.77193H32.1652C32.2227 3.18806 32.4934 2.64543 32.9263 2.24687C33.3591 1.84831 33.9239 1.62152 34.5136 1.60949ZM39.5377 4.38142V6.15563C39.5479 6.61483 39.3747 7.05933 39.0561 7.39184C38.7376 7.72435 38.2995 7.9178 37.8378 7.92983H31.1915C30.7294 7.91834 30.2908 7.72513 29.9718 7.39256C29.6528 7.05999 29.4793 6.61518 29.4895 6.15563V4.38142H39.5377ZM22.8452 4.38142H28.906V6.15563C28.892 6.77297 29.1247 7.37065 29.5531 7.81754C29.9816 8.26442 30.5708 8.524 31.1915 8.53932H37.8316C38.4528 8.52454 39.0427 8.26527 39.472 7.81839C39.9012 7.3715 40.1347 6.77352 40.1212 6.15563V4.38142H46.1799V28.7172H40.8641V34.2611H22.8452V4.38142ZM45.7665 29.3288L41.4496 33.8311V29.3288H45.7665ZM41.863 34.2611L46.1799 29.7588V34.2611H41.863Z"/><path d="M43.4433 13.4737H32.2282V14.0832H43.4433V13.4737Z"/><path d="M27.8693 14.7323L26.5409 13.3464L26.1274 13.7784L27.8693 15.5944L30.9396 12.3925L30.5262 11.9604L27.8693 14.7323Z"/><path d="M43.4433 20.4035H32.2282V21.013H43.4433V20.4035Z"/><path d="M27.8693 21.6622L26.5409 20.2762L26.1274 20.7083L27.8693 22.5242L30.9396 19.3223L30.5262 18.8902L27.8693 21.6622Z"/><path d="M39.4559 27.3313H32.2282V27.9408H39.4559V27.3313Z"/><path d="M27.8693 28.592L26.5409 27.206L26.1274 27.6381L27.8693 29.4541L30.9396 26.2521L30.5262 25.8201L27.8693 28.592Z"/><path fill-rule="evenodd" clip-rule="evenodd" d="M31.3517 3.52193C31.6069 1.95908 32.9145 0.75 34.5094 0.75C36.1039 0.75 37.4137 1.95874 37.6673 3.52193H47.0155V28.7977L47.2294 29.0255L47.0155 29.2495V35.1227H41.3844L41.1542 35.3634L40.928 35.1227H22.0118V3.52193H31.3517ZM41.1574 34.6366L41.1707 34.6227H46.5155V29.0491L46.5407 29.0226L46.5155 28.9958V4.02193H37.22L37.1986 3.79548C37.0629 2.36093 35.9027 1.25 34.5094 1.25C33.1164 1.25 31.9579 2.36071 31.8202 3.79581L31.7985 4.02193H22.5118V34.6227H41.1443L41.1574 34.6366ZM34.5191 1.35955C35.1689 1.37394 35.791 1.6246 36.2678 2.06447C36.7447 2.50438 37.0432 3.10308 37.1066 3.74747L37.1336 4.02193H31.8894L31.9164 3.74746C31.9799 3.1023 32.2791 2.50297 32.7569 2.06296C33.2347 1.62298 33.858 1.37282 34.5085 1.35954L34.5191 1.35955ZM34.5134 1.85955C33.9864 1.8716 33.4821 2.07484 33.0956 2.43077C32.7767 2.72445 32.5561 3.10526 32.4592 3.52193H36.5638C36.4671 3.10586 36.247 2.72552 35.9288 2.43199C35.5431 2.07614 35.0397 1.8725 34.5134 1.85955ZM22.5952 4.13142H29.156V6.16133C29.1435 6.71204 29.351 7.24546 29.7336 7.64452C30.1156 8.0429 30.6408 8.27486 31.1946 8.28932H37.8285C38.3829 8.27537 38.9089 8.04365 39.2917 7.6452C39.675 7.24611 39.8833 6.71235 39.8712 6.16109L39.8711 6.15563L39.8712 4.13142H46.4299V28.9672H41.1141V34.5111H22.5952V4.13142ZM23.0952 4.63142V34.0111H40.6141V28.4672H45.9299V4.63142H40.3712V6.15302C40.3854 6.83653 40.1267 7.49759 39.6523 7.99157C39.1772 8.48619 38.5245 8.77291 37.8375 8.78925L37.8316 8.78939L31.1853 8.78932C30.4989 8.77238 29.847 8.48522 29.3727 7.99055C28.899 7.49654 28.6412 6.83578 28.656 6.15284V4.63142H23.0952ZM29.2395 4.13142H39.7877V6.15296C39.7986 6.67769 39.6004 7.18519 39.2367 7.5648C38.8723 7.94505 38.3717 8.166 37.8444 8.17975L37.8378 8.17991L31.1852 8.17983C30.6575 8.1667 30.1562 7.94594 29.7914 7.56563C29.4272 7.18596 29.2286 6.6781 29.2395 6.15297V4.13142ZM29.7395 4.63142V6.16114C29.7308 6.55411 29.879 6.93471 30.1522 7.21949C30.4248 7.50361 30.7995 7.66922 31.1947 7.67983H37.8345C38.2293 7.66872 38.6035 7.50291 38.8756 7.21888C39.1484 6.93415 39.2965 6.55381 39.2878 6.16115L39.2877 6.15563L39.2877 4.63142H29.7395ZM11.4994 8.36865L11.502 8.36863L21.1036 8.36864V9.4823H11.5033C10.9426 9.48796 10.397 9.66262 9.93845 9.98307C9.4796 10.3037 9.12962 10.7552 8.93457 11.2776L8.93286 11.2822L6.79324 16.6886H21.1036V17.7981H6.35271L6.31441 17.8929L5.58394 18.91C5.16686 19.4957 4.86249 20.1526 4.68586 20.8465H7.61838C8.21392 20.8637 8.77871 21.1147 9.18922 21.545C9.59851 21.9741 9.82124 22.5466 9.80875 23.1383C9.81594 23.5511 9.65919 23.9499 9.37278 24.2482C9.0851 24.5478 8.69009 24.7216 8.27429 24.732L8.26804 24.7322L4.50334 24.7321V28.4818H21.1036V29.5934H4.59536C4.67987 29.8225 4.82124 30.0287 5.00848 30.1916C5.27086 30.42 5.60629 30.5486 5.95527 30.5545H21.1036V31.6661H10.4719V33.1854C10.4827 33.6888 10.2928 34.1757 9.94387 34.5398C9.59432 34.9046 9.11382 35.1163 8.60793 35.1289L8.60172 35.129L6.6018 35.1289C6.09578 35.1164 5.61512 34.9047 5.26524 34.5401C4.91598 34.1761 4.72551 33.6891 4.73577 33.1856V31.3423C4.4022 31.1505 4.11403 30.8882 3.89205 30.5732C3.68301 30.2765 3.53812 29.9407 3.46559 29.5872H3.40733V22.3322C3.40733 22.2061 3.41172 22.0806 3.41914 21.956H3.40733V20.8423H3.56947C3.76813 19.9111 4.15545 19.0292 4.70851 18.2508L4.70939 18.2495L5.03723 17.7939H2.94784C2.35189 17.7786 1.78603 17.529 1.37413 17.0995C0.963441 16.6713 0.739181 16.0989 0.750402 15.5068C0.742524 15.0941 0.898762 14.6951 1.18487 14.3967C1.47222 14.0969 1.86708 13.923 2.28277 13.9126L2.28902 13.9124L4.28898 13.9125C4.70466 13.9229 5.09952 14.0969 5.38687 14.3967C5.67358 14.6958 5.82988 15.0958 5.82129 15.5094V16.2082L7.92546 10.869C8.19698 10.1416 8.6838 9.51328 9.32148 9.06697C9.95979 8.62021 10.7193 8.37677 11.4994 8.36865ZM5.32129 17.2939V15.5011C5.32767 15.2196 5.22164 14.9468 5.02593 14.7427C4.83085 14.5392 4.56255 14.4204 4.27944 14.4125H2.29231C2.00919 14.4204 1.7409 14.5392 1.54582 14.7427C1.3501 14.9468 1.24401 15.2196 1.25039 15.5011L1.25064 15.5121C1.24079 15.973 1.41463 16.4194 1.73499 16.7534C2.05467 17.0867 2.49409 17.2811 2.95759 17.2939H5.32129ZM5.82796 17.5511L6.01301 17.2939H5.90104V17.1886H5.97233L8.3915 11.0502L8.39318 11.0458C8.62904 10.4127 9.05264 9.86543 9.60819 9.4766C10.1634 9.088 10.8242 8.87596 11.5034 8.86864H20.6036V8.9823L11.502 8.98229L11.4996 8.98232C10.8379 8.98872 10.1937 9.19471 9.65204 9.57323C9.11106 9.95128 8.69781 10.4837 8.46702 11.1004L6.05763 17.1886H20.6036V17.2981H6.01547L5.87329 17.65L5.17725 18.6192C4.65964 19.3458 4.30161 20.1739 4.12777 21.0477L4.06833 21.3465H7.60746C8.0705 21.3608 8.50893 21.5563 8.82745 21.8902C9.14673 22.2248 9.31963 22.6713 9.30877 23.132L9.30875 23.1431C9.31468 23.4249 9.20817 23.6977 9.01211 23.9019C8.81669 24.1054 8.54812 24.2242 8.26475 24.2321H4.00334V28.9818H20.6036V29.0934H3.98381L4.02712 29.3807C4.09659 29.8414 4.32815 30.2624 4.68024 30.5688C5.0323 30.8752 5.48203 31.0472 5.94933 31.0545L20.6036 31.0545V31.1661H9.97187V33.1882L9.97194 33.194C9.98054 33.5651 9.84076 33.9248 9.58287 34.1939C9.32561 34.4623 8.97173 34.6189 8.59845 34.6289H6.61128C6.23777 34.6189 5.88363 34.4624 5.62603 34.1939C5.36779 33.9248 5.22758 33.5651 5.23571 33.1937L5.23577 31.0381L5.09733 30.969C4.77878 30.8102 4.50509 30.5752 4.30078 30.2852C4.09648 29.9952 3.96794 29.6594 3.92661 29.308L3.90733 29.144V22.3322C3.90733 22.1333 3.91933 21.9325 3.93779 21.7285L3.96245 21.456H3.90733V21.3423H3.98342L4.0208 21.1371C4.19105 20.2028 4.56473 19.3166 5.11573 18.5409L5.32129 18.2552V18.277L5.82658 17.5546L5.82796 17.5511ZM30.5264 11.599L31.2858 12.3927L27.8693 15.9556L25.7812 13.7787L26.5407 12.9849L27.8693 14.371L30.5264 11.599ZM30.526 12.3219L27.8693 15.0936L26.541 13.7078L26.4737 13.7782L27.8693 15.2332L30.5934 12.3923L30.526 12.3219ZM31.9782 13.2237H43.6933V14.3332H31.9782V13.2237ZM32.4782 13.7237V13.8332H43.1933V13.7237H32.4782ZM2.28902 14.5262H4.28919C4.54506 14.5328 4.78822 14.6398 4.96562 14.8241C5.14251 15.0079 5.23969 15.2539 5.23577 15.5088V17.1886H2.94805C2.73101 17.1832 2.51713 17.1352 2.31863 17.0475C2.12013 16.9599 1.94085 16.8341 1.79109 16.6774C1.64132 16.5206 1.524 16.336 1.44589 16.134C1.36843 15.9337 1.33107 15.7202 1.33593 15.5055C1.33288 15.2518 1.42998 15.0071 1.60612 14.8241C1.78352 14.6398 2.02668 14.5329 2.28255 14.5263L2.28902 14.5262ZM2.29258 15.0262C2.16877 15.0301 2.05169 15.0822 1.96639 15.1708C1.88047 15.2601 1.83373 15.3792 1.83593 15.5023L1.83613 15.5132C1.83224 15.6636 1.85794 15.8132 1.91225 15.9537C1.96656 16.0942 2.0482 16.2227 2.15257 16.3319C2.25695 16.4412 2.38201 16.5289 2.52066 16.5902C2.6584 16.651 2.80682 16.6845 2.95754 16.6886H4.73577V15.5023C4.73797 15.3792 4.69127 15.2601 4.60535 15.1708C4.52005 15.0822 4.40297 15.0301 4.27916 15.0262H2.29258ZM30.5263 18.5288L31.2858 19.3225L27.8693 22.8854L25.7812 20.7085L26.5407 19.9147L27.8693 21.3009L30.5263 18.5288ZM30.526 19.2517L27.8693 22.0235L26.541 20.6376L26.4737 20.7081L27.8693 22.163L30.5934 19.3221L30.526 19.2517ZM31.9782 20.1535H43.6933V21.263H31.9782V20.1535ZM32.4782 20.6535V20.763H43.1933V20.6535H32.4782ZM4.06487 21.4471L7.61779 21.456C8.05488 21.4676 8.46987 21.6509 8.77198 21.9661C9.07294 22.2801 9.23745 22.6998 9.22952 23.1339C9.23338 23.3888 9.13637 23.6348 8.9597 23.8189C8.78182 24.0042 8.53769 24.1117 8.28077 24.1184L8.27433 24.1185L4.00334 24.1184V22.3238L4.00335 22.3225C4.00447 22.1047 4.01687 21.8871 4.04049 21.6705L4.06487 21.4471ZM4.51752 21.9482C4.50873 22.0734 4.504 22.1989 4.50334 22.3245V23.6184H8.27076C8.39538 23.6145 8.51323 23.562 8.59896 23.4727C8.68531 23.3827 8.7321 23.2627 8.72953 23.1389L8.72931 23.1284C8.73579 22.8253 8.62164 22.5318 8.41099 22.3121C8.20096 22.0929 7.91221 21.9648 7.60742 21.956L4.51752 21.9482ZM10.9196 23.6184H21.1036V24.7279H12.9257L13.5446 25.6974H21.1036V26.8069H12.958L10.9196 23.6184ZM11.8327 24.1184L13.2318 26.3069H20.6036V26.1974H13.2706L12.0133 24.2279H20.6036V24.1184H11.8327ZM30.5263 25.4586L31.2858 26.2523L27.8693 29.8152L25.7812 27.6383L26.5407 26.8446L27.8693 28.2307L30.5263 25.4586ZM30.526 26.1815L27.8693 28.9533L26.541 27.5675L26.4737 27.6379L27.8693 29.0929L30.5934 26.2519L30.526 26.1815ZM31.9782 27.0813H39.7059V28.1908H31.9782V27.0813ZM32.4782 27.5813V27.6908H39.2059V27.5813H32.4782ZM41.1996 29.0788H46.3526L41.1996 34.4531V29.0788ZM41.6996 29.5788V33.2092L45.1804 29.5788H41.6996ZM46.4299 29.1368V34.5111H41.277L46.4299 29.1368ZM42.4491 34.0111H45.9299V30.3808L42.4491 34.0111ZM5.32129 31.0705L5.61612 31.1242C5.72435 31.144 5.83406 31.1545 5.94409 31.1557L5.94529 31.1557L9.88845 31.1579V33.1772C9.89533 33.5228 9.76462 33.8568 9.52514 34.1066C9.28504 34.357 8.95522 34.5022 8.60804 34.511L8.60172 34.5112L6.6017 34.5111C6.25451 34.5023 5.9247 34.357 5.68459 34.1066C5.44512 33.8568 5.31441 33.5228 5.32129 33.1772V31.0705ZM5.82129 31.6516V33.1854C5.81656 33.3988 5.897 33.6056 6.0455 33.7605C6.19336 33.9147 6.39669 34.0049 6.61137 34.0111H8.59837C8.81305 34.0049 9.01638 33.9147 9.16424 33.7605C9.31274 33.6056 9.39323 33.3988 9.38851 33.1854L9.38839 33.1799L9.38845 31.6576L5.94261 31.6557L5.9402 31.6557C5.90052 31.6553 5.86087 31.6539 5.82129 31.6516Z"/></svg>