<svg class="svgicon svgicon-deal-protection" xmlns="http://www.w3.org/2000/svg" width="40" height="35" viewBox="0 0 40 35"><path d="M26.94 32.0112H26.1863V15.6286C24.904 13.6463 24.2536 11.9738 24.2536 10.6605C24.2529 9.92398 24.4279 9.19789 24.764 8.5425C25.1001 7.88712 25.5877 7.32136 26.1863 6.89217V0.629442H26.94V7.29481L26.7707 7.40632C26.229 7.75889 25.7842 8.2413 25.4766 8.80966C25.1689 9.37801 25.0083 10.0143 25.0093 10.6605C25.0093 11.8292 25.6556 13.4378 26.8801 15.3106L26.94 15.4035V32.0112Z"/><path d="M28.9037 12.5623C28.5275 12.5623 28.1598 12.4507 27.8471 12.2418C27.5344 12.0328 27.2906 11.7358 27.1467 11.3883C27.0027 11.0408 26.9651 10.6584 27.0385 10.2895C27.1118 9.92062 27.293 9.58177 27.5589 9.31581C27.8249 9.04984 28.1637 8.86872 28.5326 8.79534C28.9015 8.72196 29.2839 8.75962 29.6314 8.90356C29.9789 9.0475 30.2759 9.29125 30.4849 9.60399C30.6939 9.91673 30.8054 10.2844 30.8054 10.6605C30.8054 11.1649 30.605 11.6486 30.2484 12.0053C29.8917 12.3619 29.408 12.5623 28.9037 12.5623ZM28.9037 9.51247C28.6766 9.51207 28.4545 9.579 28.2655 9.70481C28.0765 9.83062 27.929 10.0097 27.8417 10.2193C27.7544 10.4289 27.7313 10.6597 27.7752 10.8825C27.8191 11.1053 27.9281 11.31 28.0883 11.4709C28.2486 11.6317 28.453 11.7414 28.6756 11.7861C28.8982 11.8308 29.1291 11.8085 29.339 11.722C29.549 11.6355 29.7285 11.4887 29.855 11.3001C29.9815 11.1115 30.0492 10.8897 30.0497 10.6626C30.0499 10.5118 30.0205 10.3625 29.9631 10.2231C29.9056 10.0837 29.8213 9.95699 29.7149 9.85019C29.6084 9.74339 29.482 9.6586 29.3428 9.60065C29.2037 9.54271 29.0544 9.51274 28.9037 9.51247Z"/><path d="M40.0043 34.1442L26.1863 32.2858V14.241L26.8801 15.3044C27.4991 16.247 28.1749 17.151 28.9037 18.0114C29.837 16.9088 32.7939 13.2168 32.7939 10.6605C32.7933 9.95914 32.6033 9.27092 32.2438 8.66864C31.8844 8.06637 31.3688 7.57241 30.7517 7.23901C30.1347 6.90561 29.4389 6.74515 28.7382 6.7746C28.0374 6.80405 27.3576 7.02232 26.7707 7.40632L26.3577 6.77447C27.0584 6.31539 27.8703 6.05433 28.7072 6.01891C29.5442 5.9835 30.3752 6.17505 31.1122 6.57329C31.8493 6.97153 32.4649 7.56164 32.894 8.28115C33.323 9.00066 33.5496 9.8228 33.5496 10.6605C33.5496 13.9643 29.3641 18.6433 29.1845 18.8415L28.9037 19.1512L28.6228 18.8415C28.5836 18.7982 27.8217 17.9516 26.94 16.7312V31.623L39.2507 33.2749V2.66333L26.5642 1.01144L13.4874 2.76244L13.3883 2.01496L26.5621 0.249508L40.0043 2.00051V34.1442Z"/><path d="M13.8157 34.2L-0.00439453 32.3416V0.199951L13.8157 2.05833V34.2ZM0.74928 31.6808L13.06 33.3327V2.71908L0.74928 1.06719V31.6808Z"/><path d="M28.9037 19.1512L28.6228 18.8415C27.7579 17.8602 26.9643 16.8182 26.2482 15.7236C24.9247 13.6979 24.2536 11.9965 24.2536 10.6605C24.2896 9.45234 24.7949 8.30569 25.6622 7.46382C26.5296 6.62194 27.6908 6.15106 28.8995 6.15106C30.1083 6.15106 31.2695 6.62194 32.1368 7.46382C33.0042 8.30569 33.5094 9.45233 33.5455 10.6605C33.5455 13.9643 29.36 18.6433 29.1803 18.8415L28.9037 19.1512ZM28.9037 6.76208C27.8715 6.76208 26.8816 7.17181 26.1514 7.90124C25.4212 8.63068 25.0104 9.62015 25.0093 10.6523C25.0093 11.821 25.6556 13.4295 26.8801 15.3023C27.4991 16.2456 28.1748 17.1503 28.9037 18.0114C29.837 16.9088 32.7939 13.2168 32.7939 10.6605C32.7928 9.62913 32.3826 8.64028 31.6532 7.91096C30.9239 7.18164 29.9351 6.77143 28.9037 6.77034V6.76208ZM28.9037 12.554C28.5275 12.554 28.1598 12.4425 27.8471 12.2335C27.5344 12.0245 27.2906 11.7275 27.1467 11.38C27.0027 11.0325 26.9651 10.6502 27.0385 10.2813C27.1118 9.91237 27.293 9.57351 27.5589 9.30755C27.8249 9.04158 28.1637 8.86046 28.5326 8.78708C28.9015 8.7137 29.2839 8.75136 29.6314 8.8953C29.9789 9.03924 30.2759 9.28299 30.4849 9.59573C30.6939 9.90847 30.8054 10.2761 30.8054 10.6523C30.8054 11.1566 30.605 11.6404 30.2484 11.997C29.8917 12.3537 29.408 12.554 28.9037 12.554ZM28.9037 9.50421C28.6766 9.50381 28.4545 9.57074 28.2655 9.69655C28.0765 9.82236 27.929 10.0014 27.8417 10.211C27.7544 10.4206 27.7313 10.6514 27.7752 10.8742C27.8191 11.097 27.9281 11.3018 28.0883 11.4626C28.2486 11.6235 28.453 11.7332 28.6756 11.7779C28.8982 11.8226 29.1291 11.8003 29.339 11.7137C29.549 11.6272 29.7285 11.4804 29.855 11.2918C29.9815 11.1033 30.0492 10.8814 30.0497 10.6543C30.048 10.3513 29.9266 10.0612 29.7119 9.84727C29.4973 9.63336 29.2067 9.51301 28.9037 9.51247V9.50421Z"/><path d="M26.5146 31.5765L13.3898 33.3954L13.4933 34.1419L26.6181 32.323L26.5146 31.5765Z"/></svg>