<svg class="svgicon svgicon-deal-resale" xmlns="http://www.w3.org/2000/svg" width="36" height="35" viewBox="0 0 36 35"><path d="M27.4081 34.1998C26.213 34.2071 25.0316 33.9455 23.9513 33.4344C20.8834 31.9449 19.0236 28.7384 19.3257 25.4574C19.3756 24.9985 19.3161 24.5343 19.1522 24.1028C18.9882 23.6714 18.7244 23.2848 18.3823 22.9749C16.3012 20.9062 14.2228 18.8375 12.1472 16.7688C11.8415 16.4477 11.4662 16.2011 11.0501 16.0479C10.6341 15.8948 10.1884 15.8392 9.74748 15.8854C7.60221 16.0695 5.71347 15.5296 4.13297 14.2842C1.82014 12.4576 0.744407 10.0847 0.932661 7.22783C0.938786 6.93776 1.03341 6.6565 1.20386 6.42172C1.37431 6.18694 1.61244 6.00985 1.88634 5.91419C2.15915 5.81484 2.45552 5.79979 2.73698 5.87099C3.01845 5.94218 3.27202 6.09634 3.46477 6.31345L4.11642 6.9589C4.9646 7.7988 5.81484 8.64077 6.6506 9.49101C6.68559 9.53732 6.73272 9.57304 6.78675 9.59421C6.84079 9.61539 6.89964 9.6212 6.95677 9.61099C8.17525 9.48894 8.96757 9.13312 9.53026 8.45665C10.0838 7.77954 10.3733 6.92485 10.3453 6.05073C9.93159 5.63698 9.51785 5.22324 9.1041 4.80949L8.1918 3.9034C7.81736 3.52689 7.44085 3.15038 7.06021 2.78008C6.83282 2.58241 6.67275 2.31874 6.60229 2.0258C6.53184 1.73286 6.55451 1.42524 6.66715 1.14579C6.80576 0.752735 7.15744 0.285204 8.00768 0.22728C9.83239 0.0731028 11.6523 0.574833 13.1402 1.64228C15.6909 3.4669 16.8763 5.94936 16.657 9.01934C16.6096 9.4534 16.6639 9.89255 16.8158 10.3019C16.9677 10.7113 17.213 11.0796 17.5321 11.3777C19.4187 13.2395 21.4316 15.2317 23.8748 17.6811C24.1777 17.9977 24.5502 18.2395 24.9628 18.3871C25.3754 18.5347 25.8167 18.584 26.2517 18.5313C28.2226 18.3486 30.1895 18.9192 31.7566 20.1284C34.0074 21.8516 35.1265 24.0858 35.0872 26.7669C35.0599 28.4508 34.4709 30.0774 33.4136 31.3884C31.8476 33.3682 29.57 34.1998 27.4081 34.1998ZM10.0495 14.6256C10.606 14.6226 11.1573 14.7329 11.6698 14.9499C12.1823 15.1668 12.6453 15.4859 13.0305 15.8875C15.0993 17.9562 17.1769 20.0249 19.2636 22.0937C19.7337 22.5339 20.0957 23.0768 20.3214 23.68C20.5471 24.2833 20.6304 24.9305 20.5648 25.5712C20.3104 28.3412 21.8888 31.0533 24.4954 32.3193C26.8082 33.4447 30.3705 33.2316 32.4144 30.623C33.3096 29.5282 33.8069 28.1623 33.8253 26.7483C33.8605 24.4479 32.9296 22.6108 30.9808 21.1131C29.6614 20.0832 27.9958 19.6016 26.3303 19.7684C25.7153 19.833 25.0936 19.7573 24.5121 19.547C23.9305 19.3366 23.4042 18.9972 22.9728 18.5541C20.5483 16.1088 18.5395 14.1105 16.657 12.2693C16.2084 11.8453 15.8631 11.3239 15.6479 10.7454C15.4327 10.1668 15.3533 9.54657 15.4158 8.93245C15.602 6.28449 14.6193 4.22818 12.412 2.64975C11.1583 1.75507 9.62714 1.33563 8.0925 1.46644C7.86287 1.48092 7.84219 1.53678 7.8277 1.57195C7.79667 1.65677 7.76771 1.73124 7.92493 1.88226C8.30972 2.25669 8.69036 2.63734 9.071 3.01798L9.97917 3.93029C10.3929 4.34403 10.8067 4.76122 11.2204 5.18186C11.4327 5.36907 11.5634 5.63191 11.5845 5.91419C11.6434 7.12172 11.2544 8.30848 10.4922 9.2469C9.47234 10.4778 8.05733 10.7571 7.0809 10.846C6.83778 10.8759 6.59105 10.8473 6.36116 10.7628C6.13127 10.6782 5.92484 10.5401 5.75898 10.3599C4.9315 9.5117 4.08125 8.67593 3.23721 7.84017L2.5835 7.19266C2.42834 7.03958 2.37663 7.06026 2.32284 7.07888C2.26905 7.0975 2.19044 7.12853 2.17803 7.30851C2.01667 9.73512 2.93518 11.7521 4.90667 13.3078C6.23065 14.3422 7.82357 14.8014 9.6399 14.6463C9.7792 14.6325 9.91573 14.6256 10.0495 14.6256ZM26.2228 31.2374C26.0237 31.2369 25.8268 31.1963 25.6438 31.1182C25.4608 31.04 25.2953 30.9257 25.1574 30.7823L24.5595 30.1865C23.9458 29.5741 23.3307 28.9632 22.7142 28.3536C22.5291 28.1814 22.3954 27.9614 22.3278 27.7178C22.2602 27.4742 22.2615 27.2167 22.3315 26.9738L22.4598 26.498C22.7266 25.4988 23.0059 24.4644 23.3245 23.4549C23.4097 23.2317 23.5431 23.0299 23.7151 22.8641C23.887 22.6982 24.0934 22.5722 24.3195 22.495C25.0601 22.2654 25.8152 22.0606 26.5476 21.862C26.9282 21.7585 27.3109 21.6551 27.6936 21.5475C27.967 21.4638 28.2583 21.4582 28.5346 21.5313C28.811 21.6044 29.0614 21.7533 29.2576 21.9613L30.8091 23.5087C31.0574 23.7569 31.3056 24.0072 31.5601 24.2493C31.7876 24.4517 31.9515 24.7159 32.0319 25.0096C32.1123 25.3033 32.1058 25.6141 32.0131 25.9042C31.7649 26.7669 31.527 27.6337 31.287 28.5005L31.0987 29.1832C31.0346 29.4423 30.9006 29.6789 30.7113 29.8671C30.5219 30.0553 30.2846 30.188 30.0251 30.2506C29.0473 30.5168 28.0694 30.7864 27.0916 31.0595L26.6779 31.1774C26.5296 31.2181 26.3765 31.2383 26.2228 31.2374ZM28.1467 22.7225C28.108 22.7241 28.0697 22.731 28.0329 22.7432C27.6481 22.8508 27.2619 22.9563 26.8744 23.0597C26.1545 23.2666 25.4098 23.4569 24.6919 23.6804C24.6181 23.7171 24.5547 23.7719 24.5078 23.8397C24.2037 24.8099 23.9286 25.8318 23.6638 26.8186L23.5355 27.2944C23.5241 27.3258 23.5233 27.36 23.5334 27.3919C23.5436 27.4237 23.5639 27.4512 23.5914 27.4703C24.212 28.0909 24.8326 28.697 25.4532 29.3114L26.049 29.9051C26.0829 29.9482 26.13 29.9789 26.1832 29.9924C26.2363 30.0059 26.2924 30.0014 26.3427 29.9796L26.7668 29.8617C27.7474 29.5859 28.7273 29.3162 29.7065 29.0528C29.7588 29.0456 29.8074 29.0215 29.8447 28.9842C29.8821 28.9468 29.9062 28.8983 29.9134 28.846L30.1016 28.1653C30.3416 27.2944 30.5816 26.4256 30.8298 25.5567C30.8602 25.4846 30.8651 25.4043 30.8437 25.3291C30.8222 25.2538 30.7757 25.1882 30.7119 25.1429C30.4512 24.8933 30.194 24.6396 29.9403 24.3817L28.3908 22.8363C28.3612 22.8004 28.3239 22.7715 28.2816 22.7518C28.2394 22.7321 28.1933 22.7221 28.1467 22.7225Z"/></svg>