<svg class="svgicon svgicon-down" xmlns="http://www.w3.org/2000/svg" width="14" height="9" viewBox="0 0 14 9"><path fill-rule="evenodd" clip-rule="evenodd" d="M7.74634 8.19458C7.55072 8.39014 7.28544 8.5 7.00883 8.5C6.73222 8.5 6.46694 8.39014 6.27132 8.19458L0.37022 2.29348C0.270588 2.19725 0.191118 2.08214 0.136448 1.95487C0.0817775 1.82761 0.0530008 1.69072 0.0517972 1.55222C0.0505936 1.41371 0.0769874 1.27635 0.129438 1.14815C0.181888 1.01995 0.259346 0.903476 0.35729 0.805532C0.455234 0.707587 0.571704 0.63013 0.699903 0.57768C0.828102 0.525229 0.965464 0.498836 1.10397 0.500039C1.24248 0.501243 1.37936 0.53002 1.50663 0.58469C1.6339 0.639361 1.74901 0.71883 1.84523 0.818461L7.00883 5.98206L12.1724 0.818461C12.3692 0.628443 12.6327 0.523299 12.9062 0.525676C13.1797 0.528053 13.4413 0.63776 13.6347 0.831168C13.8281 1.02458 13.9378 1.28621 13.9402 1.55972C13.9426 1.83323 13.8375 2.09674 13.6474 2.29348L7.74634 8.19458Z"/></svg>