<svg class="svgicon svgicon-download-a-brochure" xmlns="http://www.w3.org/2000/svg" width="47" height="56" viewBox="0 0 47 56"><path d="M46.1504 11.2841L35.5735 0.70713C35.3769 0.510749 35.1435 0.355027 34.8867 0.24886C34.6299 0.142693 34.3547 0.0881611 34.0769 0.0883796H12.923C11.801 0.0883796 10.7248 0.53412 9.93142 1.32754C9.13799 2.12097 8.69225 3.19708 8.69225 4.31915V8.54992H4.46148C3.33941 8.54992 2.2633 8.99566 1.46988 9.78908C0.676453 10.5825 0.230713 11.6586 0.230713 12.7807V50.8576C0.230713 51.9797 0.676453 53.0558 1.46988 53.8492C2.2633 54.6426 3.33941 55.0884 4.46148 55.0884H34.0769C35.1989 55.0884 36.275 54.6426 37.0685 53.8492C37.8619 53.0558 38.3076 51.9797 38.3076 50.8576V46.6268H42.5384C43.6605 46.6268 44.7366 46.1811 45.53 45.3877C46.3234 44.5943 46.7692 43.5181 46.7692 42.3961V12.7807C46.7694 12.5028 46.7149 12.2276 46.6087 11.9708C46.5025 11.714 46.3468 11.4807 46.1504 11.2841ZM34.0769 50.8576H4.46148V12.7807H24.7401L34.0769 22.1175V44.5538V50.8576ZM42.5384 42.3961H38.3076V21.2422C38.3079 20.9643 38.2533 20.6891 38.1472 20.4324C38.041 20.1756 37.8853 19.9422 37.6889 19.7456L27.112 9.16867C26.9154 8.97229 26.682 8.81657 26.4252 8.7104C26.1684 8.60423 25.8932 8.5497 25.6153 8.54992H12.923V4.31915H33.2016L42.5384 13.6559V42.3961ZM27.7307 33.9345C27.7307 34.4956 27.5078 35.0336 27.1111 35.4303C26.7144 35.827 26.1764 36.0499 25.6153 36.0499H12.923C12.362 36.0499 11.8239 35.827 11.4272 35.4303C11.0305 35.0336 10.8076 34.4956 10.8076 33.9345C10.8076 33.3735 11.0305 32.8354 11.4272 32.4387C11.8239 32.042 12.362 31.8191 12.923 31.8191H25.6153C26.1764 31.8191 26.7144 32.042 27.1111 32.4387C27.5078 32.8354 27.7307 33.3735 27.7307 33.9345ZM27.7307 42.3961C27.7307 42.9571 27.5078 43.4952 27.1111 43.8919C26.7144 44.2886 26.1764 44.5115 25.6153 44.5115H12.923C12.362 44.5115 11.8239 44.2886 11.4272 43.8919C11.0305 43.4952 10.8076 42.9571 10.8076 42.3961C10.8076 41.835 11.0305 41.297 11.4272 40.9003C11.8239 40.5036 12.362 40.2807 12.923 40.2807H25.6153C26.1764 40.2807 26.7144 40.5036 27.1111 40.9003C27.5078 41.297 27.7307 41.835 27.7307 42.3961Z"/></svg>