<svg class="svgicon svgicon-driver-seat" xmlns="http://www.w3.org/2000/svg" width="56" height="56" viewBox="0 0 56 56"><path fill-rule="evenodd" clip-rule="evenodd" d="M28 0.625C43.1882 0.625 55.5 12.9368 55.5 28.125C55.5 43.3132 43.1882 55.625 28 55.625C12.8118 55.625 0.5 43.3132 0.5 28.125C0.5 12.9368 12.8118 0.625 28 0.625ZM17.8607 35.7728C14.9897 33.4765 11.0957 32.5883 6.56375 33.0998C7.52566 37.2318 9.66037 40.9981 12.7113 43.9462C15.7623 46.8942 19.5996 48.8984 23.7622 49.718C23.2315 42.4992 20.8582 38.1653 17.8607 35.7728ZM38.1393 35.7728C35.1418 38.1707 32.7685 42.4992 32.2378 49.7152C36.3995 48.8954 40.236 46.8913 43.2864 43.9439C46.3368 40.9964 48.4713 37.2309 49.4335 33.0998C44.9043 32.5883 41.0103 33.4765 38.1393 35.7728ZM28 22.625C25.3875 22.625 23.237 23.6425 21.6585 24.7645L20.289 25.7188C18.848 26.695 17.1925 27.6987 15.3363 28.3587C17.5038 29.0077 19.5267 30.0663 21.2955 31.4772C24.3865 33.9522 26.6663 37.4915 28 42.0895C29.3337 37.4915 31.6135 33.9495 34.7045 31.4772C36.4735 30.0673 38.4964 29.0096 40.6637 28.3615C38.8075 27.6988 37.152 26.695 35.711 25.7188L34.3415 24.7645C32.763 23.6425 30.6125 22.625 28 22.625ZM28 6.125C22.8745 6.12569 17.9099 7.91531 13.9629 11.1851C10.0158 14.4549 7.33377 18.9998 6.3795 24.0357L6.26125 24.7177L12.3387 23.5023C13.9392 23.1833 15.46 22.339 17.1595 21.1922L18.4712 20.2793C20.663 18.7228 23.9107 17.125 28 17.125C31.817 17.125 34.8997 18.5165 37.075 19.9685L38.8405 21.1922C40.3255 22.196 41.6785 22.966 43.0645 23.3593L43.6612 23.5023L49.7388 24.7177C48.9254 19.5365 46.2882 14.8162 42.3025 11.4073C38.3168 7.99841 33.2447 6.12512 28 6.125Z"/></svg>