<svg class="svgicon svgicon-find-a-dealer" xmlns="http://www.w3.org/2000/svg" width="63" height="56" viewBox="0 0 63 56"><path d="M23.2193 42.8662H10.111V45.9217C10.111 47.4495 8.88878 48.9773 7.05545 48.9773H3.99989C2.47211 48.9773 0.944336 47.4495 0.944336 45.9217V21.4773L7.361 3.14393C7.97211 1.3106 9.49989 0.0883789 11.6388 0.0883789H45.2499C47.0832 0.0883789 48.9166 1.3106 49.5277 3.14393L55.6693 20.6828C53.3958 18.1839 50.5259 16.3021 47.3277 15.2134L44.0277 6.19949H12.5554L9.49989 15.3662H34.2804C30.8582 16.5884 27.8638 18.7273 25.6332 21.4773H7.05545V36.755H21.3554C21.661 38.9245 22.3332 40.9717 23.2193 42.8662ZM10.111 29.1162C10.111 31.5606 12.2499 33.6995 14.6943 33.6995C17.1388 33.6995 19.2777 31.5606 19.2777 29.1162C19.2777 26.6717 17.1388 24.5328 14.6943 24.5328C12.2499 24.5328 10.111 26.6717 10.111 29.1162ZM41.0027 20.2856C33.3638 20.2856 27.2527 26.3967 27.2527 34.0356C27.2527 41.6745 33.3638 47.7856 41.0027 47.7856C43.7221 47.7856 46.1666 47.0217 48.3054 45.7078L57.8082 55.0884L62.0554 50.8412L52.6443 41.3384C53.9888 39.2606 54.7527 36.755 54.7527 34.0356C54.7527 26.3967 48.6416 20.2856 41.0027 20.2856ZM41.0027 26.3967C45.2499 26.3967 48.6416 29.8189 48.6416 34.0356C48.6416 38.2523 45.2499 41.6745 41.0027 41.6745C36.7554 41.6745 33.3638 38.2828 33.3638 34.0356C33.3638 29.7884 36.786 26.3967 41.0027 26.3967Z"/></svg>