<svg class="svgicon svgicon-footer-whatsapp" xmlns="http://www.w3.org/2000/svg" width="34" height="35" viewBox="0 0 34 35"><path d="M34 8.33461C33.9809 7.60118 33.9242 6.86922 33.83 6.14161C33.7031 5.50432 33.4915 4.88685 33.201 4.30561C32.8971 3.67509 32.4891 3.10035 31.994 2.60561C31.4944 2.11636 30.9206 1.70901 30.294 1.39861C29.712 1.11376 29.0945 0.907944 28.458 0.786609C27.7373 0.678658 27.0105 0.616202 26.282 0.599609H7.735C7.00157 0.618711 6.26961 0.675452 5.542 0.769609C4.90471 0.896546 4.28724 1.10809 3.706 1.39861C3.07548 1.70246 2.50075 2.11052 2.006 2.60561C1.51675 3.10526 1.1094 3.67898 0.799 4.30561C0.514155 4.88763 0.308335 5.50509 0.187 6.14161C0.0790489 6.8623 0.0165922 7.58907 0 8.31761V26.8646C0.0191019 27.598 0.0758431 28.33 0.17 29.0576C0.296936 29.6949 0.508476 30.3124 0.799 30.8936C1.10285 31.5241 1.51091 32.0989 2.006 32.5936C2.50565 33.0829 3.07937 33.4902 3.706 33.8006C4.28802 34.0855 4.90548 34.2913 5.542 34.4126C6.26269 34.5206 6.98946 34.583 7.718 34.5996H26.265C26.9984 34.5805 27.7304 34.5238 28.458 34.4296C29.0953 34.3027 29.7128 34.0911 30.294 33.8006C30.9245 33.4968 31.4993 33.0887 31.994 32.5936C32.4833 32.094 32.8906 31.5202 33.201 30.8936C33.4858 30.3116 33.6917 29.6941 33.813 29.0576C33.921 28.3369 33.9834 27.6101 34 26.8816V9.23561V8.33461ZM17.391 29.4996C15.3494 29.4895 13.3435 28.9632 11.56 27.9696L5.1 29.6696L6.8 23.3456C5.70369 21.5036 5.11698 19.4031 5.1 17.2596C5.10677 14.8506 5.82624 12.4974 7.16781 10.4965C8.50938 8.4956 10.413 6.93641 12.639 6.01533C14.865 5.09424 17.3138 4.85245 19.677 5.32041C22.0401 5.78836 24.212 6.94513 25.9189 8.64504C27.6259 10.3449 28.7917 12.5119 29.2695 14.8731C29.7473 17.2343 29.5157 19.6841 28.6038 21.9139C27.692 24.1437 26.1408 26.0538 24.1454 27.4037C22.1501 28.7536 19.8 29.4828 17.391 29.4996ZM17.391 7.17861C15.5887 7.19923 13.824 7.69708 12.2766 8.62146C10.7293 9.54585 9.45451 10.8637 8.5821 12.441C7.7097 14.0182 7.27081 15.7985 7.31014 17.6005C7.34947 19.4025 7.86561 21.1619 8.806 22.6996L9.044 23.0906L8.024 26.8136L11.9 25.7596L12.274 25.9806C13.8203 26.8914 15.5795 27.3781 17.374 27.3916C20.0792 27.3916 22.6736 26.317 24.5865 24.4041C26.4994 22.4912 27.574 19.8968 27.574 17.1916C27.574 14.4864 26.4994 11.892 24.5865 9.97912C22.6736 8.06625 20.0792 6.99161 17.374 6.99161L17.391 7.17861ZM23.341 21.6626C23.1183 22.034 22.8202 22.3545 22.4659 22.6034C22.1115 22.8523 21.7089 23.0241 21.284 23.1076C20.6491 23.2237 19.9955 23.1828 19.38 22.9886C18.8009 22.8076 18.2332 22.5918 17.68 22.3426C15.5784 21.288 13.786 19.7066 12.478 17.7526C11.7672 16.8473 11.3359 15.7543 11.237 14.6076C11.2269 14.1312 11.317 13.6581 11.5015 13.2188C11.686 12.7795 11.9608 12.3839 12.308 12.0576C12.4103 11.9416 12.5358 11.8484 12.6763 11.784C12.8169 11.7196 12.9694 11.6854 13.124 11.6836H13.6C13.787 11.6836 14.042 11.6836 14.28 12.2106C14.518 12.7376 15.147 14.3186 15.232 14.4716C15.2738 14.5532 15.2956 14.6435 15.2956 14.7351C15.2956 14.8267 15.2738 14.9171 15.232 14.9986C15.1568 15.1833 15.0536 15.3554 14.926 15.5086C14.773 15.6956 14.603 15.9166 14.467 16.0526C14.331 16.1886 14.161 16.3586 14.331 16.6646C14.7935 17.4452 15.3661 18.1552 16.031 18.7726C16.7551 19.4124 17.5829 19.9241 18.479 20.2856C18.785 20.4386 18.972 20.4216 19.142 20.2856C19.312 20.1496 19.907 19.4016 20.111 19.0956C20.315 18.7896 20.519 18.8406 20.791 18.9426C21.063 19.0446 22.576 19.7756 22.882 19.9286C23.188 20.0816 23.375 20.1496 23.46 20.2856C23.5337 20.7305 23.4928 21.1869 23.341 21.6116V21.6626Z"/></svg>