<svg class="svgicon svgicon-footer-instagram" xmlns="http://www.w3.org/2000/svg" width="34" height="35" viewBox="0 0 34 35"><path d="M18.7473 0.601701C19.9878 0.596941 21.2283 0.609408 22.4685 0.6391L22.7983 0.650999C23.1791 0.664599 23.5548 0.681598 24.0087 0.701998C25.8174 0.786995 27.0515 1.07259 28.1344 1.49247C29.2564 1.92426 30.2015 2.50904 31.1467 3.4542C32.0109 4.30351 32.6798 5.33085 33.1067 6.4648C33.5266 7.54766 33.8122 8.78352 33.8972 10.5923C33.9176 11.0444 33.9346 11.4218 33.9482 11.8026L33.9584 12.1324C33.9886 13.372 34.0017 14.6119 33.9975 15.8519L33.9992 17.12V19.347C34.0034 20.5875 33.9904 21.828 33.9601 23.0681L33.9499 23.3979C33.9363 23.7787 33.9193 24.1544 33.8989 24.6083C33.8139 26.417 33.5249 27.6512 33.1067 28.734C32.6812 29.8692 32.0121 30.8974 31.1467 31.7463C30.2967 32.6105 29.2688 33.2793 28.1344 33.7064C27.0515 34.1263 25.8174 34.4118 24.0087 34.4968C23.5548 34.5172 23.1791 34.5342 22.7983 34.5478L22.4685 34.558C21.2284 34.5883 19.9878 34.6013 18.7473 34.5971L17.4792 34.5988H15.254C14.0134 34.603 12.7729 34.59 11.5328 34.5597L11.203 34.5495C10.7994 34.5349 10.396 34.5179 9.99263 34.4985C8.18389 34.4136 6.94973 34.1246 5.86517 33.7064C4.73077 33.2803 3.70325 32.6113 2.85457 31.7463C1.98938 30.8969 1.31991 29.8689 0.89284 28.734C0.472955 27.6512 0.187364 26.417 0.102367 24.6083C0.0834345 24.2049 0.066435 23.8015 0.0513687 23.3979L0.0428692 23.0681C0.0115284 21.828 -0.00263931 20.5875 0.000370516 19.347V15.8519C-0.00437396 14.6119 0.0080936 13.372 0.0377694 12.1324L0.0496689 11.8026C0.0632685 11.4218 0.0802678 11.0444 0.100667 10.5923C0.185664 8.78182 0.471254 7.54936 0.89114 6.4648C1.31846 5.33029 1.98924 4.30323 2.85627 3.4559C3.70437 2.59021 4.73124 1.92013 5.86517 1.49247C6.94973 1.07259 8.18219 0.786995 9.99263 0.701998L11.203 0.650999L11.5328 0.6425C12.7723 0.611175 14.0123 0.597007 15.2523 0.600001L18.7473 0.601701ZM16.9998 9.10141C15.8736 9.08548 14.7555 9.29355 13.7104 9.71351C12.6653 10.1335 11.7141 10.7569 10.912 11.5477C10.11 12.3385 9.47313 13.2808 9.03843 14.3198C8.60373 15.3589 8.37988 16.474 8.37988 17.6003C8.37988 18.7266 8.60373 19.8417 9.03843 20.8807C9.47313 21.9198 10.11 22.8621 10.912 23.6528C11.7141 24.4436 12.6653 25.0671 13.7104 25.487C14.7555 25.907 15.8736 26.1151 16.9998 26.0991C19.2541 26.0991 21.416 25.2036 23.01 23.6096C24.604 22.0156 25.4995 19.8537 25.4995 17.5994C25.4995 15.3452 24.604 13.1832 23.01 11.5892C21.416 9.99521 19.2541 9.10141 16.9998 9.10141ZM16.9998 12.5013C17.6772 12.4888 18.3504 12.6114 18.9799 12.862C19.6094 13.1126 20.1827 13.4861 20.6662 13.9608C21.1497 14.4354 21.5338 15.0016 21.7961 15.6264C22.0583 16.2511 22.1935 16.9219 22.1936 17.5994C22.1937 18.277 22.0588 18.9477 21.7967 19.5726C21.5347 20.1974 21.1508 20.7638 20.6674 21.2386C20.184 21.7133 19.6109 22.087 18.9815 22.3378C18.352 22.5886 17.6789 22.7115 17.0015 22.6992C15.6489 22.6992 14.3518 22.1619 13.3954 21.2055C12.439 20.2491 11.9017 18.952 11.9017 17.5994C11.9017 16.2469 12.439 14.9497 13.3954 13.9933C14.3518 13.0369 15.6489 12.4996 17.0015 12.4996L16.9998 12.5013ZM25.9245 6.5515C25.3761 6.57345 24.8574 6.80675 24.4772 7.20253C24.0969 7.59831 23.8845 8.12587 23.8845 8.67473C23.8845 9.22358 24.0969 9.75114 24.4772 10.1469C24.8574 10.5427 25.3761 10.776 25.9245 10.798C26.4881 10.798 27.0285 10.5741 27.427 10.1756C27.8255 9.77708 28.0494 9.23659 28.0494 8.67303C28.0494 8.10946 27.8255 7.56898 27.427 7.17048C27.0285 6.77197 26.4881 6.5481 25.9245 6.5481V6.5515Z"/></svg>