<svg class="svgicon svgicon-footer-tiktok" xmlns="http://www.w3.org/2000/svg" width="34" height="35" viewBox="0 0 34 35"><path d="M26.9167 0.599609H7.08333C3.11667 0.599609 0 3.71628 0 7.68294V27.5163C0 31.4829 3.11667 34.5996 7.08333 34.5996H26.9167C30.8833 34.5996 34 31.4829 34 27.5163V7.68294C34 3.71628 30.8833 0.599609 26.9167 0.599609ZM25.5 15.1913C23.9417 15.1913 22.525 14.7663 21.25 13.7746V20.1496C21.25 23.4079 18.7 25.9579 15.5833 25.9579C12.6083 25.9579 9.91667 23.5496 9.91667 20.1496C9.91667 16.6079 12.8917 13.9163 16.2917 14.3413V17.5996C14.5917 17.0329 12.8917 18.3079 12.8917 20.1496C12.8917 21.5663 14.025 22.8413 15.4417 22.8413C16.15 22.8413 16.7167 22.5579 17.2833 22.1329C17.7083 21.7079 17.9917 20.9996 18.1333 20.2913V7.68294H21.25C21.25 8.67461 21.675 9.80794 22.2417 10.5163C23.6583 12.0746 25.5 12.0746 25.5 12.0746V15.1913Z"/></svg>