<svg class="svgicon svgicon-footer-facebook" xmlns="http://www.w3.org/2000/svg" width="35" height="35" viewBox="0 0 35 35"><path d="M30.856 0.599609H4.14173C3.17558 0.599609 2.24901 0.983409 1.56584 1.66658C0.882671 2.34975 0.498871 3.27632 0.498871 4.24247L0.498871 30.9568C0.498871 31.9229 0.882671 32.8495 1.56584 33.5326C2.24901 34.2158 3.17558 34.5996 4.14173 34.5996H14.558V23.0404H9.77677V17.5996H14.558V13.4528C14.558 8.73608 17.3661 6.13068 21.6669 6.13068C23.7266 6.13068 25.8805 6.498 25.8805 6.498V11.1275H23.5073C21.1691 11.1275 20.4397 12.5785 20.4397 14.0668V17.5996H25.6596L24.8248 23.0404H20.4397V34.5996H30.856C31.8222 34.5996 32.7487 34.2158 33.4319 33.5326C34.1151 32.8495 34.4989 31.9229 34.4989 30.9568V4.24247C34.4989 3.27632 34.1151 2.34975 33.4319 1.66658C32.7487 0.983409 31.8222 0.599609 30.856 0.599609Z"/></svg>