<svg class="svgicon svgicon-footer-linkedin" xmlns="http://www.w3.org/2000/svg" width="34" height="35" viewBox="0 0 34 35"><path fill-rule="evenodd" clip-rule="evenodd" d="M4.85653 0.599609C3.56834 0.599609 2.3329 1.11134 1.42201 2.02223C0.511123 2.93312 -0.000610352 4.16856 -0.000610352 5.45675V29.7425C-0.000610352 31.0307 0.511123 32.2661 1.42201 33.177C2.3329 34.0879 3.56834 34.5996 4.85653 34.5996H29.1422C30.4304 34.5996 31.6659 34.0879 32.5768 33.177C33.4877 32.2661 33.9994 31.0307 33.9994 29.7425V5.45675C33.9994 4.16856 33.4877 2.93312 32.5768 2.02223C31.6659 1.11134 30.4304 0.599609 29.1422 0.599609H4.85653ZM7.53282 11.0352C8.30252 11.0352 9.04069 10.7294 9.58494 10.1852C10.1292 9.64091 10.435 8.90273 10.435 8.13304C10.435 7.36334 10.1292 6.62517 9.58494 6.08091C9.04069 5.53666 8.30252 5.2309 7.53282 5.2309C6.76312 5.2309 6.02495 5.53666 5.48069 6.08091C4.93644 6.62517 4.63068 7.36334 4.63068 8.13304C4.63068 8.90273 4.93644 9.64091 5.48069 10.1852C6.02495 10.7294 6.76312 11.0352 7.53282 11.0352ZM9.96139 29.2883V13.3108H5.10425V29.2883H9.96139ZM13.1865 13.3108H18.0437V15.4503C18.7601 14.3283 20.3338 12.8178 23.2602 12.8178C26.7525 12.8178 28.6492 15.1322 28.6492 19.5352C28.6492 19.7465 28.6687 20.7106 28.6687 20.7106V29.2859H23.8115V20.713C23.8115 19.5352 23.5638 17.2208 20.9458 17.2208C18.3254 17.2208 18.1044 20.1302 18.0437 22.0342V29.2859H13.1865V13.3108Z"/></svg>