<svg class="svgicon svgicon-footer-twitter" xmlns="http://www.w3.org/2000/svg" width="34" height="35" viewBox="0 0 34 35"><path d="M11.5254 8.94661L24.5814 26.1336H22.5584L9.36639 8.94661H11.5254Z"/><path d="M25.4994 0.599609H8.49939C6.24505 0.599609 4.08304 1.49514 2.48898 3.0892C0.894923 4.68326 -0.000610352 6.84527 -0.000610352 9.09961V26.0996C-0.000610352 28.354 0.894923 30.516 2.48898 32.11C4.08304 33.7041 6.24505 34.5996 8.49939 34.5996H25.4994C27.7537 34.5996 29.9157 33.7041 31.5098 32.11C33.1039 30.516 33.9994 28.354 33.9994 26.0996V9.09961C33.9994 6.84527 33.1039 4.68326 31.5098 3.0892C29.9157 1.49514 27.7537 0.599609 25.4994 0.599609ZM21.5554 28.3096L15.8094 20.8296L9.21339 28.3096H5.57539L14.0754 18.6026L5.09939 6.88961H12.6304L17.8324 13.6896L23.7994 6.88961H27.4374L19.5154 15.8996L28.8994 28.3096H21.5554Z"/></svg>