<svg class="svgicon svgicon-footer-youtube" xmlns="http://www.w3.org/2000/svg" width="43" height="35" viewBox="0 0 43 35"><path d="M22.2687 0.599609C23.4036 0.605985 26.2427 0.633611 29.2604 0.754744L30.3315 0.801497C33.3683 0.94388 36.403 1.1904 37.9097 1.60905C39.918 2.17433 41.4948 3.81919 42.0282 5.90607C42.8783 9.22127 42.9845 15.6859 42.9973 17.2522L42.9994 17.5752V17.9449C42.9845 19.5112 42.8783 25.9779 42.0282 29.291C41.4884 31.3843 39.9095 33.0313 37.9097 33.588C36.403 34.0067 33.3683 34.2532 30.3315 34.3956L29.2604 34.4445C26.2427 34.5635 23.4036 34.5932 22.2687 34.5975L21.7693 34.5996H21.2274C18.826 34.5847 8.78264 34.4764 5.58644 33.588C3.58031 33.0228 2.00134 31.3779 1.46793 29.291C0.617878 25.9758 0.511622 19.5112 0.498871 17.9449V17.2522C0.511622 15.6859 0.617878 9.21915 1.46793 5.90607C2.00772 3.81281 3.58669 2.16583 5.58856 1.61117C8.78264 0.720742 18.8281 0.61236 21.2295 0.599609H22.2687ZM17.4978 10.1627V25.0386L30.2486 17.6007L17.4978 10.1627Z"/></svg>