<svg class="svgicon svgicon-lang" xmlns="http://www.w3.org/2000/svg" width="24" height="24" viewBox="0 0 24 24"><path fill="none" d="M16.6,9.7c-0.8,0.2-1.5,0.6-2,1.2l0.3,1h0.7C15.8,11.1,16.2,10.3,16.6,9.7z"/><path fill="none" d="M15.9,17.8c-1.7-0.7-3-2.3-3-4.3c0-0.9,0.3-1.7,0.7-2.4L10.1,1H2.5C1.7,1,1,1.7,1,2.5v15C1,18.3,1.7,19,2.5,19h13.8L15.9,17.8z M9.7,14c-0.1,0-0.1,0-0.2,0c-0.2,0-0.4-0.1-0.5-0.3l-1-2.7c0,0,0,0-0.1,0H6c0,0,0,0-0.1,0l-1,2.7c-0.1,0.3-0.4,0.4-0.6,0.3c-0.3-0.1-0.4-0.4-0.3-0.6l2.5-7c0.1-0.4,0.8-0.4,0.9,0l2.5,7C10.1,13.6,9.9,13.9,9.7,14z"/><polygon fill="none" points="12.7,20 13.7,22.5 15.9,20 "/><path fill="none" d="M15.2,12.6l0.3,0.9c0-0.3,0-0.6,0.1-0.9H15.2z"/><path fill="none" d="M13.6,13.5c0,0.3,0,0.6,0.1,0.9h1l-0.6-1.9h-0.4C13.6,12.9,13.6,13.2,13.6,13.5z"/><path fill="none" d="M18.4,17.3c1.2-0.3,2.2-1.1,2.7-2.2h-1.7C19.2,15.9,18.8,16.7,18.4,17.3z"/><path fill="none" d="M15.6,16.9L15,15.1h-1C14.3,15.9,14.9,16.5,15.6,16.9z"/><polygon fill="none" points="6.3,10 7.7,10 7,8 "/><path fill="none" d="M18.7,15.1h-2.4c0.2,0.8,0.6,1.6,1.2,2.2C18.1,16.7,18.5,16,18.7,15.1z"/><path fill="none" d="M21.5,5h-8.9l1.8,5.2c0.8-0.8,1.9-1.3,3.2-1.3c2.5,0,4.6,2.1,4.6,4.6c0,2.5-2.1,4.6-4.6,4.6c-0.2,0-0.3,0-0.5,0l0.4,1.3c0,0,0,0,0,0c0,0.1,0,0.1,0,0.2c0,0,0,0,0,0.1c0,0.1,0,0.1-0.1,0.1c0,0,0,0,0,0c0,0,0,0,0,0c0,0,0,0,0,0L14.6,23h6.9c0.8,0,1.5-0.7,1.5-1.5v-15C23,5.7,22.3,5,21.5,5z"/><path fill="none" d="M19.5,13.5c0,0.3,0,0.6-0.1,0.9h1.8c0.1-0.3,0.1-0.6,0.1-0.9c0-0.3,0-0.6-0.1-0.9h-1.8C19.5,12.9,19.5,13.2,19.5,13.5z"/><path fill="none" d="M17.5,9.7c-0.6,0.6-1,1.3-1.2,2.2h2.4C18.5,11,18.1,10.3,17.5,9.7z"/><path fill="none" d="M21.1,11.9c-0.5-1.1-1.5-1.9-2.7-2.2c0.5,0.6,0.8,1.4,1,2.2H21.1z"/><path fill="none" d="M18.9,13.5c0-0.3,0-0.6-0.1-0.9h-2.6c0,0.3-0.1,0.6-0.1,0.9c0,0.3,0,0.6,0.1,0.9h2.6C18.8,14.1,18.9,13.8,18.9,13.5z"/><path d="M22.1,13.5c0-2.5-2.1-4.6-4.6-4.6c-1.2,0-2.3,0.5-3.2,1.3l0.2,0.7c0.5-0.6,1.2-1.1,2-1.2c-0.5,0.6-0.8,1.4-1,2.2h-0.7l0.2,0.7h0.4c0,0.3-0.1,0.6-0.1,0.9L17,18c0.2,0,0.3,0,0.5,0C20,18.1,22.1,16,22.1,13.5z M18.4,17.3c0.5-0.6,0.8-1.4,1-2.2h1.7C20.6,16.2,19.5,17,18.4,17.3z M21.4,13.5c0,0.3,0,0.6-0.1,0.9h-1.8c0-0.3,0.1-0.6,0.1-0.9c0-0.3,0-0.6-0.1-0.9h1.8C21.4,12.9,21.4,13.2,21.4,13.5z M21.1,11.9h-1.7c-0.2-0.8-0.5-1.6-1-2.2C19.5,10,20.6,10.8,21.1,11.9z M17.5,9.7c0.6,0.6,1,1.3,1.2,2.2h-2.4C16.5,11,16.9,10.3,17.5,9.7z M16.1,13.5c0-0.3,0-0.6,0.1-0.9h2.6c0,0.3,0.1,0.6,0.1,0.9s0,0.6-0.1,0.9h-2.6C16.2,14.1,16.1,13.8,16.1,13.5z M18.7,15.1c-0.2,0.8-0.6,1.6-1.2,2.2c-0.6-0.6-1-1.3-1.2-2.2H18.7z"/><path d="M21.5,4h-9.3L11,0.3C10.9,0.1,10.7,0,10.5,0h-8C1.1,0,0,1.1,0,2.5v15C0,18.9,1.1,20,2.5,20h9.2l1.4,3.7c0,0,0,0,0,0c0,0.1,0.1,0.1,0.1,0.2c0,0,0,0,0,0c0,0,0,0,0,0c0.1,0,0.2,0.1,0.3,0.1h8c1.4,0,2.5-1.1,2.5-2.5v-15C24,5.1,22.9,4,21.5,4z M2.5,19C1.7,19,1,18.3,1,17.5v-15C1,1.7,1.7,1,2.5,1h7.6l3.5,10.1l0.5,1.4l0.6,1.9l0.2,0.7l0.6,1.8l0.3,0.9l0.4,1.2H2.5z M12.7,20h3.2l-2.2,2.5L12.7,20z M23,21.5c0,0.8-0.7,1.5-1.5,1.5h-6.9l2.8-3.2c0,0,0,0,0,0c0,0,0,0,0,0c0,0,0,0,0,0c0,0,0-0.1,0.1-0.1c0,0,0,0,0-0.1c0-0.1,0-0.1,0-0.2c0,0,0,0,0,0L17,18l-1.6-4.6l-0.3-0.9l-0.2-0.7l-0.3-1l-0.2-0.7L12.6,5h8.9C22.3,5,23,5.7,23,6.5V21.5z"/><path d="M7.5,6.3c-0.1-0.4-0.8-0.4-0.9,0l-2.5,7c-0.1,0.3,0,0.5,0.3,0.6c0.3,0.1,0.5,0,0.6-0.3l1-2.7c0,0,0,0,0.1,0h2c0,0,0,0,0.1,0l1,2.7C9.1,13.9,9.3,14,9.5,14c0.1,0,0.1,0,0.2,0c0.3-0.1,0.4-0.4,0.3-0.6L7.5,6.3z M6.3,10L7,8l0.7,2H6.3z"/></svg>