<svg class="svgicon svgicon-left" xmlns="http://www.w3.org/2000/svg" width="8" height="15" viewBox="0 0 8 15"><path fill-rule="evenodd" clip-rule="evenodd" d="M0.30542 6.39429C0.10986 6.58991 0 6.85519 0 7.13179C0 7.4084 0.10986 7.67368 0.30542 7.8693L6.20652 13.7704C6.30275 13.87 6.41786 13.9495 6.54513 14.0042C6.67239 14.0588 6.80928 14.0876 6.94778 14.0888C7.08629 14.09 7.22365 14.0636 7.35185 14.0112C7.48005 13.9587 7.59652 13.8813 7.69447 13.7833C7.79241 13.6854 7.86987 13.5689 7.92232 13.4407C7.97477 13.3125 8.00116 13.1752 7.99996 13.0367C7.99876 12.8981 7.96998 12.7613 7.91531 12.634C7.86064 12.5067 7.78117 12.3916 7.68154 12.2954L2.51794 7.13179L7.68154 1.9682C7.87156 1.77146 7.9767 1.50796 7.97432 1.23445C7.97195 0.960936 7.86224 0.6993 7.66883 0.505891C7.47542 0.312483 7.21379 0.202775 6.94028 0.200397C6.66677 0.198021 6.40326 0.303164 6.20652 0.493183L0.30542 6.39429Z"/></svg>