<svg class="svgicon svgicon-local-dealer" xmlns="http://www.w3.org/2000/svg" width="55" height="47" viewBox="0 0 55 47"><path fill-rule="evenodd" clip-rule="evenodd" d="M18.3333 35.5875H14.3697L13.1157 39.3495L12.5363 41.0875H5.5V30.1609C7.31867 30.6339 9.94767 31.0042 13.75 31.0042C14.4793 31.0042 15.1788 30.7145 15.6945 30.1987C16.2103 29.683 16.5 28.9835 16.5 28.2542C16.5 27.5248 16.2103 26.8254 15.6945 26.3096C15.1788 25.7939 14.4793 25.5042 13.75 25.5042C9.81567 25.5042 7.58267 25.0642 6.424 24.7085C6.16925 24.6323 5.91945 24.5405 5.676 24.4335C5.96061 23.2255 6.57646 22.1208 7.45433 21.2435C7.72567 20.9759 7.986 20.6935 8.239 20.4075C13.8307 21.9952 20.7167 22.7542 27.5 22.7542C34.2797 22.7542 41.1693 21.9952 46.761 20.4075C47.014 20.6972 47.2743 20.9759 47.5457 21.2435C48.4293 22.1309 49.0417 23.2382 49.324 24.4335C49.159 24.5069 48.917 24.6059 48.576 24.7085C47.4173 25.0642 45.1843 25.5042 41.25 25.5042C40.5207 25.5042 39.8212 25.7939 39.3055 26.3096C38.7897 26.8254 38.5 27.5248 38.5 28.2542C38.5 28.9835 38.7897 29.683 39.3055 30.1987C39.8212 30.7145 40.5207 31.0042 41.25 31.0042C45.0523 31.0042 47.6813 30.6339 49.5 30.1609V41.0875H42.4637L41.8843 39.3495L40.6303 35.5875H18.3333ZM43.7213 15.5235C39.028 16.6602 33.308 17.2542 27.5 17.2542C21.692 17.2542 15.972 16.6602 11.2787 15.5235C11.3923 15.2485 11.4987 14.9735 11.6013 14.6949L13.244 10.0859C13.904 8.23419 15.334 7.13052 16.764 6.92152C23.8842 5.90713 31.1122 5.90713 38.2323 6.92152C39.6697 7.13052 41.0923 8.23419 41.7523 10.0859L43.4023 14.6949C43.5013 14.9735 43.6077 15.2485 43.7213 15.5235ZM37.664 44.0795L36.6667 41.0875H18.3333L17.336 44.0795C17.0927 44.8099 16.6257 45.4453 16.0012 45.8954C15.3766 46.3456 14.6262 46.5877 13.8563 46.5875H3.66667C2.69421 46.5875 1.76158 46.2012 1.07394 45.5136C0.386308 44.8259 0 43.8933 0 42.9209V25.9625C0 22.7359 1.28333 19.6375 3.564 17.3569C4.15452 16.7673 4.68286 16.1185 5.14067 15.4209H2.75C2.02065 15.4209 1.32118 15.1311 0.805456 14.6154C0.289731 14.0997 0 13.4002 0 12.6709C0 11.9415 0.289731 11.242 0.805456 10.7263C1.32118 10.2106 2.02065 9.92085 2.75 9.92085H7.46533L8.06667 8.23419C9.32433 4.71419 12.276 2.01552 15.9757 1.48019C23.6199 0.389742 31.3801 0.389742 39.0243 1.48019C42.724 2.01552 45.6757 4.71419 46.9333 8.23785L47.5347 9.92085H52.25C52.9793 9.92085 53.6788 10.2106 54.1945 10.7263C54.7103 11.242 55 11.9415 55 12.6709C55 13.4002 54.7103 14.0997 54.1945 14.6154C53.6788 15.1311 52.9793 15.4209 52.25 15.4209H49.863C50.3177 16.1175 50.8457 16.7665 51.436 17.3569C53.7179 19.6395 54.9998 22.7349 55 25.9625V42.9209C55 43.8933 54.6137 44.8259 53.9261 45.5136C53.2384 46.2012 52.3058 46.5875 51.3333 46.5875H41.14C40.3708 46.5869 39.6212 46.3444 38.9974 45.8943C38.3735 45.4442 37.9071 44.8093 37.664 44.0795Z"/></svg>