<svg class="svgicon svgicon-maps" xmlns="http://www.w3.org/2000/svg" width="22" height="21" viewBox="0 0 22 21"><path fill-rule="evenodd" clip-rule="evenodd" d="M4.31124 6.68182C4.31124 2.88225 7.31328 0 10.9931 0C14.6728 0 17.6749 2.88225 17.6749 6.68182C17.6749 8.75865 16.7402 10.7645 15.6498 12.4091H18.3043L21.9861 21H0L3.68182 12.4091H6.33634C5.24592 10.7645 4.31124 8.75865 4.31124 6.68182ZM7.77696 14.3182H4.94067L2.89521 19.0909H19.0909L17.0455 14.3182H14.2092C13.599 15.0398 13.0126 15.6449 12.5533 16.0914C12.2741 16.3628 12.0404 16.5771 11.8749 16.7249C11.7921 16.7988 11.7263 16.8562 11.6802 16.8958C11.6572 16.9157 11.6391 16.9311 11.6263 16.9419L11.6111 16.9547L11.6066 16.9585L11.6051 16.9598C11.6049 16.96 11.6041 16.9606 10.9931 16.2273C10.382 16.9606 10.3818 16.9604 10.3816 16.9602L10.3795 16.9585L10.375 16.9547L10.3598 16.9419C10.347 16.9311 10.3289 16.9157 10.3059 16.8958C10.2598 16.8562 10.194 16.7988 10.1112 16.7249C9.94573 16.5771 9.71201 16.3628 9.43278 16.0914C8.97351 15.6449 8.38708 15.0398 7.77696 14.3182ZM10.9931 16.2273L10.3816 16.9602L10.9931 17.4698L11.6041 16.9606L10.9931 16.2273ZM10.9931 14.9425C11.0647 14.8748 11.1415 14.8014 11.2226 14.7226C11.7391 14.2203 12.4264 13.5042 13.1113 12.648C14.5149 10.8935 15.7658 8.72647 15.7658 6.68182C15.7658 3.95802 13.64 1.90909 10.9931 1.90909C8.34611 1.90909 6.22033 3.95802 6.22033 6.68182C6.22033 8.72647 7.47121 10.8935 8.8748 12.648C9.55973 13.5042 10.247 14.2203 10.7636 14.7226C10.8446 14.8014 10.9214 14.8748 10.9931 14.9425ZM9.64313 5.33189C10.0012 4.97386 10.4867 4.77273 10.9931 4.77273C11.4994 4.77273 11.985 4.97386 12.343 5.33189C12.701 5.68991 12.9022 6.1755 12.9022 6.68182C12.9022 7.18814 12.701 7.67373 12.343 8.03175C11.985 8.38977 11.4994 8.59091 10.9931 8.59091C10.4867 8.59091 10.0012 8.38977 9.64313 8.03175C9.28511 7.67373 9.08397 7.18814 9.08397 6.68182C9.08397 6.1755 9.28511 5.68991 9.64313 5.33189Z"/></svg>