<svg class="svgicon svgicon-menu" xmlns="http://www.w3.org/2000/svg" width="20" height="17" viewBox="0 0 20 17"><path fill-rule="evenodd" clip-rule="evenodd" d="M0 1.83334C0 1.21969 0.497461 0.722229 1.11111 0.722229H18.8889C19.5025 0.722229 20 1.21969 20 1.83334C20 2.44699 19.5025 2.94445 18.8889 2.94445H1.11111C0.497461 2.94445 0 2.44699 0 1.83334ZM0 8.50001C0 7.88636 0.497461 7.3889 1.11111 7.3889H18.8889C19.5025 7.3889 20 7.88636 20 8.50001C20 9.11366 19.5025 9.61112 18.8889 9.61112H1.11111C0.497461 9.61112 0 9.11366 0 8.50001ZM10 15.1667C10 14.553 10.4975 14.0556 11.1111 14.0556H18.8889C19.5025 14.0556 20 14.553 20 15.1667C20 15.7803 19.5025 16.2778 18.8889 16.2778H11.1111C10.4975 16.2778 10 15.7803 10 15.1667Z"/></svg>