<svg class="svgicon svgicon-next-arrow" xmlns="http://www.w3.org/2000/svg" width="67" height="56" viewBox="0 0 67 56"><path d="M0.500046 28.2C0.500046 28.9293 0.789757 29.6288 1.30546 30.1444C1.82115 30.6601 2.52058 30.9499 3.24989 30.9499H57.1091L37.0524 51.0031C36.7969 51.2586 36.5942 51.5619 36.456 51.8957C36.3177 52.2295 36.2465 52.5873 36.2465 52.9486C36.2465 53.31 36.3177 53.6677 36.456 54.0015C36.5942 54.3354 36.7969 54.6387 37.0524 54.8942C37.3079 55.1496 37.6112 55.3523 37.945 55.4906C38.2788 55.6288 38.6366 55.7 38.9979 55.7C39.3592 55.7 39.717 55.6288 40.0508 55.4906C40.3846 55.3523 40.6879 55.1496 40.9434 54.8942L65.692 30.1455C65.9477 29.8901 66.1505 29.5869 66.2889 29.253C66.4273 28.9192 66.4985 28.5614 66.4985 28.2C66.4985 27.8386 66.4273 27.4808 66.2889 27.147C66.1505 26.8132 65.9477 26.5099 65.692 26.2545L40.9434 1.50587C40.4274 0.989888 39.7276 0.700012 38.9979 0.700012C38.2682 0.700012 37.5684 0.989888 37.0524 1.50587C36.5364 2.02185 36.2465 2.72168 36.2465 3.45139C36.2465 4.1811 36.5364 4.88092 37.0524 5.3969L57.1091 25.4502H3.24989C2.52058 25.4502 1.82115 25.7399 1.30546 26.2556C0.789757 26.7713 0.500046 27.4707 0.500046 28.2Z"/></svg>