<svg class="svgicon svgicon-open-popup" xmlns="http://www.w3.org/2000/svg" width="34" height="35" viewBox="0 0 34 35"><path d="M17 0.0883789C7.62646 0.0883789 0 7.71484 0 17.0884C0 26.4619 7.62646 34.0884 17 34.0884C26.3735 34.0884 34 26.4619 34 17.0884C34 7.71484 26.3735 0.0883789 17 0.0883789ZM17 2.70376C24.9599 2.70376 31.3846 9.12846 31.3846 17.0884C31.3846 25.0483 24.9599 31.473 17 31.473C9.04008 31.473 2.61538 25.0483 2.61538 17.0884C2.61538 9.12846 9.04008 2.70376 17 2.70376ZM15.6923 9.24222V15.7807H9.15385V18.3961H15.6923V24.9345H18.3077V18.3961H24.8462V15.7807H18.3077V9.24222H15.6923Z"/></svg>