<svg class="svgicon svgicon-prev-arrow" xmlns="http://www.w3.org/2000/svg" width="67" height="56" viewBox="0 0 67 56"><path d="M66.5 28.2C66.5 28.9293 66.2102 29.6288 65.6945 30.1444C65.1788 30.6601 64.4794 30.9499 63.7501 30.9499H9.89092L29.9476 51.0031C30.2031 51.2586 30.4058 51.5619 30.544 51.8957C30.6823 52.2295 30.7535 52.5873 30.7535 52.9486C30.7535 53.31 30.6823 53.6677 30.544 54.0015C30.4058 54.3354 30.2031 54.6387 29.9476 54.8942C29.6921 55.1496 29.3888 55.3523 29.055 55.4906C28.7212 55.6288 28.3634 55.7 28.0021 55.7C27.6408 55.7 27.283 55.6288 26.9492 55.4906C26.6154 55.3523 26.3121 55.1496 26.0566 54.8942L1.30796 30.1455C1.05229 29.8901 0.849461 29.5869 0.711077 29.253C0.572693 28.9192 0.501465 28.5614 0.501465 28.2C0.501465 27.8386 0.572693 27.4808 0.711077 27.147C0.849461 26.8132 1.05229 26.5099 1.30796 26.2545L26.0566 1.50587C26.5726 0.989888 27.2724 0.700012 28.0021 0.700012C28.7318 0.700012 29.4316 0.989888 29.9476 1.50587C30.4636 2.02185 30.7535 2.72168 30.7535 3.45139C30.7535 4.1811 30.4636 4.88092 29.9476 5.3969L9.89092 25.4502H63.7501C64.4794 25.4502 65.1788 25.7399 65.6945 26.2556C66.2102 26.7713 66.5 27.4707 66.5 28.2Z"/></svg>