<svg class="svgicon svgicon-right" xmlns="http://www.w3.org/2000/svg" width="8" height="15" viewBox="0 0 8 15"><path fill-rule="evenodd" clip-rule="evenodd" d="M7.69458 6.75347C7.89014 6.94909 8 7.21437 8 7.49098C8 7.76759 7.89014 8.03287 7.69458 8.22849L1.79348 14.1296C1.69725 14.2292 1.58214 14.3087 1.45487 14.3634C1.32761 14.418 1.19072 14.4468 1.05222 14.448C0.91371 14.4492 0.77635 14.4228 0.64815 14.3704C0.51995 14.3179 0.403476 14.2405 0.305532 14.1425C0.207587 14.0446 0.13013 13.9281 0.0776804 13.7999C0.0252294 13.6717 -0.00116365 13.5343 3.9348e-05 13.3958C0.00124335 13.2573 0.0300203 13.1205 0.0846903 12.9932C0.139361 12.8659 0.21883 12.7508 0.318461 12.6546L5.48206 7.49098L0.318461 2.32741C0.128443 2.13061 0.0232994 1.86711 0.0256764 1.59361C0.0280534 1.32011 0.13776 1.05851 0.331168 0.865111C0.52458 0.671711 0.78621 0.562011 1.05972 0.559611C1.33323 0.557211 1.59674 0.66231 1.79348 0.85241L7.69458 6.75347Z"/></svg>