<svg class="svgicon svgicon-talk-to-an-expert" xmlns="http://www.w3.org/2000/svg" width="55" height="56" viewBox="0 0 55 56"><path d="M49.5232 43.2298C53.0202 40.1131 55.0003 35.9589 55.0003 31.648C55.0003 27.0665 52.8556 22.7817 48.961 19.5823C45.1706 16.4696 40.1534 14.755 34.8331 14.755C29.5128 14.755 24.4956 16.4696 20.7058 19.5826C16.8112 22.7817 14.6664 27.0665 14.6664 31.648C14.6664 36.2295 16.8112 40.5142 20.7058 43.7136C24.4956 46.8266 29.5128 48.541 34.8331 48.541C35.542 48.541 36.2553 48.5097 36.9626 48.4475L38.171 49.4949C42.334 53.1023 47.6579 55.0882 53.1664 55.0884H54.9998V51.186L54.4628 50.6492C52.3446 48.5248 50.6661 46.0036 49.5232 43.2298ZM40.5725 46.7238L38.1478 44.6222L37.3393 44.7213C36.5077 44.823 35.6708 44.874 34.8331 44.8741C25.7352 44.8741 18.3331 38.9408 18.3331 31.648C18.3331 24.3551 25.7352 18.4217 34.8331 18.4217C43.931 18.4217 51.3331 24.355 51.3331 31.648C51.3331 35.2814 49.5204 38.6735 46.2289 41.1994L45.173 42.0096L45.6602 43.3886C46.6586 46.205 48.1262 48.8323 50.0008 51.1593C46.5098 50.5766 43.2472 49.0417 40.5725 46.7238Z"/><path d="M5.06262 34.6325C6.77877 32.4602 8.1262 30.0205 9.05104 27.4111L9.53458 26.039L8.47961 25.2293C5.37578 22.8476 3.66642 19.651 3.66642 16.2282C3.66642 9.35049 10.657 3.75505 19.2498 3.75505C25.5711 3.75505 31.0251 6.78348 33.4669 11.1228C33.9203 11.1008 34.3757 11.0884 34.8331 11.0884C35.7518 11.0884 36.6621 11.133 37.5641 11.2221C36.6205 8.77746 34.9817 6.54584 32.7287 4.69532C29.1122 1.72451 24.3258 0.0883789 19.2498 0.0883789C14.1737 0.0883789 9.38734 1.72451 5.77063 4.69532C2.04919 7.75229 -0.000244141 11.8481 -0.000244141 16.2282C-0.000244141 20.3303 1.87342 24.2829 5.18465 27.2561C4.10406 29.8565 2.52512 32.2205 0.536808 34.2146L-0.000244141 34.7516V38.5884H1.83309C5.22328 38.588 8.56684 37.7985 11.5991 36.2824C11.2666 35.0221 11.0718 33.7295 11.0181 32.4272C9.17763 33.5059 7.16175 34.2524 5.06262 34.6325Z"/></svg>