<svg class="svgicon svgicon-user" xmlns="http://www.w3.org/2000/svg" width="21" height="21" viewBox="0 0 21 21"><path fill-rule="evenodd" clip-rule="evenodd" d="M10.5635 1.75C8.38888 1.75 6.626 3.42893 6.626 5.5C6.626 7.57107 8.38888 9.25 10.5635 9.25C12.7381 9.25 14.501 7.57107 14.501 5.5C14.501 3.42893 12.7381 1.75 10.5635 1.75ZM5.3135 5.5C5.3135 2.73858 7.664 0.5 10.5635 0.5C13.463 0.5 15.8135 2.73858 15.8135 5.5C15.8135 8.26142 13.463 10.5 10.5635 10.5C7.664 10.5 5.3135 8.26142 5.3135 5.5Z"/><path fill-rule="evenodd" clip-rule="evenodd" d="M8.39131 13C5.34189 13 2.53862 14.3108 1.81229 16.8493L1.81208 16.8501C1.63803 17.4555 1.51389 18.0724 1.44305 18.6948L0.790624 18.6275L1.4431 18.6944C1.41246 18.9655 1.64953 19.25 2.03225 19.25H19.0947C19.4786 19.25 19.7151 18.966 19.684 18.694C19.613 18.0711 19.49 17.4543 19.3162 16.85L19.3161 16.8496C18.5885 14.3107 15.785 13 12.7357 13H8.39131ZM0.546063 16.5203C1.49726 13.1966 5.06211 11.75 8.39131 11.75H12.7357C16.065 11.75 19.6295 13.1966 20.5821 16.52C20.7742 17.1881 20.9102 17.8698 20.9888 18.5585C21.1151 19.6615 20.1599 20.5 19.0947 20.5H2.03225C0.965967 20.5 0.0139133 19.6595 0.138144 18.5606L0.138194 18.5602C0.2167 17.8702 0.354091 17.1882 0.546063 16.5203Z"/></svg>