<svg class="logo-icon" xmlns="http://www.w3.org/2000/svg" width="61" height="31" viewBox="0 0 61 31"><path d="M60.693 14.6656C60.693 14.6656 60.593 13.8656 59.893 13.8656C59.093 13.8656 48.793 13.8656 46.193 13.8656C45.593 13.8656 45.593 14.4656 45.593 14.4656C45.593 14.4656 45.593 18.4656 45.593 18.9656C45.593 19.4656 46.093 19.4656 46.093 19.4656H54.093C52.493 22.5656 49.293 24.7656 45.593 24.7656C42.593 24.7656 39.893 23.3656 38.093 21.1656C38.093 21.1656 37.693 20.5656 37.593 20.4656L27.793 6.96558C27.593 6.56558 27.293 6.26558 27.093 5.96558V5.86558C23.993 1.96558 18.993 -0.434419 13.593 0.0655813C6.59299 0.765581 0.892993 6.36558 0.0929932 13.4656C-0.907007 22.6656 6.293 30.4656 15.193 30.4656C20.693 30.4656 25.393 27.6656 28.093 23.2656C28.293 23.0656 28.093 22.7656 28.093 22.7656L24.593 17.8656C24.593 17.8656 24.393 17.6656 24.293 17.8656C24.293 17.9656 24.293 17.8656 24.293 17.9656C22.993 22.2656 18.793 25.2656 13.993 24.6656C9.69299 24.1656 6.193 20.6656 5.693 16.2656C4.893 10.6656 9.39299 5.76558 14.993 5.76558C18.093 5.76558 20.793 7.16558 22.493 9.46558L22.993 10.1656C23.093 10.2656 23.193 10.4656 23.293 10.5656L33.493 24.6656C36.293 28.2656 40.593 30.5656 45.493 30.5656C53.893 30.5656 60.693 23.7656 60.693 15.3656C60.693 15.0656 60.693 14.8656 60.693 14.6656Z"/><path d="M45.493 5.76558C49.293 5.76558 52.493 7.86558 53.993 10.9656C54.193 11.2656 54.493 11.2656 54.493 11.2656H59.693C59.693 11.2656 60.093 11.1656 59.993 10.7656C58.193 4.46558 52.393 0.0655813 45.493 0.0655813C39.993 0.0655813 35.293 2.76558 32.693 7.06558C32.393 7.46558 32.693 7.86558 32.693 7.86558L35.893 12.3656C35.893 12.3656 36.293 12.6656 36.493 12.2656C37.593 8.26558 41.193 5.76558 45.493 5.76558Z"/></svg>