<svg class="logo-full" xmlns="http://www.w3.org/2000/svg" width="719" height="124" viewBox="0 0 719 124"><path d="M58.9 4.5C74.8 4.5 88.5 10.3 100 21.8C111.5 33.3 117.2 47.4 117.2 64C117.2 80.6 111.5 94.4 100.2 105.7C88.9 117.1 75.1 122.8 59 122.8C42.9 122.8 28 117 16.8 105.3C5.6 93.6 0 79.7 0 63.6C0 47.5 2.6 42.9 7.8 33.9C13 24.9 20.2 17.7 29.3 12.4C38.4 7.09999 48.2 4.5 58.8 4.5H58.9ZM58.6 25.5C48.2 25.5 39.4 29.1 32.3 36.4C25.2 43.7 21.6 52.9 21.6 64.1C21.6 75.3 26.1 86.4 35 93.7C42 99.4 49.9 102.2 58.9 102.2C67.9 102.2 77.7 98.5 84.9 91.2C92.1 83.8 95.6 74.8 95.6 64C95.6 53.2 92 44.2 84.8 36.8C77.6 29.4 68.8 25.7 58.5 25.7L58.6 25.5Z"/><path d="M120 4.90039H185.3V27.1004H163.8V123.1H141V27.1004H120V4.90039Z"/><path d="M562.5 4.90039H585.3L630.7 123H607.3L598.1 98.7004H549.9L540.3 123H516.9L562.5 4.90039ZM574 36.2004L558.1 76.8004H589.7L573.9 36.2004H574Z"/><path d="M443.8 4.90039H508.3V26.9004H466.1V48.3004H508.3V69.9004H466.1V101H508.3V123.1H443.8V4.90039Z"/><path d="M433.7 59C433.7 59 433.1 55.9 430.3 55.9C427.2 55.9 385.6 56 375 56.1C372.7 56.1 372.6 58.5 372.6 58.5C372.6 58.5 372.6 74.8 372.6 76.8C372.6 78.8 374.6 79 374.6 79H406.7C400.3 91.5 387.3 100.3 372.2 100.3C357.1 100.3 349 94.5 341.9 85.6C341.9 85.6 340.3 83.3 340 82.9L300.7 28.2C299.8 26.7 298.7 25.3 297.7 24L297.5 23.8C285 7.89999 264.9 -1.70001 242.8 0.599991C214.3 3.49999 191.3 26.3 188.1 54.7C183.9 91.8 213 123.3 249.2 123.3C285.4 123.3 290.5 111.9 301.3 94.4C302 93.6 301.3 92.6 301.3 92.6L287.3 72.9C287.3 72.9 286.4 72.3 286.1 73.1C286.1 73.4 286.1 73.1 286.1 73.4C280.7 90.6 263.7 102.7 244.3 100.3C226.8 98.1 212.8 83.9 210.8 66.5C208.1 43.2 226.4 23.3 249.2 23.3C272 23.3 272.6 29.2 279.6 38.2L281.6 41C282 41.6 282.4 42.2 282.7 42.8L323.8 99.7C335.1 114.1 352.6 123.4 372.3 123.4C406.2 123.4 433.8 95.8 433.8 61.9C433.8 28 433.8 60.2 433.8 59.3L433.7 59Z"/><path d="M372.3 22.9C387.5 22.9 400.4 31.3 406.7 44.1C407.3 45.3 408.8 45.5 408.8 45.5L429.9 45.3C429.9 45.3 431.5 44.9 430.9 43.4C423.4 17.9 400 0 372.1 0C344.2 0 331 10.9 320.2 28.3C319.2 29.8 320.4 31.5 320.4 31.5L333.3 49.6C333.3 49.6 335.1 51 335.6 49C340.4 33.1 354.8 22.8 372.2 22.8L372.3 22.9Z"/><path d="M718.9 122.9H691.1L662.5 75.4H662.2V122.9H639.2V5H670.3C693.6 5 709.7 15.3 709.7 40.5C709.7 65.7 701.4 70.5 685.6 73.2L718.9 122.9ZM662.1 59.3H665.1C677.8 59.3 686.7 55.5 686.7 41.2C686.7 26.9 677.5 23.8 665.3 23.8H662.2V59.3H662.1Z"/></svg>