<svg class="logo-full" xmlns="http://www.w3.org/2000/svg" width="1446" height="226" viewBox="0 0 1446 226"><path d="M1419.9 58.87C1412.2 48.42 1402.31 41.83 1388.84 41.83C1375.37 41.83 1363.55 51.73 1363.55 65.2C1363.55 100.11 1445.74 85.54 1445.74 155.09C1445.74 196.6 1419.9 226.01 1377.57 226.01C1348.98 226.01 1328.09 209.52 1313.79 185.6L1339.9 160.04C1345.4 175.98 1359.97 190.28 1377.29 190.28C1394.61 190.28 1403.96 176.26 1403.96 160.32C1403.96 138.88 1384.17 132.83 1367.95 126.51C1341.29 115.51 1321.77 102.04 1321.77 69.88C1321.77 35.52 1347.33 7.75 1382.25 7.75C1400.67 7.75 1426.23 16.82 1438.88 30.84L1419.91 58.88L1419.9 58.87Z"/><path d="M1319.85 225.7H1268.75L1216.21 138.42H1215.63V225.7H1173.43V9.22021H1230.56C1273.34 9.22021 1302.91 28.1702 1302.91 74.3902C1302.91 101.95 1287.69 129.51 1258.7 134.4L1319.85 225.7ZM1215.64 108.85H1221.1C1244.35 108.85 1260.72 101.96 1260.72 75.5502C1260.72 49.1402 1243.78 43.6802 1221.39 43.6802H1215.65V108.85H1215.64Z"/><path d="M1032.68 8.91016H1074.56L1157.99 225.84H1115.07L1098.1 181.16H1009.58L991.93 225.84H949.01L1032.66 8.91016H1032.68ZM1053.87 66.4202L1024.77 140.89H1082.8L1053.87 66.4202Z"/><path d="M814.75 8.91016H933.17V49.3202H855.75V88.5502H933.17V128.22H855.75V185.29H933.17V225.85H814.75V8.91016Z"/><path d="M796.22 108.24C796.22 108.24 795.19 102.57 789.98 102.58C784.24 102.58 707.92 102.84 688.53 102.9C684.28 103.05 684.09 107.23 684.09 107.23C684.09 107.23 684.17 137.13 684.22 140.83C684.27 144.53 687.84 144.85 687.84 144.85L746.83 144.66C735.15 167.88 711.16 183.89 683.44 183.89C660.91 183.89 640.83 173.3 627.82 156.88L627.75 156.93C627.75 156.93 624.73 152.74 624.17 151.88L552 51.45C550.26 48.78 548.41 46.19 546.46 43.68L546.17 43.28H546.15C523.23 14.14 486.33 -3.53 445.62 0.609999C393.35 5.92 351.04 47.73 345.18 99.93C337.54 167.98 390.82 225.84 457.36 225.84C497.94 225.84 533.21 204.91 553.11 172.68C554.34 171.17 552.97 169.29 552.97 169.29L527.35 133.16C527.35 133.16 525.63 131.99 525.2 133.47C525.06 133.96 525.2 133.47 525.05 133.96C515.22 165.54 483.96 187.77 448.3 183.33C416.23 179.34 390.51 153.3 386.86 121.19C381.99 78.37 415.5 41.95 457.36 41.95C480.06 41.95 500.25 52.7 513.24 69.35L516.87 74.44C517.58 75.53 518.27 76.63 518.92 77.76L594.43 182.29C615.11 208.77 647.31 225.84 683.43 225.84C745.69 225.84 796.34 175.18 796.34 112.92C796.34 111.35 796.28 109.79 796.22 108.24Z"/><path d="M683.45 41.95C711.4 41.95 735.14 57.36 746.7 80.9C747.88 83.12 750.62 83.4 750.62 83.4L789.43 83.11C789.43 83.11 792.45 82.29 791.35 79.69C777.6 32.84 734.69 0 683.45 0C643.01 0 608.05 19.95 588.1 51.99C586.18 54.73 588.39 57.88 588.39 57.88L612.01 91.19C612.01 91.19 615.26 93.69 616.3 90.15C625.13 61.01 651.46 41.96 683.45 41.96V41.95Z"/><path d="M220.17 8.91016H340.06V49.6102H300.54V225.84H258.66V49.6102H220.17V8.91016Z"/><path d="M107.95 8.22021C137.22 8.22021 162.39 18.8202 183.46 40.0102C204.53 61.2002 215.06 87.0402 215.06 117.51C215.06 147.98 204.67 173.26 183.88 194.17C163.1 215.08 137.88 225.53 108.23 225.53C78.58 225.53 51.37 214.8 30.82 193.32C10.27 171.85 0 146.34 0 116.8C0 97.0202 4.78 78.8302 14.36 62.2302C23.93 45.6302 37.09 32.4802 53.84 22.7802C70.59 13.0802 88.63 8.22021 107.96 8.22021H107.95ZM107.52 46.7602C88.37 46.7602 72.27 53.4202 59.23 66.7302C46.18 80.0502 39.66 96.9702 39.66 117.5C39.66 140.38 47.87 158.48 64.3 171.79C77.06 182.2 91.71 187.4 108.23 187.4C126.91 187.4 142.82 180.65 155.96 167.15C169.1 153.64 175.67 137 175.67 117.22C175.67 97.4402 169.05 80.8602 155.81 67.2202C142.58 53.5802 126.48 46.7502 107.52 46.7502V46.7602Z"/></svg>