<svg class="viva-logo" width="341" height="56" viewBox="0 0 341 56" fill="none" xmlns="http://www.w3.org/2000/svg">
<path d="M37.0402 43.0979L36.678 42.4641L29.8874 30.5126L15.446 5.1609C13.1825 1.22234 8.06688 -0.135781 4.12831 2.12776C0.189752 4.3913 -1.16837 9.5069 1.09517 13.4455L22.7346 51.3824L22.7799 51.4277C22.8704 51.6088 22.961 51.7446 23.0968 51.8804C23.1421 51.9709 23.1873 52.0615 23.2779 52.1067C23.3684 52.2426 23.459 52.3784 23.5948 52.5142C23.6853 52.6047 23.7306 52.6953 23.8211 52.7858C23.9117 52.9216 24.0475 53.0122 24.138 53.148C24.2286 53.2385 24.2738 53.3291 24.3644 53.3743C24.5002 53.4649 24.5907 53.6007 24.7265 53.6912C24.8171 53.7365 24.9076 53.827 24.9982 53.8723C25.134 53.9628 25.2698 54.0534 25.4056 54.1439C25.4961 54.1892 25.5867 54.2345 25.632 54.2798C25.813 54.3703 25.9489 54.4608 26.1299 54.5514C26.1752 54.5966 26.2657 54.5966 26.311 54.6419C26.4921 54.7325 26.7185 54.823 26.8995 54.9135C26.9448 54.9135 26.9901 54.9588 27.0354 54.9588C27.2617 55.0494 27.4428 55.0946 27.6691 55.1399C27.7144 55.1399 27.7597 55.1852 27.805 55.1852C28.0313 55.2304 28.2124 55.2757 28.4387 55.321C28.484 55.321 28.5746 55.321 28.6198 55.3662C28.8009 55.4115 28.982 55.4115 29.1631 55.4115C29.2536 55.4115 29.3442 55.4115 29.48 55.4115C29.6158 55.4115 29.7516 55.4115 29.9327 55.4115C30.0685 55.4115 30.2043 55.4115 30.3854 55.4115C30.4759 55.4115 30.5665 55.4115 30.7023 55.4115C30.8834 55.4115 31.0645 55.3662 31.2455 55.3662C31.2908 55.3662 31.3813 55.3662 31.4266 55.321C31.653 55.2757 31.8341 55.2304 32.0604 55.1852C32.1057 55.1852 32.151 55.1399 32.1962 55.1399C32.4226 55.0946 32.6037 55.0041 32.83 54.9588C32.8753 54.9588 32.9206 54.9135 32.9658 54.9135C33.1469 54.823 33.3733 54.7325 33.5543 54.6419C33.5996 54.5966 33.6902 54.5966 33.7354 54.5514C33.9165 54.4608 34.0976 54.3703 34.2334 54.2798C34.324 54.2345 34.4145 54.1892 34.4598 54.1439C34.5956 54.0534 34.7314 53.9628 34.8672 53.8723C34.9577 53.827 35.0483 53.7365 35.1388 53.6912C35.2746 53.6007 35.4104 53.4649 35.501 53.3743C35.5915 53.2838 35.6821 53.2385 35.7273 53.148C35.8179 53.0574 35.9537 52.9216 36.0442 52.7858C36.1348 52.6953 36.1801 52.6047 36.2706 52.5142C36.3611 52.3784 36.497 52.2426 36.5875 52.1067C36.6328 52.0162 36.678 51.9709 36.7233 51.8804C36.7233 51.8804 36.7233 51.8804 36.7233 51.8351C36.8138 51.6993 36.9497 51.5182 37.0402 51.3824C38.4436 48.9831 38.5794 45.7688 37.0402 43.0979Z" class="vl-1"/>
<path d="M55.6465 2.12776C51.7079 -0.135781 46.5923 1.22234 44.3288 5.1609L29.8874 30.5126L22.6893 43.0978C21.1501 45.7688 21.286 48.9831 22.7346 51.4729C22.8252 51.654 22.9157 51.7898 23.0515 51.9257C23.0968 52.0162 23.1421 52.1067 23.2326 52.152C23.3231 52.2878 23.4137 52.4236 23.5495 52.5594C23.64 52.65 23.6853 52.7405 23.7758 52.8311C23.8664 52.9669 24.0022 53.0574 24.0927 53.1932C24.1833 53.2838 24.2286 53.3743 24.3191 53.4196C24.4549 53.5101 24.5455 53.6459 24.6813 53.7365C24.7718 53.7818 24.8623 53.8723 24.9529 53.9176C25.0887 54.0081 25.2245 54.0987 25.3603 54.1892C25.4509 54.2345 25.5414 54.2797 25.5867 54.325C25.7678 54.4155 25.9036 54.5061 26.0847 54.5966C26.1299 54.6419 26.2205 54.6419 26.2657 54.6872C26.4468 54.7777 26.6732 54.8683 26.8543 54.9588C26.8995 54.9588 26.9448 55.0041 26.9901 55.0041C27.2164 55.0946 27.3975 55.1399 27.6239 55.1852C27.6691 55.1852 27.7144 55.2304 27.7597 55.2304C27.986 55.2757 28.1671 55.321 28.3935 55.3662C28.4387 55.3662 28.5293 55.3662 28.5746 55.4115C28.7556 55.4568 28.9367 55.4568 29.1178 55.4568C29.2083 55.4568 29.2989 55.4568 29.4347 55.4568C29.5705 55.4568 29.7063 55.4568 29.8874 55.4568C30.0232 55.4568 30.159 55.4568 30.3401 55.4568C30.4307 55.4568 30.5212 55.4568 30.657 55.4568C30.8381 55.4568 31.0192 55.4115 31.2003 55.4115C31.2455 55.4115 31.3361 55.4115 31.3813 55.3662C31.6077 55.321 31.7888 55.2757 32.0151 55.2304C32.0604 55.2304 32.1057 55.1852 32.1509 55.1852C32.3773 55.1399 32.5584 55.0493 32.7847 55.0041C32.83 55.0041 32.8753 54.9588 32.9206 54.9588C33.1016 54.8683 33.328 54.7777 33.5091 54.6872C33.5543 54.6419 33.6449 54.6419 33.6902 54.5966C33.8712 54.5061 34.0523 54.4155 34.1881 54.325C34.2787 54.2797 34.3692 54.2345 34.4145 54.1892C34.5503 54.0987 34.6861 54.0081 34.8219 53.9176C34.9125 53.8723 35.003 53.7818 35.0936 53.7365C35.2294 53.6459 35.3652 53.5101 35.4557 53.4196C35.5463 53.329 35.6368 53.2838 35.6821 53.1932C35.7726 53.1027 35.9084 52.9669 35.999 52.8311C36.0895 52.7405 36.1348 52.65 36.2253 52.5594C36.3159 52.4236 36.4517 52.2878 36.5422 52.152C36.5875 52.0615 36.6328 52.0162 36.678 51.9257C36.678 51.9257 36.678 51.9257 36.678 51.8804C36.7686 51.7446 36.9044 51.5635 36.9949 51.4277L37.0402 51.3824L58.6796 13.4455C60.8979 9.5069 59.5851 4.3913 55.6465 2.12776Z" class="vl-1"/>
<path d="M37.0402 43.0978L36.678 42.464L29.8874 30.5125L22.6893 43.0978C21.1501 45.7688 21.286 48.983 22.7346 51.4729C22.8252 51.654 22.9157 51.7898 23.0515 51.9256C23.0968 52.0162 23.1421 52.1067 23.2326 52.152C23.3231 52.2878 23.4137 52.4236 23.5495 52.5594C23.64 52.6499 23.6853 52.7405 23.7758 52.831C23.8664 52.9668 24.0022 53.0574 24.0927 53.1932C24.1833 53.2837 24.2286 53.3743 24.3191 53.4195C24.4549 53.5101 24.5455 53.6459 24.6813 53.7364C24.7718 53.7817 24.8623 53.8723 24.9529 53.9175C25.0887 54.0081 25.2245 54.0986 25.3603 54.1891C25.4509 54.2344 25.5414 54.2797 25.5867 54.325C25.7678 54.4155 25.9036 54.506 26.0847 54.5966C26.1299 54.6419 26.2205 54.6419 26.2657 54.6871C26.4468 54.7777 26.6732 54.8682 26.8543 54.9588C26.8995 54.9588 26.9448 55.004 26.9901 55.004C27.2164 55.0946 27.3975 55.1398 27.6239 55.1851C27.6691 55.1851 27.7144 55.2304 27.7597 55.2304C27.986 55.2756 28.1671 55.3209 28.3935 55.3662C28.4387 55.3662 28.5293 55.3662 28.5746 55.4115C28.7556 55.4567 28.9367 55.4567 29.1178 55.4567C29.2083 55.4567 29.2989 55.4567 29.4347 55.4567C29.5705 55.4567 29.7063 55.4567 29.8874 55.4567C30.0232 55.4567 30.159 55.4567 30.3401 55.4567C30.4307 55.4567 30.5212 55.4567 30.657 55.4567C30.8381 55.4567 31.0192 55.4115 31.2003 55.4115C31.2455 55.4115 31.3361 55.4115 31.3813 55.3662C31.6077 55.3209 31.7888 55.2756 32.0151 55.2304C32.0604 55.2304 32.1057 55.1851 32.1509 55.1851C32.3773 55.1398 32.5584 55.0493 32.7847 55.004C32.83 55.004 32.8753 54.9588 32.9206 54.9588C33.1016 54.8682 33.328 54.7777 33.5091 54.6871C33.5543 54.6419 33.6449 54.6419 33.6902 54.5966C33.8712 54.506 34.0523 54.4155 34.1881 54.325C34.2787 54.2797 34.3692 54.2344 34.4145 54.1891C34.5503 54.0986 34.6861 54.0081 34.8219 53.9175C34.9125 53.8723 35.003 53.7817 35.0936 53.7364C35.2294 53.6459 35.3652 53.5101 35.4557 53.4195C35.5463 53.329 35.6368 53.2837 35.6821 53.1932C35.7726 53.1027 35.9084 52.9668 35.999 52.831C36.0895 52.7405 36.1348 52.6499 36.2253 52.5594C36.3159 52.4236 36.4517 52.2878 36.5422 52.152C36.5875 52.0614 36.6328 52.0162 36.678 51.9256C36.678 51.9256 36.678 51.9256 36.678 51.8803C36.7686 51.7445 36.9044 51.5634 36.9949 51.4276C38.4436 48.983 38.5794 45.7688 37.0402 43.0978Z" class="vl-2"/>
<path d="M132.381 43.0979L132.018 42.4641L125.228 30.5126L110.786 5.1609C108.523 1.22234 103.407 -0.135781 99.4686 2.12776C95.5301 4.3913 94.172 9.5069 96.4355 13.4455L118.075 51.3824L118.12 51.4277C118.211 51.6088 118.301 51.7446 118.437 51.8804C118.482 51.9709 118.528 52.0615 118.618 52.1067C118.709 52.2426 118.845 52.3784 118.935 52.5142C119.026 52.6047 119.071 52.6953 119.161 52.7858C119.252 52.9216 119.388 53.0122 119.478 53.148C119.569 53.2385 119.614 53.3291 119.705 53.3743C119.841 53.4649 119.931 53.6007 120.067 53.6912C120.157 53.7365 120.248 53.827 120.339 53.8723C120.474 53.9628 120.61 54.0534 120.746 54.1439C120.836 54.1892 120.927 54.2345 120.972 54.2798C121.153 54.3703 121.289 54.4608 121.47 54.5514C121.516 54.5966 121.606 54.5966 121.651 54.6419C121.832 54.7325 122.059 54.823 122.24 54.9135C122.285 54.9135 122.33 54.9588 122.376 54.9588C122.602 55.0494 122.783 55.0946 123.009 55.1399C123.055 55.1399 123.1 55.1852 123.145 55.1852C123.372 55.2304 123.553 55.2757 123.779 55.321C123.824 55.321 123.915 55.321 123.96 55.3662C124.141 55.4115 124.322 55.4115 124.503 55.4115C124.594 55.4115 124.684 55.4115 124.82 55.4115C124.956 55.4115 125.092 55.4115 125.273 55.4115C125.409 55.4115 125.545 55.4115 125.726 55.4115C125.816 55.4115 125.907 55.4115 126.043 55.4115C126.224 55.4115 126.405 55.3662 126.586 55.3662C126.631 55.3662 126.722 55.3662 126.767 55.321C126.993 55.2757 127.174 55.2304 127.401 55.1852C127.446 55.1852 127.491 55.1399 127.537 55.1399C127.763 55.0946 127.944 55.0041 128.17 54.9588C128.216 54.9588 128.261 54.9135 128.306 54.9135C128.487 54.823 128.714 54.7325 128.895 54.6419C128.94 54.5966 129.03 54.5966 129.076 54.5514C129.257 54.4608 129.438 54.3703 129.574 54.2798C129.664 54.2345 129.755 54.1892 129.8 54.1439C129.936 54.0534 130.072 53.9628 130.208 53.8723C130.298 53.827 130.389 53.7365 130.479 53.6912C130.615 53.6007 130.751 53.4649 130.841 53.3743C130.932 53.2838 131.022 53.2385 131.068 53.148C131.203 53.0574 131.294 52.9216 131.385 52.7858C131.475 52.6953 131.52 52.6047 131.611 52.5142C131.701 52.3784 131.837 52.2426 131.928 52.1067C131.973 52.0162 132.018 51.9709 132.064 51.8804C132.064 51.8804 132.064 51.8804 132.064 51.8351C132.154 51.6993 132.29 51.5182 132.381 51.3824C133.784 48.9831 133.92 45.7688 132.381 43.0979Z" class="vl-1"/>
<path d="M150.987 2.12776C147.048 -0.135781 141.933 1.22234 139.669 5.1609L125.228 30.5126L118.03 43.0978C116.49 45.7688 116.626 48.9831 118.075 51.4729C118.165 51.654 118.256 51.7898 118.392 51.9257C118.437 52.0162 118.482 52.1067 118.573 52.152C118.663 52.2878 118.799 52.4236 118.89 52.5594C118.98 52.65 119.026 52.7405 119.116 52.8311C119.207 52.9669 119.343 53.0574 119.433 53.1932C119.524 53.2838 119.569 53.3743 119.659 53.4196C119.795 53.5101 119.886 53.6459 120.022 53.7365C120.112 53.7818 120.203 53.8723 120.293 53.9176C120.429 54.0081 120.565 54.0987 120.701 54.1892C120.791 54.2345 120.882 54.2797 120.927 54.325C121.108 54.4155 121.244 54.5061 121.425 54.5966C121.47 54.6419 121.561 54.6419 121.606 54.6872C121.787 54.7777 122.014 54.8683 122.195 54.9588C122.24 54.9588 122.285 55.0041 122.33 55.0041C122.557 55.0946 122.738 55.1399 122.964 55.1852C123.009 55.1852 123.055 55.2304 123.1 55.2304C123.326 55.2757 123.507 55.321 123.734 55.3662C123.779 55.3662 123.87 55.3662 123.915 55.4115C124.096 55.4568 124.277 55.4568 124.458 55.4568C124.549 55.4568 124.639 55.4568 124.775 55.4568C124.911 55.4568 125.047 55.4568 125.228 55.4568C125.364 55.4568 125.499 55.4568 125.68 55.4568C125.771 55.4568 125.862 55.4568 125.997 55.4568C126.178 55.4568 126.359 55.4115 126.541 55.4115C126.586 55.4115 126.676 55.4115 126.722 55.3662C126.948 55.321 127.129 55.2757 127.355 55.2304C127.401 55.2304 127.446 55.1852 127.491 55.1852C127.718 55.1399 127.899 55.0493 128.125 55.0041C128.17 55.0041 128.216 54.9588 128.261 54.9588C128.442 54.8683 128.668 54.7777 128.849 54.6872C128.895 54.6419 128.985 54.6419 129.03 54.5966C129.212 54.5061 129.393 54.4155 129.528 54.325C129.619 54.2797 129.71 54.2345 129.755 54.1892C129.891 54.0987 130.026 54.0081 130.162 53.9176C130.253 53.8723 130.343 53.7818 130.434 53.7365C130.57 53.6459 130.706 53.5101 130.796 53.4196C130.887 53.329 130.977 53.2838 131.022 53.1932C131.158 53.1027 131.249 52.9669 131.339 52.8311C131.43 52.7405 131.475 52.65 131.566 52.5594C131.656 52.4236 131.792 52.2878 131.883 52.152C131.928 52.0615 131.973 52.0162 132.018 51.9257C132.018 51.9257 132.018 51.9257 132.018 51.8804C132.109 51.7446 132.245 51.5635 132.335 51.4277L132.381 51.3824L154.02 13.4455C156.284 9.5069 154.925 4.3913 150.987 2.12776Z" class="vl-1"/>
<path d="M132.381 43.0978L132.018 42.464L125.228 30.5125L118.03 43.0978C116.49 45.7688 116.626 48.983 118.075 51.4729C118.165 51.654 118.256 51.7898 118.392 51.9256C118.437 52.0162 118.482 52.1067 118.573 52.152C118.663 52.2878 118.799 52.4236 118.89 52.5594C118.98 52.6499 119.026 52.7405 119.116 52.831C119.207 52.9668 119.343 53.0574 119.433 53.1932C119.524 53.2837 119.569 53.3743 119.659 53.4195C119.795 53.5101 119.886 53.6459 120.022 53.7364C120.112 53.7817 120.203 53.8723 120.293 53.9175C120.429 54.0081 120.565 54.0986 120.701 54.1891C120.791 54.2344 120.882 54.2797 120.927 54.325C121.108 54.4155 121.244 54.506 121.425 54.5966C121.47 54.6419 121.561 54.6419 121.606 54.6871C121.787 54.7777 122.014 54.8682 122.195 54.9588C122.24 54.9588 122.285 55.004 122.33 55.004C122.557 55.0946 122.738 55.1398 122.964 55.1851C123.009 55.1851 123.055 55.2304 123.1 55.2304C123.326 55.2756 123.507 55.3209 123.734 55.3662C123.779 55.3662 123.87 55.3662 123.915 55.4115C124.096 55.4567 124.277 55.4567 124.458 55.4567C124.549 55.4567 124.639 55.4567 124.775 55.4567C124.911 55.4567 125.047 55.4567 125.228 55.4567C125.364 55.4567 125.499 55.4567 125.68 55.4567C125.771 55.4567 125.862 55.4567 125.997 55.4567C126.178 55.4567 126.359 55.4115 126.541 55.4115C126.586 55.4115 126.676 55.4115 126.722 55.3662C126.948 55.3209 127.129 55.2756 127.355 55.2304C127.401 55.2304 127.446 55.1851 127.491 55.1851C127.718 55.1398 127.899 55.0493 128.125 55.004C128.17 55.004 128.216 54.9588 128.261 54.9588C128.442 54.8682 128.668 54.7777 128.849 54.6871C128.895 54.6419 128.985 54.6419 129.03 54.5966C129.212 54.506 129.393 54.4155 129.528 54.325C129.619 54.2797 129.71 54.2344 129.755 54.1891C129.891 54.0986 130.026 54.0081 130.162 53.9175C130.253 53.8723 130.343 53.7817 130.434 53.7364C130.57 53.6459 130.706 53.5101 130.796 53.4195C130.887 53.329 130.977 53.2837 131.022 53.1932C131.158 53.1027 131.249 52.9668 131.339 52.831C131.43 52.7405 131.475 52.6499 131.566 52.5594C131.656 52.4236 131.792 52.2878 131.883 52.152C131.928 52.0614 131.973 52.0162 132.018 51.9256C132.018 51.9256 132.018 51.9256 132.018 51.8803C132.109 51.7445 132.245 51.5634 132.335 51.4276C133.784 48.983 133.92 45.7688 132.381 43.0978Z" class="vl-2"/>
<path d="M171.721 13.4454L172.083 14.0792L178.874 26.0307L193.315 51.3824C195.579 55.3209 200.694 56.6791 204.633 54.4155C208.571 52.152 209.929 47.0364 207.666 43.0978L186.026 5.16087L185.981 5.11561C185.891 4.93452 185.8 4.79871 185.664 4.6629C185.619 4.57236 185.574 4.48182 185.483 4.43655C185.393 4.30073 185.257 4.16492 185.166 4.0291C185.076 3.93856 185.03 3.84803 184.94 3.75748C184.849 3.62167 184.714 3.53113 184.623 3.39532C184.532 3.30477 184.487 3.21423 184.397 3.16896C184.261 3.07842 184.17 2.94261 184.035 2.85207C183.944 2.8068 183.853 2.71625 183.763 2.67098C183.627 2.58044 183.491 2.4899 183.31 2.39936C183.22 2.35409 183.129 2.30882 183.084 2.26355C182.903 2.173 182.767 2.08246 182.586 1.99192C182.541 1.94665 182.45 1.94665 182.405 1.90138C182.224 1.81084 181.997 1.72029 181.816 1.62975C181.771 1.62975 181.726 1.58448 181.68 1.58448C181.454 1.49394 181.273 1.44867 181.047 1.4034C181.001 1.4034 180.956 1.35813 180.911 1.35813C180.684 1.31286 180.503 1.26759 180.277 1.22232C180.232 1.22232 180.141 1.17704 180.096 1.17704C179.915 1.13177 179.734 1.13177 179.553 1.13177C179.462 1.13177 179.372 1.13177 179.236 1.13177C179.1 1.13177 178.964 1.13177 178.783 1.13177C178.647 1.13177 178.511 1.13177 178.33 1.13177C178.24 1.13177 178.149 1.13177 178.013 1.13177C177.832 1.13177 177.651 1.17704 177.47 1.17704C177.425 1.17704 177.334 1.17704 177.289 1.22232C177.063 1.26759 176.882 1.31286 176.655 1.35813C176.61 1.35813 176.565 1.4034 176.52 1.4034C176.293 1.44867 176.112 1.53921 175.886 1.58448C175.84 1.58448 175.795 1.62975 175.75 1.62975C175.569 1.72029 175.343 1.81084 175.161 1.90138C175.116 1.94665 175.026 1.94665 174.98 1.99192C174.799 2.08246 174.618 2.173 174.482 2.26355C174.392 2.30882 174.301 2.35409 174.256 2.39936C174.12 2.4899 173.984 2.58044 173.849 2.67098C173.758 2.71625 173.668 2.8068 173.577 2.85207C173.441 2.94261 173.305 3.03315 173.215 3.16896C173.124 3.2595 173.034 3.30477 172.988 3.39532C172.853 3.48586 172.762 3.62167 172.672 3.75748C172.581 3.84803 172.536 3.93856 172.445 4.0291C172.355 4.16492 172.219 4.30073 172.128 4.43655C172.083 4.48182 172.038 4.57236 171.992 4.6629C171.992 4.6629 171.992 4.6629 171.992 4.70817C171.902 4.84398 171.766 5.02506 171.676 5.16087C170.317 7.56023 170.182 10.7745 171.721 13.4454Z" class="vl-1"/>
<path d="M153.16 54.4155C157.098 56.679 162.214 55.3209 164.478 51.3823L178.919 26.0307L186.117 13.4001C187.656 10.7291 187.52 7.56016 186.072 5.02499C185.981 4.84391 185.891 4.7081 185.755 4.57229C185.71 4.48174 185.664 4.3912 185.574 4.34593C185.483 4.21012 185.347 4.07431 185.257 3.9385C185.166 3.84796 185.121 3.75741 185.031 3.66687C184.94 3.53106 184.804 3.44052 184.714 3.30471C184.623 3.21417 184.578 3.12363 184.487 3.07835C184.351 2.98781 184.261 2.852 184.125 2.76145C184.035 2.71618 183.944 2.62564 183.854 2.58037C183.718 2.48983 183.582 2.39929 183.401 2.30875C183.31 2.26347 183.22 2.21821 183.174 2.17294C182.993 2.0824 182.858 1.99185 182.676 1.90131C182.631 1.85604 182.541 1.85604 182.495 1.81077C182.314 1.72023 182.088 1.62968 181.907 1.53914C181.862 1.53914 181.816 1.49388 181.771 1.49388C181.545 1.40333 181.364 1.35806 181.137 1.31279C181.092 1.31279 181.047 1.26752 181.001 1.26752C180.775 1.22225 180.594 1.17698 180.368 1.13171C180.322 1.13171 180.232 1.08643 180.187 1.08643C180.005 1.04116 179.824 1.04117 179.643 1.04117C179.553 1.04117 179.462 1.04117 179.326 1.04117C179.191 1.04117 179.055 1.04117 178.874 1.04117C178.738 1.04117 178.602 1.04117 178.421 1.04117C178.33 1.04117 178.24 1.04117 178.104 1.04117C177.923 1.04117 177.742 1.08643 177.561 1.08643C177.516 1.08643 177.425 1.08644 177.38 1.13171C177.153 1.17698 176.972 1.22225 176.746 1.26752C176.701 1.26752 176.655 1.31279 176.61 1.31279C176.384 1.35806 176.203 1.44861 175.976 1.49388C175.931 1.49388 175.886 1.53914 175.841 1.53914C175.66 1.62968 175.433 1.72023 175.252 1.81077C175.207 1.85604 175.116 1.85604 175.071 1.90131C174.89 1.99185 174.709 2.0824 174.573 2.17294C174.482 2.21821 174.392 2.26347 174.347 2.30875C174.211 2.39929 174.075 2.48983 173.939 2.58037C173.849 2.62564 173.758 2.71618 173.668 2.76145C173.532 2.852 173.396 2.94254 173.305 3.07835C173.215 3.1689 173.124 3.21417 173.079 3.30471C172.943 3.39525 172.853 3.53106 172.762 3.66687C172.672 3.75741 172.626 3.84796 172.536 3.9385C172.445 4.07431 172.309 4.21012 172.219 4.34593C172.174 4.3912 172.128 4.48174 172.083 4.57229C172.083 4.57229 172.083 4.57229 172.083 4.61756C171.993 4.75337 171.857 4.93446 171.766 5.07027L171.721 5.11554L150.081 43.0525C147.863 47.0816 149.176 52.1519 153.16 54.4155Z" class="vl-1"/>
<path d="M171.721 13.4454L172.083 14.0792L178.874 26.0307L186.072 13.4001C187.611 10.7291 187.475 7.56016 186.026 5.02499C185.936 4.84391 185.845 4.7081 185.71 4.57229C185.664 4.48175 185.619 4.3912 185.528 4.34593C185.438 4.21012 185.302 4.07431 185.212 3.9385C185.121 3.84796 185.076 3.75741 184.985 3.66687C184.895 3.53106 184.759 3.44052 184.668 3.30471C184.578 3.21417 184.532 3.12363 184.442 3.07836C184.306 2.98781 184.216 2.852 184.08 2.76145C183.989 2.71618 183.899 2.62564 183.808 2.58037C183.672 2.48983 183.537 2.39929 183.355 2.30875C183.265 2.26347 183.174 2.21821 183.129 2.17294C182.948 2.0824 182.812 1.99185 182.631 1.90131C182.586 1.85604 182.495 1.85604 182.45 1.81077C182.269 1.72023 182.043 1.62968 181.862 1.53914C181.816 1.53914 181.771 1.49388 181.726 1.49388C181.499 1.40333 181.318 1.35806 181.092 1.31279C181.047 1.31279 181.001 1.26752 180.956 1.26752C180.73 1.22225 180.549 1.17698 180.322 1.13171C180.277 1.13171 180.187 1.08643 180.141 1.08643C179.96 1.04116 179.779 1.04117 179.598 1.04117C179.507 1.04117 179.417 1.04117 179.281 1.04117C179.145 1.04117 179.009 1.04117 178.828 1.04117C178.693 1.04117 178.557 1.04117 178.376 1.04117C178.285 1.04117 178.195 1.04117 178.059 1.04117C177.878 1.04117 177.697 1.08643 177.516 1.08643C177.47 1.08643 177.38 1.08644 177.334 1.13171C177.108 1.17698 176.927 1.22225 176.701 1.26752C176.655 1.26752 176.61 1.31279 176.565 1.31279C176.338 1.35806 176.157 1.44861 175.931 1.49388C175.886 1.49388 175.84 1.53914 175.795 1.53914C175.614 1.62968 175.388 1.72023 175.207 1.81077C175.161 1.85604 175.071 1.85604 175.026 1.90131C174.845 1.99185 174.663 2.0824 174.528 2.17294C174.437 2.21821 174.347 2.26347 174.301 2.30875C174.165 2.39929 174.03 2.48983 173.894 2.58037C173.803 2.62564 173.713 2.71618 173.622 2.76145C173.486 2.852 173.351 2.94254 173.26 3.07836C173.17 3.1689 173.079 3.21417 173.034 3.30471C172.898 3.39525 172.807 3.53106 172.717 3.66687C172.626 3.75741 172.581 3.84796 172.49 3.9385C172.4 4.07431 172.264 4.21012 172.174 4.34593C172.128 4.3912 172.083 4.48175 172.038 4.57229C172.038 4.57229 172.038 4.57229 172.038 4.61756C171.947 4.75337 171.811 4.93446 171.721 5.07027C170.317 7.56016 170.182 10.7744 171.721 13.4454Z" class="vl-2"/>
<path d="M77.5123 0C72.94 0 69.2278 3.71221 69.2278 8.28456V47.2175V47.7154C69.2278 51.9709 72.4873 55.5473 76.6522 55.9547C76.9238 56 77.1954 56 77.4671 56C78.6894 56 79.8664 55.7284 80.9529 55.2304C82.809 54.3702 84.2577 52.8763 85.0726 51.0202C85.5253 50.0243 85.7516 48.8925 85.7516 47.7154V8.28456C85.7969 3.71221 82.0394 0 77.5123 0Z" class="vl-1"/>
<path d="M77.467 39.3856C73.0304 39.3856 69.454 42.8261 69.1824 47.2174V47.7154C69.1824 51.9708 72.4419 55.5472 76.6068 55.9547C76.8785 55.9999 77.1501 55.9999 77.4217 55.9999C78.644 55.9999 79.8211 55.7283 80.9076 55.2303C82.7637 54.3702 84.2123 52.8763 85.0272 51.0202C85.4799 50.0242 85.7063 48.8924 85.7063 47.7154C85.7968 43.0978 82.0846 39.3856 77.467 39.3856Z" class="vl-2"/>
<path d="M226.453 20.3269C225.908 20.3269 225.485 20.1765 225.184 19.8758C224.902 19.5751 224.761 19.1428 224.761 18.579V1.80433C224.761 1.22168 224.902 0.779998 225.184 0.479276C225.485 0.159759 225.87 0 226.34 0C226.772 0 227.092 0.084578 227.298 0.253734C227.524 0.404095 227.787 0.667226 228.088 1.04313L238.886 15.0549H238.153V1.71975C238.153 1.17469 238.294 0.751804 238.575 0.451083C238.876 0.150361 239.299 0 239.844 0C240.389 0 240.803 0.150361 241.085 0.451083C241.367 0.751804 241.508 1.17469 241.508 1.71975V18.6353C241.508 19.1616 241.376 19.5751 241.113 19.8758C240.85 20.1765 240.493 20.3269 240.041 20.3269C239.609 20.3269 239.261 20.2423 238.998 20.0732C238.754 19.904 238.482 19.6315 238.181 19.2556L227.411 5.24383H228.116V18.579C228.116 19.1428 227.975 19.5751 227.693 19.8758C227.411 20.1765 226.998 20.3269 226.453 20.3269Z" class="vl-2"/>
<path d="M254.562 20.3833C253.002 20.3833 251.658 20.092 250.53 19.5093C249.403 18.9267 248.529 18.0997 247.909 17.0284C247.307 15.957 247.006 14.6884 247.006 13.2224C247.006 11.7939 247.298 10.5441 247.88 9.47273C248.482 8.40141 249.299 7.56503 250.333 6.96359C251.386 6.34335 252.579 6.03323 253.914 6.03323C254.891 6.03323 255.765 6.19299 256.536 6.5125C257.325 6.83202 257.992 7.2925 258.537 7.89394C259.101 8.49539 259.524 9.2284 259.806 10.093C260.107 10.9387 260.257 11.8973 260.257 12.9686C260.257 13.3069 260.135 13.5701 259.89 13.758C259.665 13.9272 259.336 14.0117 258.904 14.0117H249.854V11.9819H257.776L257.325 12.4048C257.325 11.5402 257.193 10.8166 256.93 10.2339C256.686 9.65128 256.319 9.2096 255.831 8.90888C255.361 8.58936 254.769 8.4296 254.055 8.4296C253.265 8.4296 252.589 8.61755 252.025 8.99346C251.48 9.35056 251.057 9.86743 250.756 10.5441C250.474 11.2019 250.333 11.9913 250.333 12.9122V13.1096C250.333 14.6508 250.69 15.8067 251.404 16.5773C252.137 17.3291 253.209 17.705 254.618 17.705C255.107 17.705 255.652 17.6486 256.254 17.5358C256.874 17.4043 257.456 17.1881 258.002 16.8874C258.396 16.6619 258.744 16.5679 259.045 16.6055C259.345 16.6243 259.58 16.7276 259.749 16.9156C259.937 17.1035 260.05 17.3385 260.088 17.6204C260.125 17.8835 260.069 18.1561 259.919 18.438C259.787 18.7199 259.552 18.9643 259.214 19.171C258.556 19.5845 257.795 19.8946 256.93 20.1014C256.084 20.2893 255.295 20.3833 254.562 20.3833Z" class="vl-2"/>
<path d="M270.411 20.3269C269.941 20.3269 269.537 20.2141 269.199 19.9886C268.861 19.7443 268.588 19.3684 268.381 18.8609L264.294 8.4296C264.124 7.97852 264.068 7.58382 264.124 7.24551C264.2 6.8884 264.378 6.60648 264.66 6.39973C264.942 6.19299 265.318 6.08961 265.788 6.08961C266.201 6.08961 266.54 6.19299 266.803 6.39973C267.066 6.58768 267.291 6.95419 267.479 7.49925L270.891 16.8874H270.242L273.766 7.27371C273.917 6.86021 274.114 6.55949 274.358 6.37154C274.621 6.18359 274.96 6.08961 275.373 6.08961C275.787 6.08961 276.125 6.19299 276.388 6.39973C276.651 6.58768 276.849 6.87901 276.98 7.27371L280.448 16.8874H279.856L283.295 7.41467C283.483 6.9072 283.718 6.55949 284 6.37154C284.301 6.18359 284.63 6.08961 284.987 6.08961C285.438 6.08961 285.786 6.20238 286.03 6.42793C286.274 6.65347 286.415 6.94479 286.453 7.3019C286.491 7.64021 286.425 8.01611 286.256 8.4296L282.196 18.8609C282.008 19.3496 281.735 19.7161 281.378 19.9604C281.04 20.2047 280.636 20.3269 280.166 20.3269C279.696 20.3269 279.283 20.2047 278.926 19.9604C278.587 19.7161 278.324 19.3496 278.136 18.8609L274.443 9.07803H276.05L272.441 18.8327C272.253 19.3402 271.99 19.7161 271.652 19.9604C271.314 20.2047 270.9 20.3269 270.411 20.3269Z" class="vl-2"/>
<path d="M296.145 20.3833C295.337 20.3833 294.482 20.2987 293.579 20.1296C292.677 19.9604 291.869 19.6691 291.155 19.2556C290.854 19.0676 290.638 18.8515 290.506 18.6071C290.394 18.344 290.347 18.0903 290.365 17.8459C290.403 17.5828 290.497 17.3573 290.647 17.1693C290.816 16.9814 291.023 16.8592 291.268 16.8028C291.531 16.7464 291.813 16.7934 292.113 16.9438C292.865 17.3009 293.57 17.5546 294.228 17.705C294.886 17.8365 295.534 17.9023 296.173 17.9023C297.075 17.9023 297.742 17.752 298.175 17.4513C298.626 17.1317 298.851 16.7182 298.851 16.2108C298.851 15.7785 298.701 15.4496 298.4 15.224C298.118 14.9797 297.686 14.8011 297.103 14.6884L294.284 14.1527C293.119 13.9272 292.226 13.5043 291.606 12.884C291.004 12.245 290.704 11.4274 290.704 10.4313C290.704 9.52912 290.948 8.74912 291.437 8.09129C291.944 7.43346 292.64 6.92599 293.523 6.56889C294.406 6.21178 295.421 6.03323 296.568 6.03323C297.395 6.03323 298.165 6.1272 298.88 6.31515C299.613 6.48431 300.317 6.75684 300.994 7.13274C301.276 7.2831 301.464 7.48045 301.558 7.72479C301.671 7.96912 301.699 8.22286 301.642 8.48599C301.586 8.73032 301.473 8.95587 301.304 9.16261C301.135 9.35056 300.919 9.47273 300.656 9.52912C300.411 9.56671 300.129 9.51032 299.81 9.35996C299.227 9.05924 298.663 8.8431 298.118 8.71153C297.592 8.57996 297.085 8.51418 296.596 8.51418C295.675 8.51418 294.989 8.67394 294.538 8.99346C294.106 9.31297 293.889 9.73586 293.889 10.2621C293.889 10.6568 294.021 10.9857 294.284 11.2489C294.547 11.512 294.951 11.6906 295.496 11.7845L298.316 12.3202C299.537 12.5457 300.458 12.9592 301.079 13.5607C301.718 14.1621 302.037 14.9703 302.037 15.9852C302.037 17.3573 301.501 18.438 300.43 19.2274C299.359 19.998 297.93 20.3833 296.145 20.3833Z" class="vl-2"/>
<path d="M226.565 50.8689C225.983 50.8689 225.532 50.7092 225.212 50.3897C224.911 50.0513 224.761 49.5909 224.761 49.0082V32.4028C224.761 31.8013 224.911 31.3408 225.212 31.0213C225.532 30.7018 225.983 30.542 226.565 30.542C227.148 30.542 227.59 30.7018 227.89 31.0213C228.21 31.3408 228.37 31.8013 228.37 32.4028V49.0082C228.37 49.5909 228.219 50.0513 227.919 50.3897C227.618 50.7092 227.167 50.8689 226.565 50.8689Z" class="vl-2"/>
<path d="M236.383 50.8689C235.819 50.8689 235.387 50.7186 235.086 50.4179C234.785 50.0983 234.635 49.6473 234.635 49.0646V38.4078C234.635 37.8251 234.785 37.3835 235.086 37.0827C235.387 36.782 235.81 36.6316 236.355 36.6316C236.9 36.6316 237.323 36.782 237.623 37.0827C237.924 37.3835 238.074 37.8251 238.074 38.4078V40.3249L237.764 39.6201C238.178 38.6239 238.817 37.8721 239.681 37.3647C240.565 36.8384 241.561 36.5753 242.67 36.5753C243.779 36.5753 244.69 36.782 245.404 37.1955C246.119 37.609 246.654 38.2386 247.011 39.0844C247.369 39.9114 247.547 40.9639 247.547 42.242V49.0646C247.547 49.6473 247.397 50.0983 247.096 50.4179C246.795 50.7186 246.363 50.8689 245.799 50.8689C245.235 50.8689 244.794 50.7186 244.474 50.4179C244.173 50.0983 244.023 49.6473 244.023 49.0646V42.4111C244.023 41.3398 243.816 40.5598 243.403 40.0712C243.008 39.5825 242.388 39.3381 241.542 39.3381C240.508 39.3381 239.681 39.6671 239.061 40.3249C238.46 40.9639 238.159 41.8191 238.159 42.8904V49.0646C238.159 50.2675 237.567 50.8689 236.383 50.8689Z" class="vl-2"/>
<path d="M258.428 50.9253C257.62 50.9253 256.765 50.8407 255.863 50.6716C254.961 50.5024 254.153 50.2111 253.438 49.7976C253.138 49.6097 252.921 49.3935 252.79 49.1492C252.677 48.8861 252.63 48.6323 252.649 48.388C252.686 48.1249 252.78 47.8993 252.931 47.7114C253.1 47.5234 253.307 47.4012 253.551 47.3449C253.814 47.2885 254.096 47.3355 254.397 47.4858C255.149 47.8429 255.853 48.0967 256.511 48.247C257.169 48.3786 257.818 48.4444 258.457 48.4444C259.359 48.4444 260.026 48.294 260.458 47.9933C260.909 47.6738 261.135 47.2603 261.135 46.7528C261.135 46.3205 260.985 45.9916 260.684 45.7661C260.402 45.5217 259.97 45.3432 259.387 45.2304L256.568 44.6947C255.402 44.4692 254.51 44.0463 253.889 43.4261C253.288 42.787 252.987 41.9695 252.987 40.9733C252.987 40.0712 253.232 39.2912 253.72 38.6333C254.228 37.9755 254.923 37.468 255.806 37.1109C256.69 36.7538 257.705 36.5753 258.851 36.5753C259.678 36.5753 260.449 36.6692 261.163 36.8572C261.896 37.0263 262.601 37.2989 263.278 37.6748C263.559 37.8251 263.747 38.0225 263.841 38.2668C263.954 38.5112 263.982 38.7649 263.926 39.028C263.87 39.2724 263.757 39.4979 263.588 39.7047C263.418 39.8926 263.202 40.0148 262.939 40.0712C262.695 40.1087 262.413 40.0524 262.093 39.902C261.511 39.6013 260.947 39.3851 260.402 39.2536C259.876 39.122 259.368 39.0562 258.879 39.0562C257.959 39.0562 257.272 39.216 256.821 39.5355C256.389 39.855 256.173 40.2779 256.173 40.8042C256.173 41.1989 256.305 41.5278 256.568 41.7909C256.831 42.054 257.235 42.2326 257.78 42.3266L260.599 42.8622C261.821 43.0878 262.742 43.5013 263.362 44.1027C264.001 44.7041 264.321 45.5123 264.321 46.5273C264.321 47.8993 263.785 48.98 262.714 49.7694C261.642 50.54 260.214 50.9253 258.428 50.9253Z" class="vl-2"/>
<path d="M271.151 50.8407C270.587 50.8407 270.155 50.6716 269.854 50.3333C269.554 49.995 269.403 49.5251 269.403 48.9236V38.5769C269.403 37.9567 269.554 37.4868 269.854 37.1673C270.155 36.829 270.587 36.6598 271.151 36.6598C271.715 36.6598 272.147 36.829 272.448 37.1673C272.768 37.4868 272.927 37.9567 272.927 38.5769V48.9236C272.927 49.5251 272.777 49.995 272.476 50.3333C272.176 50.6716 271.734 50.8407 271.151 50.8407ZM271.151 34.0379C270.493 34.0379 269.977 33.8782 269.601 33.5587C269.244 33.2203 269.065 32.7599 269.065 32.1772C269.065 31.5758 269.244 31.1153 269.601 30.7958C269.977 30.4763 270.493 30.3165 271.151 30.3165C271.828 30.3165 272.345 30.4763 272.702 30.7958C273.059 31.1153 273.237 31.5758 273.237 32.1772C273.237 32.7599 273.059 33.2203 272.702 33.5587C272.345 33.8782 271.828 34.0379 271.151 34.0379Z" class="vl-2"/>
<path d="M285.272 56C284.257 56 283.271 55.906 282.312 55.7181C281.372 55.5301 280.517 55.2388 279.747 54.8441C279.39 54.6562 279.145 54.4306 279.014 54.1675C278.901 53.9043 278.863 53.6318 278.901 53.3499C278.957 53.0868 279.07 52.8518 279.239 52.6451C279.427 52.4383 279.653 52.2974 279.916 52.2222C280.179 52.147 280.451 52.1846 280.733 52.335C281.56 52.7484 282.34 53.0116 283.073 53.1244C283.825 53.2559 284.464 53.3217 284.99 53.3217C286.25 53.3217 287.19 53.0116 287.81 52.3913C288.449 51.7899 288.768 50.8877 288.768 49.6848V47.1475H289.022C288.74 48.1061 288.148 48.8767 287.246 49.4593C286.363 50.0232 285.357 50.3051 284.229 50.3051C282.989 50.3051 281.908 50.0232 280.987 49.4593C280.066 48.8767 279.352 48.0685 278.845 47.0347C278.337 46.001 278.083 44.7981 278.083 43.4261C278.083 42.3923 278.224 41.462 278.506 40.635C278.807 39.7892 279.22 39.0656 279.747 38.4642C280.292 37.8627 280.94 37.4022 281.692 37.0827C282.463 36.7444 283.308 36.5753 284.229 36.5753C285.395 36.5753 286.41 36.8666 287.274 37.4492C288.157 38.0131 288.731 38.7649 288.994 39.7047L288.712 40.4095V38.4078C288.712 37.8251 288.862 37.3835 289.163 37.0827C289.483 36.782 289.915 36.6316 290.46 36.6316C291.024 36.6316 291.456 36.782 291.757 37.0827C292.057 37.3835 292.208 37.8251 292.208 38.4078V49.262C292.208 51.4986 291.616 53.1807 290.432 54.3084C289.248 55.4361 287.528 56 285.272 56ZM285.188 47.6268C285.921 47.6268 286.55 47.4576 287.077 47.1193C287.603 46.781 288.007 46.3017 288.289 45.6815C288.59 45.0425 288.74 44.2907 288.74 43.4261C288.74 42.1292 288.421 41.1143 287.782 40.3813C287.143 39.6295 286.278 39.2536 285.188 39.2536C284.455 39.2536 283.825 39.4227 283.299 39.761C282.773 40.0993 282.359 40.5786 282.058 41.1989C281.777 41.8191 281.636 42.5615 281.636 43.4261C281.636 44.7229 281.955 45.7473 282.594 46.4991C283.233 47.2509 284.098 47.6268 285.188 47.6268Z" class="vl-2"/>
<path d="M299.863 50.8689C299.299 50.8689 298.866 50.7186 298.566 50.4179C298.265 50.0983 298.115 49.6473 298.115 49.0646V32.3182C298.115 31.7355 298.265 31.2938 298.566 30.9931C298.866 30.6924 299.299 30.542 299.863 30.542C300.426 30.542 300.859 30.6924 301.159 30.9931C301.479 31.2938 301.639 31.7355 301.639 32.3182V39.6201H301.244C301.657 38.6239 302.297 37.8721 303.161 37.3647C304.044 36.8384 305.041 36.5753 306.15 36.5753C307.258 36.5753 308.17 36.782 308.884 37.1955C309.598 37.609 310.134 38.2386 310.491 39.0844C310.848 39.9114 311.027 40.9639 311.027 42.242V49.0646C311.027 49.6473 310.876 50.0983 310.576 50.4179C310.275 50.7186 309.843 50.8689 309.279 50.8689C308.715 50.8689 308.273 50.7186 307.954 50.4179C307.653 50.0983 307.503 49.6473 307.503 49.0646V42.4111C307.503 41.3398 307.296 40.5598 306.883 40.0712C306.488 39.5825 305.868 39.3381 305.022 39.3381C303.988 39.3381 303.161 39.6671 302.541 40.3249C301.939 40.9639 301.639 41.8191 301.639 42.8904V49.0646C301.639 50.2675 301.047 50.8689 299.863 50.8689Z" class="vl-2"/>
<path d="M323.177 50.9253C321.955 50.9253 320.931 50.7186 320.104 50.3051C319.296 49.8916 318.694 49.2901 318.299 48.5008C317.905 47.6926 317.707 46.6964 317.707 45.5123V39.5073H316.241C315.79 39.5073 315.443 39.3945 315.198 39.169C314.954 38.9247 314.832 38.5957 314.832 38.1822C314.832 37.75 314.954 37.421 315.198 37.1955C315.443 36.97 315.79 36.8572 316.241 36.8572H317.707V34.2917C317.707 33.709 317.858 33.2673 318.158 32.9666C318.478 32.6659 318.92 32.5155 319.484 32.5155C320.047 32.5155 320.48 32.6659 320.78 32.9666C321.081 33.2673 321.231 33.709 321.231 34.2917V36.8572H324.22C324.671 36.8572 325.019 36.97 325.263 37.1955C325.507 37.421 325.63 37.75 325.63 38.1822C325.63 38.5957 325.507 38.9247 325.263 39.169C325.019 39.3945 324.671 39.5073 324.22 39.5073H321.231V45.315C321.231 46.2171 321.429 46.8938 321.824 47.3449C322.218 47.7959 322.857 48.0215 323.741 48.0215C324.06 48.0215 324.342 47.9933 324.586 47.9369C324.831 47.8805 325.047 47.8429 325.235 47.8241C325.46 47.8053 325.648 47.8805 325.799 48.0497C325.949 48.2 326.024 48.5196 326.024 49.0082C326.024 49.3841 325.958 49.7224 325.827 50.0232C325.714 50.3051 325.498 50.5024 325.178 50.6152C324.934 50.6904 324.615 50.7562 324.22 50.8125C323.825 50.8877 323.478 50.9253 323.177 50.9253Z" class="vl-2"/>
<path d="M334.984 50.9253C334.175 50.9253 333.32 50.8407 332.418 50.6716C331.516 50.5024 330.708 50.2111 329.993 49.7976C329.693 49.6097 329.477 49.3935 329.345 49.1492C329.232 48.8861 329.185 48.6323 329.204 48.388C329.242 48.1249 329.336 47.8993 329.486 47.7114C329.655 47.5234 329.862 47.4012 330.106 47.3449C330.369 47.2885 330.651 47.3355 330.952 47.4858C331.704 47.8429 332.409 48.0967 333.066 48.247C333.724 48.3786 334.373 48.4444 335.012 48.4444C335.914 48.4444 336.581 48.294 337.013 47.9933C337.465 47.6738 337.69 47.2603 337.69 46.7528C337.69 46.3205 337.54 45.9916 337.239 45.7661C336.957 45.5217 336.525 45.3432 335.942 45.2304L333.123 44.6947C331.958 44.4692 331.065 44.0463 330.445 43.4261C329.843 42.787 329.542 41.9695 329.542 40.9733C329.542 40.0712 329.787 39.2912 330.275 38.6333C330.783 37.9755 331.478 37.468 332.362 37.1109C333.245 36.7538 334.26 36.5753 335.406 36.5753C336.233 36.5753 337.004 36.6692 337.718 36.8572C338.451 37.0263 339.156 37.2989 339.833 37.6748C340.115 37.8251 340.303 38.0225 340.397 38.2668C340.509 38.5112 340.538 38.7649 340.481 39.028C340.425 39.2724 340.312 39.4979 340.143 39.7047C339.974 39.8926 339.758 40.0148 339.494 40.0712C339.25 40.1087 338.968 40.0524 338.649 39.902C338.066 39.6013 337.502 39.3851 336.957 39.2536C336.431 39.122 335.923 39.0562 335.435 39.0562C334.514 39.0562 333.828 39.216 333.377 39.5355C332.944 39.855 332.728 40.2779 332.728 40.8042C332.728 41.1989 332.86 41.5278 333.123 41.7909C333.386 42.054 333.79 42.2326 334.335 42.3266L337.154 42.8622C338.376 43.0878 339.297 43.5013 339.917 44.1027C340.556 44.7041 340.876 45.5123 340.876 46.5273C340.876 47.8993 340.34 48.98 339.269 49.7694C338.198 50.54 336.769 50.9253 334.984 50.9253Z" class="vl-2"/>
</svg>
