<svg class="svgicon svgicon-alert" xmlns="http://www.w3.org/2000/svg" width="24" height="22" viewBox="0 0 24 22"><path d="M13.5382 1.2581L23.762 18.9657C23.9179 19.2357 24 19.542 24 19.8538C24 20.1656 23.9179 20.4719 23.762 20.7419C23.6062 21.0119 23.3819 21.2361 23.1119 21.392C22.8419 21.5479 22.5356 21.63 22.2238 21.63H1.77616C1.46437 21.63 1.15808 21.5479 0.888073 21.392C0.618062 21.2361 0.393844 21.0119 0.237955 20.7419C0.0820658 20.4719 -1.98017e-06 20.1656 0 19.8538C1.98024e-06 19.542 0.0820737 19.2357 0.237966 18.9657L10.4618 1.2581C11.1451 0.0739609 12.8538 0.0739609 13.5382 1.2581ZM12 3.33034L2.80162 19.2617H21.1984L12 3.33034ZM12 15.2925C12.3141 15.2925 12.6152 15.4172 12.8373 15.6393C13.0594 15.8614 13.1841 16.1626 13.1841 16.4766C13.1841 16.7907 13.0594 17.0919 12.8373 17.3139C12.6152 17.536 12.3141 17.6608 12 17.6608C11.6859 17.6608 11.3848 17.536 11.1627 17.3139C10.9406 17.0919 10.8159 16.7907 10.8159 16.4766C10.8159 16.1626 10.9406 15.8614 11.1627 15.6393C11.3848 15.4172 11.6859 15.2925 12 15.2925ZM12 7.00353C12.3141 7.00353 12.6152 7.12829 12.8373 7.35036C13.0594 7.57243 13.1841 7.87362 13.1841 8.18767V12.9242C13.1841 13.2383 13.0594 13.5395 12.8373 13.7615C12.6152 13.9836 12.3141 14.1084 12 14.1084C11.6859 14.1084 11.3848 13.9836 11.1627 13.7615C10.9406 13.5395 10.8159 13.2383 10.8159 12.9242V8.18767C10.8159 7.87362 10.9406 7.57243 11.1627 7.35036C11.3848 7.12829 11.6859 7.00353 12 7.00353Z"/></svg>