<svg class="svgicon svgicon-coming-soon" xmlns="http://www.w3.org/2000/svg" width="68" height="65" viewBox="0 0 68 65"><path d="M5.55544 2.87037C5.55544 2.24171 5.80517 1.6388 6.2497 1.19427C6.69423 0.749735 7.29715 0.5 7.92581 0.5H60.074C60.7026 0.5 61.3055 0.749735 61.7501 1.19427C62.1946 1.6388 62.4443 2.24171 62.4443 2.87037C62.4443 3.49903 62.1946 4.10194 61.7501 4.54647C61.3055 4.99101 60.7026 5.24074 60.074 5.24074H52.9628C52.9628 6.55867 52.0052 7.61111 50.8058 7.61111H49.4073V14.9356C51.4221 15.4807 52.9154 17.3533 52.9154 19.5341C52.9154 21.1839 52.0621 22.644 50.775 23.4926L52.9557 26.5741H63.5963C63.9145 26.5715 64.2209 26.6945 64.449 26.9164C64.6771 27.1383 64.8085 27.4411 64.8147 27.7593C64.8147 27.9157 64.7837 28.0706 64.7236 28.215C64.6634 28.3594 64.5753 28.4905 64.4642 28.6007C64.3532 28.7109 64.2214 28.798 64.0765 28.857C63.9316 28.916 63.7765 28.9457 63.62 28.9444H62.4443V36.0556H63.5963C63.9145 36.053 64.2209 36.176 64.449 36.3979C64.6771 36.6197 64.8085 36.9226 64.8147 37.2407C64.8085 37.5589 64.6771 37.8617 64.449 38.0836C64.2209 38.3055 63.9145 38.4285 63.5963 38.4259H61.1833C61.217 38.6428 61.1886 38.8647 61.1013 39.0661C61.014 39.2675 60.8715 39.44 60.6903 39.5637C60.4769 39.7059 60.2399 39.777 60.0028 39.777C59.6236 39.777 59.268 39.6111 59.031 39.2793L58.4266 38.4259H37.9228L37.3184 39.2793C37.0814 39.6111 36.7258 39.777 36.3465 39.777C36.1095 39.777 35.8725 39.7059 35.6591 39.5637C35.4779 39.44 35.3353 39.2675 35.2481 39.0661C35.1608 38.8647 35.1324 38.6428 35.1661 38.4259H32.8479C32.5297 38.4285 32.2233 38.3055 31.9952 38.0836C31.7672 37.8617 31.6357 37.5589 31.6295 37.2407C31.6295 36.5913 32.1794 36.0556 32.8479 36.0556H33.9999V28.9444H32.8479C32.5297 28.947 32.2233 28.824 31.9952 28.6021C31.7672 28.3803 31.6357 28.0774 31.6295 27.7593C31.6295 27.1098 32.1794 26.5741 32.8479 26.5741H43.396L45.5768 23.4926C44.9195 23.062 44.3796 22.4748 44.0056 21.7839C43.6315 21.0929 43.4351 20.3198 43.434 19.5341C43.434 18.8704 43.9791 18.3489 44.6191 18.3489C45.2828 18.3489 45.8043 18.8704 45.8043 19.5341C45.8043 20.3874 46.2618 21.1412 46.9445 21.5584L47.146 21.2739C47.198 21.1873 47.2609 21.1076 47.3332 21.0369C47.4436 20.9262 47.5747 20.8384 47.7191 20.7786C47.8636 20.7188 48.0184 20.6882 48.1747 20.6884C48.4828 20.6861 48.791 20.807 49.0162 21.0369C49.0893 21.1074 49.153 21.1871 49.2058 21.2739L49.4049 21.5584C50.0876 21.1412 50.5451 20.3874 50.5451 19.5341C50.5451 18.2304 49.5258 17.1874 48.2221 17.1637C47.8191 17.1637 47.4399 16.9504 47.2266 16.6185C47.0865 16.4347 47.0115 16.2096 47.0132 15.9785C47.0132 15.8837 47.0132 15.8126 47.0369 15.7178V7.61111H45.6384C44.439 7.61111 43.4814 6.55867 43.4814 5.24074H29.2591V55.0185H31.0369C32.6725 55.0185 33.9999 56.3459 33.9999 57.9815V59.7593H62.468C65.0754 59.7593 67.1851 61.8807 67.1851 64.5H0.814697C0.814697 61.8807 2.92433 59.7593 5.53173 59.7593H7.92581V57.9815C7.92581 56.3459 9.25322 55.0185 10.8888 55.0185H12.6665V5.24074H7.92581C7.29715 5.24074 6.69423 4.99101 6.2497 4.54647C5.80517 4.10194 5.55544 3.49903 5.55544 2.87037ZM15.0369 9.98148V15.175L25.4239 9.98148H15.0369ZM16.5018 55.0185H26.8888V49.825L16.5018 55.0185ZM25.4239 47.9074H15.0369V53.1009L25.4239 47.9074ZM16.5018 17.0926H26.8888V11.8991L16.5018 17.0926ZM25.4239 19.463H15.0369V24.6564L25.4239 19.463ZM16.5018 26.5741H26.8888V21.3806L16.5018 26.5741ZM25.4239 28.9444H15.0369V34.1379L25.4239 28.9444ZM16.5018 36.0556H26.8888V30.8621L16.5018 36.0556ZM25.4239 38.4259H15.0369V43.6194L25.4239 38.4259ZM16.5018 45.537H26.8888V40.3436L16.5018 45.537ZM47.9424 24.2701L46.3116 26.5741H50.0378L48.407 24.2701C48.2522 24.2777 48.0972 24.2777 47.9424 24.2701ZM41.7178 28.9444H36.3703V36.0556H36.6831L41.7178 28.9444ZM39.6011 36.0556H56.7483L51.716 28.9444H44.6334L39.6011 36.0556ZM54.634 28.9444L59.6663 36.0556H60.074V28.9444H54.634Z"/></svg>