<svg class="svgicon svgicon-delete" xmlns="http://www.w3.org/2000/svg" width="35" height="35" viewBox="0 0 35 35"><path d="M9 3.9C9 2.99826 9.35821 2.13346 9.99584 1.49584C10.6335 0.858213 11.4983 0.5 12.4 0.5H22.6C23.5017 0.5 24.3665 0.858213 25.0042 1.49584C25.6418 2.13346 26 2.99826 26 3.9V7.3H32.8C33.2509 7.3 33.6833 7.47911 34.0021 7.79792C34.3209 8.11673 34.5 8.54913 34.5 9C34.5 9.45087 34.3209 9.88327 34.0021 10.2021C33.6833 10.5209 33.2509 10.7 32.8 10.7H30.9827L29.5088 31.3414C29.4477 32.1992 29.0639 33.002 28.4346 33.5881C27.8053 34.1742 26.9773 34.5 26.1173 34.5H8.881C8.02104 34.5 7.19301 34.1742 6.5637 33.5881C5.9344 33.002 5.55056 32.1992 5.4895 31.3414L4.019 10.7H2.2C1.74913 10.7 1.31673 10.5209 0.997918 10.2021C0.679107 9.88327 0.5 9.45087 0.5 9C0.5 8.54913 0.679107 8.11673 0.997918 7.79792C1.31673 7.47911 1.74913 7.3 2.2 7.3H9V3.9ZM12.4 7.3H22.6V3.9H12.4V7.3ZM7.4258 10.7L8.8827 31.1H26.119L27.5759 10.7H7.4258ZM14.1 14.1C14.5509 14.1 14.9833 14.2791 15.3021 14.5979C15.6209 14.9167 15.8 15.3491 15.8 15.8V26C15.8 26.4509 15.6209 26.8833 15.3021 27.2021C14.9833 27.5209 14.5509 27.7 14.1 27.7C13.6491 27.7 13.2167 27.5209 12.8979 27.2021C12.5791 26.8833 12.4 26.4509 12.4 26V15.8C12.4 15.3491 12.5791 14.9167 12.8979 14.5979C13.2167 14.2791 13.6491 14.1 14.1 14.1ZM20.9 14.1C21.3509 14.1 21.7833 14.2791 22.1021 14.5979C22.4209 14.9167 22.6 15.3491 22.6 15.8V26C22.6 26.4509 22.4209 26.8833 22.1021 27.2021C21.7833 27.5209 21.3509 27.7 20.9 27.7C20.4491 27.7 20.0167 27.5209 19.6979 27.2021C19.3791 26.8833 19.2 26.4509 19.2 26V15.8C19.2 15.3491 19.3791 14.9167 19.6979 14.5979C20.0167 14.2791 20.4491 14.1 20.9 14.1Z"/></svg>