<svg class="svgicon svgicon-edit-pass" xmlns="http://www.w3.org/2000/svg" width="16" height="16" viewBox="0 0 16 16"><path d="M14.2642 1.73856C13.323 0.79599 12.0916 0.198046 10.7688 0.04122C9.44598 -0.115606 8.10891 0.177834 6.97334 0.874188C5.83778 1.57054 4.96995 2.62919 4.50991 3.8793C4.04986 5.12941 4.02443 6.49806 4.43772 7.7644L0.347409 11.8547C0.236876 11.9644 0.149244 12.0949 0.0896042 12.2387C0.0299648 12.3825 -0.000491429 12.5368 5.99615e-06 12.6925V14.8176C5.99615e-06 15.132 0.124872 15.4334 0.347134 15.6557C0.569396 15.8779 0.870848 16.0028 1.18517 16.0028H3.55551C3.71267 16.0028 3.8634 15.9404 3.97453 15.8292C4.08566 15.7181 4.14809 15.5674 4.14809 15.4102V14.2251H5.33326C5.49043 14.2251 5.64115 14.1626 5.75228 14.0515C5.86341 13.9404 5.92585 13.7896 5.92585 13.6325V12.4473H7.11102C7.18886 12.4474 7.26595 12.4321 7.33789 12.4023C7.40982 12.3726 7.4752 12.329 7.53027 12.274L8.23841 11.5651C8.83113 11.7579 9.45064 11.8557 10.0739 11.8547H10.0813C11.2528 11.8533 12.3975 11.5047 13.3709 10.853C14.3443 10.2013 15.1027 9.27574 15.5503 8.19321C15.9979 7.11067 16.1147 5.91976 15.8858 4.77092C15.6569 3.62208 15.0926 2.56686 14.2642 1.73856ZM14.8146 6.08443C14.7339 8.60958 12.6109 10.6666 10.0821 10.6695H10.0739C9.47407 10.6706 8.87951 10.5572 8.32211 10.3355C8.21307 10.2882 8.09233 10.2747 7.97555 10.2969C7.85878 10.3191 7.75138 10.3759 7.6673 10.4599L6.86583 11.2621H5.33326C5.1761 11.2621 5.02537 11.3246 4.91424 11.4357C4.80311 11.5468 4.74068 11.6976 4.74068 11.8547V13.0399H3.55551C3.39835 13.0399 3.24762 13.1023 3.13649 13.2134C3.02536 13.3246 2.96293 13.4753 2.96293 13.6325V14.8176H1.18517V12.6925L5.54289 8.33551C5.62691 8.25143 5.68371 8.14403 5.7059 8.02726C5.72809 7.91048 5.71465 7.78974 5.66733 7.6807C5.44489 7.12145 5.3315 6.52481 5.33326 5.92295C5.33326 3.39409 7.39323 1.27116 9.91838 1.19042C10.567 1.16878 11.2132 1.28054 11.8169 1.5188C12.4206 1.75706 12.9689 2.11673 13.4279 2.57553C13.8869 3.03434 14.2468 3.58251 14.4854 4.18608C14.7239 4.78966 14.836 5.43578 14.8146 6.08443ZM12.4443 4.44741C12.4443 4.62322 12.3921 4.79507 12.2945 4.94125C12.1968 5.08742 12.058 5.20135 11.8956 5.26863C11.7331 5.3359 11.5544 5.35351 11.382 5.31921C11.2096 5.28491 11.0512 5.20025 10.9269 5.07594C10.8026 4.95163 10.7179 4.79325 10.6836 4.62082C10.6493 4.4484 10.6669 4.26968 10.7342 4.10725C10.8015 3.94483 10.9154 3.80601 11.0616 3.70834C11.2077 3.61067 11.3796 3.55854 11.5554 3.55854C11.7911 3.55854 12.0172 3.65219 12.1839 3.81888C12.3506 3.98558 12.4443 4.21167 12.4443 4.44741Z"/></svg>