<svg class="svgicon svgicon-email" xmlns="http://www.w3.org/2000/svg" width="16" height="12" viewBox="0 0 16 12"><path fill-rule="evenodd" clip-rule="evenodd" d="M14.95 1.684L8.637 6.912C8.45761 7.06063 8.23196 7.14196 7.999 7.14196C7.76604 7.14196 7.54039 7.06063 7.361 6.912L1.051 1.684C1.01714 1.78591 0.999922 1.89261 1 2V10C1 10.2652 1.10536 10.5196 1.29289 10.7071C1.48043 10.8946 1.73478 11 2 11H14C14.2652 11 14.5196 10.8946 14.7071 10.7071C14.8946 10.5196 15 10.2652 15 10V2C15.0004 1.89267 14.9835 1.78597 14.95 1.684ZM2 0H14C14.5304 0 15.0391 0.210714 15.4142 0.585786C15.7893 0.960859 16 1.46957 16 2V10C16 10.5304 15.7893 11.0391 15.4142 11.4142C15.0391 11.7893 14.5304 12 14 12H2C1.46957 12 0.960859 11.7893 0.585786 11.4142C0.210714 11.0391 0 10.5304 0 10V2C0 1.46957 0.210714 0.960859 0.585786 0.585786C0.960859 0.210714 1.46957 0 2 0ZM1.79 1L7.366 5.603C7.54459 5.7505 7.76884 5.83144 8.00046 5.83199C8.23209 5.83254 8.45672 5.75266 8.636 5.606L14.268 1H1.79Z"/></svg>