<svg class="svgicon svgicon-registration-user" xmlns="http://www.w3.org/2000/svg" width="16" height="13" viewBox="0 0 16 13"><path d="M10.1818 0.681641C9.41028 0.681641 8.67034 0.988133 8.12478 1.53369C7.57922 2.07925 7.27273 2.81919 7.27273 3.59073C7.27273 4.36227 7.57922 5.10221 8.12478 5.64777C8.67034 6.19333 9.41028 6.49982 10.1818 6.49982C10.9534 6.49982 11.6933 6.19333 12.2389 5.64777C12.7844 5.10221 13.0909 4.36227 13.0909 3.59073C13.0909 2.81919 12.7844 2.07925 12.2389 1.53369C11.6933 0.988133 10.9534 0.681641 10.1818 0.681641ZM10.1818 2.06346C10.3824 2.06346 10.581 2.10296 10.7663 2.17972C10.9516 2.25647 11.1199 2.36897 11.2618 2.51079C11.4036 2.65261 11.5161 2.82097 11.5928 3.00627C11.6696 3.19157 11.7091 3.39017 11.7091 3.59073C11.7091 3.7913 11.6696 3.9899 11.5928 4.17519C11.5161 4.36049 11.4036 4.52886 11.2618 4.67068C11.1199 4.8125 10.9516 4.92499 10.7663 5.00175C10.581 5.0785 10.3824 5.118 10.1818 5.118C9.98125 5.118 9.78265 5.0785 9.59736 5.00175C9.41206 4.92499 9.24369 4.8125 9.10187 4.67068C8.96005 4.52886 8.84756 4.36049 8.7708 4.17519C8.69405 3.9899 8.65455 3.7913 8.65455 3.59073C8.65455 3.18567 8.81545 2.79721 9.10187 2.51079C9.38829 2.22437 9.77676 2.06346 10.1818 2.06346ZM2.18182 2.86346V5.04528H0V6.49982H2.18182V8.68164H3.63636V6.49982H5.81818V5.04528H3.63636V2.86346H2.18182ZM10.1818 7.22709C8.24 7.22709 4.36364 8.19437 4.36364 10.1362V12.318H16V10.1362C16 8.19437 12.1236 7.22709 10.1818 7.22709ZM10.1818 8.60891C12.3418 8.60891 14.6182 9.67073 14.6182 10.1362V10.9362H5.74545V10.1362C5.74545 9.67073 8 8.60891 10.1818 8.60891Z"/></svg>