<svg class="svgicon svgicon-ticket-complaint" xmlns="http://www.w3.org/2000/svg" width="16" height="13" viewBox="0 0 16 13"><path d="M8.82595 9.10049C9.69104 8.56168 10.3571 7.75578 10.7234 6.80472C11.0897 5.85365 11.1362 4.80916 10.856 3.82927C10.5758 2.84938 9.98411 1.98741 9.17039 1.37377C8.35668 0.760124 7.36524 0.428192 6.34608 0.428192C5.32692 0.428192 4.33548 0.760124 3.52177 1.37377C2.70805 1.98741 2.11633 2.84938 1.83613 3.82927C1.55593 4.80916 1.60249 5.85365 1.96877 6.80472C2.33505 7.75578 3.00112 8.56168 3.86621 9.10049C2.44175 9.5668 1.16008 10.438 0.129505 11.6645C0.0352865 11.7766 -0.0105592 11.9215 0.00205389 12.0673C0.0146669 12.2132 0.0847056 12.3481 0.196762 12.4423C0.308818 12.5365 0.453713 12.5823 0.599572 12.5697C0.745431 12.5571 0.880305 12.4871 0.974523 12.375C2.35897 10.7222 4.26699 9.81238 6.34263 9.81238C8.41827 9.81238 10.3263 10.7222 11.7149 12.375C11.8091 12.4871 11.944 12.5571 12.0898 12.5697C12.2357 12.5823 12.3806 12.5365 12.4926 12.4423C12.6047 12.3481 12.6747 12.2132 12.6873 12.0673C12.7 11.9215 12.6541 11.7766 12.5599 11.6645C11.5286 10.438 10.247 9.5668 8.82595 9.10049ZM2.75561 5.12166C2.75561 4.41222 2.96599 3.71871 3.36014 3.12882C3.75428 2.53894 4.3145 2.07919 4.96994 1.80769C5.62538 1.5362 6.34661 1.46517 7.04242 1.60357C7.73824 1.74198 8.37738 2.08361 8.87903 2.58526C9.38069 3.08691 9.72232 3.72606 9.86072 4.42187C9.99913 5.11768 9.92809 5.83891 9.6566 6.49435C9.38511 7.1498 8.92535 7.71001 8.33547 8.10416C7.74559 8.4983 7.05208 8.70868 6.34263 8.70868C5.39163 8.70758 4.4799 8.32932 3.80744 7.65686C3.13498 6.9844 2.75671 6.07266 2.75561 5.12166ZM13.1966 2.19687C13.5899 3.12181 13.7926 4.11658 13.7926 5.12166C13.7926 6.12675 13.5899 7.12151 13.1966 8.04646C13.1541 8.14595 13.0834 8.23076 12.9931 8.29037C12.9028 8.34997 12.7971 8.38173 12.6889 8.38171C12.5975 8.38178 12.5076 8.35917 12.4271 8.31592C12.3467 8.27266 12.2782 8.21011 12.2279 8.13387C12.1776 8.05763 12.147 7.9701 12.1388 7.87911C12.1307 7.78813 12.1452 7.69654 12.1812 7.61257C12.5162 6.82486 12.6889 5.97766 12.6889 5.12166C12.6889 4.26567 12.5162 3.41847 12.1812 2.63076C12.1237 2.49611 12.122 2.34411 12.1765 2.20822C12.231 2.07232 12.3373 1.96365 12.4719 1.90611C12.6066 1.84857 12.7586 1.84688 12.8945 1.90141C13.0304 1.95594 13.1391 2.06222 13.1966 2.19687ZM16 5.12166C16.0026 6.42961 15.7375 7.72426 15.2212 8.92597C15.1608 9.0562 15.052 9.15778 14.918 9.20914C14.7839 9.26049 14.6351 9.25759 14.5032 9.20104C14.3712 9.14449 14.2665 9.03874 14.2112 8.90625C14.156 8.77376 14.1545 8.62494 14.2072 8.49139C14.6619 7.42615 14.8963 6.2799 14.8963 5.12166C14.8963 3.96343 14.6619 2.81718 14.2072 1.75194C14.1761 1.68496 14.1588 1.61243 14.1563 1.53864C14.1538 1.46485 14.1661 1.39131 14.1925 1.32236C14.2189 1.25341 14.2589 1.19047 14.31 1.13725C14.3612 1.08404 14.4226 1.04163 14.4904 1.01255C14.5583 0.983466 14.6313 0.968295 14.7051 0.967936C14.7789 0.967577 14.8521 0.982037 14.9202 1.01046C14.9884 1.03888 15.0501 1.08069 15.1018 1.1334C15.1535 1.18612 15.1941 1.24867 15.2212 1.31736C15.7375 2.51907 16.0026 3.81372 16 5.12166Z"/></svg>