<svg class="svgicon svgicon-ticket-request" xmlns="http://www.w3.org/2000/svg" width="16" height="17" viewBox="0 0 16 17"><path fill-rule="evenodd" clip-rule="evenodd" d="M9.54897 0.694079C9.6733 0.569809 9.84189 0.5 10.0177 0.5C10.1935 0.5 10.3621 0.569809 10.4864 0.694079L11.9558 2.16518L11.9572 2.16654C12.075 2.28403 12.1443 2.4416 12.1513 2.60791C12.1583 2.77486 12.1019 2.93828 11.9935 3.06541L11.9925 3.06653C11.8246 3.26224 11.7368 3.51412 11.7467 3.77178C11.7565 4.02926 11.8631 4.27356 12.0452 4.45587C12.2278 4.63764 12.4722 4.74384 12.7297 4.75326C12.9874 4.76268 13.2391 4.6745 13.4345 4.50635L13.4363 4.50487C13.5634 4.39644 13.7268 4.34005 13.8938 4.34704C14.0602 4.354 14.2178 4.42339 14.3353 4.54136L14.3365 4.54252L15.8058 6.01186C15.9301 6.13618 16 6.30486 16 6.48066C16 6.65645 15.9302 6.82504 15.8059 6.94936L13.4613 9.294C13.4425 9.31282 13.4231 9.33103 13.4033 9.34863C13.1829 9.54401 12.8691 9.38681 12.776 9.10734L12.9077 9.50073C12.9285 9.56278 12.8917 9.62862 12.8455 9.67496C12.8175 9.70306 12.7965 9.7373 12.784 9.77496L12.7837 9.77594C12.7188 9.97048 12.6097 10.1473 12.4648 10.2924L6.4511 16.3058C6.32678 16.4301 6.15812 16.5 5.98232 16.5C5.80653 16.5 5.63794 16.4302 5.51362 16.3059L4.04419 14.8365L4.04312 14.8354C3.92509 14.7179 3.85566 14.5602 3.8487 14.3938C3.84172 14.2268 3.8981 14.0634 4.00654 13.9363L4.00771 13.9349C4.17574 13.7392 4.26367 13.4873 4.2539 13.2296C4.24413 12.9719 4.13737 12.7274 3.955 12.545C3.77264 12.3626 3.52812 12.2559 3.2704 12.2461C3.01267 12.2363 2.76077 12.3243 2.56512 12.4923L2.56375 12.4935C2.43661 12.6019 2.27319 12.6583 2.10624 12.6513C1.9398 12.6443 1.78212 12.5749 1.6646 12.4569L1.66352 12.4558L0.194168 10.9865C0.0698979 10.8621 0 10.6935 0 10.5177C0 10.3419 0.0698094 10.1733 0.194079 10.049L6.20724 4.03714C6.35225 3.89241 6.52921 3.783 6.72356 3.71816C6.76109 3.70556 6.79519 3.6844 6.82314 3.65635C6.85114 3.62825 6.87222 3.59401 6.88469 3.55635L6.88496 3.55554C6.94976 3.36083 7.05908 3.18392 7.20421 3.03885L9.54897 0.694079ZM10.552 2.26912C10.2569 1.97365 9.77804 1.97352 9.48273 2.26882L7.95846 3.7931C7.93059 3.82095 7.90948 3.85503 7.89704 3.89241C7.83245 4.08708 7.72345 4.26406 7.57865 4.40934C7.43365 4.55482 7.25675 4.66452 7.06197 4.72972C7.0243 4.74228 6.98934 4.76364 6.96122 4.79167L1.76788 9.98386C1.47299 10.2787 1.47296 10.7568 1.76782 11.0516C2.01027 11.2941 2.38368 11.3279 2.71596 11.2433C2.90861 11.1943 3.10884 11.1725 3.31082 11.1802C3.83726 11.2002 4.33674 11.4182 4.70926 11.7907C5.08177 12.1633 5.29984 12.6627 5.31981 13.1892C5.32747 13.3911 5.30575 13.5913 5.2567 13.784C5.17208 14.1163 5.20595 14.4897 5.44843 14.7322C5.7433 15.0271 6.22137 15.0271 6.51625 14.7322L11.7099 9.53891C11.7561 9.49242 11.8222 9.45555 11.8844 9.47628L12.2775 9.60728C11.998 9.51474 11.8403 9.20131 12.0351 8.98052C12.0528 8.96049 12.0711 8.94096 12.09 8.92197C12.235 8.77649 12.4119 8.66679 12.6067 8.60159L12.6076 8.6013C12.645 8.58885 12.6789 8.56787 12.7068 8.54L14.2325 7.01428C14.5272 6.71957 14.5272 6.24174 14.2325 5.94703C13.99 5.70453 13.6165 5.67078 13.2842 5.75564C13.092 5.80472 12.8922 5.82659 12.6907 5.81922C12.1645 5.79997 11.6649 5.58279 11.2919 5.21111L11.2912 5.21038C10.9189 4.83794 10.7009 4.33869 10.6808 3.81245C10.6731 3.61055 10.6947 3.41039 10.7437 3.21777C10.8282 2.88533 10.7944 2.51181 10.552 2.26912Z"/><path fill-rule="evenodd" clip-rule="evenodd" d="M6.8892 3.72052C7.09748 3.51224 7.43517 3.51224 7.64346 3.72052L8.19379 4.27085C8.40207 4.47913 8.40207 4.81682 8.19379 5.0251C7.98551 5.23339 7.64782 5.23339 7.43954 5.0251L6.8892 4.47477C6.68092 4.26649 6.68092 3.9288 6.8892 3.72052ZM8.53971 5.3717C8.74789 5.16332 9.08558 5.16317 9.29396 5.37136L9.66096 5.73802C9.86934 5.94621 9.86949 6.2839 9.6613 6.49228C9.45312 6.70065 9.11543 6.7008 8.90705 6.49262L8.54005 6.12595C8.33167 5.91776 8.33152 5.58007 8.53971 5.3717ZM10.0077 6.8387C10.2161 6.63051 10.5538 6.63066 10.762 6.83904L11.1286 7.20604C11.3368 7.41442 11.3367 7.75211 11.1283 7.96029C10.9199 8.16848 10.5822 8.16832 10.3741 7.95995L10.0074 7.59295C9.7992 7.38457 9.79935 7.04688 10.0077 6.8387ZM11.4749 8.30621C11.6832 8.09793 12.0209 8.09793 12.2291 8.30621L12.7795 8.85655C12.9878 9.06483 12.9878 9.40252 12.7795 9.6108C12.5712 9.81908 12.2335 9.81908 12.0252 9.6108L11.4749 9.06046C11.2666 8.85218 11.2666 8.51449 11.4749 8.30621Z"/></svg>