<svg class="svgicon svgicon-performance-report" xmlns="http://www.w3.org/2000/svg" width="16" height="15" viewBox="0 0 16 15"><path fill-rule="evenodd" clip-rule="evenodd" d="M0.615399 0.730774C0.955266 0.730774 1.23078 1.00629 1.23078 1.34616V8.2374L5.14451 4.97596C5.38902 4.7722 5.74855 4.78851 5.97361 5.01357L8.84856 7.88852L14.9794 2.52405C15.2352 2.30025 15.6239 2.32617 15.8477 2.58194C16.0715 2.83772 16.0456 3.22649 15.7898 3.4503L9.22575 9.19388C8.98193 9.40722 8.61446 9.39498 8.38537 9.1659L5.5007 6.28123L1.23078 9.8395V13.0384H15.3846C15.7245 13.0384 16 13.314 16 13.6538C16 13.9937 15.7245 14.2692 15.3846 14.2692H0.615399C0.275532 14.2692 1.54605e-05 13.9937 1.54605e-05 13.6538V9.55597C-5.1535e-06 9.55305 -5.1535e-06 9.55014 1.54605e-05 9.54723V1.34616C1.54605e-05 1.00629 0.275532 0.730774 0.615399 0.730774Z"/></svg>