<svg class="svgicon svgicon-list-user" xmlns="http://www.w3.org/2000/svg" width="16" height="17" viewBox="0 0 16 17"><path d="M6.73684 0.920898C7.20192 0.920898 7.57895 1.29792 7.57895 1.763C7.57895 2.22809 7.20192 2.60511 6.73684 2.60511H0.842106C0.377024 2.60511 0 2.22809 0 1.763C0 1.29792 0.377024 0.920898 0.842106 0.920898H6.73684ZM10.1053 14.3946C10.5703 14.3946 10.9474 14.7716 10.9474 15.2367C10.9474 15.7018 10.5703 16.0788 10.1053 16.0788H0.842106C0.377024 16.0788 0 15.7018 0 15.2367C0 14.7716 0.377024 14.3946 0.842106 14.3946H10.1053ZM15.1579 7.65774C15.623 7.65774 16 8.03476 16 8.49985C16 8.96493 15.623 9.34195 15.1579 9.34195H0.842106C0.377024 9.34195 0 8.96493 0 8.49985C0 8.03476 0.377024 7.65774 0.842106 7.65774H15.1579Z"/></svg>