<svg class="svgicon svgicon-info" xmlns="http://www.w3.org/2000/svg" width="16" height="17" viewBox="0 0 16 17"><path d="M0 9.76316C0 9.29808 0.377023 8.92105 0.842105 8.92105C1.30719 8.92105 1.68421 9.29808 1.68421 9.76316V15.6579C1.68421 16.123 1.30719 16.5 0.842105 16.5C0.377023 16.5 0 16.123 0 15.6579V9.76316ZM13.4737 6.39474C13.4737 5.92965 13.8507 5.55263 14.3158 5.55263C14.7809 5.55263 15.1579 5.92965 15.1579 6.39474V15.6579C15.1579 16.123 14.7809 16.5 14.3158 16.5C13.8507 16.5 13.4737 16.123 13.4737 15.6579V6.39474ZM6.73684 1.34211C6.73684 0.877024 7.11387 0.5 7.57895 0.5C8.04403 0.5 8.42105 0.877023 8.42105 1.34211V15.6579C8.42105 16.123 8.04403 16.5 7.57895 16.5C7.11387 16.5 6.73684 16.123 6.73684 15.6579V1.34211Z"/></svg>