<svg class="svgicon svgicon-menusub" xmlns="http://www.w3.org/2000/svg" width="8" height="9" viewBox="0 0 8 9"><path fill-rule="evenodd" clip-rule="evenodd" d="M4.50542 1.46748C4.22628 1.18835 3.77372 1.18835 3.49458 1.46748L0.967481 3.99458C0.688346 4.27372 0.688346 4.72628 0.967481 5.00542L3.49458 7.53252C3.77372 7.81165 4.22628 7.81165 4.50542 7.53252L7.03252 5.00542C7.31165 4.72628 7.31165 4.27372 7.03252 3.99458L4.50542 1.46748ZM0.209352 3.99458C-0.0697839 4.27372 -0.0697839 4.72628 0.209352 5.00542L3.49458 8.29065C3.77372 8.56978 4.22628 8.56978 4.50542 8.29065L7.79065 5.00542C8.06978 4.72628 8.06978 4.27372 7.79065 3.99458L4.50542 0.709352C4.22628 0.430216 3.77372 0.430216 3.49458 0.709352L0.209352 3.99458Z"/></svg>