<svg class="svgicon svgicon-customer-data" xmlns="http://www.w3.org/2000/svg" width="16" height="17" viewBox="0 0 16 17"><path fill-rule="evenodd" clip-rule="evenodd" d="M8 1.5668C7.04377 1.5668 6.09902 1.63411 5.22071 1.76404C4.34138 1.89413 3.55338 2.08332 2.89972 2.31677C2.24103 2.55201 1.75754 2.81843 1.45007 3.08353C1.14189 3.34926 1.0668 3.56114 1.0668 3.70004C1.0668 3.84103 1.14397 4.05262 1.45007 4.31655C1.75438 4.57893 2.23493 4.84589 2.89972 5.08332C4.22684 5.55729 6.06182 5.83329 8 5.83329C8.95623 5.83329 9.90098 5.76597 10.7793 5.63604C11.6586 5.50596 12.4466 5.31677 13.1003 5.08332C13.759 4.84807 14.2425 4.58165 14.5499 4.31655C14.8581 4.05083 14.9332 3.83895 14.9332 3.70004C14.9332 3.56114 14.8581 3.34926 14.5499 3.08353C14.2425 2.81843 13.759 2.55201 13.1003 2.31677C12.4466 2.08332 11.6586 1.89413 10.7793 1.76404C9.90098 1.63411 8.95623 1.5668 8 1.5668ZM5.0646 0.708728C5.99807 0.570636 6.99517 0.5 8 0.5C9.00483 0.5 10.0019 0.570636 10.9354 0.708728C11.8679 0.846669 12.7261 1.05033 13.4591 1.31212C14.1871 1.57211 14.8036 1.89363 15.2466 2.27559C15.6888 2.65693 16 3.13857 16 3.70004C16 4.26152 15.6888 4.74316 15.2466 5.1245C14.8036 5.50645 14.1871 5.82797 13.4591 6.08797C12.7261 6.34976 11.8679 6.55342 10.9354 6.69136C10.0019 6.82945 9.00483 6.90008 8 6.90008C5.97765 6.90008 4.01431 6.61418 2.54091 6.08797C1.80544 5.8253 1.19253 5.50308 0.753448 5.1245C0.316156 4.74745 0 4.26629 0 3.70004C-4.84466e-08 3.13857 0.311171 2.65693 0.753448 2.27559C1.19644 1.89363 1.81293 1.57211 2.54091 1.31212C3.27393 1.05033 4.13215 0.846669 5.0646 0.708728Z"/><path fill-rule="evenodd" clip-rule="evenodd" d="M0.5334 12.7666C0.827988 12.7666 1.0668 13.0054 1.0668 13.3C1.0668 13.4868 1.21145 13.8067 1.81434 14.1797C2.39683 14.54 3.27283 14.8598 4.37442 15.0869C5.46979 15.3128 6.72091 15.4332 8 15.4332C9.27909 15.4332 10.5302 15.3128 11.6256 15.0869C12.7272 14.8598 13.6032 14.54 14.1857 14.1797C14.7886 13.8067 14.9332 13.4868 14.9332 13.3C14.9332 13.0054 15.172 12.7666 15.4666 12.7666C15.7612 12.7666 16 13.0054 16 13.3C16 14.0493 15.4546 14.6491 14.7469 15.0869C14.0187 15.5373 13.0096 15.8908 11.841 16.1317C10.6663 16.374 9.34223 16.5 8 16.5C6.65777 16.5 5.33374 16.374 4.15898 16.1317C2.99044 15.8908 1.9813 15.5373 1.25313 15.0869C0.545359 14.6491 -2.9068e-07 14.0493 0 13.3C9.68934e-08 13.0054 0.238811 12.7666 0.5334 12.7666Z"/><path fill-rule="evenodd" clip-rule="evenodd" d="M0.5334 9.56659C0.827988 9.56659 1.0668 9.8054 1.0668 10.1C1.0668 10.2868 1.21145 10.6067 1.81434 10.9797C2.39683 11.34 3.27283 11.6598 4.37442 11.887C5.46979 12.1128 6.72091 12.2332 8 12.2332C9.27909 12.2332 10.5302 12.1128 11.6256 11.887C12.7272 11.6598 13.6032 11.34 14.1857 10.9797C14.7886 10.6067 14.9332 10.2868 14.9332 10.1C14.9332 9.8054 15.172 9.56659 15.4666 9.56659C15.7612 9.56659 16 9.8054 16 10.1C16 10.8493 15.4546 11.4491 14.7469 11.8869C14.0187 12.3374 13.0096 12.6908 11.841 12.9318C10.6663 13.174 9.34223 13.3 8 13.3C6.65777 13.3 5.33374 13.174 4.15898 12.9318C2.99044 12.6908 1.9813 12.3374 1.25313 11.8869C0.54536 11.4491 2.42233e-07 10.8493 0 10.1C-9.68932e-08 9.8054 0.238811 9.56659 0.5334 9.56659Z"/><path fill-rule="evenodd" clip-rule="evenodd" d="M0.5334 6.36661C0.827988 6.36661 1.0668 6.60543 1.0668 6.90001C1.0668 7.08688 1.21145 7.40677 1.81434 7.77971C2.39683 8.14004 3.27283 8.45984 4.37442 8.68699C5.46979 8.91285 6.72091 9.03326 8 9.03326C9.27909 9.03326 10.5302 8.91285 11.6256 8.68699C12.7272 8.45984 13.6032 8.14004 14.1857 7.77971C14.7886 7.40677 14.9332 7.08688 14.9332 6.90001C14.9332 6.60543 15.172 6.36661 15.4666 6.36661C15.7612 6.36661 16 6.60543 16 6.90001C16 7.64934 15.4546 8.24914 14.7469 8.68696C14.0187 9.1374 13.0096 9.49086 11.841 9.7318C10.6663 9.97404 9.34223 10.1001 8 10.1001C6.65777 10.1001 5.33374 9.97404 4.15898 9.7318C2.99044 9.49086 1.9813 9.1374 1.25313 8.68696C0.54536 8.24914 -2.9068e-07 7.64934 0 6.90001C9.68934e-08 6.60543 0.238811 6.36661 0.5334 6.36661Z"/><path fill-rule="evenodd" clip-rule="evenodd" d="M0.5334 3.16665C0.827988 3.16665 1.0668 3.40545 1.0668 3.70004V13.3C1.0668 13.5945 0.827988 13.8334 0.5334 13.8334C0.238811 13.8334 0 13.5945 0 13.3L0 3.70004C0 3.40545 0.238811 3.16665 0.5334 3.16665Z"/><path fill-rule="evenodd" clip-rule="evenodd" d="M15.4666 3.16664C15.7612 3.16664 16 3.40545 16 3.70004V13.3C16 13.5945 15.7612 13.8334 15.4666 13.8334C15.172 13.8334 14.9332 13.5945 14.9332 13.3V3.70004C14.9332 3.40545 15.172 3.16664 15.4666 3.16664Z"/></svg>