<svg class="svgicon svgicon-user-group" xmlns="http://www.w3.org/2000/svg" width="16" height="17" viewBox="0 0 16 17"><path d="M0 16.5C0 14.8834 0.642175 13.3331 1.78525 12.19C2.92833 11.0469 4.47868 10.4048 6.09524 10.4048C7.7118 10.4048 9.26214 11.0469 10.4052 12.19C11.5483 13.3331 12.1905 14.8834 12.1905 16.5H10.6667C10.6667 15.2876 10.185 14.1248 9.32773 13.2675C8.47042 12.4102 7.30766 11.9286 6.09524 11.9286C4.88282 11.9286 3.72006 12.4102 2.86275 13.2675C2.00544 14.1248 1.52381 15.2876 1.52381 16.5H0ZM6.09524 9.64286C3.56952 9.64286 1.52381 7.59714 1.52381 5.07143C1.52381 2.54571 3.56952 0.5 6.09524 0.5C8.62095 0.5 10.6667 2.54571 10.6667 5.07143C10.6667 7.59714 8.62095 9.64286 6.09524 9.64286ZM6.09524 8.11905C7.77905 8.11905 9.14286 6.75524 9.14286 5.07143C9.14286 3.38762 7.77905 2.02381 6.09524 2.02381C4.41143 2.02381 3.04762 3.38762 3.04762 5.07143C3.04762 6.75524 4.41143 8.11905 6.09524 8.11905ZM12.4069 10.9404C13.4777 11.4225 14.3865 12.2036 15.0239 13.1899C15.6614 14.1762 16.0003 15.3256 16 16.5H14.4762C14.4765 15.6192 14.2223 14.7571 13.7442 14.0173C13.2661 13.2776 12.5845 12.6917 11.7813 12.3301L12.4069 10.9404ZM11.8827 2.33848C12.6503 2.65489 13.3066 3.19222 13.7684 3.88227C14.2301 4.57232 14.4765 5.38399 14.4762 6.21429C14.4763 7.25982 14.0856 8.26765 13.3808 9.03988C12.6759 9.81211 11.7079 10.293 10.6667 10.388V8.85429C11.2312 8.77343 11.7549 8.51373 12.161 8.1133C12.5671 7.71287 12.8341 7.19282 12.9228 6.62947C13.0115 6.06613 12.9173 5.48918 12.654 4.98332C12.3907 4.47746 11.9721 4.06933 11.4598 3.81886L11.8827 2.33848Z"/></svg>