<svg class="svgicon svgicon-notif" xmlns="http://www.w3.org/2000/svg" width="33" height="35" viewBox="0 0 33 35"><path d="M31.8575 25.6744C30.9135 24.05 29.5109 19.4684 29.5109 13.5092C29.5109 10.0589 28.1403 6.75 25.7006 4.3103C23.2609 1.87061 19.9519 0.5 16.5017 0.5C13.0514 0.5 9.74248 1.87061 7.30278 4.3103C4.86309 6.75 3.49248 10.0589 3.49248 13.5092C3.49248 19.4701 2.08815 24.05 1.14415 25.6744C0.937034 26.0291 0.82713 26.4322 0.825533 26.8429C0.823937 27.2536 0.930705 27.6575 1.13506 28.0137C1.33942 28.37 1.63414 28.6661 1.98947 28.8721C2.34481 29.078 2.74819 29.1867 3.15891 29.1869H10.2439C10.487 30.6704 11.2494 32.0192 12.3951 32.9924C13.5408 33.9657 14.9951 34.5 16.4983 34.5C18.0016 34.5 19.4559 33.9657 20.6016 32.9924C21.7473 32.0192 22.5097 30.6704 22.7528 29.1869H29.8444C30.2549 29.1861 30.6578 29.077 31.0127 28.8708C31.3676 28.6646 31.6618 28.3685 31.8658 28.0123C32.0697 27.6561 32.1762 27.2525 32.1745 26.842C32.1727 26.4316 32.0628 26.0289 31.8558 25.6744H31.8575ZM16.5017 32.5226C15.5258 32.5223 14.5786 32.1929 13.8132 31.5875C13.0478 30.9822 12.5089 30.1364 12.2837 29.1869H20.7196C20.4945 30.1364 19.9556 30.9822 19.1902 31.5875C18.4247 32.1929 17.4775 32.5223 16.5017 32.5226ZM30.1296 27.0187C30.1022 27.0698 30.0612 27.1124 30.0112 27.1418C29.9612 27.1712 29.9041 27.1863 29.8461 27.1855H3.15891C3.10091 27.1863 3.0438 27.1712 2.99381 27.1418C2.94381 27.1124 2.90285 27.0698 2.87538 27.0187C2.8461 26.968 2.83069 26.9105 2.83069 26.8519C2.83069 26.7934 2.8461 26.7359 2.87538 26.6852C4.13794 24.517 5.49389 19.4617 5.49389 13.5092C5.49389 10.5897 6.65364 7.78988 8.718 5.72552C10.7824 3.66116 13.5822 2.50141 16.5017 2.50141C19.4211 2.50141 22.221 3.66116 24.2853 5.72552C26.3497 7.78988 27.5094 10.5897 27.5094 13.5092C27.5094 19.4601 28.8671 24.5086 30.1296 26.6852C30.1589 26.7359 30.1743 26.7934 30.1743 26.8519C30.1743 26.9105 30.1589 26.968 30.1296 27.0187Z"/></svg>