<svg class="svgicon svgicon-number" xmlns="http://www.w3.org/2000/svg" width="12" height="16" viewBox="0 0 12 16"><path d="M3 5.505C3 5.37239 3.05268 5.24522 3.14645 5.15145C3.24021 5.05768 3.36739 5.005 3.5 5.005H4.79L5.011 3.903C5.04023 3.77615 5.11778 3.66571 5.22717 3.59514C5.33655 3.52457 5.46915 3.49944 5.59677 3.52509C5.72439 3.55075 5.83697 3.62516 5.91059 3.73252C5.98421 3.83987 6.01306 3.97171 5.991 4.1L5.811 5.005H6.791L7.011 3.904C7.04122 3.77841 7.11886 3.66939 7.22768 3.59978C7.33649 3.53017 7.46802 3.50537 7.5947 3.53058C7.72139 3.55578 7.83341 3.62904 7.90729 3.73501C7.98116 3.84097 8.01116 3.97141 7.991 4.099L7.811 5.005H8.751C8.88361 5.005 9.01079 5.05768 9.10455 5.15145C9.19832 5.24522 9.251 5.37239 9.251 5.505C9.251 5.63761 9.19832 5.76479 9.10455 5.85855C9.01079 5.95232 8.88361 6.005 8.751 6.005H7.611L7.411 7.005H8.501C8.63361 7.005 8.76079 7.05768 8.85455 7.15145C8.94832 7.24521 9.001 7.37239 9.001 7.505C9.001 7.63761 8.94832 7.76478 8.85455 7.85855C8.76079 7.95232 8.63361 8.005 8.501 8.005H7.212L6.994 9.098C6.96422 9.22416 6.8866 9.33383 6.77752 9.40387C6.66845 9.4739 6.53643 9.49884 6.40932 9.47342C6.2822 9.448 6.16993 9.3742 6.09618 9.2676C6.02243 9.16099 5.99297 9.02991 6.014 8.902L6.192 8.005H5.21L4.991 9.098C4.98011 9.16422 4.956 9.22757 4.92011 9.28428C4.88422 9.34098 4.83728 9.38988 4.78209 9.42806C4.7269 9.46624 4.66459 9.49292 4.59888 9.50651C4.53316 9.5201 4.46537 9.52032 4.39957 9.50716C4.33376 9.494 4.27128 9.46773 4.21584 9.4299C4.16041 9.39208 4.11315 9.34349 4.07689 9.28702C4.04063 9.23055 4.01611 9.16736 4.00479 9.10121C3.99347 9.03506 3.99558 8.96731 4.011 8.902L4.191 8.005H3.253C3.12039 8.005 2.99321 7.95232 2.89945 7.85855C2.80568 7.76478 2.753 7.63761 2.753 7.505C2.753 7.37239 2.80568 7.24521 2.89945 7.15145C2.99321 7.05768 3.12039 7.005 3.253 7.005H4.39L4.59 6.005H3.5C3.36739 6.005 3.24021 5.95232 3.14645 5.85855C3.05268 5.76479 3 5.63761 3 5.505ZM6.392 7.005L6.592 6.005H5.61L5.41 7.005H6.392ZM2 0H10.004C10.5344 0 11.0431 0.210714 11.4182 0.585786C11.7933 0.960859 12.004 1.46957 12.004 2V13.501C12.004 13.6336 11.9513 13.7608 11.8576 13.8546C11.7638 13.9483 11.6366 14.001 11.504 14.001H1C1.00027 14.266 1.10574 14.5201 1.29325 14.7075C1.48075 14.8948 1.73496 15 2 15H11.504C11.6366 15 11.7638 15.0527 11.8576 15.1464C11.9513 15.2402 12.004 15.3674 12.004 15.5C12.004 15.6326 11.9513 15.7598 11.8576 15.8536C11.7638 15.9473 11.6366 16 11.504 16H2C1.46957 16 0.960859 15.7893 0.585786 15.4142C0.210714 15.0391 0 14.5304 0 14V2C0 1.46957 0.210714 0.960859 0.585786 0.585786C0.960859 0.210714 1.46957 0 2 0ZM1 13.001H11.004V2C11.004 1.73478 10.8986 1.48043 10.7111 1.29289C10.5236 1.10536 10.2692 1 10.004 1H2C1.73478 1 1.48043 1.10536 1.29289 1.29289C1.10536 1.48043 1 1.73478 1 2V13.001Z"/></svg>