<svg class="svgicon svgicon-phone" xmlns="http://www.w3.org/2000/svg" width="16" height="16" viewBox="0 0 16 16"><path fill-rule="evenodd" clip-rule="evenodd" d="M2.03718 1.06162C3.03566 0.0688857 4.67982 0.245281 5.51585 1.36272L6.55125 2.74435C7.23222 3.6534 7.17151 4.92344 6.36337 5.72665L6.16811 5.92192C6.14606 6.0039 6.14381 6.08995 6.16154 6.17297C6.21323 6.50771 6.493 7.21658 7.66459 8.3816C8.83618 9.54663 9.54997 9.82558 9.88963 9.87809C9.97513 9.89627 10.0637 9.89374 10.1481 9.87071L10.4828 9.53761C11.2015 8.82382 12.3042 8.69009 13.1935 9.17333L14.7606 10.0266C16.1037 10.7551 16.4425 12.5798 15.3431 13.6735L14.1773 14.8319C13.8097 15.197 13.3158 15.5014 12.7136 15.558C11.2286 15.6967 7.76879 15.5194 4.13177 11.9038C0.7376 8.52846 0.0861686 5.58472 0.00330393 4.13418C-0.0377182 3.4007 0.308508 2.78045 0.749906 2.34233L2.03718 1.06162ZM4.53132 2.1003C4.11536 1.54486 3.34086 1.50056 2.90439 1.93457L1.61629 3.21446C1.34555 3.48356 1.21592 3.78057 1.23233 4.06444C1.29796 5.21716 1.82304 7.87293 4.9998 11.0316C8.33243 14.3446 11.4099 14.4439 12.5996 14.3323C12.8424 14.3101 13.0836 14.1838 13.3092 13.9598L14.4743 12.8005C14.9485 12.3296 14.8443 11.4714 14.1732 11.1071L12.6061 10.2547C12.1729 10.02 11.6659 10.0971 11.3508 10.4106L10.9775 10.7822L10.5427 10.3457C10.9775 10.7822 10.9767 10.783 10.9759 10.783L10.9751 10.7847L10.9726 10.7871L10.9669 10.7921L10.9546 10.8035C10.9197 10.8354 10.8824 10.8645 10.843 10.8905C10.7773 10.934 10.6904 10.9824 10.5813 11.0226C10.3597 11.1055 10.066 11.1498 9.70339 11.094C8.99207 10.9849 8.04938 10.5 6.79656 9.25455C5.54457 8.00912 5.05559 7.07218 4.94565 6.36168C4.88904 5.99904 4.93416 5.70532 5.01785 5.4838C5.06425 5.35931 5.13016 5.243 5.21311 5.13922L5.23937 5.1105L5.25085 5.09819L5.25577 5.09327L5.25824 5.09081L5.25988 5.08917L5.49616 4.85452C5.84731 4.50419 5.89654 3.92414 5.5659 3.48192L4.53132 2.1003Z"/></svg>