<svg class="svgicon svgicon-search" xmlns="http://www.w3.org/2000/svg" width="20" height="21" viewBox="0 0 20 21"><path fill-rule="evenodd" clip-rule="evenodd" d="M12.5893 14.3071C11.0416 15.5438 9.0791 16.1409 7.10492 15.9758C5.13075 15.8106 3.29473 14.8958 1.97395 13.4192C0.653174 11.9426 -0.0520929 10.0162 0.00300089 8.0358C0.0580947 6.05538 0.869366 4.17123 2.27019 2.77032C3.67102 1.36942 5.55506 0.558098 7.53536 0.503001C9.51567 0.447904 11.4419 1.15321 12.9184 2.47406C14.395 3.79492 15.3098 5.63104 15.4749 7.60533C15.64 9.57962 15.0429 11.5422 13.8063 13.09L19.7259 19.0089C19.8105 19.0877 19.8784 19.1828 19.9255 19.2884C19.9725 19.394 19.9978 19.508 19.9999 19.6237C20.0019 19.7393 19.9806 19.8541 19.9373 19.9614C19.894 20.0686 19.8296 20.166 19.7478 20.2478C19.666 20.3296 19.5686 20.394 19.4614 20.4373C19.3542 20.4806 19.2393 20.5019 19.1237 20.4999C19.0081 20.4978 18.8941 20.4725 18.7885 20.4255C18.6828 20.3784 18.5878 20.3105 18.5089 20.2259L12.5893 14.3071ZM3.49046 12.5136C2.64779 11.6708 2.07386 10.5971 1.84121 9.42817C1.60855 8.25926 1.72761 7.04761 2.18335 5.94635C2.63908 4.84509 3.41102 3.90365 4.40162 3.24101C5.39222 2.57837 6.557 2.22428 7.74878 2.22348C8.94055 2.22267 10.1058 2.5752 11.0973 3.23651C12.0888 3.89781 12.862 4.83821 13.3192 5.93886C13.7764 7.0395 13.8971 8.25099 13.666 9.42022C13.435 10.5894 12.8625 11.6639 12.0209 12.5079L12.0152 12.5136L12.0095 12.5182C10.8787 13.6464 9.34633 14.2796 7.74901 14.2788C6.15169 14.2779 4.62003 13.643 3.49046 12.5136Z"/></svg>