<svg class="svgicon svgicon-sound" xmlns="http://www.w3.org/2000/svg" width="23" height="24" viewBox="0 0 23 24"><path d="M15.2032 0.0254306C15.4236 0.0804819 15.6131 0.220807 15.7301 0.415555C15.8471 0.610303 15.882 0.843533 15.827 1.06397L15.3986 2.77773C15.3735 2.88915 15.3264 2.99442 15.2601 3.08738C15.1938 3.18033 15.1095 3.25909 15.0123 3.31902C14.9151 3.37895 14.8069 3.41884 14.694 3.43636C14.5812 3.45388 14.466 3.44866 14.3552 3.42102C14.2444 3.39337 14.1402 3.34386 14.0488 3.27539C13.9574 3.20692 13.8807 3.12087 13.823 3.0223C13.7653 2.92373 13.7279 2.81463 13.713 2.70141C13.6981 2.58819 13.706 2.47313 13.7362 2.363L14.1647 0.64924C14.2197 0.428832 14.36 0.239306 14.5548 0.122328C14.7495 0.00535083 14.9828 -0.0295025 15.2032 0.0254306ZM20.3154 1.96541C20.476 2.1261 20.5663 2.34401 20.5663 2.57123C20.5663 2.79844 20.476 3.01635 20.3154 3.17704L18.6016 4.8908C18.5226 4.97265 18.428 5.03792 18.3235 5.08283C18.2189 5.12774 18.1065 5.15138 17.9927 5.15237C17.8789 5.15336 17.7661 5.13168 17.6608 5.08859C17.5555 5.04551 17.4598 4.98188 17.3794 4.90143C17.2989 4.82097 17.2353 4.7253 17.1922 4.61999C17.1491 4.51468 17.1274 4.40185 17.1284 4.28807C17.1294 4.1743 17.153 4.06186 17.1979 3.95731C17.2429 3.85277 17.3081 3.75822 17.39 3.67917L19.1037 1.96541C19.2644 1.80477 19.4823 1.71453 19.7096 1.71453C19.9368 1.71453 20.1547 1.80477 20.3154 1.96541ZM7.34218 20.6214C7.77227 21.3375 8.44902 21.8718 9.24528 22.1241C10.0416 22.3763 10.9025 22.3291 11.6665 21.9914C12.4304 21.6536 13.0447 21.0485 13.3939 20.2897C13.7432 19.531 13.8034 18.6708 13.5631 17.8708L7.34218 20.6214ZM5.76552 21.3172L4.05518 22.0747C3.61267 22.2702 3.12139 22.3273 2.64582 22.2386C2.17024 22.15 1.73259 21.9196 1.39028 21.5777L0.704778 20.8939C0.362472 20.5545 0.131213 20.1192 0.0415588 19.6455C-0.0480957 19.1718 0.00807363 18.6821 0.202645 18.241L6.83662 3.14619C6.99381 2.78974 7.23543 2.47692 7.54061 2.23477C7.84579 1.99262 8.20534 1.82843 8.5882 1.75638C8.97105 1.68433 9.36569 1.70659 9.73802 1.82124C10.1103 1.93589 10.4491 2.13948 10.7252 2.41442L19.8629 11.5248C20.1382 11.7993 20.3424 12.1369 20.4577 12.5082C20.5731 12.8795 20.5961 13.2733 20.5249 13.6556C20.4537 14.0378 20.2903 14.3968 20.0489 14.7017C19.8075 15.0065 19.4954 15.2478 19.1397 15.4047L15.1381 17.1733C15.5611 18.3924 15.5102 19.726 14.9955 20.9093C14.4809 22.0926 13.54 23.0391 12.3599 23.5609C11.1797 24.0827 9.84644 24.1416 8.62483 23.726C7.40322 23.3103 6.38257 22.4505 5.76552 21.3172ZM21.4225 6.85478H19.7087C19.4814 6.85478 19.2635 6.94506 19.1028 7.10575C18.9421 7.26645 18.8518 7.4844 18.8518 7.71166C18.8518 7.93892 18.9421 8.15687 19.1028 8.31757C19.2635 8.47826 19.4814 8.56854 19.7087 8.56854H21.4225C21.6497 8.56854 21.8677 8.47826 22.0284 8.31757C22.1891 8.15687 22.2793 7.93892 22.2793 7.71166C22.2793 7.4844 22.1891 7.26645 22.0284 7.10575C21.8677 6.94506 21.6497 6.85478 21.4225 6.85478ZM8.40643 3.83513L1.77074 18.93C1.7149 19.0546 1.69861 19.1934 1.72404 19.3276C1.74947 19.4618 1.81541 19.585 1.91298 19.6806L2.6002 20.3661C2.69813 20.4634 2.82316 20.5289 2.95893 20.554C3.0947 20.5791 3.23488 20.5625 3.36111 20.5066L18.4457 13.8366C18.5461 13.7922 18.6342 13.724 18.7024 13.6379C18.7706 13.5517 18.8168 13.4503 18.8371 13.3424C18.8573 13.2344 18.851 13.1231 18.8186 13.0181C18.7863 12.9132 18.7288 12.8177 18.6513 12.7398L9.51695 3.62605C9.43831 3.54786 9.34188 3.48993 9.23592 3.45721C9.12997 3.42448 9.01766 3.41795 8.90863 3.43817C8.7996 3.4584 8.6971 3.50477 8.60993 3.57331C8.52276 3.64185 8.45352 3.73052 8.40814 3.8317"/></svg>