<svg class="svgicon svgicon-user" xmlns="http://www.w3.org/2000/svg" width="16" height="14" viewBox="0 0 16 14"><path fill-rule="evenodd" clip-rule="evenodd" d="M4.04351 4.41154C4.13196 4.16243 4.34032 4 4.57144 4H11.4286C11.6597 4 11.868 4.16243 11.9565 4.41154C12.0449 4.66066 11.996 4.94741 11.8326 5.13807L8.40406 9.13807C8.1809 9.39842 7.8191 9.39842 7.59594 9.13807L4.16738 5.13807C4.00396 4.94741 3.95507 4.66066 4.04351 4.41154Z" class="color-1"/><path fill-rule="evenodd" clip-rule="evenodd" d="M0.274152 3.07324C0.822302 1.52932 2.34873 0 4.57155 0H11.4287C13.6515 0 15.1779 1.52932 15.7261 3.07324C16.2628 4.58511 16.0245 6.39408 14.8698 7.74123L11.4412 11.7412C9.62166 13.864 6.37856 13.864 4.55902 11.7412L1.13046 7.74123C-0.0242276 6.39409 -0.262624 4.58511 0.274152 3.07324ZM8.40406 9.13807C8.1809 9.39842 7.8191 9.39842 7.59594 9.13807L4.16738 5.13807C4.00396 4.94741 3.95507 4.66066 4.04351 4.41154C4.13196 4.16243 4.34032 4 4.57144 4H11.4286C11.6597 4 11.868 4.16243 11.9565 4.41154C12.0449 4.66066 11.996 4.94741 11.8326 5.13807L8.40406 9.13807Z" class="color-2"/></svg>