<svg class="svgicon svgicon-user" xmlns="http://www.w3.org/2000/svg" width="16" height="16" viewBox="0 0 16 16"><path d="M15.9093 14.7568C14.7389 12.7333 12.9352 11.2824 10.8303 10.5946C11.8715 9.9748 12.6804 9.03034 13.1329 7.90628C13.5854 6.78223 13.6563 5.54073 13.3349 4.37244C13.0135 3.20414 12.3174 2.17366 11.3537 1.43924C10.3899 0.70482 9.2117 0.307068 8 0.307068C6.7883 0.307068 5.6101 0.70482 4.64633 1.43924C3.68257 2.17366 2.98653 3.20414 2.6651 4.37244C2.34368 5.54073 2.41464 6.78223 2.8671 7.90628C3.31955 9.03034 4.12848 9.9748 5.16965 10.5946C3.06476 11.2816 1.26112 12.7326 0.0907097 14.7568C0.0477887 14.8267 0.0193195 14.9046 0.00698187 14.9858C-0.00535579 15.0669 -0.00131202 15.1498 0.0188746 15.2293C0.0390612 15.3089 0.0749818 15.3836 0.124517 15.4491C0.174052 15.5146 0.236198 15.5695 0.307289 15.6105C0.37838 15.6516 0.456975 15.678 0.538437 15.6882C0.6199 15.6984 0.702579 15.6922 0.781598 15.6699C0.860616 15.6476 0.934373 15.6097 0.998516 15.5585C1.06266 15.5073 1.11589 15.4437 1.15507 15.3715C2.6029 12.8693 5.16197 11.3754 8 11.3754C10.838 11.3754 13.3971 12.8693 14.8449 15.3715C14.8841 15.4437 14.9373 15.5073 15.0015 15.5585C15.0656 15.6097 15.1394 15.6476 15.2184 15.6699C15.2974 15.6922 15.3801 15.6984 15.4616 15.6882C15.543 15.678 15.6216 15.6516 15.6927 15.6105C15.7638 15.5695 15.8259 15.5146 15.8755 15.4491C15.925 15.3836 15.9609 15.3089 15.9811 15.2293C16.0013 15.1498 16.0054 15.0669 15.993 14.9858C15.9807 14.9046 15.9522 14.8267 15.9093 14.7568ZM3.69646 5.84228C3.69646 4.99112 3.94886 4.15908 4.42174 3.45136C4.89462 2.74365 5.56674 2.19205 6.35311 1.86633C7.13948 1.5406 8.00478 1.45538 8.83958 1.62143C9.67438 1.78749 10.4412 2.19736 11.0431 2.79922C11.6449 3.40108 12.0548 4.1679 12.2208 5.0027C12.3869 5.83751 12.3017 6.70281 11.976 7.48917C11.6502 8.27554 11.0986 8.94766 10.3909 9.42054C9.6832 9.89342 8.85116 10.1458 8 10.1458C6.85901 10.1446 5.76509 9.6908 4.95829 8.884C4.15148 8.07719 3.69768 6.98328 3.69646 5.84228Z"/></svg>