<svg class="logo" xmlns="http://www.w3.org/2000/svg" width="177" height="31" viewBox="0 0 177 31">
<path fill-rule="evenodd" clip-rule="evenodd" d="M21.0364 2.13605C21.6786 2.15383 21.6104 2.60514 21.5042 2.76073C19.6088 5.70918 15.1304 10.9008 11.8696 16.5969C11.3297 17.5198 10.9277 18.1988 10.9277 19.2116C10.9277 20.5847 11.7849 22.2082 13.507 22.9049C14.6398 23.3587 15.353 23.3726 16.5756 23.3903C25.6526 23.671 29.2915 23.4257 37.414 23.1501C37.883 23.1488 38.3192 22.8328 38.476 22.6418C40.0464 21.0045 40.9516 18.061 40.9516 15.4639C40.9516 9.6794 36.7855 4.46889 30.2866 1.96291L29.2435 3.30059C34.9396 5.65485 37.883 10.3571 37.883 15.3931C37.883 16.5261 37.6908 17.6235 37.3431 18.6716C37.0852 19.4025 36.7679 19.8222 35.8448 19.8362C29.2257 19.9777 25.4781 20.0814 18.8414 19.9069C17.9854 19.8893 17.7085 19.577 17.5694 18.8992C17.4632 18.4972 17.5517 18.1633 17.8287 17.6589C21.3487 11.423 27.4809 4.29563 28.6847 2.60514C28.9135 2.29286 28.806 1.66322 28.0208 1.45462C25.7234 0.77562 23.1454 0.5 20.5319 0.5C8.69853 0.548035 0.352296 7.20367 0.160156 15.4639C0.63432 25.3793 9.25607 30.5 20.5319 30.5C27.4317 30.5 33.7523 28.0609 37.4506 24.1932L34.0342 24.331C30.8796 27.1367 25.8259 28.6363 20.5989 28.6363C11.0718 28.6363 3.31477 23.8986 3.31477 15.3931C3.31477 8.07746 11.0705 2.11839 20.5989 2.11839L21.0364 2.13605ZM99.3042 20.0448L105.749 15.8129L95.994 8.54655V10.3255H81.5649C79.6823 10.3255 78.1333 11.6645 77.8526 13.408L94.5804 13.3903V16.5614L81.7911 16.5791C79.7707 16.5791 78.1156 18.1141 78.0271 20.0448H99.3042ZM160.581 10.2724H175.373V7.15442H160.498C154.934 7.15442 150.389 11.4052 150.161 16.7359L168.093 16.717C169.257 16.717 170.198 17.4844 170.198 18.4087C170.198 19.3494 169.256 20.0992 168.093 20.0992L148.351 20.0979V7.15442H142.495V20.0132H130.737C129.011 19.7325 128.47 18.4795 128.47 16.0392L128.471 7.15442H119.028L110.539 12.6582L103.153 7.15442H80.432C75.396 7.15442 71.1982 10.6201 70.2739 15.2363H74.8384C73.1163 16.4046 71.7912 18.061 71.0591 20.0145L56.6123 20.0132C54.9092 19.7325 54.3504 18.4795 54.3504 16.0392L54.3516 7.15442H48.5126V15.4462C48.2674 20.9374 51.2462 22.9049 54.6449 23.2172L100.035 23.2158L108.399 17.8144L115.701 23.2879H124.635L113.26 14.7331L122.614 8.67044L122.632 15.4462C122.392 20.9374 125.664 22.9049 129.064 23.2172L171.541 23.2158C174.468 23.2158 176.84 21.0752 176.84 18.4087C176.84 15.7585 174.467 13.6179 171.541 13.6179H156.87C157.008 11.753 158.614 10.2724 160.581 10.2724Z"/></svg>