<svg class="logo-icon" width="29" height="21" viewBox="0 0 29 21" xmlns="http://www.w3.org/2000/svg" fill="#F8F8F8"><path fill-rule="evenodd" clip-rule="evenodd" d="M14.7096 1.14524C15.1591 1.15768 15.1114 1.4736 15.037 1.58251C13.7103 3.64643 10.5754 7.28056 8.2928 11.2678C7.9149 11.9138 7.63346 12.3891 7.63346 13.0981C7.63346 14.0593 8.23352 15.1957 9.43897 15.6834C10.232 16.0011 10.7311 16.0108 11.587 16.0232C17.9409 16.2197 20.4882 16.048 26.1738 15.8551C26.5022 15.8542 26.8075 15.6329 26.9173 15.4993C28.0165 14.3531 28.6502 12.2927 28.6502 10.4747C28.6502 6.42558 25.734 2.77822 21.1847 1.02404L20.4545 1.96042C24.4418 3.6084 26.5022 6.89995 26.5022 10.4252C26.5022 11.2182 26.3676 11.9864 26.1242 12.7201C25.9437 13.2318 25.7216 13.5256 25.0755 13.5353C20.4421 13.6344 17.8188 13.707 13.1731 13.5849C12.5738 13.5725 12.3801 13.3539 12.2827 12.8794C12.2083 12.598 12.2703 12.3643 12.4642 12.0112C14.9282 7.6461 19.2207 2.65694 20.0633 1.4736C20.2235 1.255 20.1483 0.814251 19.5986 0.668236C17.9905 0.192934 16.1859 0 14.3564 0C6.07306 0.0336242 0.230689 4.69257 0.0961914 10.4747C0.428106 17.4155 6.46333 21 14.3564 21C19.1862 21 23.6107 19.2927 26.1995 16.5852L23.808 16.6817C21.5998 18.6457 18.0622 19.6954 14.4033 19.6954C7.73433 19.6954 2.30442 16.379 2.30442 10.4252C2.30442 5.30422 7.7334 1.13287 14.4033 1.13287L14.7096 1.14524Z"/></svg>