<?xml version="1.0" encoding="UTF-8"?>
<svg id="Layer_1" data-name="Layer 1" xmlns="http://www.w3.org/2000/svg" version="1.1" viewBox="0 0 100 100">
  <defs>
    <style>
      .cls-1 {
        fill: none;
      }

      .cls-1, .cls-2 {
        stroke-width: 0px;
      }

      .cls-2 {
        fill: #000;
      }
    </style>
  </defs>
  <rect class="cls-1" x="-108.89" y="-40.41" width="44.58" height="44.58"/>
  <g>
    <path class="cls-2" d="M0,35.18c0-.92,0-1.84,0-2.77.82,0,1.64,0,2.46,0,.25,0,.33.1.33.34-.01.68,0,1.36,0,2.03,0,.24.07.34.32.34.66-.01,1.32-.01,1.98,0,.25,0,.33-.08.33-.33-.01-.69,0-1.37,0-2.06,0-.24.09-.32.32-.32,1.61,0,3.22,0,4.83,0,.24,0,.33.08.33.33-.01.69,0,1.37,0,2.06,0,.24.08.32.32.31.64-.01,1.28,0,1.93,0,.38,0,.38,0,.38-.38,0-1.56,0-3.13,0-4.69,0-.26.08-.35.34-.35.69.01,1.37,0,2.06,0,.23,0,.32-.08.32-.32-.01-.65-.01-1.3,0-1.95,0-.25-.09-.33-.34-.33-.65.01-1.3,0-1.95,0-.43,0-.43,0-.43-.42,0-.64,0-1.28,0-1.93,0-.35,0-.36-.37-.36-.62,0-1.25,0-1.87,0-.38,0-.38,0-.38.38,0,1.56,0,3.11,0,4.67,0,.21-.03.33-.29.33-2.53,0-5.06,0-7.59,0-.23,0-.3-.08-.29-.3,0-.7,0-1.39,0-2.09,0-.36,0-.36.36-.36,1.56,0,3.13,0,4.69,0,.25,0,.34-.08.33-.33-.01-.69,0-1.37,0-2.06,0-.24.08-.33.33-.33.69.01,1.37,0,2.06,0,.24,0,.32-.08.31-.32-.01-.65,0-1.3,0-1.95q0-.44.46-.44c.63,0,1.27,0,1.9,0q.44,0,.44.43c0,.66,0,1.32,0,1.98,0,.22.08.31.3.3.67,0,1.34-.01,2.01,0,.26,0,.33-.09.32-.34-.01-.66,0-1.32,0-1.98,0-.39,0-.4.39-.4,1.53,0,3.06,0,4.58,0,.41,0,.41,0,.41-.41,0-2.5,0-5.01,0-7.51,0-1.74,0-3.47,0-5.21,0-.35.02-.38.36-.38.7,0,1.39,0,2.09,0,.26,0,.35.08.35.34-.01.69,0,1.37,0,2.06,0,.24.08.32.32.31.67-.01,1.34,0,2.01,0,.22,0,.31-.07.3-.3,0-.67,0-1.34,0-2.01,0-.4,0-.41.41-.41,1.55,0,3.11,0,4.66,0,.34,0,.35,0,.35-.35,0-.64,0-1.28,0-1.93,0-.42,0-.42.42-.42,1.54,0,3.07,0,4.61,0,.25,0,.35-.08.35-.34-.01-.67,0-1.34,0-2.01,0-.24.08-.33.33-.33,1.62,0,3.24,0,4.85,0,.26,0,.33.1.33.33,0,.68,0,1.36,0,2.03,0,.22.07.31.3.31,1.56,0,3.13,0,4.69,0,.24,0,.32-.09.31-.32,0-.64-.01-1.28,0-1.93,0-.26-.09-.35-.35-.35-.68.01-1.36,0-2.03,0-.24,0-.34-.09-.34-.33,0-.71,0-1.43,0-2.14,0-.22.07-.32.31-.32,2.53,0,5.06,0,7.59,0,.24,0,.32.09.31.32,0,.69,0,1.37,0,2.06,0,.27.09.34.35.34.68-.01,1.36,0,2.03,0,.26,0,.33.09.33.33,0,.63,0,1.27,0,1.9q0,.44.46.44c.57,0,1.14,0,1.71,0,.42,0,.42,0,.42-.43,0-1.53,0-3.06,0-4.58,0-.36.02-.37.37-.37.68,0,1.36,0,2.03,0,.39,0,.39,0,.39.39,0,1.55,0,3.09,0,4.64,0,.34.02.35.35.35.67,0,1.34,0,2.01,0,.27,0,.36.09.36.36,0,2.5,0,4.99,0,7.49,0,.27-.08.37-.36.36-.69-.01-1.37,0-2.06,0-.22,0-.3.08-.3.3,0,2.47,0,4.94,0,7.4,0,.22.07.31.3.3.65,0,1.3,0,1.95,0,.37,0,.37,0,.37-.38,0-1.56,0-3.11,0-4.67,0-.24.08-.33.33-.33.66.01,1.32,0,1.98,0q.49,0,.49.51c0,2.41,0,4.83,0,7.24,0,.21.03.34.29.34,1.57,0,3.15,0,4.72,0,.21,0,.29-.08.29-.29,0-.68,0-1.36,0-2.03,0-.22-.08-.3-.3-.3-.65,0-1.3,0-1.95,0q-.41,0-.42-.42c0-2.43,0-4.86,0-7.3,0-.37,0-.38-.38-.38-.67,0-1.34,0-2.01,0-.22,0-.33-.06-.33-.31,0-1.63,0-3.25,0-4.88,0-.24.08-.32.32-.32.7,0,1.39,0,2.09,0,.24,0,.32-.08.31-.32-.01-.66-.01-1.32,0-1.98,0-.25-.07-.34-.32-.33-.64.01-1.28,0-1.93,0q-.46,0-.46-.45c0-.61,0-1.21,0-1.82,0-.4,0-.4-.41-.4-.66,0-1.32,0-1.98,0-.23,0-.32-.08-.32-.32,0-.71.01-1.43,0-2.14,0-.27.1-.34.35-.34,4.3,0,8.61,0,12.91,0,.26,0,.34.08.34.34,0,2.5,0,5.01,0,7.51,0,.24-.07.34-.33.33-.69-.01-1.37,0-2.06,0-.24,0-.34.07-.33.32.01.66.01,1.32,0,1.98,0,.25.09.33.33.32.69-.01,1.37,0,2.06,0,.25,0,.33.09.33.33-.01.68,0,1.36,0,2.03,0,.43,0,.43-.44.43-1.55,0-3.09,0-4.64,0-.23,0-.35.04-.35.31,0,1.56,0,3.13,0,4.69,0,.22.08.3.3.3.66,0,1.32-.01,1.98,0,.26,0,.35-.08.35-.34-.01-.68,0-1.36,0-2.03,0-.22.08-.3.3-.3.71,0,1.43,0,2.14,0,.36,0,.36,0,.36.37,0,1.55,0,3.09,0,4.64,0,.36,0,.37.36.37.73,0,1.46,0,2.2,0,3.52,0,7.03,0,10.55,0,.39,0,.39,0,.4.4,0,.69,0,1.37,0,2.06,0,.26-.09.35-.35.34-.69-.01-1.37,0-2.06,0-.22,0-.31.06-.31.29.01.68,0,1.36,0,2.03,0,.22.08.3.3.3,1.57,0,3.15,0,4.72,0,.23,0,.32-.07.32-.31-.01-.69,0-1.37,0-2.06,0-.25.07-.35.34-.35.67.01,1.34,0,2.01,0,.36,0,.37,0,.37-.36,0-.68,0-1.36,0-2.03,0-.23.07-.32.31-.32.71.01,1.43.01,2.14,0,.24,0,.31.09.31.32-.01.72-.01,1.45,0,2.17,0,.24-.08.32-.32.31-.68,0-1.36,0-2.03,0-.25,0-.33.09-.33.33.01.63,0,1.27,0,1.9,0,.47,0,.47-.46.47-.64,0-1.28,0-1.93,0-.23,0-.32.08-.32.32.01.65.01,1.3,0,1.95,0,.25.09.33.34.33.66-.01,1.32,0,1.98,0,.36,0,.39.03.39.38,0,.61,0,1.23,0,1.84q0,.48.47.48c.63,0,1.27,0,1.9,0,.22,0,.31.07.3.3-.01.73,0,1.46,0,2.2,0,.22-.07.3-.3.3-.68,0-1.36,0-2.03,0-.26,0-.35.08-.35.34.01.64,0,1.28,0,1.93,0,.44,0,.44-.43.45-.65,0-1.3,0-1.95,0-.23,0-.33.06-.32.31.01.67.01,1.34,0,2.01,0,.24.08.32.32.31.69-.01,1.37,0,2.06,0,.25,0,.33.09.33.33,0,.67,0,1.34,0,2.01,0,.26.09.35.35.34.67-.01,1.34,0,2.01,0,.22,0,.33.07.32.31-.01.72-.01,1.45,0,2.17,0,.26-.1.32-.34.32-.64-.01-1.28,0-1.93,0-.41,0-.41,0-.41.4,0,.65,0,1.3,0,1.95,0,.26-.08.36-.36.36-3.41,0-6.82,0-10.22,0-.26,0-.35-.1-.34-.35.01-.68,0-1.36,0-2.03,0-.24-.06-.34-.32-.34-1.55,0-3.11,0-4.66,0-.24,0-.32.09-.31.32,0,.69,0,1.37,0,2.06,0,.26-.09.35-.35.34-.69-.01-1.37,0-2.06,0-.22,0-.31.06-.31.29,0,1.58,0,3.16,0,4.75,0,.23.09.3.3.3.67,0,1.34-.01,2.01,0,.24,0,.32-.08.31-.31-.01-.69,0-1.37,0-2.06,0-.26.08-.34.34-.34,2.5,0,5.01,0,7.51,0,.24,0,.33.08.33.33-.01.7,0,1.39,0,2.09,0,.22.07.31.3.3.67,0,1.34-.01,2.01,0,.26,0,.33-.09.32-.34-.01-.67,0-1.34,0-2.01,0-.37,0-.37.36-.37,1.6,0,3.2,0,4.8,0,.26,0,.36.08.35.34-.01.71-.01,1.41,0,2.12,0,.26-.1.35-.35.35-.68,0-1.36,0-2.03,0-.23,0-.33.07-.32.31.01.65.01,1.3,0,1.95,0,.25.09.33.33.33.69-.01,1.37,0,2.06,0,.21,0,.32.07.31.3,0,.73,0,1.46,0,2.2,0,.22-.08.3-.31.3-.68,0-1.36,0-2.03,0-.36,0-.36,0-.37.37,0,1.53,0,3.06,0,4.58,0,.38,0,.38.38.38,1.55,0,3.09,0,4.64,0,.36,0,.36,0,.36.37,0,.61,0,1.23,0,1.84,0,.59.1.58-.59.58-3.27,0-6.55,0-9.82,0-.39,0-.39,0-.39.4,0,.61,0,1.21,0,1.82,0,.36.01.37.36.37.67,0,1.34,0,2.01,0,.26,0,.35.09.34.35-.01.68,0,1.36,0,2.03,0,.25.09.33.33.33.65-.01,1.3,0,1.95,0q.43,0,.43.44c0,1.55,0,3.09,0,4.64,0,.26.08.35.34.34.65-.02,1.3-.02,1.95,0,.27,0,.34-.1.34-.35-.01-.68,0-1.36,0-2.03,0-.24.06-.34.32-.34.71.01,1.43.01,2.14,0,.22,0,.3.07.3.3,0,.72-.01,1.45,0,2.17,0,.25-.08.34-.33.33-.67,0-1.34,0-2.01,0-.26,0-.35.09-.34.35.01.68,0,1.36,0,2.03,0,.24-.09.34-.34.34-.71,0-1.41,0-2.12,0-.25,0-.35-.08-.35-.34.01-.68,0-1.36,0-2.03,0-.27-.09-.34-.35-.34-1.55,0-3.09,0-4.64,0-.34,0-.35.02-.35.36,0,1.51,0,3.02,0,4.53q0,.41.43.41c1.54,0,3.07,0,4.61,0,.36,0,.38.02.38.39,0,1.59,0,3.18,0,4.77,0,.26-.09.35-.35.35-.69-.01-1.37,0-2.06,0-.24,0-.32.09-.31.32.01.66.01,1.32,0,1.98,0,.25.08.34.33.33.69-.01,1.37,0,2.06,0,.25,0,.34.08.33.33-.01.67,0,1.34,0,2.01,0,.26.09.35.34.35.67-.01,1.34,0,2.01,0,.27,0,.37.1.36.37-.01.64,0,1.28,0,1.93,0,.42,0,.42.43.42.65,0,1.3,0,1.95,0,.15,0,.29.01.29.22-.01.85.03,1.7-.02,2.55h-8.14c0-.78-.01-1.55-.02-2.33,0-.36,0-.36-.36-.36-1.53,0-3.07,0-4.6,0-.36,0-.36,0-.36.36-.01.78.03,1.55-.02,2.33h-2.71c-.05-.81,0-1.63-.03-2.44,0-.27.1-.34.35-.34.65,0,1.3,0,1.95,0,.35,0,.37-.02.37-.36,0-.64,0-1.28,0-1.92,0-.41.02-.42.43-.42.65,0,1.3,0,1.95,0,.23,0,.32-.07.32-.31,0-1.56,0-3.13,0-4.69,0-.23-.09-.3-.31-.3-.67,0-1.34,0-2.01,0-.23,0-.32.08-.32.31.01.64,0,1.28,0,1.92q0,.47-.46.47c-.62,0-1.25,0-1.87,0-.26,0-.35.08-.35.34.01.68,0,1.36,0,2.03,0,.22-.08.3-.3.3-.7,0-1.39,0-2.09,0-.23,0-.32.07-.32.31.01.78,0,1.55,0,2.33,0,.92-.01,1.84-.02,2.76h-2.77c0-.13-.02-.25-.02-.38,0-2.44,0-4.88,0-7.32,0-.36-.01-.37-.36-.37-.59,0-1.18,0-1.76,0-.66,0-.59.01-.59-.59,0-4.18,0-8.35,0-12.53,0-.37-.01-.39-.35-.39-.65,0-1.3,0-1.95,0-.25,0-.33.09-.33.33.01.7,0,1.39,0,2.09,0,.21-.07.29-.28.29-.73,0-1.46,0-2.2,0-.21,0-.28-.09-.28-.3,0-.73.01-1.46,0-2.2,0-.24.09-.31.32-.31.68.01,1.36,0,2.03,0,.25,0,.33-.09.33-.33-.01-.66-.01-1.32,0-1.98,0-.23-.08-.32-.32-.32-.68.01-1.36,0-2.03,0-.25,0-.33-.08-.33-.33.01-.69,0-1.37,0-2.06,0-.25-.09-.33-.33-.33-.63.01-1.27,0-1.9,0-.39,0-.4,0-.4.39,0,1.55,0,3.11,0,4.66,0,.27-.09.37-.36.36-.67-.01-1.34,0-2.01,0-.25,0-.35.07-.35.34.01,1.55,0,3.09,0,4.64,0,.25.08.34.33.33.68-.01,1.36,0,2.03,0,.25,0,.36.07.35.34,0,1.61,0,3.22,0,4.83,0,.26-.1.35-.35.34-.69-.01-1.37,0-2.06,0-.22,0-.31.07-.31.3,0,1.56,0,3.13,0,4.69,0,.24.1.31.32.31.66,0,1.32-.01,1.98,0,.25,0,.33-.1.32-.34-.01-.67,0-1.34,0-2.01,0-.24.06-.34.32-.34,1.62.01,3.24,0,4.85,0,.22,0,.3.07.3.3-.01.68,0,1.36,0,2.03,0,.26.08.35.34.35.69-.01,1.37,0,2.06,0,.23,0,.32.08.32.32-.01.72-.01,1.45,0,2.17,0,.24-.07.32-.31.31-.68-.01-1.36,0-2.03,0-.36,0-.36,0-.37.36-.01.78.03,1.55-.02,2.33h-2.71c0-.13-.02-.25-.02-.38,0-1.57,0-3.14,0-4.71,0-.23-.07-.32-.31-.32-.67.01-1.34.01-2,0-.24,0-.32.08-.31.32,0,.78,0,1.55,0,2.33,0,.92-.01,1.84-.02,2.76h-2.77c0-.79-.02-1.59-.01-2.38,0-.23-.08-.32-.31-.31-.65.01-1.3,0-1.95,0-.36,0-.36,0-.36.37,0,.78-.01,1.55-.02,2.33h-5.42c-.05-.78,0-1.55-.02-2.33,0-.36,0-.36-.37-.36-2.44,0-4.87,0-7.31,0-.36,0-.36,0-.37.36-.01.78.03,1.55-.02,2.33h-2.77c0-.78,0-1.55,0-2.33,0-.35-.02-.36-.37-.36-2.42,0-4.84,0-7.26,0-.36,0-.36,0-.37.36,0,.78-.01,1.55-.02,2.33h-2.77c0-.78,0-1.55,0-2.33,0-.35-.02-.36-.37-.36-.61,0-1.23,0-1.84,0-.36,0-.37.01-.37.36,0,.78,0,1.55,0,2.33h-2.77c0-.79-.02-1.59-.02-2.38,0-.23-.07-.32-.31-.32-.66.01-1.32.01-1.98,0-.26,0-.35.08-.34.34,0,.78,0,1.57-.01,2.35h-5.48c0-.78,0-1.55,0-2.33,0-.43.01-.44.44-.44,1.53,0,3.06,0,4.58,0,.38,0,.39,0,.39-.37,0-.63,0-1.27,0-1.9,0-.35,0-.36-.35-.36-.65,0-1.3,0-1.95,0-.41,0-.41,0-.41-.4,0-1.53,0-3.06,0-4.58,0-.39,0-.39-.4-.39-.64,0-1.28,0-1.93,0-.36,0-.38-.02-.38-.39,0-.66,0-1.32,0-1.98,0-.42,0-.43.42-.43,1.56,0,3.11,0,4.67,0,.25,0,.34-.07.33-.33-.01-.65,0-1.3,0-1.95,0-.34,0-.35-.36-.35-1.55,0-3.09,0-4.64,0-.41,0-.42,0-.42-.43,0-1.51,0-3.02,0-4.53,0-.42,0-.43-.42-.43-1.5,0-3,0-4.5,0-.46,0-.46,0-.46-.47,0-.64,0-1.28,0-1.93,0-.24-.09-.32-.32-.31-.66.01-1.32.01-1.98,0-.25,0-.34.08-.33.33.01.68,0,1.36,0,2.03,0,.26-.09.35-.34.35-.71-.01-1.41-.01-2.12,0-.26,0-.35-.09-.35-.35.01-.69,0-1.37,0-2.06,0-.22-.08-.3-.3-.3-.66,0-1.32.01-1.98,0-.26,0-.35.07-.35.34.02.68,0,1.36,0,2.03,0,.24-.08.34-.32.34-2.61,0-5.23,0-7.84,0C0,77.49,0,76.57,0,75.64c.12,0,.23-.02.35-.02,1.56,0,3.13,0,4.69,0,.35,0,.36,0,.36-.37,0-.64,0-1.28,0-1.93q0-.41.43-.41c.6,0,1.19,0,1.79,0q.45,0,.46-.44c0-1.51,0-3.02,0-4.53,0-.4,0-.4.39-.4.68,0,1.36,0,2.03,0,.37,0,.37,0,.37.38,0,1.56,0,3.11,0,4.67,0,.25.08.33.33.33,1.56,0,3.13,0,4.69,0,.26,0,.33-.1.32-.34-.01-.59,0-1.18,0-1.76,0-.63-.1-.61.62-.61,3.26,0,6.53,0,9.79,0,.38,0,.38,0,.38-.38,0-.63,0-1.27,0-1.9,0-.24-.09-.32-.32-.32-.66,0-1.32,0-1.98,0-.4,0-.41-.01-.41-.41,0-1.56,0-3.13,0-4.69,0-.23-.07-.32-.31-.32-2.46,0-4.92,0-7.38,0-.24,0-.32.08-.31.32.01.66.01,1.32,0,1.98,0,.24.07.34.33.33.7-.01,1.39,0,2.09,0,.21,0,.3.08.29.28,0,.74,0,1.48,0,2.22,0,.21-.09.29-.3.29-.73,0-1.46,0-2.2,0-.22,0-.31-.08-.3-.3,0-.67,0-1.34,0-2.01,0-.39,0-.39-.39-.39-1.54,0-3.07,0-4.61,0-.42,0-.42,0-.42-.43,0-.62,0-1.25,0-1.87q0-.41-.4-.41c-1.49,0-2.98,0-4.48,0q-.41,0-.42.43c0,1.54,0,3.07,0,4.61,0,.34-.03.37-.37.37-.66,0-1.32,0-1.98,0-.34,0-.35.02-.35.36,0,.68,0,1.36,0,2.03,0,.14,0,.28-.21.28-.86,0-1.72.03-2.58-.02v-5.42c.78,0,1.55-.01,2.33-.02.36,0,.37,0,.37-.36,0-1.53,0-3.07,0-4.6,0-.36,0-.36-.37-.36-.78,0-1.55-.01-2.33-.02C0,56.77,0,54.05,0,51.34c.79,0,1.57-.02,2.36-.01.26,0,.35-.09.34-.35-.01-.66,0-1.32,0-1.98,0-.38,0-.39.4-.39,1.52,0,3.04,0,4.56,0,.42,0,.43,0,.43-.42,0-2.4,0-4.79,0-7.19q0-.48.47-.48c1.53,0,3.06,0,4.58,0,.35,0,.36-.01.36-.34,0-.65,0-1.3,0-1.95,0-.25-.08-.34-.33-.33-.69.01-1.37,0-2.06,0-.25,0-.33-.09-.33-.34.01-.69,0-1.37,0-2.06,0-.23-.07-.32-.31-.32-1.55,0-3.11,0-4.66,0-.26,0-.33.1-.33.34.01.68,0,1.36,0,2.03,0,.25-.09.35-.35.35-.69-.01-1.37,0-2.06,0-.22,0-.31.08-.3.3,0,.67.01,1.34,0,2.01,0,.26.1.33.34.32.67-.01,1.34,0,2.01,0,.27,0,.37.07.37.35,0,1.59,0,3.18,0,4.77,0,.27-.1.36-.37.35-1.23-.01-2.46,0-3.69,0-.48,0-.96-.01-1.44-.02,0-2.71,0-5.42,0-8.14.79,0,1.59-.02,2.38-.02.23,0,.32-.07.32-.31-.01-.65,0-1.3,0-1.95,0-.35,0-.36-.37-.36-.78,0-1.55-.01-2.33-.02ZM37.83,32.4c2.56,0,5.12,0,7.67,0,.36,0,.37-.02.38-.36,0-.65,0-1.3,0-1.95,0-.23-.08-.32-.32-.32-.66.01-1.32,0-1.98,0-.38,0-.38,0-.38-.37,0-1.55,0-3.11,0-4.66,0-.26-.08-.35-.34-.34-.62.01-1.25,0-1.87,0q-.41,0-.41.4c0,1.54,0,3.07,0,4.61,0,.35,0,.36-.37.36-.71,0-1.41,0-2.12,0-.23,0-.32-.07-.32-.31.01-.67,0-1.34,0-2.01,0-.34-.02-.35-.35-.36-.67,0-1.34,0-2.01,0-.26,0-.37-.1-.35-.35,0-.1,0-.2,0-.3,0-2.37,0-4.74,0-7.11,0-.36-.01-.37-.36-.37-.62,0-1.25,0-1.87,0q-.44,0-.44-.45c0-1.52,0-3.04,0-4.56,0-.37,0-.38-.38-.38-.63,0-1.27,0-1.9,0-.25,0-.35.08-.35.34,0,2.44,0,4.88,0,7.32,0,.25.08.35.34.35.68-.01,1.36,0,2.03,0,.24,0,.34.07.34.32,0,1.62,0,3.24,0,4.85,0,.25-.1.33-.34.33-.69,0-1.37,0-2.06,0-.39,0-.4,0-.4-.39,0-1.56,0-3.13,0-4.69,0-.24-.07-.34-.32-.33-.66.01-1.32.01-1.98,0-.25,0-.33.09-.33.33.01.66,0,1.32,0,1.98,0,.39,0,.4-.39.4-1.56,0-3.13,0-4.69,0-.26,0-.35.08-.34.35.02.63,0,1.27,0,1.9,0,.38,0,.38.37.38,1.57,0,3.15,0,4.72,0,.25,0,.33.08.33.33-.01.67,0,1.34,0,2.01,0,.26.08.35.34.35.67-.01,1.34,0,2.01,0,.27,0,.37.1.36.37-.01.64,0,1.28,0,1.93,0,.42,0,.42.42.42,2.54,0,5.08,0,7.62,0ZM58.04,37.81c1.25,0,2.49,0,3.74,0,.2,0,.32-.04.32-.28,0-1.59,0-3.18,0-4.77,0-.21-.09-.28-.29-.28-.68,0-1.36,0-2.03,0-.22,0-.3.08-.3.3,0,.67,0,1.34,0,2.01,0,.41,0,.41-.4.41-2.44,0-4.88,0-7.32,0-.35,0-.36,0-.36.37,0,1.55,0,3.11,0,4.66,0,.36-.01.38-.38.38-.69,0-1.37,0-2.06,0-.26,0-.35-.09-.35-.35.01-.67,0-1.34,0-2.01,0-.33-.02-.35-.36-.35-1.53,0-3.06,0-4.58,0-.34,0-.36.02-.36.35,0,1.53,0,3.06,0,4.58,0,.34.02.36.35.36.67,0,1.34,0,2.01,0,.23,0,.32.08.32.32-.01.7,0,1.39,0,2.09,0,.39,0,.39-.39.39-1.55,0-3.09,0-4.64,0-.25,0-.36.06-.35.33.02.66.01,1.32,0,1.98,0,.23.08.32.31.32.67-.01,1.34,0,2.01,0,.37,0,.38.02.39.38,0,.93,0,1.86,0,2.79,0,.4,0,.4.39.4.53,0,1.07,0,1.6,0,.63,0,.61.07.6-.57,0-.22.08-.3.3-.3.63,0,1.27,0,1.9,0q.51,0,.51-.5c0-1.5,0-3,0-4.5,0-.42,0-.42.43-.42,1.55,0,3.09,0,4.64,0,.34,0,.35,0,.35-.35,0-.67.01-1.34,0-2.01,0-.26.09-.35.35-.35.68.01,1.36,0,2.03,0,.26,0,.35-.09.34-.35-.01-.63-.01-1.27,0-1.9,0-.26-.08-.35-.34-.35-.69.01-1.37,0-2.06,0-.23,0-.32-.08-.32-.32.01-.71.01-1.43,0-2.14,0-.26.09-.34.34-.34,1.23.01,2.46,0,3.69,0ZM40.5,79.66c0-1.24,0-2.48,0-3.72,0-.25.08-.33.33-.33.7.01,1.41.02,2.12,0,.28,0,.36.1.36.36-.01.67,0,1.34,0,2.01,0,.33.02.35.36.35.63,0,1.27,0,1.9,0,.25,0,.34-.08.33-.33,0-1.56,0-3.13,0-4.69,0-.23-.07-.32-.31-.32-.66.01-1.32,0-1.98,0-.38,0-.38,0-.38-.37,0-1.57,0-3.15,0-4.72,0-.37,0-.37.38-.37,1.55,0,3.11,0,4.66,0,.26,0,.35-.09.34-.35-.01-.65-.01-1.3,0-1.95,0-.25-.08-.34-.33-.33-.66.01-1.32,0-1.98,0-.39,0-.4-.01-.41-.42,0-.66,0-1.32,0-1.98,0-.23-.08-.32-.32-.32-.65.01-1.3.01-1.95,0-.25,0-.33.09-.33.34.01.67,0,1.34,0,2.01,0,.35-.02.37-.37.37-.67,0-1.34,0-2.01,0-.24,0-.34.07-.33.33.01.68,0,1.36,0,2.03,0,.26-.08.36-.34.35-.68-.01-1.36,0-2.03,0-.26,0-.35.09-.34.35.01.67,0,1.34,0,2.01,0,.25-.09.33-.33.32-.69-.01-1.37,0-2.06,0-.25,0-.33.08-.33.33,0,1.56,0,3.13,0,4.69,0,.23.07.32.31.32.65-.01,1.3,0,1.95,0q.45,0,.45.44c0,2.43,0,4.86,0,7.3,0,.34.01.36.35.36.63,0,1.27,0,1.9,0,.36,0,.37-.01.37-.36,0-1.23,0-2.46,0-3.69ZM52.72,62.12c1.24,0,2.48,0,3.71,0,.27,0,.37.07.37.35-.01.7-.01,1.41,0,2.11,0,.26-.09.35-.35.34-.69-.01-1.37,0-2.06,0-.23,0-.3.08-.3.3,0,.67,0,1.34,0,2.01,0,.23.07.32.31.32.66-.01,1.32,0,1.98,0,.41,0,.42,0,.42.43,0,1.53,0,3.06,0,4.58,0,.35.02.36.37.36.62,0,1.25,0,1.87,0,.26,0,.36-.08.35-.34-.01-.67,0-1.34,0-2.01,0-.27.09-.37.36-.36.68.01,1.36,0,2.03,0,.24,0,.32-.09.31-.32-.01-.63,0-1.27,0-1.9,0-.36-.01-.37-.36-.37-.66,0-1.32,0-1.98,0-.27,0-.37-.09-.36-.36,0-1.6,0-3.2,0-4.8,0-.28.1-.36.37-.35.66.02,1.32,0,1.98,0,.35,0,.36,0,.36-.37,0-.62,0-1.25,0-1.87,0-.38,0-.38-.38-.38-1.53,0-3.06,0-4.58,0-.41,0-.41,0-.41-.4,0-.67,0-1.34,0-2.01,0-.24-.08-.32-.32-.31-.7.01-1.39,0-2.09,0-.24,0-.32-.08-.31-.31.01-.69,0-1.37,0-2.06,0-.22-.08-.31-.3-.3-.64,0-1.28,0-1.93,0-.39,0-.4,0-.4.39,0,1.55,0,3.11,0,4.66,0,.25-.08.33-.33.33-.69-.01-1.37,0-2.06,0-.25,0-.34.07-.33.33.01.65,0,1.3,0,1.95,0,.34.01.35.36.35,1.23,0,2.46,0,3.69,0ZM48.6,13.54c0-1.67,0-3.34,0-5.02,0-.25-.07-.36-.34-.35-.65.02-1.3.01-1.95,0-.26,0-.35.07-.35.34.02.69,0,1.37,0,2.06,0,.23-.07.32-.31.32-.71-.01-1.43-.01-2.14,0-.24,0-.31-.09-.31-.32.01-.69,0-1.37,0-2.06,0-.24-.07-.34-.32-.34-.66.01-1.32.01-1.98,0-.25,0-.33.08-.33.33.01.66,0,1.32,0,1.98,0,.4,0,.4-.42.4-1.56,0-3.13,0-4.69,0-.23,0-.32.07-.32.31,0,2.46,0,4.92,0,7.37,0,.26.1.33.34.32.63-.01,1.27,0,1.9,0,.38,0,.39,0,.39-.4,0-1.54,0-3.07,0-4.61,0-.37,0-.37.38-.37,1.58,0,3.16,0,4.74,0,.36,0,.37.01.37.39,0,.64,0,1.28,0,1.93,0,.39,0,.4.39.4.65,0,1.3.01,1.95,0,.27,0,.34.09.33.34-.01.67,0,1.34,0,2.01,0,.25.09.33.33.33.63-.01,1.27,0,1.9,0,.4,0,.4,0,.4-.42,0-1.64,0-3.29,0-4.93ZM56.72,75.72c0-.8,0-1.59,0-2.39,0-.25-.08-.33-.33-.33-.69.01-1.37,0-2.06,0-.24,0-.33-.08-.33-.33.01-.7,0-1.39,0-2.09,0-.22-.07-.31-.3-.3-.68,0-1.36.01-2.03,0-.23,0-.29.09-.29.31,0,1.57,0,3.15,0,4.72,0,.24.09.31.32.31.69-.01,1.37,0,2.06,0,.24,0,.34.07.34.32-.01.71-.01,1.43,0,2.14,0,.25-.09.34-.33.33-.68,0-1.36,0-2.03,0-.25,0-.35.07-.35.34.01,1.55,0,3.09,0,4.64,0,.25.08.34.33.33.66-.01,1.32,0,1.98,0,.39,0,.4.01.4.39,0,.65,0,1.3,0,1.95,0,.35.01.36.35.36.64,0,1.28,0,1.93,0,.34,0,.35,0,.35-.36,0-1.54,0-3.07,0-4.61,0-.41,0-.41.4-.41,1.56,0,3.11,0,4.67,0,.24,0,.32-.08.32-.31-.01-.63,0-1.27,0-1.9,0-.42,0-.42-.42-.42-1.53,0-3.06,0-4.58,0-.35,0-.37-.02-.37-.37,0-.78,0-1.56,0-2.33ZM43.3,83.8c-.77,0-1.54,0-2.31,0q-.4,0-.4.39c0,.61,0,1.23,0,1.84,0,.39,0,.39.4.39,1.55,0,3.09,0,4.64,0,.25,0,.35.07.35.34-.01.69,0,1.37,0,2.06,0,.4,0,.4-.41.4-1.55,0-3.09,0-4.64,0-.25,0-.34.08-.33.33.01.66.01,1.32,0,1.98,0,.26.09.33.34.32.68-.01,1.36,0,2.03,0,.27,0,.35.1.34.35-.01.67,0,1.34,0,2.01,0,.23.07.33.31.32.65,0,1.3-.01,1.95,0,.25,0,.33-.09.33-.34-.01-.65,0-1.3,0-1.95,0-.38.01-.38.38-.38.67,0,1.34,0,2.01,0,.25,0,.34-.08.33-.33-.01-.69,0-1.37,0-2.06,0-.24.09-.33.33-.33.69.01,1.37,0,2.06,0,.24,0,.32-.08.31-.32,0-1.56,0-3.13,0-4.69,0-.25-.08-.34-.33-.33-.67.01-1.34,0-2.01,0-.36,0-.37-.01-.37-.36,0-.67,0-1.34,0-2.01,0-.22-.08-.31-.3-.3-.67,0-1.34.01-2.01,0-.25,0-.33.09-.33.34.01.68,0,1.36,0,2.03,0,.24-.08.31-.32.31-.79-.01-1.57,0-2.36,0ZM70.23,33.85c0-1.23,0-2.46,0-3.69q0-.39-.4-.39c-.61,0-1.21,0-1.82,0q-.41,0-.41.41c0,2.39,0,4.77,0,7.16,0,.62.04.56-.58.57-.61,0-1.21,0-1.82,0-.23,0-.32.08-.32.31.01.66.01,1.32,0,1.98,0,.27.1.34.35.34.63-.01,1.27,0,1.9,0q.46,0,.47.45c0,2.42,0,4.85,0,7.27,0,.35,0,.36.37.36.62,0,1.25,0,1.87,0,.38,0,.38,0,.38-.38,0-1.49,0-2.98,0-4.48,0-.57-.1-.56.58-.56.59,0,1.18,0,1.76,0,.25,0,.33-.09.33-.33,0-1.55,0-3.09,0-4.64,0-.25-.09-.33-.33-.33-.67.01-1.34,0-2.01,0-.26,0-.34-.09-.34-.35.01-1.24,0-2.48,0-3.72ZM74.27,56.7c1.24,0,2.48,0,3.71,0,.25,0,.34-.08.33-.33-.01-.65-.01-1.3,0-1.95,0-.24-.09-.31-.32-.31-.68,0-1.36,0-2.03,0-.26,0-.37-.08-.37-.36.02-.65,0-1.3,0-1.95,0-.4,0-.4-.39-.4-2.4,0-4.81,0-7.21,0-.39,0-.4,0-.4.39,0,1.53,0,3.05,0,4.58,0,.4,0,.4-.41.4-.65,0-1.3,0-1.95,0-.34,0-.35,0-.35.36,0,.64,0,1.28,0,1.92,0,.26.08.35.34.34,1.55,0,3.11,0,4.66,0,.27,0,.34-.1.33-.35-.01-.66,0-1.32,0-1.98,0-.37,0-.38.38-.38,1.22,0,2.44,0,3.66,0ZM8.16,54.05c0,1.64,0,3.27,0,4.91q0,.45.44.45c.61,0,1.23,0,1.84,0q.43,0,.43.41c0,.66,0,1.32,0,1.98,0,.23.07.32.31.32.67-.01,1.34-.01,2.01,0,.24,0,.31-.09.31-.32-.01-.64,0-1.28,0-1.93q0-.47.46-.47c1.53,0,3.05,0,4.58,0,.38,0,.38,0,.38-.37,0-.62,0-1.25,0-1.87,0-.38,0-.38-.38-.38-2.42,0-4.84,0-7.27,0-.09,0-.18,0-.27,0-.15,0-.21-.07-.21-.22,0-.1,0-.2,0-.3,0-2.4,0-4.81,0-7.21,0-.34-.01-.36-.35-.36-.64,0-1.28,0-1.93,0-.34,0-.35,0-.35.35,0,1.66,0,3.33,0,4.99ZM62.09,9.49c0-1.24,0-2.48,0-3.71,0-.24-.08-.32-.32-.31-.66.01-1.32.01-1.98,0-.27,0-.34.1-.33.35.01.67,0,1.34,0,2.01,0,.36,0,.36-.37.36-1.52,0-3.04,0-4.55,0q-.45,0-.45.44c0,.64,0,1.28,0,1.92,0,.26-.08.35-.34.35-.69-.01-1.37,0-2.06,0-.24,0-.32.08-.31.32.01.66.01,1.32,0,1.98,0,.25.07.34.33.33.69-.01,1.37,0,2.06,0,.25,0,.34.08.33.33-.01.67,0,1.34,0,2.01,0,.38,0,.38.37.38.62,0,1.25,0,1.87,0,.38,0,.38,0,.38-.38,0-1.57,0-3.14,0-4.72,0-.24.07-.34.32-.33.71.01,1.43.01,2.14,0,.22,0,.3.08.3.3,0,.7,0,1.41,0,2.11,0,.22.07.31.3.3.66,0,1.32,0,1.98,0,.34,0,.35-.01.35-.36,0-1.22,0-2.44,0-3.66ZM86.49,29.8c0,.8,0,1.59,0,2.39,0,.22-.07.3-.3.3-.68-.01-1.36,0-2.03,0-.26,0-.35.08-.35.34.01.69,0,1.37,0,2.06,0,.23-.08.32-.32.32-.7-.01-1.39,0-2.09,0-.22,0-.31.08-.3.3,0,.67,0,1.34,0,2.01,0,.23.07.32.31.32,1.55,0,3.11,0,4.66,0,.26,0,.33-.1.32-.34-.01-.65,0-1.3,0-1.95,0-.42,0-.42.43-.42,1.55,0,3.09,0,4.64,0,.25,0,.35-.06.35-.33-.01-1.56,0-3.13,0-4.69,0-.23-.08-.32-.31-.32-.7.01-1.39,0-2.09,0-.24,0-.32-.08-.31-.32,0-.68,0-1.36,0-2.03,0-.25-.09-.33-.33-.33-.66.01-1.32.01-1.98,0-.23,0-.32.08-.32.32.01.8,0,1.59,0,2.39ZM63.5,24.4c-1.24,0-2.48,0-3.72,0-.24,0-.32.08-.32.32.01.69,0,1.37,0,2.06,0,.25-.08.34-.33.33-.68,0-1.36,0-2.03,0-.23,0-.32.09-.32.32,0,.61,0,1.23,0,1.84,0,.42,0,.43.42.43,1.52,0,3.04,0,4.56,0,.4,0,.4,0,.41.41,0,.66,0,1.32,0,1.98,0,.23.07.33.31.32.67,0,1.34,0,2.01,0,.24,0,.31-.09.31-.32,0-.69,0-1.37,0-2.06,0-.25.09-.34.33-.33.67,0,1.34,0,2.01,0,.36,0,.37-.01.37-.36,0-1.53,0-3.06,0-4.58,0-.34-.01-.35-.36-.35-1.22,0-2.44,0-3.66,0ZM82.4,86.42c1.21,0,2.42,0,3.63,0,.36,0,.37-.01.37-.36,0-2.42,0-4.84,0-7.27,0-.35-.02-.37-.37-.37-2.42,0-4.84,0-7.27,0-.35,0-.37.02-.37.37,0,2.42,0,4.84,0,7.27,0,.36,0,.37.36.37,1.21,0,2.42,0,3.63,0ZM37.8,51.41c-.77,0-1.54,0-2.31,0-.39,0-.4-.01-.41-.42,0-.66,0-1.32,0-1.98,0-.23-.08-.32-.32-.32-.68.01-1.36,0-2.03,0-.25,0-.33-.08-.33-.33.01-.69,0-1.37,0-2.06,0-.25-.07-.34-.33-.33-.66.01-1.32.01-1.98,0-.25,0-.33.08-.33.33,0,1.56,0,3.13,0,4.69,0,.23.08.32.31.32.68-.01,1.36,0,2.03,0,.35,0,.36.02.37.37,0,.69,0,1.37,0,2.06,0,.27-.09.37-.36.36-.68-.01-1.36,0-2.03,0-.23,0-.32.08-.32.32,0,.65.01,1.3,0,1.95,0,.25.1.33.34.32,1.55,0,3.09,0,4.64,0,.25,0,.33-.09.33-.34-.01-.65,0-1.3,0-1.95,0-.38.01-.38.38-.38,1.57,0,3.15,0,4.72,0,.23,0,.32-.07.32-.31-.01-.67-.01-1.34,0-2.01,0-.24-.09-.31-.32-.31-.8,0-1.59,0-2.39,0ZM25.68,78.34c1.22,0,2.44,0,3.66,0,.36,0,.37,0,.37-.36,0-1.58,0-3.16,0-4.74,0-.23.07-.32.31-.32.7.01,1.39,0,2.09,0,.23,0,.33-.06.32-.31-.01-.67-.01-1.34,0-2.01,0-.24-.08-.32-.31-.31-1.57,0-3.14,0-4.72,0-.24,0-.31.09-.31.32,0,.68,0,1.36,0,2.03,0,.35-.01.36-.37.36-.64,0-1.28,0-1.92,0q-.41,0-.41.4c0,.65-.01,1.3,0,1.95,0,.27-.08.37-.35.36-.68-.02-1.36,0-2.03,0-.24,0-.34.07-.33.32.01.65,0,1.3,0,1.95,0,.34,0,.35.35.35,1.22,0,2.44,0,3.66,0ZM78.4,70.29c-.8,0-1.59,0-2.39,0-.25,0-.33.09-.32.33,0,1.55,0,3.11,0,4.66,0,.26.08.35.34.34,1.55,0,3.11-.01,4.66,0,.27,0,.34-.1.34-.35-.01-.67,0-1.34,0-2.01,0-.27.08-.37.35-.36.67.02,1.34,0,2.01,0,.35,0,.36-.01.36-.35,0-.66,0-1.32,0-1.98,0-.37,0-.38.38-.38.66,0,1.32,0,1.98,0,.22,0,.31-.07.31-.3,0-.66,0-1.32,0-1.98,0-.24-.09-.32-.32-.31-1.55,0-3.11,0-4.66,0-.24,0-.32.09-.31.32,0,.67,0,1.34,0,2.01,0,.28-.09.36-.36.35-.79-.01-1.57,0-2.36,0ZM28.37,62.12c1.24,0,2.48,0,3.71,0,.24,0,.34-.07.33-.32-.01-.64,0-1.28,0-1.93,0-.37,0-.37-.38-.37-1.56,0-3.13,0-4.69,0-.28,0-.36-.09-.35-.36.02-.68,0-1.36,0-2.03,0-.25-.08-.33-.33-.33-.69.01-1.37,0-2.06,0-.25,0-.33-.09-.33-.33.01-.68,0-1.36,0-2.03,0-.24-.09-.32-.32-.32-1.55,0-3.11,0-4.66,0-.24,0-.32.09-.32.32,0,.64.01,1.28,0,1.93,0,.26.08.35.34.35.68-.01,1.36,0,2.03,0,.22,0,.3.08.3.3,0,.7,0,1.39,0,2.09,0,.23.08.32.31.32.7-.01,1.39,0,2.09,0,.23,0,.32.08.32.31-.01.69,0,1.37,0,2.06,0,.26.08.34.34.34,1.22-.01,2.44,0,3.66,0ZM78.39,27.1c-.8,0-1.59,0-2.39,0-.23,0-.32.08-.32.31,0,1.56,0,3.13,0,4.69,0,.22.08.3.3.3,1.57,0,3.14,0,4.72,0,.23,0,.32-.08.32-.32-.01-.69,0-1.37,0-2.06,0-.27.1-.35.35-.34.66.01,1.32,0,1.98,0,.38,0,.39,0,.39-.4,0-.66,0-1.32,0-1.98,0-.23.08-.3.3-.29.69,0,1.37,0,2.06,0,.24,0,.32-.08.32-.32,0-.66-.01-1.32,0-1.98,0-.24-.08-.34-.33-.33-1.55,0-3.09,0-4.64,0-.27,0-.34.1-.34.35.01.65,0,1.3,0,1.95,0,.39-.01.4-.42.41-.77,0-1.54,0-2.3,0ZM62.15,83.8c-.76,0-1.52,0-2.28,0q-.4,0-.4.39c0,.67-.01,1.34,0,2.01,0,.25-.09.33-.33.32-.67-.01-1.34,0-2.01,0-.27,0-.35.1-.34.35.01.68,0,1.36,0,2.03,0,.24-.08.34-.33.33-.69-.01-1.37,0-2.06,0-.23,0-.32.08-.32.31,0,1.56,0,3.11,0,4.67,0,.23.08.32.31.32.65,0,1.3,0,1.95,0,.34,0,.36-.02.36-.35,0-.65,0-1.3,0-1.95,0-.36,0-.37.36-.37.64,0,1.28,0,1.93,0,.38,0,.39,0,.39-.4,0-.65,0-1.3,0-1.95,0-.26.08-.37.36-.36.66.02,1.32,0,1.98,0,.36,0,.37,0,.37-.36,0-.67,0-1.34,0-2.01,0-.26.09-.35.35-.35.69.01,1.37,0,2.06,0,.24,0,.32-.09.31-.32-.01-.66-.01-1.32,0-1.98,0-.25-.08-.33-.33-.33-.78.01-1.55,0-2.33,0ZM24.3,29.77c-.8,0-1.59,0-2.39,0-.25,0-.33-.09-.33-.33,0-.66,0-1.32,0-1.98,0-.35-.02-.36-.37-.36-.62,0-1.25,0-1.87,0-.26,0-.35.09-.35.35.01.67,0,1.34,0,2.01,0,.24-.09.33-.33.33-.7-.01-1.39,0-2.09,0-.21,0-.29.08-.29.29,0,.68,0,1.36,0,2.03,0,.24.09.32.32.31.63,0,1.27,0,1.9,0q.49,0,.49.5c0,.62,0,1.25,0,1.87,0,.24.07.34.33.33.64-.01,1.28-.01,1.92,0,.26,0,.35-.09.34-.35-.01-.67,0-1.34,0-2.01,0-.25.08-.36.34-.36.71.01,1.43,0,2.14,0,.23,0,.32.08.32.32-.01.7,0,1.39,0,2.09,0,.22.08.3.3.3.67,0,1.34,0,2.01,0,.23,0,.32-.07.32-.31,0-1.57,0-3.15,0-4.72,0-.24-.08-.32-.32-.31-.8.01-1.59,0-2.39,0ZM83.73,60.81c0-1.22,0-2.44,0-3.66,0-.35,0-.36-.37-.36-.64,0-1.28,0-1.92,0-.25,0-.34.08-.33.33.01.69,0,1.37,0,2.06,0,.24-.08.34-.33.33-.69-.01-1.37,0-2.06,0-.25,0-.33.08-.33.33.01.69,0,1.37,0,2.06,0,.25-.09.33-.33.33-.7,0-1.39,0-2.09,0-.22,0-.3.08-.3.3,0,.67.01,1.34,0,2.01,0,.26.09.32.34.32,2.46,0,4.92,0,7.37,0,.26,0,.35-.08.34-.34-.01-1.23,0-2.46,0-3.69ZM17.57,43.2c1.21,0,2.42,0,3.63,0,.35,0,.37-.02.37-.36,0-.66,0-1.32,0-1.98,0-.24.07-.34.33-.33.69.01,1.37,0,2.06,0,.23,0,.32-.07.32-.31,0-1.57,0-3.14,0-4.72,0-.24-.09-.31-.32-.31-.66.01-1.32.01-1.98,0-.25,0-.34.07-.33.33.01.69,0,1.37,0,2.06,0,.25-.08.33-.33.33-.68-.01-1.36,0-2.03,0-.23,0-.32.08-.32.32,0,.65,0,1.3,0,1.95,0,.43-.01.44-.44.44-1.53,0-3.05,0-4.58,0-.38,0-.39,0-.39.4,0,.61,0,1.21,0,1.82,0,.36.01.37.36.37,1.21,0,2.42,0,3.63,0ZM54.02,32.4h0c.8,0,1.59,0,2.39,0,.23,0,.33-.07.32-.31-.01-.67-.01-1.34,0-2.01,0-.26-.1-.32-.34-.32-.68.01-1.36,0-2.03,0-.28,0-.36-.09-.35-.36.02-.67,0-1.34,0-2.01,0-.24-.09-.32-.32-.31-.66,0-1.32.01-1.98,0-.25,0-.34.08-.33.33.01.68,0,1.36,0,2.03,0,.23-.07.32-.31.31-.7-.01-1.41,0-2.11,0-.2,0-.29.06-.29.28,0,1.59,0,3.18,0,4.77,0,.21.07.29.28.29.68,0,1.36,0,2.03,0,.24,0,.31-.09.31-.32,0-.68,0-1.36,0-2.03,0-.28.1-.36.36-.36.79.01,1.57,0,2.36,0ZM68.89,62.21c-1.23,0-2.46,0-3.69,0-.24,0-.32.08-.31.32.01.67.01,1.34,0,2.01,0,.24.09.31.32.31.66-.01,1.32,0,1.98,0,.41,0,.41,0,.41.4,0,.66.01,1.32,0,1.98,0,.27.09.34.35.34,1.54,0,3.07,0,4.61,0,.26,0,.35-.08.35-.34,0-1.55,0-3.11,0-4.66,0-.26-.1-.34-.35-.34-1.22,0-2.44,0-3.66,0ZM59.43,48.7h0c-.8,0-1.61,0-2.41,0-.22,0-.3-.08-.3-.3,0-.7,0-1.39,0-2.09,0-.25-.07-.34-.33-.33-.65.01-1.3,0-1.95,0-.34,0-.35.01-.35.36,0,1.54,0,3.07,0,4.61,0,.36,0,.37.36.37,1.56,0,3.13,0,4.69,0,.25,0,.33.08.33.33-.01.7,0,1.39,0,2.09,0,.22.07.31.3.3.68,0,1.36,0,2.03,0,.23,0,.3-.09.3-.3,0-1.57,0-3.14,0-4.72,0-.23-.08-.32-.31-.32-.79.01-1.57,0-2.36,0ZM59.49,45.9c.73,0,1.46,0,2.2,0q.49,0,.5.48c0,.64,0,1.28,0,1.92,0,.22.06.31.29.31.68,0,1.36,0,2.03,0,.22,0,.3-.08.3-.3,0-1.58,0-3.16,0-4.74,0-.23-.09-.3-.31-.3-.7,0-1.39,0-2.09,0-.25,0-.33-.09-.32-.33.01-.67,0-1.34,0-2.01,0-.27-.09-.35-.35-.34-.65.01-1.3.01-1.95,0-.25,0-.33.08-.33.33.01.68,0,1.36,0,2.03,0,.23-.07.32-.31.31-.68-.01-1.36,0-2.03,0-.24,0-.34.07-.34.32.01.66.01,1.32,0,1.98,0,.25.09.33.34.33.79-.01,1.57,0,2.36,0ZM16.23,45.99c-1.67,0-3.34,0-5.02,0-.34,0-.35,0-.35.35,0,.61,0,1.23,0,1.84q0,.42.42.42c2.45,0,4.9,0,7.35,0,.27,0,.37.08.37.36-.01.68,0,1.36,0,2.03,0,.25.09.33.33.33.63-.01,1.27,0,1.9,0,.34,0,.36-.01.36-.35,0-1.55,0-3.09,0-4.64,0-.33-.02-.35-.36-.35-1.66,0-3.33,0-4.99,0ZM59.39,20.33c0-1.22,0-2.44,0-3.66,0-.34-.02-.36-.35-.36-.63,0-1.27,0-1.9,0-.26,0-.35.09-.34.35.01.61,0,1.23,0,1.84q0,.48-.47.48c-.63,0-1.27.01-1.9,0-.26,0-.34.09-.34.34,0,1.55,0,3.09,0,4.64,0,.34.01.35.35.35,1.53,0,3.05,0,4.58,0,.35,0,.36-.01.36-.37,0-1.2,0-2.4,0-3.61ZM33.78,43.2c1.23,0,2.46,0,3.68,0,.24,0,.34-.08.33-.33-.01-.64-.01-1.28,0-1.92,0-.26-.09-.35-.35-.34-.65.01-1.3,0-1.95,0-.39,0-.41-.02-.41-.42,0-.64,0-1.28,0-1.92,0-.34-.02-.36-.35-.36-1.54,0-3.07,0-4.61,0-.25,0-.35.08-.35.34,0,1.54,0,3.07,0,4.61,0,.33.02.35.36.35,1.21,0,2.42,0,3.63,0ZM78.31,41.91c0-1.21,0-2.42,0-3.63,0-.36,0-.37-.36-.37-.63,0-1.26,0-1.9,0-.36,0-.36,0-.36.37,0,1.55,0,3.11,0,4.66,0,.28-.09.36-.36.35-.69-.02-1.37,0-2.06,0-.22,0-.31.07-.3.3,0,.66,0,1.32,0,1.98,0,.34.01.35.35.35,1.54,0,3.07,0,4.61,0,.36,0,.37-.01.37-.36,0-1.21,0-2.42,0-3.63ZM45.94,59.41c.78,0,1.55,0,2.33,0,.23,0,.33-.07.32-.31,0-.67,0-1.34,0-2.01,0-.24-.09-.32-.32-.31-.63.01-1.27,0-1.9,0q-.5,0-.5-.51c0-.61,0-1.23,0-1.84,0-.23-.08-.32-.32-.32-1.55,0-3.11,0-4.66,0-.23,0-.32.08-.32.32.01.64,0,1.28,0,1.93,0,.33.02.35.36.35.66,0,1.32,0,1.98,0,.27,0,.37.09.37.36-.01.68,0,1.36,0,2.03,0,.23.08.32.32.32.78,0,1.55,0,2.33,0ZM16.24,54.03c.8,0,1.59,0,2.39,0,.21,0,.29-.07.29-.28,0-.69,0-1.37,0-2.06,0-.21-.08-.28-.29-.28-1.58,0-3.16,0-4.74,0-.25,0-.31.1-.3.33,0,.66.01,1.32,0,1.98,0,.25.09.33.33.32.78-.01,1.55,0,2.33,0ZM37.79,89.16c0-.79,0-1.57,0-2.36,0-.21-.07-.29-.28-.29-.69,0-1.37,0-2.06,0-.21,0-.28.08-.28.29,0,1.58,0,3.16,0,4.74,0,.22.07.31.3.3.67,0,1.34-.01,2.01,0,.25,0,.33-.09.33-.33-.01-.79,0-1.57,0-2.36ZM37.84,35.19c-.79,0-1.57,0-2.36,0-.24,0-.32.08-.31.32.01.67,0,1.34,0,2.01,0,.22.07.31.3.3,1.58,0,3.16,0,4.74,0,.23,0,.3-.08.3-.3,0-.66-.01-1.32,0-1.98,0-.26-.07-.35-.34-.35-.78.01-1.55,0-2.33,0ZM91.88,56.79c-.79,0-1.57,0-2.36,0-.25,0-.33.09-.33.33.01.66.01,1.32,0,1.98,0,.23.07.32.31.32,1.57,0,3.14,0,4.72,0,.24,0,.32-.09.31-.32-.01-.66-.01-1.32,0-1.98,0-.25-.07-.34-.33-.33-.78.01-1.55,0-2.33,0ZM16.25,37.81c.78,0,1.55,0,2.33,0,.24,0,.34-.06.34-.32-.01-.67-.01-1.34,0-2.01,0-.22-.08-.3-.3-.3-1.58,0-3.16,0-4.74,0-.23,0-.3.09-.3.31,0,.67.01,1.34,0,2.01,0,.24.08.32.32.32.79-.01,1.57,0,2.36,0ZM29.73,67.54c.79,0,1.57,0,2.36,0,.27,0,.34-.09.34-.35-.01-.66-.01-1.32,0-1.98,0-.22-.07-.3-.3-.3-1.58,0-3.16,0-4.74,0-.23,0-.3.09-.3.31,0,.67,0,1.34,0,2.01,0,.23.08.32.31.32.78-.01,1.55,0,2.33,0ZM2.78,54.03c0,.79,0,1.57,0,2.36,0,.23.07.33.31.32.67,0,1.34,0,2,0,.24,0,.32-.08.31-.32,0-1.55,0-3.11,0-4.66,0-.23-.07-.33-.31-.32-.67.01-1.34.01-2,0-.24,0-.32.08-.32.32,0,.77,0,1.54,0,2.3ZM62.09,94.58c0-.78,0-1.55,0-2.33,0-.23-.07-.33-.31-.32-.67,0-1.34,0-2.01,0-.24,0-.31.09-.31.32,0,1.55,0,3.11,0,4.66,0,.23.07.33.31.32.67,0,1.34,0,2.01,0,.24,0,.31-.09.31-.32,0-.78,0-1.55,0-2.33ZM26.99,18.95c0-.78,0-1.55,0-2.33,0-.23-.07-.33-.31-.32-.67,0-1.34,0-2,0-.24,0-.31.09-.31.32,0,1.55,0,3.11,0,4.66,0,.23.07.32.31.32.67-.01,1.34-.01,2,0,.24,0,.32-.08.31-.32-.01-.78,0-1.55,0-2.33ZM32.44,86.42c.78,0,1.55,0,2.33,0,.23,0,.32-.08.32-.31,0-.67,0-1.34,0-2.01,0-.24-.09-.31-.32-.31-1.55,0-3.11,0-4.66,0-.23,0-.32.07-.32.31,0,.67,0,1.34,0,2.01,0,.24.09.31.32.31.78,0,1.55,0,2.33,0ZM45.95,24.31c.78,0,1.55,0,2.33,0,.24,0,.32-.08.32-.32,0-.67,0-1.34,0-2.01,0-.22-.08-.3-.3-.3-1.56,0-3.13,0-4.69,0-.24,0-.32.08-.32.32,0,.66.01,1.32,0,1.98,0,.24.08.34.33.33.78-.01,1.55,0,2.33,0ZM18.93,75.62c.78,0,1.55,0,2.33,0,.25,0,.33-.09.33-.33-.01-.66,0-1.32,0-1.98,0-.23-.08-.32-.31-.32-1.56,0-3.12,0-4.69,0-.23,0-.3.09-.3.3,0,.67,0,1.34,0,2,0,.23.07.32.31.32.78-.01,1.55,0,2.33,0ZM72.95,5.39c.78,0,1.55,0,2.33,0,.22,0,.33-.06.33-.31-.01-.66,0-1.32,0-1.98,0-.22-.07-.31-.3-.31-1.56,0-3.12,0-4.69,0-.24,0-.32.09-.31.32,0,.63,0,1.26,0,1.9,0,.35.02.37.36.37.76,0,1.52,0,2.28,0ZM87.77,67.54c.36,0,.72,0,1.08,0,.19,0,.26-.08.26-.26,0-.7,0-1.39,0-2.09,0-.19-.07-.28-.27-.28-.7,0-1.39,0-2.09,0-.2,0-.27.08-.27.27,0,.69,0,1.37,0,2.06,0,.23.09.3.31.29.32-.01.65,0,.98,0ZM49.96,27.02c.36,0,.72,0,1.08,0,.19,0,.26-.08.26-.26,0-.7,0-1.39,0-2.09,0-.19-.07-.28-.27-.28-.7,0-1.39,0-2.09,0-.2,0-.27.08-.27.27,0,.7,0,1.39,0,2.09,0,.21.09.27.28.26.33,0,.67,0,1,0ZM39.21,45.9c.33,0,.65,0,.98,0,.23,0,.33-.06.32-.31-.01-.68,0-1.35,0-2.03,0-.21-.07-.29-.28-.29-.69,0-1.37,0-2.06,0-.22,0-.28.09-.28.29,0,.69,0,1.37,0,2.06,0,.2.07.28.27.28.35,0,.7,0,1.06,0ZM75.6,33.8c0-.35,0-.7,0-1.06,0-.18-.07-.26-.26-.26-.7,0-1.41,0-2.11,0-.19,0-.26.08-.26.26,0,.7,0,1.41,0,2.11,0,.17.07.25.24.25.71,0,1.43,0,2.14,0,.17,0,.24-.08.24-.25,0-.35,0-.7,0-1.06ZM64.9,50.01c0,.34,0,.69,0,1.03,0,.19.06.28.26.28.7,0,1.41,0,2.11,0,.17,0,.25-.07.25-.24,0-.71,0-1.43,0-2.14,0-.17-.08-.24-.25-.24-.7,0-1.41,0-2.11,0-.21,0-.27.09-.26.28,0,.34,0,.69,0,1.03ZM97.24,44.61c0-.34,0-.69,0-1.03,0-.21-.06-.31-.29-.31-.69.01-1.37,0-2.06,0-.2,0-.28.07-.28.27,0,.7,0,1.39,0,2.09,0,.2.08.27.28.27.7,0,1.39,0,2.09,0,.18,0,.26-.07.26-.26,0-.34,0-.69,0-1.03ZM89.2,63.52c0,.34,0,.69,0,1.03,0,.21.08.28.29.28.69,0,1.37,0,2.06,0,.2,0,.28-.07.27-.27,0-.7,0-1.39,0-2.09,0-.2-.08-.27-.28-.27-.7,0-1.39,0-2.09,0-.18,0-.26.07-.26.26,0,.35,0,.7,0,1.06ZM60.76,75.62c.35,0,.7,0,1.06,0,.2,0,.28-.07.28-.27,0-.7,0-1.39,0-2.09,0-.2-.08-.27-.28-.27-.7,0-1.39,0-2.09,0-.18,0-.26.07-.26.26,0,.7,0,1.41,0,2.11,0,.19.08.26.26.25.34,0,.69,0,1.03,0ZM90.54,73c-.35,0-.7,0-1.06,0-.19,0-.28.05-.28.26,0,.7,0,1.41,0,2.11,0,.17.07.25.24.25.71,0,1.43,0,2.14,0,.17,0,.24-.08.24-.25,0-.7,0-1.41,0-2.11,0-.21-.09-.27-.28-.26-.33,0-.67,0-1,0ZM87.79,45.9c.35,0,.7,0,1.06,0,.18,0,.27-.06.27-.25,0-.7,0-1.41,0-2.11,0-.19-.08-.26-.26-.26-.7,0-1.41,0-2.11,0-.17,0-.25.06-.25.24,0,.71,0,1.43,0,2.14,0,.17.07.25.24.24.35,0,.7,0,1.06,0ZM35.17,95.91c0,.35,0,.7,0,1.06,0,.18.07.26.26.26.7,0,1.41,0,2.11,0,.18,0,.26-.08.26-.26,0-.7,0-1.41,0-2.11,0-.18-.07-.26-.26-.26-.7,0-1.41,0-2.11,0-.18,0-.26.07-.26.26,0,.35,0,.7,0,1.06ZM49.96,78.33c.36,0,.72,0,1.08,0,.19,0,.26-.08.26-.26,0-.7,0-1.39,0-2.09,0-.19-.07-.28-.27-.28-.7,0-1.39,0-2.09,0-.2,0-.27.08-.27.27,0,.69,0,1.37,0,2.06,0,.23.09.3.31.29.32-.01.65,0,.98,0ZM31.11,81.05c.34,0,.69,0,1.03,0,.19,0,.28-.06.28-.26,0-.7,0-1.41,0-2.11,0-.19-.08-.26-.26-.26-.7,0-1.41,0-2.11,0-.18,0-.26.08-.26.26,0,.7,0,1.41,0,2.11,0,.19.08.26.26.25.35,0,.7,0,1.06,0ZM18.91,25.72c0-.35,0-.7,0-1.06,0-.18-.06-.27-.25-.27-.7,0-1.41,0-2.11,0-.18,0-.26.08-.26.26,0,.7,0,1.41,0,2.11,0,.17.06.25.24.25.71,0,1.43,0,2.14,0,.17,0,.25-.07.24-.24,0-.35,0-.7,0-1.06ZM76.97,24.31c.36,0,.72,0,1.08,0,.19,0,.26-.08.26-.26,0-.7,0-1.41,0-2.11,0-.17-.07-.25-.24-.25-.71,0-1.43,0-2.14,0-.17,0-.24.07-.24.25,0,.7,0,1.41,0,2.11,0,.21.09.27.28.26.33,0,.67,0,1,0ZM29.71,36.53c0-.35,0-.7,0-1.06,0-.19-.06-.28-.26-.28-.7,0-1.41,0-2.11,0-.17,0-.25.07-.25.24,0,.71,0,1.43,0,2.14,0,.17.08.24.25.24.7,0,1.41,0,2.11,0,.21,0,.27-.09.26-.28,0-.33,0-.67,0-1ZM39.18,62.12c.35,0,.7,0,1.06,0,.18,0,.26-.06.26-.25,0-.7,0-1.41,0-2.11,0-.19-.08-.26-.26-.26-.7,0-1.41,0-2.11,0-.17,0-.25.06-.25.24,0,.71,0,1.43,0,2.14,0,.17.07.24.24.24.35,0,.7,0,1.06,0ZM36.45,59.41c.36,0,.72,0,1.08,0,.19,0,.26-.08.26-.26,0-.7,0-1.41,0-2.11,0-.17-.06-.25-.24-.25-.71,0-1.43,0-2.14,0-.17,0-.24.07-.24.25,0,.7,0,1.41,0,2.11,0,.21.09.27.28.26.33,0,.67,0,1,0ZM28.37,13.51c.35,0,.7,0,1.06,0,.19,0,.28-.06.28-.26,0-.7,0-1.39,0-2.09,0-.2-.07-.28-.27-.27-.7,0-1.39,0-2.09,0-.2,0-.27.09-.27.28,0,.7,0,1.39,0,2.09,0,.18.07.26.26.26.34,0,.69,0,1.03,0ZM79.74,89.22c-.35,0-.7,0-1.06,0-.19,0-.28.06-.28.27,0,.7,0,1.39,0,2.09,0,.2.07.27.27.27.7,0,1.39,0,2.09,0,.18,0,.27-.06.26-.25,0-.7,0-1.41,0-2.11,0-.18-.07-.26-.26-.26-.34,0-.69,0-1.03,0ZM28.41,91.84c.33,0,.67,0,1,0,.2,0,.3-.06.29-.28,0-.69,0-1.37,0-2.06,0-.21-.07-.29-.29-.29-.69,0-1.37,0-2.06,0-.19,0-.28.06-.28.27,0,.7,0,1.39,0,2.09,0,.2.07.28.27.27.35,0,.7,0,1.06,0ZM94.53,36.49c0-.34,0-.69,0-1.03,0-.18-.06-.26-.25-.26-.7,0-1.41,0-2.11,0-.19,0-.26.07-.26.26,0,.7,0,1.41,0,2.11,0,.19.09.25.27.25.7,0,1.39,0,2.09,0,.2,0,.28-.08.27-.27,0-.35,0-.7,0-1.06ZM70.31,12.17c0,.34,0,.69,0,1.03,0,.21.06.31.29.31.67,0,1.34,0,2.01,0,.21,0,.29-.07.29-.28,0-.69,0-1.37,0-2.06,0-.19-.06-.28-.27-.28-.69,0-1.37,0-2.06,0-.21,0-.27.1-.26.28,0,.33,0,.67,0,1ZM25.66,43.2c.35,0,.7,0,1.06,0,.19,0,.28-.06.28-.27,0-.69,0-1.37,0-2.06,0-.18-.07-.27-.25-.26-.7,0-1.41,0-2.11,0-.19,0-.26.08-.25.26,0,.69,0,1.37,0,2.06,0,.2.09.27.28.27.33,0,.67,0,1,0ZM48.68,68.89c0,.33.01.67,0,1,0,.23.08.32.31.32.67,0,1.34,0,2.01,0,.21,0,.31-.07.31-.3,0-.67,0-1.34,0-2.01,0-.21-.08-.29-.29-.29-.69,0-1.37,0-2.06,0-.21,0-.29.09-.28.29,0,.32,0,.65,0,.98ZM87.8,54.12c-.35,0-.7,0-1.06,0-.18,0-.26.07-.26.26,0,.69,0,1.37,0,2.06,0,.2.08.27.28.27.7,0,1.39,0,2.09,0,.18,0,.26-.07.26-.26,0-.69,0-1.37,0-2.06,0-.2-.08-.27-.28-.27-.34,0-.69,0-1.03,0ZM54.01,17.6c0-.34,0-.69,0-1.03,0-.18-.07-.27-.25-.26-.7,0-1.41,0-2.11,0-.19,0-.26.08-.25.26,0,.69,0,1.37,0,2.06,0,.18.07.27.25.26.7,0,1.41,0,2.11,0,.19,0,.26-.08.25-.26,0-.34,0-.69,0-1.03ZM35.09,9.5c0-.35,0-.7,0-1.06,0-.18-.07-.26-.26-.26-.7,0-1.39,0-2.09,0-.17,0-.24.08-.24.25,0,.7,0,1.41,0,2.11,0,.18.07.26.26.26.69,0,1.37,0,2.06,0,.2,0,.28-.08.27-.28,0-.34,0-.69,0-1.03ZM39.2,94.51c.35,0,.7,0,1.06,0,.17,0,.25-.07.25-.24,0-.7,0-1.39,0-2.09,0-.19-.08-.26-.26-.26-.7,0-1.41,0-2.11,0-.17,0-.25.07-.25.24,0,.7,0,1.39,0,2.09,0,.19.08.26.26.26.35,0,.7,0,1.06,0ZM49.97,94.51c.34,0,.69,0,1.03,0,.22,0,.31-.07.31-.3,0-.67,0-1.34,0-2.01,0-.21-.08-.29-.29-.29-.69,0-1.37,0-2.06,0-.19,0-.28.07-.28.27,0,.69,0,1.37,0,2.06,0,.19.08.26.26.26.34,0,.69,0,1.03,0ZM82.45,40.61c-.35,0-.7,0-1.06,0-.19,0-.29.06-.28.26,0,.69,0,1.37,0,2.06,0,.18.07.27.25.26.7,0,1.41,0,2.11,0,.19,0,.26-.08.26-.26,0-.69,0-1.37,0-2.06,0-.2-.09-.27-.28-.27-.33,0-.67,0-1,0ZM32.5,77c0,.35,0,.7,0,1.06,0,.19.07.28.27.28.69,0,1.37,0,2.06,0,.18,0,.26-.08.26-.26,0-.7,0-1.41,0-2.11,0-.19-.09-.25-.27-.25-.69,0-1.37,0-2.06,0-.18,0-.26.08-.26.26,0,.34,0,.69,0,1.03ZM90.49,43.19c.35,0,.7,0,1.06,0,.2,0,.27-.08.27-.28,0-.68,0-1.35,0-2.03,0-.19-.07-.28-.27-.28-.7,0-1.39,0-2.09,0-.2,0-.27.08-.27.28,0,.68,0,1.35,0,2.03,0,.22.09.29.29.28.33,0,.67,0,1,0ZM72.9,71.61c0-.35,0-.7,0-1.06,0-.18-.08-.26-.26-.26-.69,0-1.37,0-2.06,0-.18,0-.27.06-.27.25,0,.7,0,1.41,0,2.11,0,.18.08.26.26.26.69,0,1.37,0,2.06,0,.2,0,.27-.09.27-.28,0-.34,0-.69,0-1.03ZM45.97,28.37c0,.35,0,.7,0,1.06,0,.18.06.27.25.27.7,0,1.41,0,2.11,0,.2,0,.27-.09.27-.28,0-.68,0-1.35,0-2.03,0-.21-.1-.28-.3-.28-.69,0-1.37,0-2.06,0-.21,0-.29.09-.28.29,0,.32,0,.65,0,.97ZM52.7,2.8c-.35,0-.7,0-1.06,0-.18,0-.26.08-.26.26,0,.69,0,1.37,0,2.06,0,.18.06.27.25.27.7,0,1.41,0,2.11,0,.18,0,.26-.08.26-.26,0-.69,0-1.37,0-2.06,0-.2-.09-.27-.28-.27-.34,0-.69,0-1.03,0ZM66.21,70.21c.34,0,.69,0,1.03,0,.19,0,.28-.06.28-.27,0-.69,0-1.37,0-2.06,0-.18-.07-.27-.25-.26-.7,0-1.41,0-2.11,0-.19,0-.26.08-.25.26,0,.69,0,1.37,0,2.06,0,.21.09.27.28.27.34,0,.69,0,1.03,0ZM41.93,16.31c-.35,0-.7,0-1.06,0-.19,0-.29.06-.28.26,0,.69,0,1.37,0,2.06,0,.18.07.27.25.27.7,0,1.41,0,2.11,0,.18,0,.26-.08.26-.26,0-.69,0-1.37,0-2.06,0-.2-.09-.27-.28-.27-.33,0-.67,0-1,0ZM32.5,93.19c0,.35,0,.7,0,1.06,0,.18.07.27.26.26.7,0,1.39,0,2.09,0,.17,0,.24-.08.24-.25,0-.7,0-1.39,0-2.09,0-.17-.07-.25-.24-.25-.7,0-1.39,0-2.09,0-.18,0-.26.08-.26.26,0,.33,0,.67,0,1ZM72.9,28.4c0-.33,0-.67,0-1,0-.2-.07-.3-.28-.3-.68,0-1.35,0-2.03,0-.2,0-.28.08-.28.28,0,.68,0,1.35,0,2.03,0,.19.07.28.27.28.69,0,1.37,0,2.06,0,.18,0,.26-.08.26-.26,0-.34,0-.69,0-1.03Z"/>
    <path class="cls-2" d="M0,.02C.13.02.25,0,.38,0c6.05,0,12.1,0,18.14,0q.47,0,.47.48c0,6,0,12.01,0,18.01,0,.08,0,.16,0,.24,0,.17-.08.25-.25.24-.08,0-.16,0-.24,0-6.03,0-12.06,0-18.09,0-.14,0-.27-.01-.41-.02V.02ZM2.9,9.46c0,2.08,0,4.16,0,6.24,0,.36,0,.37.36.37,4.14,0,8.28,0,12.42,0,.36,0,.37-.01.37-.36,0-4.14,0-8.28,0-12.42,0-.35-.02-.37-.37-.37-4.14,0-8.28,0-12.42,0-.36,0-.37,0-.37.36,0,2.06,0,4.12,0,6.18Z"/>
    <path class="cls-2" d="M18.99,100H0c0-6.31,0-12.62,0-18.93.14,0,.29-.02.43-.02,6.01,0,12.02,0,18.04,0,.51,0,.53-.1.52.53,0,6.01,0,12.02,0,18.04,0,.13,0,.25,0,.38ZM9.47,97.11c2.07,0,4.14,0,6.21,0,.36,0,.37-.01.37-.36,0-4.14,0-8.28,0-12.42,0-.35-.02-.37-.37-.37-4.14,0-8.28,0-12.42,0-.36,0-.37,0-.37.36,0,4.14,0,8.28,0,12.42,0,.36,0,.37.36.37,2.07,0,4.14,0,6.21,0Z"/>
    <path class="cls-2" d="M0,21.61c.85,0,1.69,0,2.54-.01.17,0,.24.08.24.25,0,.77,0,1.53,0,2.3,0,.17-.07.25-.24.25-.85,0-1.69,0-2.54-.01v-2.77Z"/>
    <path class="cls-2" d="M99.99,9.51c0,3.02,0,6.04,0,9.06,0,.41,0,.41-.4.41-6.06,0-12.11,0-18.17,0-.4,0-.4,0-.4-.4,0-6.06,0-12.11,0-18.17,0-.4,0-.4.39-.4,6.07,0,12.13,0,18.2,0,.39,0,.39,0,.39.39,0,3.04,0,6.08,0,9.11ZM90.5,16.06c2.07,0,4.14,0,6.21,0,.36,0,.37,0,.37-.36,0-4.14,0-8.28,0-12.42,0-.35,0-.36-.37-.36-4.13,0-8.26,0-12.39,0-.38,0-.38,0-.38.38,0,4.13,0,8.26,0,12.39,0,.37,0,.38.38.38,2.06,0,4.12,0,6.18,0Z"/>
    <path class="cls-2" d="M27.02,5.47c-.76,0-1.52,0-2.28,0q-.45,0-.45-.44c0-.61,0-1.21,0-1.82,0-.41,0-.41-.4-.41-.65,0-1.3,0-1.95,0-.25,0-.36-.09-.35-.35.01-.7.01-1.41,0-2.11,0-.26.1-.34.35-.34,1.61,0,3.22,0,4.82,0,.24,0,.34.08.33.33-.01.69,0,1.37,0,2.06,0,.24.07.34.33.33.67-.01,1.34-.01,2.01,0,.23,0,.3-.08.3-.3,0-.7,0-1.41,0-2.11,0-.22.07-.3.3-.3,1.63,0,3.25,0,4.88,0,.22,0,.3.08.3.3,0,.71-.01,1.43,0,2.14,0,.28-.09.36-.36.36-1.53,0-3.05,0-4.58,0q-.45,0-.45.45c0,.57,0,1.14,0,1.71q0,.51-.5.51c-.76,0-1.52,0-2.28,0Z"/>
    <path class="cls-2" d="M99.99,87.85c0,1.24,0,2.48,0,3.71,0,.27-.08.37-.35.36-.69-.01-1.37-.01-2.06,0-.25,0-.35-.07-.35-.34,0-2.51,0-5.03,0-7.54,0-.25.08-.34.32-.34.7,0,1.41,0,2.11,0,.25,0,.32.09.32.34,0,1.27,0,2.53,0,3.8Z"/>
    <path class="cls-2" d="M82.43,83.8c-.38,0-.76,0-1.14,0-.2,0-.27-.08-.27-.27,0-.74,0-1.48,0-2.22,0-.2.08-.27.27-.27.75,0,1.5,0,2.25,0,.2,0,.27.08.27.27,0,.74,0,1.48,0,2.22,0,.2-.08.27-.28.27-.37,0-.74,0-1.11,0Z"/>
    <path class="cls-2" d="M13.58,9.52c0,1.24,0,2.48,0,3.72,0,.27-.09.36-.36.36-2.49,0-4.97,0-7.46,0-.35,0-.36-.02-.36-.37,0-2.49,0-4.97,0-7.46,0-.36.01-.37.36-.37,2.49,0,4.97,0,7.46,0,.27,0,.36.09.36.36-.01,1.26,0,2.51,0,3.77Z"/>
    <path class="cls-2" d="M9.47,94.6c-1.24,0-2.48,0-3.71,0-.28,0-.35-.08-.35-.36,0-2.49,0-4.99,0-7.48,0-.26.08-.34.34-.34,2.49,0,4.99,0,7.48,0,.27,0,.36.09.36.36,0,2.49,0,4.97,0,7.46,0,.35,0,.36-.37.36-1.25,0-2.49,0-3.74,0Z"/>
    <path class="cls-2" d="M94.62,9.5c0,1.25,0,2.49,0,3.74,0,.28-.1.36-.36.36-2.49,0-4.99,0-7.48,0-.35,0-.38-.03-.38-.37,0-2.49,0-4.99,0-7.48,0-.27.1-.36.37-.36,2.5,0,5,0,7.51,0,.25,0,.35.08.35.35,0,1.26,0,2.51,0,3.77Z"/>
  </g>
  <rect class="cls-1" x="290.86" y="28.29" width="39.45" height="39.45"/>
</svg>