<?xml version="1.0" encoding="UTF-8"?>
<svg id="Layer_1" data-name="Layer 1" xmlns="http://www.w3.org/2000/svg" version="1.1" viewBox="0 0 100 100">
  <defs>
    <style>
      .cls-1 {
        fill: none;
      }

      .cls-1, .cls-2 {
        stroke-width: 0px;
      }

      .cls-2 {
        fill: #000;
      }
    </style>
  </defs>
  <g>
    <path class="cls-2" d="M100.05,32.48v2.77c-.77,0-1.53.01-2.3.02-.33,0-.35.02-.35.36,0,.66,0,1.32,0,1.98,0,.35-.02.37-.37.37-.66,0-1.32,0-1.98,0-.35,0-.36.01-.36.34,0,.65,0,1.3,0,1.95,0,.25.07.34.33.33.68-.01,1.35,0,2.03-.01.28,0,.36.1.35.36-.01.63,0,1.26,0,1.9,0,.41,0,.42.4.42.75,0,1.5,0,2.25,0v2.77c-.76,0-1.52.01-2.28.02-.36,0-.37.01-.37.36,0,.67,0,1.34,0,2.01,0,.25-.08.35-.34.35-3.42,0-6.83,0-10.25,0-.26,0-.33-.1-.33-.33,0-.68,0-1.36,0-2.03,0-.25-.07-.35-.34-.35-1.55.01-3.09,0-4.64,0-.25,0-.33.09-.33.33.01.68,0,1.36,0,2.03,0,.28-.09.36-.36.35-.69-.01-1.37,0-2.06,0-.21,0-.29.06-.29.28,0,1.59,0,3.18,0,4.77,0,.22.09.28.29.28.67,0,1.34-.01,2.01,0,.25,0,.33-.08.33-.33-.01-.69,0-1.37,0-2.06,0-.25.08-.33.33-.33,2.51,0,5.03,0,7.54,0,.24,0,.32.08.31.31-.01.7,0,1.39,0,2.09,0,.23.07.32.31.32.66-.01,1.32-.01,1.98,0,.27,0,.34-.1.33-.35-.01-.67,0-1.34,0-2.01,0-.26.07-.37.35-.36,1.61.01,3.22,0,4.83,0,.25,0,.34.08.34.33,0,.7-.01,1.41,0,2.11,0,.28-.11.36-.37.36-.67-.01-1.34,0-2.01,0-.24,0-.34.08-.33.33.01.64.01,1.28,0,1.92,0,.26.09.35.35.34.68-.01,1.36,0,2.03,0,.23,0,.33.08.33.32,0,.72,0,1.45,0,2.17,0,.23-.09.32-.32.31-.69-.01-1.37,0-2.06,0-.25,0-.33.09-.33.33,0,1.55,0,3.11,0,4.66,0,.26.08.35.34.34,1.19-.01,2.39,0,3.58,0,.48,0,.96.01,1.44.02v2.77c-.15,0-.31,0-.46,0-3.31,0-6.63,0-9.94,0-.35,0-.37.02-.37.37,0,.63,0,1.26,0,1.9,0,.25.09.33.33.33.67-.01,1.34,0,2.01,0,.35,0,.37.02.37.37,0,.64,0,1.28,0,1.92q0,.41.4.41c.63,0,1.26,0,1.9,0,.41,0,.41,0,.41.4,0,1.56,0,3.13,0,4.69,0,.25.08.34.33.33.65-.01,1.3,0,1.95,0,.34,0,.35,0,.35-.36,0-.7,0-1.39,0-2.09,0-.15.02-.27.21-.27.84,0,1.68.01,2.52.02v2.77c-.77,0-1.54.01-2.3,0-.26,0-.35.08-.35.34.01.69,0,1.37,0,2.06,0,.21-.08.31-.3.31-.73,0-1.46,0-2.2,0-.22,0-.3-.08-.3-.31,0-.68,0-1.36,0-2.03,0-.36-.01-.37-.36-.37-1.54,0-3.07,0-4.61,0-.35,0-.36.02-.36.37,0,1.51,0,3.02,0,4.53,0,.4,0,.4.41.4,1.54,0,3.09,0,4.63,0,.35,0,.37.02.37.37,0,1.58,0,3.16,0,4.74,0,.37-.01.39-.38.39-.68,0-1.36,0-2.03,0-.22,0-.31.07-.3.3,0,.68,0,1.36,0,2.03,0,.23.09.3.31.3.7,0,1.39,0,2.09,0,.25,0,.33.09.33.33-.01.67,0,1.34,0,2.01,0,.27.09.35.35.34.64-.01,1.28,0,1.92,0,.42,0,.43.02.43.42,0,.65,0,1.3,0,1.95,0,.26.09.35.35.34.77,0,1.54,0,2.3,0,0,.86,0,1.72,0,2.58,0,.16-.03.19-.19.19-2.65,0-5.3,0-7.94,0,0-.78-.01-1.55-.02-2.33,0-.36,0-.36-.36-.36-1.53,0-3.07,0-4.6,0-.36,0-.36,0-.36.36-.01.78.03,1.55-.02,2.33h-2.71c-.05-.81,0-1.63-.03-2.44,0-.27.1-.34.35-.34.65,0,1.3,0,1.95,0,.35,0,.37-.02.37-.36,0-.64,0-1.28,0-1.92,0-.41.02-.42.43-.42.65,0,1.3,0,1.95,0,.23,0,.32-.07.32-.31,0-1.56,0-3.13,0-4.69,0-.23-.09-.3-.31-.3-.67,0-1.34,0-2.01,0-.23,0-.32.08-.32.31.01.64,0,1.28,0,1.92q0,.47-.46.47c-.62,0-1.25,0-1.87,0-.26,0-.35.08-.35.34.01.68,0,1.35,0,2.03,0,.22-.08.3-.3.3-.7,0-1.39,0-2.09,0-.23,0-.32.07-.32.31.01.78,0,1.55,0,2.33,0,.92-.01,1.84-.02,2.76h-2.77c0-.13-.02-.25-.02-.38,0-2.44,0-4.88,0-7.32,0-.36-.01-.37-.36-.37-.59,0-1.17,0-1.76,0-.66,0-.59.01-.59-.59,0-4.18,0-8.35,0-12.53,0-.37-.01-.39-.35-.39-.65,0-1.3,0-1.95,0-.25,0-.33.09-.33.33.01.7,0,1.39,0,2.09,0,.21-.07.29-.28.29-.73,0-1.46,0-2.2,0-.21,0-.28-.09-.28-.29,0-.73.01-1.46,0-2.2,0-.24.09-.31.32-.31.68.01,1.36,0,2.03,0,.25,0,.33-.09.33-.33-.01-.66-.01-1.32,0-1.98,0-.23-.08-.32-.32-.32-.68.01-1.36,0-2.03,0-.25,0-.33-.08-.33-.33.01-.69,0-1.37,0-2.06,0-.25-.09-.33-.33-.33-.63.01-1.27,0-1.9,0-.39,0-.39,0-.4.39,0,1.55,0,3.11,0,4.66,0,.27-.09.37-.36.36-.67-.01-1.34,0-2.01,0-.25,0-.35.07-.35.34.01,1.55,0,3.09,0,4.64,0,.25.08.34.33.33.68-.01,1.36,0,2.03,0,.25,0,.36.07.35.34,0,1.61,0,3.22,0,4.83,0,.26-.1.35-.35.34-.69-.01-1.37,0-2.06,0-.22,0-.31.07-.31.3,0,1.56,0,3.13,0,4.69,0,.24.1.31.32.31.66,0,1.32-.01,1.98,0,.25,0,.33-.1.32-.34-.01-.67,0-1.34,0-2.01,0-.24.06-.34.32-.33,1.62.01,3.24,0,4.85,0,.22,0,.3.07.3.3-.01.68,0,1.36,0,2.03,0,.26.08.35.34.35.69-.01,1.37,0,2.06,0,.23,0,.32.08.32.32-.01.72-.01,1.45,0,2.17,0,.24-.07.32-.31.31-.68-.01-1.36,0-2.03,0-.36,0-.36,0-.37.36-.01.78.03,1.55-.02,2.33h-2.71c0-.13-.02-.25-.02-.38,0-1.57,0-3.14,0-4.71,0-.23-.07-.32-.31-.32-.67.01-1.34.01-2,0-.24,0-.32.08-.31.32,0,.78,0,1.55,0,2.33,0,.92-.01,1.84-.02,2.76h-2.77c0-.79-.02-1.59-.01-2.38,0-.23-.08-.32-.31-.31-.65.01-1.3,0-1.95,0-.36,0-.36,0-.36.37,0,.78-.01,1.55-.02,2.33h-5.42c-.05-.78,0-1.55-.02-2.33,0-.36,0-.36-.37-.36-2.44,0-4.87,0-7.31,0-.36,0-.36,0-.37.36-.01.78.03,1.55-.02,2.33h-2.77c0-.78,0-1.55,0-2.33,0-.35-.02-.36-.37-.36-2.42,0-4.84,0-7.26,0-.36,0-.36,0-.37.36,0,.78-.01,1.55-.02,2.33h-2.77c0-.78,0-1.55,0-2.33,0-.35-.02-.36-.37-.36-.61,0-1.23,0-1.84,0-.36,0-.37.01-.37.36,0,.78,0,1.55,0,2.33h-2.77c0-.79-.02-1.59-.02-2.38,0-.23-.07-.32-.31-.32-.66.01-1.32.01-1.97,0-.26,0-.35.08-.34.34,0,.78,0,1.57-.01,2.35h-5.48c0-.77,0-1.55,0-2.32,0-.44,0-.45.46-.45,1.54,0,3.07,0,4.61,0,.26,0,.35-.08.35-.34-.01-.66-.01-1.32,0-1.98,0-.24-.08-.32-.31-.31-.67.01-1.34,0-2.01,0-.39,0-.39,0-.39-.39,0-1.55,0-3.09,0-4.64,0-.26-.07-.35-.34-.35-.67.01-1.34,0-2.01,0-.27,0-.37-.08-.37-.36.01-.68,0-1.36,0-2.03,0-.4.01-.41.41-.41,1.55,0,3.11,0,4.66,0,.26,0,.35-.08.34-.35-.01-.64,0-1.28,0-1.92,0-.35,0-.35-.35-.35-1.53,0-3.05,0-4.58,0q-.48,0-.48-.47c0-1.5,0-3,0-4.5,0-.4,0-.41-.41-.41-1.53,0-3.05,0-4.58,0-.37,0-.39-.02-.39-.38,0-.67,0-1.34,0-2.01,0-.23-.06-.33-.31-.32-.67.01-1.34.01-2.01,0-.24,0-.32.08-.32.32.01.69,0,1.37,0,2.06,0,.25-.09.33-.33.33-.71,0-1.43,0-2.14,0-.25,0-.33-.09-.33-.34.01-.68,0-1.36,0-2.03,0-.27-.09-.35-.35-.34-.65.01-1.3.01-1.95,0-.25,0-.33.08-.33.33.01.7,0,1.39,0,2.09,0,.21-.08.29-.28.29-.41,0-.81,0-1.22,0-2.07,0-4.14,0-6.21,0-.46,0-.46,0-.46-.47,0-.64,0-1.28,0-1.93,0-.39,0-.4.39-.4,1.56,0,3.13,0,4.69,0,.26,0,.35-.08.34-.34-.01-.69,0-1.37,0-2.06,0-.24.09-.32.32-.31.64,0,1.28,0,1.93,0q.43,0,.43-.44c0-1.52,0-3.04,0-4.56,0-.37.01-.38.38-.38.68,0,1.36,0,2.03,0,.37,0,.37,0,.37.38,0,1.55,0,3.11,0,4.66,0,.21.04.34.29.34,1.58,0,3.16,0,4.74,0,.23,0,.3-.09.3-.31,0-.69,0-1.37,0-2.06,0-.27.1-.35.35-.34.84,0,1.68,0,2.52,0,2.49,0,4.99,0,7.48,0q.44,0,.44-.45c0-.61,0-1.21,0-1.82,0-.23-.08-.32-.31-.32-.67,0-1.34,0-2.01,0-.38,0-.39-.02-.39-.4,0-1.55,0-3.11,0-4.66,0-.25-.06-.35-.33-.35-2.45,0-4.9,0-7.35,0-.23,0-.32.07-.32.31.01.67.01,1.34,0,2.01,0,.24.09.31.32.31.69-.01,1.37,0,2.06,0,.23,0,.33.07.33.31,0,.72,0,1.45,0,2.17,0,.23-.09.32-.32.32-.71,0-1.43,0-2.14,0-.27,0-.34-.1-.34-.36.01-.63,0-1.27,0-1.9q0-.45-.44-.45c-1.55,0-3.09,0-4.64,0-.26,0-.35-.09-.35-.34.01-.67,0-1.34,0-2.01,0-.35,0-.36-.37-.36-1.5,0-3,0-4.5,0-.42,0-.42,0-.42.42,0,1.51,0,3.02,0,4.53,0,.46,0,.46-.47.46-.63,0-1.27,0-1.9,0-.24,0-.34.07-.33.33.01.68,0,1.36,0,2.03,0,.23-.07.32-.31.32-.72-.01-1.45-.01-2.17,0-.23,0-.32-.06-.32-.31,0-1.62,0-3.24,0-4.85,0-.24.09-.31.32-.31.7,0,1.39,0,2.09,0,.22,0,.31-.07.31-.3,0-1.58,0-3.16,0-4.74,0-.23-.09-.3-.31-.3-.69,0-1.37,0-2.06,0-.25,0-.35-.08-.35-.34,0-2.5,0-5.01,0-7.51,0-.24.08-.34.33-.33.7.01,1.39,0,2.09,0,.22,0,.3-.08.3-.3,0-.68,0-1.36,0-2.03,0-.37,0-.38.38-.38,1.52,0,3.04,0,4.56,0q.44,0,.44-.43c0-2.4,0-4.81,0-7.21,0-.44,0-.44.43-.44,1.55,0,3.11,0,4.66,0,.23,0,.33-.06.32-.31-.01-.67-.01-1.34,0-2.01,0-.24-.08-.32-.32-.31-.64.01-1.28,0-1.93,0q-.47,0-.47-.48c0-.63,0-1.27,0-1.9,0-.25-.08-.33-.33-.33-1.55,0-3.09,0-4.64,0-.25,0-.34.08-.33.33.01.67,0,1.34,0,2.01,0,.36-.02.38-.39.38-.66,0-1.32.01-1.98,0-.27,0-.34.09-.34.35.01.65.01,1.3,0,1.95,0,.25.08.33.33.33.69-.01,1.37,0,2.06,0,.24,0,.32.08.32.31,0,1.61,0,3.22,0,4.83,0,.24-.08.33-.33.33-1.61,0-3.22,0-4.83,0-.25,0-.35-.07-.35-.34,0-2.5,0-5.01,0-7.51,0-.24.08-.34.33-.33.7.01,1.39,0,2.09,0,.22,0,.3-.08.3-.3,0-.67-.01-1.34,0-2.01,0-.23-.07-.32-.31-.32-.7.01-1.39,0-2.09,0-.24,0-.32-.08-.32-.32,0-.72.01-1.45,0-2.17,0-.24.1-.31.33-.31.71,0,1.43,0,2.14,0,.27,0,.34.11.34.36-.01.68,0,1.36,0,2.03,0,.23.07.32.31.32.67-.01,1.34-.01,2.01,0,.24,0,.31-.09.31-.32-.01-.69,0-1.37,0-2.06,0-.23.06-.33.3-.33,1.62,0,3.24,0,4.85,0,.23,0,.32.09.31.32-.01.69,0,1.37,0,2.06,0,.25.09.33.33.33.64-.01,1.28,0,1.93,0,.36,0,.37,0,.37-.37,0-1.56,0-3.13,0-4.69,0-.27.09-.37.36-.36.69.01,1.37,0,2.06,0,.22,0,.3-.08.3-.3,0-.65-.01-1.3,0-1.95,0-.27-.1-.34-.35-.34-.67.01-1.34,0-2.01,0-.26,0-.37-.07-.36-.36.02-.66,0-1.32,0-1.98,0-.36,0-.37-.36-.37-.63,0-1.27,0-1.9,0-.35,0-.36,0-.36.37,0,1.56,0,3.13,0,4.69,0,.23-.07.32-.31.32-2.52,0-5.04,0-7.56,0-.24,0-.31-.09-.31-.32.01-.69,0-1.37,0-2.06,0-.37,0-.38.38-.38,1.55,0,3.11,0,4.66,0,.26,0,.35-.09.34-.35-.01-.67,0-1.34,0-2.01,0-.35.02-.36.37-.36.67,0,1.34,0,2.01,0,.25,0,.33-.09.33-.33-.01-.68,0-1.36,0-2.03,0-.25.08-.36.34-.35.7.01,1.41.01,2.11,0,.28,0,.36.11.35.37-.01.68,0,1.36,0,2.03,0,.24.08.32.32.31.66-.01,1.32-.01,1.98,0,.27,0,.34-.1.33-.35-.01-.65,0-1.3,0-1.95,0-.41,0-.41.4-.41,1.54,0,3.07,0,4.61,0,.35,0,.36-.02.37-.37,0-.73,0-1.46,0-2.2,0-3.51,0-7.01,0-10.52,0-.4.01-.42.41-.42.69,0,1.37,0,2.06,0,.24,0,.33.08.33.33-.01.69,0,1.37,0,2.06,0,.25.09.33.33.33.66-.01,1.32-.01,1.98,0,.24,0,.32-.08.32-.31-.01-.67,0-1.34,0-2.01,0-.39,0-.39.4-.39,1.55,0,3.11,0,4.66,0,.35,0,.36,0,.36-.37,0-.63,0-1.27,0-1.9,0-.43,0-.43.44-.43,1.54,0,3.07,0,4.61,0,.24,0,.34-.08.33-.33-.01-.67,0-1.34,0-2.01,0-.26.08-.34.34-.34,1.61,0,3.22.01,4.83,0,.27,0,.34.1.34.35,0,.67,0,1.34,0,2.01,0,.23.08.32.32.32,1.55,0,3.11,0,4.66,0,.25,0,.33-.1.33-.34-.01-.64-.01-1.28,0-1.92,0-.25-.09-.33-.33-.33-.69.01-1.37,0-2.06,0-.23,0-.32-.09-.32-.32,0-.72,0-1.45,0-2.17,0-.24.1-.31.33-.31,2.52,0,5.04,0,7.56,0,.25,0,.33.1.33.33,0,.67,0,1.34,0,2.01,0,.37,0,.37.38.37.66,0,1.32.01,1.98,0,.27,0,.35.09.34.35-.01.64,0,1.28,0,1.93,0,.39.01.4.39.4.6,0,1.19,0,1.79,0,.4,0,.41,0,.41-.41,0-1.54,0-3.07,0-4.61,0-.26.08-.37.36-.36.69.02,1.37,0,2.06,0,.37,0,.38,0,.38.38,0,1.55,0,3.11,0,4.66,0,.26.09.35.35.34.67-.01,1.34,0,2.01,0,.26,0,.37.07.37.35,0,2.5,0,5.01,0,7.51,0,.26-.08.35-.34.35-.69-.01-1.37,0-2.06,0-.23,0-.32.08-.32.32,0,2.46,0,4.92,0,7.37,0,.23.07.32.31.32.65-.01,1.3,0,1.95,0,.35,0,.36,0,.36-.37,0-1.51,0-3.02,0-4.53,0-.09,0-.18,0-.27,0-.13.06-.2.2-.2.8,0,1.59,0,2.39,0,.13,0,.2.06.2.19,0,.1,0,.2,0,.3,0,2.41,0,4.83,0,7.24,0,.22.03.35.31.35,1.56,0,3.13,0,4.69,0,.23,0,.3-.09.3-.3,0-.67,0-1.34,0-2.01,0-.24-.08-.32-.32-.31-.65.01-1.3,0-1.95,0-.4,0-.4,0-.4-.41,0-2.44,0-4.88,0-7.32,0-.35-.01-.36-.37-.37-.67,0-1.34,0-2.01,0-.23,0-.34-.06-.34-.32,0-1.62,0-3.24,0-4.85,0-.25.09-.33.33-.33.7.01,1.39,0,2.09,0,.22,0,.3-.08.3-.3,0-.67-.01-1.34,0-2.01,0-.23-.07-.32-.31-.32-.62.01-1.25,0-1.87,0-.58,0-.53.06-.53-.52,0-.58,0-1.16,0-1.74q0-.41-.43-.42c-.66,0-1.32,0-1.98,0-.22,0-.31-.08-.3-.31,0-.72.01-1.45,0-2.17,0-.25.1-.32.34-.32,4.31,0,8.62,0,12.93,0,.24,0,.33.08.33.33,0,2.51,0,5.03,0,7.54,0,.23-.07.32-.31.32-.7-.01-1.39,0-2.09,0-.23,0-.32.07-.32.31.01.67.01,1.34,0,2.01,0,.24.09.31.32.31.7-.01,1.39,0,2.09,0,.24,0,.32.08.31.32-.01.69,0,1.37,0,2.06,0,.42,0,.42-.43.42-1.55,0-3.11,0-4.66,0-.24,0-.34.07-.34.33,0,1.55,0,3.11,0,4.66,0,.24.08.32.32.32.66,0,1.32-.01,1.98,0,.24,0,.34-.08.33-.33-.01-.68,0-1.36,0-2.03,0-.23.08-.32.31-.31.71.01,1.43.02,2.14,0,.28,0,.35.09.35.36-.01,1.49,0,2.98,0,4.47,0,.58-.05.55.54.55,4.18,0,8.37,0,12.55,0,.4,0,.41,0,.41.41,0,.69,0,1.37,0,2.06,0,.25-.09.34-.33.33-.68-.01-1.36,0-2.03,0-.25,0-.36.06-.35.34.02.66.01,1.32,0,1.98,0,.24.08.32.32.31,1.56,0,3.13,0,4.69,0,.24,0,.34-.07.33-.32-.01-.68,0-1.36,0-2.03,0-.27.07-.37.35-.36.65.02,1.3,0,1.95,0q.41,0,.41-.4c0-.68,0-1.36,0-2.03,0-.17.04-.28.24-.27.83,0,1.66.01,2.49.02v2.77c-.75,0-1.5.01-2.25.02-.4,0-.4,0-.4.41,0,.6,0,1.21,0,1.81q0,.47-.49.48c-.62,0-1.25,0-1.87,0-.25,0-.36.07-.35.34.02.64.01,1.28,0,1.92,0,.24.08.34.33.33.68-.01,1.35,0,2.03,0,.25,0,.36.09.35.35-.01.65,0,1.3,0,1.95,0,.42,0,.42.43.42.74,0,1.48,0,2.22,0ZM37.92,32.48c2.57,0,5.13,0,7.7,0,.34,0,.36-.02.36-.35,0-.66,0-1.32,0-1.98,0-.22-.08-.3-.3-.3-.66,0-1.32,0-1.98,0-.39,0-.39,0-.39-.39,0-1.55,0-3.09,0-4.64,0-.34,0-.35-.35-.35-.62,0-1.25,0-1.87,0-.39,0-.4,0-.4.39,0,1.53,0,3.05,0,4.58,0,.4,0,.4-.41.4-.69,0-1.37,0-2.06,0-.25,0-.33-.08-.33-.33.01-.66,0-1.32,0-1.98,0-.35-.02-.37-.37-.37-.66,0-1.32,0-1.98,0-.27,0-.38-.1-.36-.37,0-.1,0-.2,0-.3,0-2.37,0-4.74,0-7.1,0-.34-.02-.36-.35-.36-.63,0-1.27,0-1.9,0q-.42,0-.42-.41c0-1.55,0-3.09,0-4.64,0-.24-.07-.34-.32-.34-.66.01-1.32.01-1.98,0-.24,0-.34.08-.34.33,0,2.45,0,4.9,0,7.35,0,.24.08.34.33.33.68-.01,1.36,0,2.03,0,.25,0,.36.07.36.34,0,1.61,0,3.22,0,4.83,0,.26-.1.35-.36.34-.68,0-1.36,0-2.03,0-.41,0-.41,0-.41-.41,0-1.56,0-3.13,0-4.69,0-.23-.07-.32-.31-.32-.67.01-1.34.01-2.01,0-.24,0-.31.09-.31.32,0,.66,0,1.32,0,1.98,0,.41,0,.41-.41.41-1.55,0-3.11,0-4.66,0-.34,0-.35,0-.35.35,0,.63,0,1.27,0,1.9,0,.36,0,.37.36.37,1.57,0,3.14,0,4.72,0,.26,0,.35.08.34.34-.01.67,0,1.34,0,2.01,0,.25.09.33.33.33.66-.01,1.32,0,1.98,0,.37,0,.39.02.4.4,0,.62,0,1.25,0,1.87q0,.43.44.43c2.53,0,5.06,0,7.59,0ZM55.54,35.27c-1.23,0-2.46,0-3.69,0-.37,0-.37,0-.37.38,0,1.56,0,3.13,0,4.69,0,.24-.07.34-.32.34-.71,0-1.43,0-2.14,0-.24,0-.34-.09-.34-.34,0-.68,0-1.36,0-2.03,0-.26-.09-.34-.35-.34-1.54,0-3.07,0-4.61,0-.26,0-.35.08-.35.34,0,1.54,0,3.07,0,4.61,0,.26.08.35.34.35.68-.01,1.36,0,2.03,0,.22,0,.3.08.3.3,0,.7,0,1.41,0,2.11,0,.37,0,.37-.38.38-1.55,0-3.11,0-4.66,0-.24,0-.34.06-.34.32.01.66.01,1.32,0,1.98,0,.25.08.33.33.33.67-.01,1.34,0,2.01,0,.35,0,.37.02.37.37,0,.95,0,1.9,0,2.85,0,.34.02.36.35.36.55,0,1.1,0,1.65,0,.61,0,.6.07.58-.56,0-.23.09-.32.32-.31.65.01,1.3,0,1.95,0q.44,0,.44-.43c0-1.53,0-3.05,0-4.58,0-.4.01-.41.41-.41,1.55,0,3.09,0,4.64,0,.35,0,.36,0,.36-.37,0-.66.01-1.32,0-1.98,0-.28.1-.36.36-.36.67.01,1.34,0,2.01,0,.33,0,.35-.02.35-.36,0-.62,0-1.25,0-1.87,0-.34-.01-.36-.35-.36-.69,0-1.37,0-2.06,0-.22,0-.31-.08-.3-.3,0-.7,0-1.39,0-2.09,0-.4,0-.4.41-.4,2.44,0,4.88,0,7.32,0,.35,0,.36,0,.36-.35,0-1.55,0-3.11,0-4.66,0-.23-.06-.33-.31-.32-.67.01-1.34.01-2.01,0-.24,0-.32.08-.31.32.01.69,0,1.37,0,2.06,0,.26-.08.35-.34.34-1.23-.01-2.46,0-3.69,0ZM40.6,79.73c0-1.23,0-2.46,0-3.69,0-.26.07-.37.35-.36.7.02,1.39.02,2.09,0,.27,0,.37.08.36.36-.01.69,0,1.37,0,2.06,0,.22.08.31.3.3.66,0,1.32-.01,1.98,0,.24,0,.31-.09.31-.32,0-1.56,0-3.13,0-4.69,0-.25-.09-.33-.34-.32-.67.01-1.34,0-2.01,0-.27,0-.34-.09-.34-.35,0-1.58,0-3.16,0-4.74,0-.37,0-.38.37-.38,1.56,0,3.13,0,4.69,0,.23,0,.32-.07.32-.31,0-.66-.01-1.32,0-1.98,0-.27-.1-.34-.35-.34-.68.01-1.36,0-2.03,0-.25,0-.33-.09-.33-.33,0-.68,0-1.36,0-2.03,0-.25-.07-.36-.34-.35-.64.02-1.28.01-1.92,0-.25,0-.34.08-.33.33.01.67,0,1.34,0,2.01,0,.36-.02.38-.39.38-.66,0-1.32.01-1.98,0-.27,0-.34.09-.34.35.01.66,0,1.32,0,1.98,0,.36-.02.38-.39.38-.67,0-1.34,0-2.01,0-.23,0-.32.08-.32.32.01.68,0,1.36,0,2.03,0,.24-.07.33-.32.33-.7-.01-1.39,0-2.09,0-.22,0-.31.07-.31.3,0,1.58,0,3.16,0,4.74,0,.23.09.3.31.29.67,0,1.34,0,2.01,0,.4,0,.4,0,.4.41,0,2.44,0,4.88,0,7.32,0,.34.02.36.35.36.64,0,1.28,0,1.92,0,.33,0,.35-.02.35-.36,0-1.23,0-2.46,0-3.69ZM52.83,62.18c1.25,0,2.49,0,3.74,0,.23,0,.32.08.32.31,0,.72,0,1.45,0,2.17,0,.25-.09.33-.34.33-.68-.01-1.36,0-2.03,0-.24,0-.34.06-.34.32.01.67.01,1.34,0,2.01,0,.22.08.3.3.3.65,0,1.3,0,1.95,0,.45,0,.45,0,.45.44,0,1.53,0,3.05,0,4.58,0,.25.07.36.34.35.64-.02,1.28-.01,1.92,0,.25,0,.34-.08.33-.33-.01-.68,0-1.36,0-2.03,0-.26.1-.35.35-.35.67,0,1.34,0,2.01,0,.25,0,.36-.07.35-.34-.02-.64-.01-1.28,0-1.92,0-.25-.08-.34-.33-.33-.68.01-1.36,0-2.03,0-.26,0-.35-.1-.35-.35,0-1.61,0-3.22,0-4.83,0-.24.07-.34.33-.33.68.01,1.36,0,2.03,0,.26,0,.35-.07.35-.34-.02-.64,0-1.28,0-1.92,0-.35,0-.36-.37-.36-1.55,0-3.11,0-4.66,0-.25,0-.35-.07-.35-.34.02-.67,0-1.34,0-2.01,0-.37,0-.37-.36-.37-.69,0-1.37,0-2.06,0-.23,0-.3-.08-.3-.3,0-.69,0-1.37,0-2.06,0-.24-.09-.32-.32-.32-.64,0-1.28,0-1.92,0-.37,0-.38,0-.38.38,0,1.55,0,3.11,0,4.66,0,.26-.09.35-.34.34-.69-.01-1.37,0-2.06,0-.24,0-.32.08-.31.31.01.64,0,1.28,0,1.92,0,.38,0,.38.37.38,1.23,0,2.46,0,3.69,0ZM48.69,13.62c0-1.67,0-3.34,0-5.01,0-.26-.09-.35-.35-.34-.66.01-1.32.01-1.98,0-.24,0-.32.08-.31.32.01.69,0,1.37,0,2.06,0,.26-.09.34-.35.34-.7-.01-1.39-.01-2.09,0-.24,0-.33-.08-.33-.33.01-.7,0-1.39,0-2.09,0-.22-.08-.3-.3-.3-.67,0-1.34.01-2.01,0-.26,0-.33.1-.32.34.01.66,0,1.32,0,1.98,0,.39,0,.4-.39.4-1.56,0-3.13,0-4.69,0-.24,0-.34.06-.34.32,0,2.46,0,4.92,0,7.37,0,.24.08.32.32.32.64,0,1.28,0,1.92,0,.37,0,.38-.01.38-.38,0-1.55,0-3.11,0-4.66,0-.25.07-.35.34-.35,1.61,0,3.22,0,4.82,0,.26,0,.35.09.34.34-.01.69,0,1.37,0,2.06,0,.23.08.32.32.32.69-.01,1.37,0,2.06,0,.22,0,.3.07.3.3-.01.68,0,1.36,0,2.03,0,.26.08.36.34.35.63-.01,1.26,0,1.9,0,.39,0,.4-.01.4-.4,0-1.65,0-3.31,0-4.96ZM56.81,75.76c0-.79,0-1.57,0-2.36,0-.27-.09-.34-.35-.34-.68.01-1.36,0-2.03,0-.26,0-.34-.09-.34-.35.01-.69,0-1.37,0-2.06,0-.24-.08-.32-.32-.31-.66.01-1.32.01-1.98,0-.25,0-.33.08-.33.33,0,1.55,0,3.11,0,4.66,0,.26.07.35.34.35.69-.01,1.37,0,2.06,0,.24,0,.32.08.32.32,0,.71-.01,1.43,0,2.14,0,.27-.1.35-.35.34-.68,0-1.36,0-2.03,0-.25,0-.33.08-.33.33,0,1.55,0,3.09,0,4.64,0,.27.1.34.35.34.68-.01,1.36,0,2.03,0,.24,0,.34.08.33.33-.01.69,0,1.37,0,2.06,0,.24.08.32.32.32.64-.01,1.28,0,1.93,0,.38,0,.38,0,.38-.37,0-1.54,0-3.07,0-4.61,0-.39,0-.39.39-.39,1.54,0,3.07,0,4.61,0,.37,0,.37,0,.37-.38,0-.58,0-1.16,0-1.74q0-.51-.5-.51c-1.44,0-2.87,0-4.31,0-.66,0-.56,0-.56-.55,0-.72,0-1.45,0-2.17ZM43.39,83.86c-.8,0-1.59,0-2.39,0-.23,0-.32.07-.32.31.01.64,0,1.28,0,1.92,0,.39,0,.39.4.39,1.55,0,3.09,0,4.64,0,.26,0,.35.08.34.34-.01.64,0,1.28,0,1.92,0,.56.07.53-.52.53-1.5,0-3,0-4.5,0-.34,0-.35.01-.35.35,0,.65,0,1.3,0,1.95,0,.23.07.32.31.32.66-.01,1.32,0,1.98,0,.41,0,.41,0,.42.43,0,.64,0,1.28,0,1.92,0,.23.08.32.32.32.64,0,1.28,0,1.92,0,.33,0,.35-.02.35-.36,0-.66,0-1.32,0-1.98,0-.24.07-.34.33-.33.69.01,1.37,0,2.06,0,.25,0,.33-.09.33-.33-.01-.65,0-1.3,0-1.95,0-.43,0-.43.42-.43.66,0,1.32,0,1.98,0,.21,0,.31-.06.31-.29,0-1.58,0-3.16,0-4.74,0-.22-.08-.3-.3-.3-.69,0-1.37,0-2.06,0-.26,0-.35-.09-.35-.34.01-.66,0-1.32,0-1.98,0-.33-.02-.35-.36-.35-.64,0-1.28,0-1.92,0-.25,0-.36.07-.35.34.02.63,0,1.27,0,1.9q0,.43-.42.44c-.75,0-1.5,0-2.25,0ZM70.32,33.92c0-1.23,0-2.46,0-3.69q0-.39-.4-.39c-.61,0-1.21,0-1.82,0q-.41,0-.41.41c0,2.4,0,4.79,0,7.19q0,.54-.55.54c-.61,0-1.23,0-1.84,0-.23,0-.32.08-.32.31.01.66.01,1.32,0,1.98,0,.27.1.34.35.34.62-.01,1.25,0,1.87,0q.49,0,.49.48c0,2.41,0,4.83,0,7.24,0,.35,0,.36.37.36.62,0,1.25,0,1.87,0,.38,0,.38,0,.38-.38,0-1.51,0-3.02,0-4.53q0-.51.52-.51c.61,0,1.21,0,1.82,0,.25,0,.33-.09.33-.33,0-1.55,0-3.09,0-4.64,0-.25-.09-.33-.33-.33-.67.01-1.34,0-2.01,0-.26,0-.34-.09-.34-.35.01-1.24,0-2.48,0-3.71ZM74.36,56.77c1.24,0,2.48,0,3.71,0,.25,0,.34-.08.33-.33-.01-.64-.01-1.28,0-1.92,0-.27-.1-.34-.35-.34-.67.01-1.34,0-2.01,0-.26,0-.37-.08-.36-.36.02-.65,0-1.3,0-1.95,0-.4,0-.4-.39-.4-2.4,0-4.81,0-7.21,0-.39,0-.39,0-.39.39,0,1.53,0,3.05,0,4.58,0,.4,0,.4-.41.4-.65,0-1.3,0-1.95,0-.34,0-.35,0-.35.36,0,.64,0,1.28,0,1.92,0,.26.08.35.34.34,1.54,0,3.09,0,4.63,0,.34,0,.36-.01.36-.35,0-.66,0-1.32,0-1.98,0-.36,0-.38.38-.38,1.22,0,2.44,0,3.66,0ZM62.19,9.57c0-1.23,0-2.46,0-3.69,0-.24-.06-.34-.32-.34-.67.01-1.34.01-2.01,0-.22,0-.31.07-.3.3,0,.67,0,1.34,0,2.01,0,.41,0,.41-.4.41-1.55,0-3.11,0-4.66,0-.23,0-.32.08-.32.31.01.69,0,1.37,0,2.06,0,.26-.09.35-.35.34-.69-.01-1.37,0-2.06,0-.22,0-.31.06-.31.29,0,.68,0,1.36,0,2.03,0,.22.08.3.3.3.7,0,1.39,0,2.09,0,.25,0,.33.09.33.33-.01.7,0,1.39,0,2.09,0,.22.07.31.3.3.65,0,1.3,0,1.95,0q.37,0,.37-.38c0-1.57,0-3.14,0-4.72,0-.25.08-.33.33-.33.7.01,1.41.01,2.11,0,.26,0,.32.09.32.33-.01.7,0,1.39,0,2.09,0,.23.08.3.3.3.65,0,1.3,0,1.95,0,.36,0,.37,0,.37-.36,0-1.22,0-2.44,0-3.66ZM8.26,54.12c0,1.67,0,3.34,0,5.01,0,.26.09.35.34.34.68-.01,1.36,0,2.03,0,.26,0,.35.09.34.35-.01.68,0,1.36,0,2.03,0,.24.06.34.32.34.67-.01,1.34-.01,2.01,0,.22,0,.3-.08.3-.3,0-.67,0-1.34,0-2.01,0-.4,0-.4.41-.4,1.55,0,3.11,0,4.66,0,.34,0,.35,0,.35-.35,0-.62,0-1.25,0-1.87q0-.4-.39-.4c-2.42,0-4.84,0-7.26,0-.09,0-.18,0-.27,0-.13,0-.2-.06-.2-.2,0-.1,0-.2,0-.3,0-2.39,0-4.79,0-7.18,0-.4,0-.4-.38-.4-.62,0-1.25,0-1.87,0-.36,0-.37,0-.37.36,0,1.66,0,3.33,0,4.99ZM89.2,35.18c.8,0,1.59,0,2.39,0,.23,0,.32-.07.32-.31,0-1.57,0-3.15,0-4.72,0-.24-.09-.31-.32-.31-.64.01-1.28,0-1.93,0q-.47,0-.47-.45c0-.62,0-1.25,0-1.87,0-.26-.08-.36-.34-.35-.62.01-1.25,0-1.87,0-.41,0-.41,0-.41.4,0,1.53,0,3.05,0,4.58,0,.4,0,.4-.41.4-.64,0-1.28.01-1.92,0-.27,0-.35.09-.34.35.01.65,0,1.3,0,1.95,0,.41,0,.41-.4.41-.65,0-1.3,0-1.95,0-.25,0-.36.07-.35.34.02.65.01,1.3,0,1.95,0,.26.09.34.35.34,1.54,0,3.07,0,4.61,0,.26,0,.35-.09.34-.35-.01-.66,0-1.32,0-1.98,0-.37.02-.39.38-.39.78,0,1.55,0,2.33,0ZM63.59,24.47c-1.24,0-2.48,0-3.71,0-.23,0-.32.07-.32.31.01.66,0,1.32,0,1.98,0,.41,0,.41-.43.42-.64,0-1.28,0-1.92,0-.23,0-.32.08-.32.32,0,.61,0,1.23,0,1.84q0,.43.44.43c1.53,0,3.05,0,4.58,0,.27,0,.37.08.36.36-.02.68,0,1.36,0,2.03,0,.23.07.33.31.33.67-.01,1.34,0,2.01,0,.24,0,.32-.08.32-.32-.01-.67,0-1.34,0-2.01,0-.37.02-.39.38-.39.66,0,1.32,0,1.98,0,.34,0,.35-.02.35-.36,0-1.53,0-3.05,0-4.58,0-.34,0-.35-.35-.35-1.22,0-2.44,0-3.66,0ZM82.48,86.48c1.21,0,2.42,0,3.63,0,.36,0,.37-.01.37-.36,0-2.42,0-4.84,0-7.27,0-.35-.02-.37-.37-.37-2.42,0-4.84,0-7.27,0-.35,0-.37.02-.37.37,0,2.42,0,4.84,0,7.27,0,.36,0,.37.36.37,1.21,0,2.42,0,3.63,0ZM37.89,54.1c.8,0,1.61,0,2.41,0,.22,0,.3-.08.3-.3,0-.64,0-1.28,0-1.93,0-.4,0-.4-.39-.4-1.55,0-3.11,0-4.66,0-.27,0-.37-.09-.36-.36.01-.61,0-1.21,0-1.82q0-.54-.52-.54c-.59,0-1.17,0-1.76,0-.38,0-.38,0-.38-.4,0-.67,0-1.34,0-2.01,0-.24-.08-.32-.32-.31-.67.01-1.34.01-2.01,0-.24,0-.31.09-.31.32,0,1.56,0,3.13,0,4.69,0,.25.09.33.33.33.69-.01,1.37,0,2.06,0,.23,0,.32.08.32.31,0,.71,0,1.43,0,2.14,0,.26-.1.35-.36.34-.67,0-1.34,0-2.01,0-.33,0-.35.02-.35.36,0,.62,0,1.25,0,1.87,0,.34.02.36.36.36,1.53,0,3.05,0,4.58,0,.34,0,.36-.02.36-.35,0-.67,0-1.34,0-2.01,0-.23.08-.32.32-.32.8.01,1.59,0,2.39,0ZM25.77,78.4c1.22,0,2.44,0,3.66,0,.38,0,.38,0,.38-.38,0-1.56,0-3.13,0-4.69,0-.28.09-.36.36-.35.69.01,1.37,0,2.06,0,.22,0,.31-.07.3-.3,0-.68,0-1.36,0-2.03,0-.23-.09-.3-.31-.29-1.57,0-3.14,0-4.72,0-.23,0-.32.07-.32.31.01.69,0,1.37,0,2.06,0,.25-.08.35-.34.35-.69-.01-1.37,0-2.06,0-.23,0-.32.08-.32.31.01.7,0,1.39,0,2.09,0,.24-.08.32-.32.31-.7,0-1.39,0-2.09,0-.24,0-.32.08-.31.32.01.63,0,1.26,0,1.9q0,.41.4.41c1.2,0,2.4,0,3.6,0ZM78.51,70.36c-.8,0-1.61,0-2.41,0-.23,0-.32.07-.32.31,0,1.57,0,3.14,0,4.72,0,.24.09.31.32.31,1.56,0,3.13,0,4.69,0,.25,0,.34-.08.33-.33-.01-.69,0-1.37,0-2.06,0-.25.09-.33.33-.33.7.01,1.39,0,2.09,0,.22,0,.3-.08.3-.3,0-.69,0-1.37,0-2.06,0-.26.08-.35.34-.35.68.01,1.36,0,2.03,0,.22,0,.31-.08.3-.3,0-.66,0-1.32,0-1.98,0-.24-.1-.31-.33-.31-1.54,0-3.09,0-4.63,0-.27,0-.34.1-.34.35.01.66,0,1.32,0,1.98,0,.25-.07.35-.34.35-.79-.01-1.57,0-2.36,0ZM28.48,62.18c1.22,0,2.44,0,3.66,0,.37,0,.37,0,.37-.38,0-.62,0-1.25,0-1.87,0-.36,0-.36-.36-.36-1.57,0-3.14,0-4.72,0-.26,0-.35-.08-.34-.34.01-.68,0-1.36,0-2.03,0-.26-.07-.35-.34-.35-.68.02-1.36,0-2.03,0-.26,0-.35-.08-.35-.34.01-.68,0-1.36,0-2.03,0-.22-.08-.31-.3-.31-1.56,0-3.13,0-4.69,0-.22,0-.31.08-.31.3,0,.64,0,1.28,0,1.92,0,.34.02.36.38.36.65,0,1.3,0,1.95,0,.25,0,.35.08.35.34-.02.65,0,1.3,0,1.95q0,.41.4.41c.63,0,1.26,0,1.9,0,.41,0,.41,0,.41.4,0,.65,0,1.3,0,1.95,0,.35,0,.35.35.35,1.22,0,2.44,0,3.66,0ZM78.49,27.18c-.8,0-1.61,0-2.41,0-.22,0-.3.08-.3.3,0,1.56,0,3.13,0,4.69,0,.24.09.31.32.31,1.56,0,3.13,0,4.69,0,.25,0,.33-.08.33-.33-.01-.67,0-1.34,0-2.01,0-.36.01-.38.39-.38.65,0,1.3,0,1.95,0,.36,0,.37-.01.37-.36,0-.65,0-1.3,0-1.95,0-.35,0-.35.37-.36.66,0,1.32,0,1.98,0,.25,0,.33-.09.33-.33-.01-.66-.01-1.32,0-1.98,0-.23-.08-.32-.32-.32-1.55,0-3.11,0-4.66,0-.26,0-.32.1-.32.34.01.66,0,1.32,0,1.98,0,.37-.02.39-.38.39-.78,0-1.55,0-2.33,0ZM62.25,83.86c-.79,0-1.57,0-2.36,0-.25,0-.33.08-.33.33.01.7,0,1.39,0,2.09,0,.22-.07.3-.3.3-.68,0-1.36,0-2.03,0-.26,0-.35.08-.35.34.01.67,0,1.34,0,2.01,0,.34-.02.36-.37.36-.67,0-1.34,0-2.01,0-.23,0-.33.06-.32.31,0,1.56,0,3.13,0,4.69,0,.23.09.3.31.3.67,0,1.34,0,2.01,0,.24,0,.32-.08.31-.32-.01-.69,0-1.37,0-2.06,0-.22.08-.3.3-.3.68.01,1.36,0,2.03,0,.26,0,.35-.08.35-.34-.01-.69,0-1.37,0-2.06,0-.23.08-.32.32-.31.69.01,1.37,0,2.06,0,.25,0,.33-.08.33-.33-.01-.61,0-1.21,0-1.82,0-.62-.04-.56.58-.57.61,0,1.21,0,1.82,0,.23,0,.32-.07.32-.31-.01-.67-.01-1.34,0-2.01,0-.24-.09-.31-.32-.31-.78,0-1.55,0-2.33,0ZM24.39,29.85c-.79,0-1.57-.01-2.36,0-.28,0-.36-.1-.36-.36.01-.65,0-1.3,0-1.95,0-.34-.02-.36-.35-.36-.63,0-1.27,0-1.9,0-.26,0-.35.09-.34.35.01.65,0,1.3,0,1.95,0,.36-.01.37-.36.37-.68,0-1.36,0-2.03,0-.24,0-.32.09-.31.32.01.67.01,1.34,0,2.01,0,.24.09.31.32.31.66,0,1.32,0,1.98,0,.38,0,.4.02.4.4,0,.67,0,1.34,0,2.01,0,.22.08.31.3.3.65,0,1.3-.01,1.95,0,.27,0,.34-.1.34-.35-.01-.68,0-1.36,0-2.03,0-.23.08-.33.32-.33.72,0,1.45,0,2.17,0,.23,0,.32.09.31.32-.01.7,0,1.39,0,2.09,0,.23.08.3.3.3.67,0,1.34,0,2.01,0,.23,0,.32-.08.32-.31,0-1.57,0-3.14,0-4.72,0-.24-.09-.31-.32-.31-.8,0-1.59,0-2.39,0ZM83.82,60.89c0-1.25,0-2.49,0-3.74,0-.22-.07-.31-.3-.3-.67,0-1.34.01-2.01,0-.25,0-.33.09-.32.33.01.68,0,1.36,0,2.03,0,.28-.09.36-.36.35-.65-.02-1.3,0-1.95,0q-.4,0-.4.39c0,.65,0,1.3,0,1.95,0,.36-.01.37-.36.37-.67,0-1.34,0-2.01,0-.25,0-.36.07-.35.34.02.65.02,1.3,0,1.95,0,.26.08.34.34.34,2.46,0,4.91,0,7.37,0,.27,0,.34-.09.34-.35-.01-1.22,0-2.44,0-3.66ZM17.68,43.27c1.21,0,2.42,0,3.63,0,.35,0,.37-.02.37-.36,0-.66,0-1.32,0-1.98,0-.24.08-.34.33-.33.7.01,1.39,0,2.09,0,.21,0,.29-.07.29-.28,0-1.59,0-3.18,0-4.77,0-.21-.09-.28-.29-.28-.67,0-1.34.01-2.01,0-.25,0-.34.08-.33.33.01.69,0,1.37,0,2.06,0,.25-.08.33-.33.33-.68-.01-1.36,0-2.03,0-.24,0-.32.08-.32.32,0,.65,0,1.3,0,1.95,0,.42-.01.44-.44.44-1.52,0-3.04,0-4.55,0-.42,0-.42,0-.42.43,0,.6,0,1.19,0,1.79,0,.35.02.37.36.37,1.21,0,2.42,0,3.63,0ZM54.1,32.48h0c.79,0,1.59,0,2.38,0,.25,0,.33-.09.33-.33-.01-.67-.01-1.34,0-2,0-.23-.08-.3-.3-.3-.7,0-1.39,0-2.09,0-.24,0-.33-.07-.33-.32.01-.67,0-1.34,0-2,0-.26-.08-.35-.34-.35-.65.01-1.3.01-1.95,0-.27,0-.34.1-.34.35.01.66,0,1.32,0,1.98,0,.28-.09.36-.36.35-.69-.02-1.37,0-2.06,0-.22,0-.3.08-.3.3,0,1.58,0,3.16,0,4.74,0,.23.09.3.31.3.67,0,1.34,0,2.01,0,.23,0,.32-.08.32-.31-.01-.68,0-1.35,0-2.03,0-.27.09-.37.36-.36.79.01,1.57,0,2.36,0ZM68.99,62.27c-1.23,0-2.46,0-3.68,0-.23,0-.32.07-.32.31.01.67.01,1.34,0,2,0,.24.08.32.32.31.7-.01,1.39,0,2.09,0,.24,0,.32.09.31.32,0,.69,0,1.37,0,2.06,0,.26.08.34.34.34,1.54,0,3.07,0,4.61,0,.26,0,.35-.07.35-.34,0-1.55,0-3.11,0-4.66,0-.26-.09-.35-.35-.34-1.22.01-2.44,0-3.66,0ZM56.89,51.39c.79,0,1.57,0,2.36,0,.25,0,.33.09.32.33-.01.7,0,1.39,0,2.09,0,.22.07.3.3.3.66,0,1.32,0,1.98,0,.33,0,.35-.01.35-.36,0-1.54,0-3.07,0-4.61,0-.36,0-.36-.37-.36-1.54,0-3.09,0-4.63,0-.37,0-.37,0-.37-.38,0-.68,0-1.36,0-2.03,0-.22-.07-.3-.3-.3-.68,0-1.36,0-2.03,0-.23,0-.3.09-.3.31,0,1.57,0,3.14,0,4.72,0,.23.08.32.31.32.79-.01,1.59,0,2.38,0ZM59.58,45.97c.77,0,1.54,0,2.3,0,.38,0,.39,0,.39.4,0,.66,0,1.32,0,1.98,0,.24.06.34.32.34.67-.01,1.34-.01,2.01,0,.22,0,.3-.07.3-.3,0-1.58,0-3.16,0-4.74,0-.23-.09-.3-.3-.3-.7,0-1.39,0-2.09,0-.25,0-.33-.09-.33-.33.01-.68,0-1.36,0-2.03,0-.24-.09-.32-.32-.31-.66,0-1.32.01-1.98,0-.25,0-.34.08-.33.33.01.67,0,1.34,0,2.01,0,.26-.07.35-.34.34-.67-.02-1.34,0-2.01,0-.24,0-.34.07-.34.32.01.66.01,1.32,0,1.98,0,.25.09.33.33.33.79-.01,1.57,0,2.36,0ZM16.32,46.06c-1.66,0-3.32,0-4.99,0-.35,0-.36,0-.36.37,0,.61,0,1.23,0,1.84q0,.41.4.41c2.45,0,4.9,0,7.35,0,.35,0,.37.02.37.37,0,.68,0,1.36,0,2.03,0,.24.09.32.32.31.63-.01,1.26,0,1.9,0,.36,0,.37-.01.37-.36,0-1.54,0-3.07,0-4.61,0-.35-.01-.36-.37-.36-1.66,0-3.32,0-4.99,0ZM59.48,20.42c0-1.24,0-2.48,0-3.71,0-.23-.08-.33-.31-.32-.65,0-1.3.01-1.95,0-.25,0-.33.09-.33.34.01.64,0,1.28,0,1.92,0,.41,0,.41-.4.41-.65,0-1.3,0-1.95,0-.34,0-.35.01-.35.35,0,1.54,0,3.07,0,4.61,0,.36,0,.37.36.37,1.52,0,3.04,0,4.55,0,.36,0,.37-.01.37-.39,0-1.19,0-2.38,0-3.58ZM33.88,43.27c1.23,0,2.46,0,3.68,0,.24,0,.34-.07.34-.33-.01-.64-.01-1.28,0-1.92,0-.26-.09-.35-.34-.35-.67.01-1.34,0-2,0-.27,0-.37-.1-.36-.37.01-.68,0-1.35,0-2.03,0-.24-.09-.31-.32-.31-1.55,0-3.11,0-4.66,0-.25,0-.33.09-.33.34,0,1.53,0,3.07,0,4.6,0,.33.02.35.36.35,1.21,0,2.42,0,3.63,0ZM78.4,41.97c0-1.23,0-2.46,0-3.68,0-.24-.08-.32-.32-.31-.64.01-1.28,0-1.92,0-.38,0-.39,0-.39.4,0,1.54,0,3.07,0,4.61,0,.36,0,.37-.36.37-.68,0-1.35,0-2.03,0-.25,0-.33.09-.32.33.01.65.01,1.3,0,1.95,0,.26.08.35.34.35,1.55,0,3.11,0,4.66,0,.26,0,.34-.09.34-.35-.01-1.22,0-2.44,0-3.66ZM46.02,59.47c.79,0,1.57,0,2.36,0,.23,0,.32-.08.32-.32,0-.66-.01-1.32,0-1.98,0-.24-.08-.34-.33-.33-.69.01-1.37,0-2.06,0-.26,0-.33-.09-.33-.33,0-.67,0-1.34,0-2.01,0-.24-.07-.34-.32-.34-1.55,0-3.11,0-4.66,0-.24,0-.31.1-.31.32,0,.64.01,1.28,0,1.92,0,.26.09.35.34.35.67-.01,1.34,0,2.01,0,.27,0,.37.1.36.37-.01.64,0,1.28,0,1.92,0,.41,0,.41.4.41.74,0,1.48,0,2.22,0ZM16.32,54.1c.79,0,1.57,0,2.36,0,.27,0,.34-.09.34-.35-.01-.66-.01-1.32,0-1.98,0-.22-.07-.3-.3-.3-1.58,0-3.16,0-4.74,0-.23,0-.3.09-.3.31,0,.67,0,1.34,0,2.01,0,.23.08.32.31.32.78-.01,1.55,0,2.33,0ZM37.89,89.24c0-.79,0-1.59,0-2.38,0-.21-.07-.29-.29-.29-.69,0-1.37,0-2.06,0-.22,0-.28.09-.28.29,0,1.58,0,3.16,0,4.74,0,.22.07.31.3.3.67,0,1.34-.01,2,0,.25,0,.33-.09.32-.33-.01-.78,0-1.55,0-2.33ZM91.95,56.85c-.79,0-1.57,0-2.36,0-.23,0-.32.07-.32.31.01.67.01,1.34,0,2.01,0,.24.08.31.32.31,1.56,0,3.13,0,4.69,0,.24,0,.34-.07.33-.33-.01-.66-.01-1.32,0-1.98,0-.25-.09-.33-.33-.33-.78.01-1.55,0-2.33,0ZM37.93,37.89c.79,0,1.57,0,2.36,0,.24,0,.31-.09.31-.32-.01-.67,0-1.34,0-2,0-.22-.07-.3-.3-.3-1.58,0-3.16,0-4.74,0-.23,0-.3.08-.3.3,0,.67.01,1.34,0,2,0,.23.07.32.31.32.79-.01,1.57,0,2.36,0ZM29.85,67.6c.78,0,1.55,0,2.33,0,.24,0,.34-.06.34-.32-.01-.67-.01-1.34,0-2.01,0-.22-.07-.3-.3-.3-1.58,0-3.16,0-4.74,0-.23,0-.3.09-.3.31,0,.67,0,1.34,0,2.01,0,.23.08.32.31.32.79-.01,1.57,0,2.36,0ZM16.35,35.27c-.79,0-1.59,0-2.38,0-.21,0-.29.08-.29.29,0,.68,0,1.35,0,2.03,0,.22.07.31.3.31,1.58,0,3.16,0,4.74,0,.22,0,.3-.08.3-.3,0-.67-.01-1.34,0-2.01,0-.26-.1-.32-.34-.32-.78.01-1.55,0-2.33,0ZM5.51,54.15c0-.79,0-1.59,0-2.38,0-.21-.07-.29-.29-.29-.68,0-1.35,0-2.03,0-.24,0-.31.09-.31.32,0,1.55,0,3.11,0,4.66,0,.23.08.32.31.32.67,0,1.34,0,2,0,.24,0,.31-.09.31-.32,0-.77,0-1.53,0-2.3ZM59.57,94.63c0,.78,0,1.55,0,2.33,0,.23.07.33.31.32.67,0,1.34,0,2.01,0,.24,0,.31-.09.31-.32,0-1.55,0-3.11,0-4.66,0-.23-.07-.32-.31-.32-.67,0-1.34,0-2.01,0-.24,0-.31.09-.31.32,0,.78,0,1.55,0,2.33ZM27.1,19.04c0-.77,0-1.53,0-2.3,0-.25-.07-.36-.33-.35-.66.01-1.32.01-1.98,0-.23,0-.32.08-.32.32,0,1.55,0,3.11,0,4.66,0,.23.06.33.31.32.67-.01,1.34-.01,2,0,.23,0,.32-.08.32-.31-.01-.78,0-1.55,0-2.33ZM32.57,83.86c-.79,0-1.57,0-2.36,0-.23,0-.33.07-.32.31,0,.67,0,1.34,0,2.01,0,.24.09.31.32.31,1.55,0,3.11,0,4.66,0,.23,0,.33-.07.32-.31,0-.67,0-1.34,0-2.01,0-.24-.09-.31-.32-.31-.77,0-1.54,0-2.3,0ZM46.04,21.77c-.78,0-1.55,0-2.33,0-.23,0-.32.07-.32.31,0,.67,0,1.34,0,2,0,.24.09.31.32.31,1.55,0,3.11,0,4.66,0,.26,0,.33-.1.32-.34-.01-.65-.01-1.3,0-1.95,0-.27-.1-.34-.35-.34-.77.01-1.54,0-2.3,0ZM19.03,73.07c-.78,0-1.55,0-2.33,0-.24,0-.32.08-.32.31.01.67.01,1.34,0,2,0,.24.09.31.32.31,1.55,0,3.11,0,4.66,0,.23,0,.32-.08.32-.31,0-.66-.01-1.32,0-1.98,0-.27-.1-.34-.35-.34-.77.01-1.53,0-2.3,0ZM73.03,5.47c.79,0,1.57,0,2.36,0,.22,0,.31-.08.3-.3,0-.66-.01-1.32,0-1.98,0-.24-.09-.32-.32-.32-1.55,0-3.11,0-4.66,0-.23,0-.32.08-.32.31,0,.65.01,1.3,0,1.95,0,.25.09.33.34.33.77,0,1.53,0,2.3,0ZM64.99,50.05c0,.35,0,.7,0,1.06,0,.19.05.28.26.28.7,0,1.41,0,2.11,0,.17,0,.25-.07.25-.24,0-.71,0-1.43,0-2.14,0-.17-.08-.24-.25-.24-.7,0-1.41,0-2.11,0-.21,0-.27.09-.26.28,0,.33,0,.67,0,1ZM28.5,37.89c.34,0,.69,0,1.03,0,.19,0,.28-.05.28-.26,0-.7,0-1.41,0-2.11,0-.17-.07-.25-.24-.25-.71,0-1.43,0-2.14,0-.17,0-.24.08-.24.25,0,.7,0,1.41,0,2.11,0,.21.09.27.28.26.34,0,.69,0,1.03,0ZM95.99,45.97c.34,0,.69,0,1.03,0,.21,0,.31-.06.31-.29-.01-.69,0-1.37,0-2.06,0-.2-.07-.28-.27-.27-.7,0-1.39,0-2.09,0-.2,0-.27.08-.27.28,0,.7,0,1.39,0,2.09,0,.18.07.26.26.26.34,0,.69,0,1.03,0ZM74.37,35.18c.34,0,.69,0,1.03,0,.21,0,.29-.07.29-.29,0-.69,0-1.37,0-2.06,0-.21-.09-.28-.29-.28-.69,0-1.37,0-2.06,0-.2,0-.28.07-.27.27,0,.7,0,1.39,0,2.09,0,.2.08.27.28.27.34,0,.69,0,1.03,0ZM86.57,44.63c0,.36,0,.72,0,1.08,0,.19.08.26.26.26.7,0,1.39,0,2.09,0,.19,0,.28-.07.28-.27,0-.7,0-1.39,0-2.09,0-.2-.08-.27-.27-.27-.69,0-1.37,0-2.06,0-.23,0-.3.09-.29.31.01.32,0,.65,0,.98ZM40.6,44.66c0-.33,0-.67,0-1,0-.21-.06-.31-.29-.31-.69.01-1.37,0-2.06,0-.2,0-.28.07-.27.27,0,.7,0,1.39,0,2.09,0,.2.08.27.28.27.7,0,1.39,0,2.09,0,.18,0,.26-.07.26-.26,0-.35,0-.7,0-1.06ZM89.19,66.3c0-.34,0-.69,0-1.03,0-.21-.08-.29-.29-.29-.69,0-1.37,0-2.06,0-.19,0-.28.06-.28.27,0,.7,0,1.39,0,2.09,0,.2.07.27.27.27.7,0,1.39,0,2.09,0,.2,0,.27-.09.27-.28,0-.34,0-.69,0-1.03ZM60.87,75.69c.35,0,.7,0,1.06,0,.18,0,.26-.07.26-.25,0-.7,0-1.41,0-2.11,0-.19-.08-.26-.26-.25-.7,0-1.41,0-2.11,0-.17,0-.25.07-.25.24,0,.71,0,1.43,0,2.14,0,.17.08.24.25.24.35,0,.7,0,1.06,0ZM90.62,73.07c-.35,0-.7,0-1.06,0-.19,0-.28.05-.28.26,0,.7,0,1.41,0,2.11,0,.17.07.25.24.25.71,0,1.43,0,2.14,0,.17,0,.24-.08.24-.25,0-.7,0-1.41,0-2.11,0-.21-.09-.27-.28-.26-.33,0-.67,0-1,0ZM35.27,95.96c0,.35,0,.7,0,1.05,0,.18.07.27.25.27.7,0,1.41,0,2.11,0,.18,0,.26-.07.26-.26,0-.7,0-1.41,0-2.11,0-.18-.07-.26-.25-.26-.7,0-1.41,0-2.11,0-.18,0-.26.07-.26.26,0,.35,0,.7,0,1.05ZM29.81,12.31c0-.35,0-.7,0-1.06,0-.19-.05-.29-.26-.28-.7,0-1.41,0-2.11,0-.17,0-.25.07-.25.24,0,.71,0,1.43,0,2.14,0,.17.08.24.25.24.7,0,1.41,0,2.11,0,.21,0,.27-.09.26-.28,0-.33,0-.67,0-1ZM79.8,91.9c.34,0,.69,0,1.03,0,.19,0,.28-.06.28-.26,0-.7,0-1.41,0-2.11,0-.17-.07-.25-.24-.25-.71,0-1.43,0-2.14,0-.17,0-.24.08-.24.25,0,.7,0,1.41,0,2.11,0,.21.09.27.28.26.34,0,.69,0,1.03,0ZM31.18,81.11c.34,0,.69,0,1.03,0,.21,0,.31-.06.31-.29,0-.69,0-1.37,0-2.06,0-.21-.09-.29-.29-.28-.69,0-1.37,0-2.06,0-.21,0-.29.09-.28.29,0,.69,0,1.37,0,2.06,0,.21.09.29.29.28.33,0,.67,0,1,0ZM50.05,27.09c.35,0,.7,0,1.06,0,.19,0,.29-.05.28-.26,0-.7,0-1.41,0-2.11,0-.17-.07-.25-.24-.25-.71,0-1.43,0-2.14,0-.17,0-.24.08-.24.25,0,.7,0,1.41,0,2.11,0,.21.09.27.28.26.33,0,.67,0,1,0ZM17.71,27.09c.33,0,.67,0,1,0,.21,0,.31-.06.31-.29-.01-.69,0-1.37,0-2.06,0-.2-.07-.28-.27-.27-.7,0-1.39,0-2.09,0-.2,0-.27.09-.27.28,0,.7,0,1.39,0,2.09,0,.18.07.26.26.26.35,0,.7,0,1.06,0ZM77.08,24.38c.33,0,.67,0,1,0,.23,0,.33-.06.32-.31-.01-.68,0-1.35,0-2.03,0-.21-.08-.29-.29-.29-.69,0-1.37,0-2.06,0-.19,0-.28.06-.28.26,0,.7,0,1.39,0,2.09,0,.2.07.28.27.27.34,0,.69,0,1.03,0ZM90.59,64.89c.34,0,.69,0,1.03,0,.21,0,.28-.08.28-.29,0-.69,0-1.37,0-2.06,0-.19-.07-.28-.27-.28-.7,0-1.39,0-2.09,0-.2,0-.27.08-.27.28,0,.69,0,1.37,0,2.06,0,.21.07.3.28.29.34-.01.69,0,1.03,0ZM91.99,36.56c0,.35,0,.7,0,1.06,0,.19.07.28.27.28.7,0,1.39,0,2.09,0,.2,0,.27-.08.27-.27,0-.7,0-1.39,0-2.09,0-.18-.06-.26-.25-.26-.7,0-1.41,0-2.11,0-.18,0-.26.07-.26.26,0,.34,0,.69,0,1.03ZM39.26,62.18c.35,0,.7,0,1.06,0,.21,0,.28-.08.28-.29,0-.69,0-1.37,0-2.06,0-.2-.07-.28-.27-.27-.7,0-1.39,0-2.09,0-.2,0-.27.08-.27.28,0,.69,0,1.37,0,2.06,0,.21.07.3.28.29.33-.01.67,0,1,0ZM29.81,90.59c0-.35,0-.7,0-1.06,0-.19-.08-.26-.26-.26-.7,0-1.41,0-2.11,0-.19,0-.25.09-.25.27,0,.7,0,1.39,0,2.09,0,.2.08.27.28.27.7,0,1.39,0,2.09,0,.21,0,.27-.09.26-.28,0-.34,0-.69,0-1.03ZM36.57,59.47c.35,0,.7,0,1.06,0,.18,0,.26-.07.26-.26,0-.7,0-1.41,0-2.11,0-.19-.08-.25-.26-.25-.7,0-1.39,0-2.09,0-.2,0-.28.07-.27.27,0,.7,0,1.39,0,2.09,0,.2.08.27.28.27.34,0,.69,0,1.03,0ZM50.07,78.4c.35,0,.7,0,1.06,0,.18,0,.26-.06.26-.25,0-.7,0-1.41,0-2.11,0-.19-.08-.26-.26-.26-.7,0-1.41,0-2.11,0-.17,0-.25.06-.25.24,0,.71,0,1.43,0,2.14,0,.17.07.24.25.24.35,0,.7,0,1.06,0ZM25.77,43.27c.35,0,.7,0,1.06,0,.2,0,.27-.08.27-.28,0-.68,0-1.35,0-2.03,0-.19-.07-.28-.27-.28-.7,0-1.39,0-2.09,0-.2,0-.27.08-.27.28,0,.68,0,1.35,0,2.03,0,.22.09.29.29.28.33,0,.67,0,1,0ZM72.99,12.28c0-.33,0-.67,0-1,0-.21-.06-.31-.29-.31-.67,0-1.34,0-2,0-.21,0-.29.07-.29.28,0,.69,0,1.37,0,2.06,0,.19.06.28.27.28.69,0,1.37,0,2.06,0,.21,0,.27-.1.26-.28,0-.34,0-.69,0-1.03ZM87.88,54.18c-.34,0-.69,0-1.03,0-.19,0-.28.06-.28.27,0,.69,0,1.37,0,2.06,0,.18.07.27.25.26.7,0,1.41,0,2.11,0,.19,0,.26-.08.26-.26,0-.69,0-1.37,0-2.06,0-.2-.1-.27-.28-.27-.34,0-.69,0-1.03,0ZM52.77,18.97c.35,0,.7,0,1.06,0,.19,0,.28-.06.28-.27,0-.69,0-1.37,0-2.06,0-.18-.07-.27-.25-.26-.7,0-1.41,0-2.11,0-.19,0-.26.08-.25.26,0,.69,0,1.37,0,2.06,0,.2.09.27.28.27.33,0,.67,0,1,0ZM67.61,69.01c0-.33-.01-.67,0-1,0-.23-.08-.32-.31-.32-.67,0-1.34,0-2,0-.21,0-.31.07-.31.3,0,.67,0,1.34,0,2,0,.21.08.29.29.29.69,0,1.37,0,2.06,0,.21,0,.29-.09.28-.3,0-.32,0-.65,0-.98ZM35.19,77.09c0-.35,0-.7,0-1.06,0-.18-.08-.26-.26-.26-.69,0-1.37,0-2.06,0-.18,0-.27.06-.27.25,0,.7,0,1.41,0,2.11,0,.18.08.26.26.26.69,0,1.37,0,2.06,0,.2,0,.27-.09.27-.28,0-.34,0-.69,0-1.03ZM33.9,10.88c.33,0,.67,0,1,0,.19,0,.29-.06.29-.26,0-.7,0-1.41,0-2.11,0-.17-.07-.25-.24-.25-.7,0-1.39,0-2.09,0-.19,0-.26.08-.26.26,0,.7,0,1.39,0,2.09,0,.19.07.28.27.28.34,0,.69,0,1.03,0ZM39.28,94.57c.33,0,.67,0,1,0,.23,0,.33-.07.32-.31-.01-.66,0-1.32,0-1.98,0-.22-.08-.31-.3-.31-.68,0-1.35,0-2.03,0-.2,0-.3.07-.29.28,0,.68,0,1.35,0,2.03,0,.2.07.28.27.28.34,0,.69,0,1.03,0ZM50.09,94.57c.34,0,.69,0,1.03,0,.19,0,.28-.07.28-.27,0-.69,0-1.37,0-2.06,0-.19-.08-.26-.26-.26-.7,0-1.39,0-2.09,0-.19,0-.28.07-.28.27,0,.69,0,1.37,0,2.06,0,.19.08.26.26.26.35,0,.7,0,1.06,0ZM83.82,42c0-.33-.01-.67,0-1,0-.23-.08-.32-.31-.32-.67,0-1.34,0-2,0-.21,0-.31.07-.31.3,0,.67,0,1.34,0,2,0,.21.08.29.29.29.69,0,1.37,0,2.06,0,.21,0,.29-.09.28-.29,0-.32,0-.65,0-.98ZM47.36,29.76c.34,0,.69,0,1.03,0,.22,0,.31-.07.31-.3,0-.67,0-1.33,0-2,0-.21-.08-.29-.29-.29-.69,0-1.37,0-2.06,0-.2,0-.29.07-.29.28,0,.68,0,1.35,0,2.03,0,.2.07.28.27.28.34,0,.69,0,1.03,0ZM90.61,43.27c.33,0,.65,0,.97,0,.23,0,.33-.07.32-.31-.01-.66,0-1.32,0-1.98,0-.22-.08-.31-.3-.31-.68,0-1.35,0-2.03,0-.2,0-.3.07-.29.28,0,.68,0,1.35,0,2.03,0,.2.07.28.27.28.35,0,.7,0,1.06,0ZM71.69,70.36c-.34,0-.69,0-1.03,0-.18,0-.27.07-.26.25,0,.7,0,1.41,0,2.11,0,.19.08.26.26.26.69,0,1.37,0,2.06,0,.18,0,.26-.07.26-.26,0-.7,0-1.41,0-2.11,0-.19-.08-.26-.26-.25-.34,0-.69,0-1.03,0ZM51.48,4.15c0,.33,0,.67,0,1,0,.23.08.32.31.32.67,0,1.34,0,2,0,.21,0,.31-.06.31-.3,0-.67,0-1.34,0-2,0-.21-.07-.29-.28-.29-.69,0-1.37,0-2.06,0-.21,0-.29.09-.28.29,0,.32,0,.65,0,.98ZM50.07,70.27c.35,0,.7,0,1.06,0,.2,0,.27-.08.27-.28,0-.68,0-1.35,0-2.03,0-.19-.07-.28-.27-.28-.7,0-1.39,0-2.09,0-.2,0-.27.08-.27.28,0,.68,0,1.35,0,2.03,0,.22.09.28.3.28.33,0,.67,0,1,0ZM43.31,17.68c0-.34,0-.69,0-1.03,0-.18-.07-.27-.25-.26-.7,0-1.41,0-2.11,0-.19,0-.26.08-.26.26,0,.69,0,1.37,0,2.06,0,.18.07.27.26.26.7,0,1.41,0,2.11,0,.19,0,.26-.08.25-.26,0-.34,0-.69,0-1.03ZM35.19,93.29c0-.33,0-.67,0-1,0-.21-.07-.31-.3-.31-.67,0-1.34,0-2,0-.21,0-.29.08-.29.29,0,.67,0,1.34,0,2,0,.2.07.3.28.3.68,0,1.35,0,2.03,0,.19,0,.28-.08.28-.27,0-.33,0-.67,0-1ZM71.71,27.18c-.35,0-.7,0-1.06,0-.17,0-.25.07-.25.24,0,.7,0,1.39,0,2.09,0,.18.08.26.26.26.69,0,1.37,0,2.06,0,.18,0,.27-.07.26-.26,0-.69,0-1.37,0-2.06,0-.2-.09-.28-.28-.27-.33,0-.67,0-1,0Z"/>
    <path class="cls-2" d="M.11,100.05c0-.14-.02-.27-.02-.41,0-6.01,0-12.02,0-18.03,0-.08,0-.16,0-.24-.01-.19.07-.29.27-.27.06,0,.13,0,.19,0,6.03,0,12.05,0,18.08,0,.46,0,.46,0,.46.46,0,6.06,0,12.13,0,18.19,0,.1,0,.2,0,.3H.11ZM9.57,97.16c2.07,0,4.14,0,6.21,0,.36,0,.37-.01.37-.36,0-4.14,0-8.28,0-12.41,0-.35-.02-.37-.37-.37-4.14,0-8.28,0-12.41,0-.36,0-.37,0-.37.36,0,4.14,0,8.28,0,12.41,0,.36,0,.37.36.37,2.07,0,4.14,0,6.21,0Z"/>
    <path class="cls-2" d="M100.05,19.03c-.13,0-.25.02-.38.02-6.04,0-12.07,0-18.11,0-.09,0-.18,0-.27,0-.12,0-.18-.06-.19-.18,0-.09,0-.18,0-.27,0-6.02,0-12.04,0-18.05q0-.46.46-.46c6.04,0,12.09,0,18.13,0,.12,0,.23.01.35.02v18.93ZM90.59,16.14c2.07,0,4.14,0,6.21,0,.36,0,.37,0,.37-.36,0-4.14,0-8.28,0-12.42,0-.35,0-.36-.37-.36-4.13,0-8.26,0-12.39,0-.38,0-.38,0-.38.38,0,4.13,0,8.26,0,12.39,0,.37,0,.37.38.38,2.06,0,4.12,0,6.18,0Z"/>
    <path class="cls-2" d="M100.05,91.97c-.81,0-1.63,0-2.44,0-.22,0-.3-.09-.3-.31,0-2.53,0-5.06,0-7.59,0-.22.07-.31.3-.31.81,0,1.63,0,2.44,0v8.19Z"/>
    <path class="cls-2" d="M9.57,19.06c-3.01,0-6.02,0-9.03,0-.45,0-.45,0-.45-.44,0-6.03,0-12.05,0-18.08,0-.44,0-.44.45-.44,6.04,0,12.07,0,18.11,0,.44,0,.44,0,.44.46,0,6.02,0,12.04,0,18.05,0,.45,0,.46-.47.46-3.02,0-6.04,0-9.05,0ZM9.57,16.14c2.06,0,4.12,0,6.18,0,.39,0,.4,0,.4-.39,0-4.12,0-8.24,0-12.36,0-.39,0-.4-.39-.4-4.12,0-8.24,0-12.36,0q-.4,0-.4.39c0,4.12,0,8.24,0,12.36,0,.4,0,.4.39.4,2.06,0,4.12,0,6.18,0Z"/>
    <path class="cls-2" d="M24.46.09c.8,0,1.61,0,2.41,0,.23,0,.32.08.32.31,0,.7,0,1.39,0,2.09,0,.23.07.32.31.32.67-.01,1.34-.01,2.01,0,.24,0,.31-.09.31-.32-.01-.7,0-1.39,0-2.09,0-.24.08-.31.31-.31,1.62,0,3.23,0,4.85,0,.24,0,.31.08.31.32-.01.7,0,1.41,0,2.11,0,.35-.01.37-.37.37-1.53,0-3.05,0-4.58,0q-.43,0-.43.44c0,.61,0,1.23,0,1.84,0,.38-.01.39-.37.39-1.59,0-3.18,0-4.77,0-.27,0-.37-.07-.36-.35.02-.65,0-1.3,0-1.95,0-.36-.01-.37-.36-.37-.66,0-1.32,0-1.98,0-.27,0-.37-.09-.37-.36.01-.7.01-1.39,0-2.09,0-.28.1-.36.37-.35.8.01,1.61,0,2.41,0Z"/>
    <path class="cls-2" d="M1.47,24.47c-.37,0-.74,0-1.11,0-.18,0-.26-.07-.26-.26,0-.76,0-1.52,0-2.28,0-.18.07-.26.26-.26.76,0,1.52,0,2.28,0,.18,0,.26.07.26.26,0,.76,0,1.52,0,2.28,0,.21-.1.27-.29.26-.38,0-.76,0-1.14,0Z"/>
    <path class="cls-2" d="M82.53,81.11c.35,0,.7,0,1.06,0,.21,0,.31.06.31.29,0,.73,0,1.46,0,2.19,0,.19-.07.28-.27.28-.75,0-1.5,0-2.25,0-.22,0-.28-.09-.28-.29,0-.72.01-1.44,0-2.16,0-.24.09-.31.32-.3.37.01.74,0,1.11,0Z"/>
    <path class="cls-2" d="M9.57,94.65c-1.24,0-2.48,0-3.71,0-.28,0-.35-.09-.35-.36,0-2.49,0-4.99,0-7.48,0-.26.08-.34.34-.34,2.49,0,4.99,0,7.48,0,.27,0,.36.09.36.36,0,2.48,0,4.97,0,7.45,0,.35,0,.36-.37.36-1.25,0-2.49,0-3.74,0Z"/>
    <path class="cls-2" d="M94.7,9.58c0,1.25,0,2.49,0,3.74,0,.27-.1.36-.36.36-2.49,0-4.99,0-7.48,0-.34,0-.38-.03-.38-.37,0-2.49,0-4.99,0-7.48,0-.27.1-.36.37-.36,2.5,0,5,0,7.5,0,.25,0,.35.08.35.35,0,1.26,0,2.51,0,3.77Z"/>
    <path class="cls-2" d="M5.51,9.54c0-1.24,0-2.48,0-3.71,0-.27.08-.36.35-.36,2.49,0,4.99,0,7.48,0,.26,0,.34.09.34.35,0,2.5,0,5.01,0,7.51,0,.26-.09.35-.34.35-2.49,0-4.99,0-7.48,0-.27,0-.36-.09-.35-.36.01-1.26,0-2.51,0-3.77Z"/>
  </g>
  <rect class="cls-1" width="100" height="100"/>
</svg>