<?xml version="1.0" encoding="UTF-8"?>
<svg id="Layer_1" data-name="Layer 1" xmlns="http://www.w3.org/2000/svg" version="1.1" viewBox="0 0 100 100">
  <defs>
    <style>
      .cls-1 {
        fill: none;
      }

      .cls-1, .cls-2 {
        stroke-width: 0px;
      }

      .cls-2 {
        fill: #000;
      }
    </style>
  </defs>
  <g>
    <path class="cls-2" d="M93.02,93.1c-2.05,0-4.1,0-6.15,0q-.66,0-.66.69c0,1.87-.01,3.74,0,5.61,0,.48-.15.61-.62.61-1.92-.02-3.84-.02-5.76,0-.48,0-.62-.16-.6-.62.03-.77.03-1.54,0-2.31-.02-.44.11-.62.58-.6.79.03,1.57,0,2.36.01.37,0,.53-.09.52-.49-.01-3.1-.01-6.2,0-9.3,0-.36-.1-.5-.48-.49-.82.02-1.64.02-2.46,0-.34,0-.46.12-.45.46.02.84,0,1.67,0,2.51,0,.36-.12.49-.49.49-.98-.02-1.97,0-2.95,0-.03-.03-.06-.05-.09-.08,0-.97,0-1.93.01-2.9,0-.32-.08-.48-.44-.47-.84.02-1.67.02-2.51,0-.36,0-.45.15-.44.47.02.97,0,1.93.01,2.9-.03.03-.06.05-.09.08-3.2,0-6.4,0-9.6,0q-.66,0-.66.64c0,2.97,0,5.94,0,8.91q0,.79-.81.79c-.74,0-1.48-.01-2.21,0-.36,0-.5-.11-.49-.48.02-.84,0-1.67,0-2.51,0-.33-.1-.47-.45-.47-.84.02-1.67.02-2.51,0-.32,0-.43.12-.43.44.01.85,0,1.71,0,2.56,0,.34-.12.46-.46.46-.87-.01-1.74-.02-2.61,0-.35,0-.46-.14-.45-.47.01-.84,0-1.67,0-2.51,0-.32-.07-.48-.44-.48-.84.02-1.67.02-2.51,0-.36,0-.44.15-.44.47.01.82,0,1.64,0,2.46,0,.37-.1.52-.5.52-3.13-.01-6.27-.01-9.4,0-.43,0-.52-.17-.52-.56.01-1.94,0-3.87.01-5.81,0-.4-.1-.56-.52-.54-.79.03-1.58.03-2.36,0-.39-.01-.51.13-.51.51.02,1.94,0,3.87.02,5.81,0,.45-.13.59-.59.59-1.94-.02-3.87-.02-5.81,0-.46,0-.6-.15-.58-.59.03-.79.03-1.58,0-2.36-.02-.47.17-.59.6-.57.77.03,1.54-.02,2.31.02.45.02.55-.15.55-.57-.02-2.08,0-4.17,0-6.25.03-.03.05-.06.08-.09,3.2,0,6.4,0,9.61,0,.23,0,.45.03.68.04.01.21.04.42.04.63,0,1.9,0,3.8,0,5.7,0,.37.08.54.49.52.8-.03,1.61-.03,2.41,0,.41.01.49-.16.49-.52-.01-1.46-.01-2.91,0-4.37,0-.65-.05-1.31.04-1.96,1-.09,2,0,3-.05.37-.01.49.14.48.49-.02.8.02,1.61-.01,2.41-.02.44.13.56.56.56,3.05-.02,6.1-.02,9.15,0,.48,0,.57-.17.57-.6-.02-1.89-.02-3.77,0-5.66,0-.45-.13-.59-.59-.58-1.94.02-3.87,0-5.81.02-.38,0-.52-.12-.51-.51.02-.82,0-1.64.01-2.46,0-.36-.11-.5-.48-.49-.84.02-1.67,0-2.51,0-.33,0-.47-.1-.47-.45.02-.87.01-1.74,0-2.61,0-.34.12-.46.46-.46,3.17,0,6.33,0,9.5,0,.35,0,.46.13.45.47-.01.84.01,1.67,0,2.51,0,.37.13.49.49.48.84-.02,1.67,0,2.51,0,.34,0,.46.12.46.46-.01.85,0,1.71,0,2.56,0,.32.11.43.43.43,1.98,0,3.97-.01,5.96,0,.35,0,.45-.13.45-.47-.02-.8-.02-1.61,0-2.41.01-.38-.11-.52-.51-.51-.84.02-1.67,0-2.51,0-.23,0-.44-.02-.43-.33.01-1.05-.05-2.1.04-3.15.95-.09,1.89-.04,2.84-.03.41,0,.59-.1.57-.55-.03-.77-.03-1.54,0-2.31.02-.45-.16-.55-.57-.55-.95,0-1.9.06-2.84-.03,0-.03-.03-.06-.03-.09,0-3.29,0-6.59-.02-9.88,0-.31.14-.39.42-.39.84,0,1.67-.02,2.51,0,.42.01.53-.15.52-.54-.02-.82,0-1.64-.01-2.46,0-.34.12-.46.46-.46.87.01,1.74.02,2.6,0,.34,0,.46.13.45.46-.01.84,0,1.67,0,2.51,0,.36.11.49.48.49,2.11-.02,4.23-.01,6.34-.01.03.03.05.06.08.09,0,.9,0,1.8,0,2.7q0,.66.69.66c1.87,0,3.74.01,5.6,0,.48,0,.61.14.61.61-.02,3.03,0,6.06-.02,9.09,0,.48.11.66.62.65,2.06-.03,4.13-.01,6.19-.02.03.03.06.05.09.08,0,1.12,0,2.24,0,3.36-.03.03-.06.06-.09.09-2.12,0-4.23,0-6.35-.01-.32,0-.48.08-.47.44.02.84.02,1.67,0,2.51,0,.36.15.44.48.44,2.11-.01,4.23,0,6.35-.01.03.03.06.06.08.08,0,2.27,0,4.54,0,6.81-.03.03-.06.05-.09.08ZM77.56,72.43c-1.54,0-3.08,0-4.63,0-.38,0-.52.11-.51.5.01,3.1.01,6.2,0,9.3,0,.37.13.48.49.48,3.1-.01,6.2-.01,9.3,0,.36,0,.49-.1.49-.48-.01-3.1-.01-6.2,0-9.3,0-.39-.13-.51-.51-.5-1.54.02-3.08,0-4.63,0Z"/>
    <path class="cls-2" d="M58.65,44.88c0,.95-.02,1.9,0,2.85.01.44-.12.6-.58.59-1.91-.02-3.83,0-5.74-.02-.44,0-.61.11-.59.58.03.93.01,1.86.01,2.8-.03.03-.06.06-.08.08-2.1,0-4.2-.01-6.3,0-.45,0-.6-.14-.59-.59.03-.8,0-1.61.01-2.41,0-.34-.11-.47-.46-.46-.82.02-1.64.02-2.46,0-.33,0-.47.08-.47.44.01,1.98.01,3.97,0,5.95,0,.42.22.44.53.43,1.92,0,3.84,0,5.76-.01.46,0,.64.12.62.61-.04.77,0,1.54-.02,2.31-.01.4.1.55.52.54,3.08-.02,6.17-.01,9.25,0,.39,0,.51-.12.51-.51-.02-1.92,0-3.84-.02-5.76,0-.49.13-.67.64-.64.8.04,1.61.02,2.41,0,.37,0,.49.14.48.49-.02.8.02,1.61-.01,2.41-.02.44.13.56.56.56,4.15-.01,8.3,0,12.45,0q.78,0,.78.77c0,.89,0,1.77,0,2.66-.03.03-.05.06-.08.09-4.41,0-8.81,0-13.22-.02-.41,0-.49.16-.49.52.01,3.01,0,6.03,0,9.04,0,.15,0,.29,0,.44,0,.22-.1.33-.33.33-1.05-.01-2.09.05-3.14-.04-.09-.96-.03-1.93-.03-2.89,0-.37-.09-.52-.5-.52-1.95.02-3.9.02-5.84,0-.4,0-.5.15-.5.52,0,.96.06,1.93-.03,2.89-.96.09-1.93,0-2.9.05-.45.02-.59-.14-.59-.59.02-1.93,0-3.87.01-5.8,0-.37-.09-.52-.5-.52-1.95.02-3.9.01-5.85,0-.36,0-.5.1-.49.47.02.97.01,1.93.01,2.9-.03.03-.06.05-.09.08-3.21,0-6.43.01-9.64-.01-.52,0-.65.16-.62.65.04.77.02,1.54,0,2.31,0,.32.11.44.43.43.85-.01,1.71,0,2.56,0,.33,0,.47.1.47.45-.02.87-.01,1.74,0,2.61,0,.34-.12.47-.46.46-.84-.01-1.67,0-2.51-.01-.36,0-.5.11-.49.48.02.84,0,1.67,0,2.51,0,.33-.1.47-.45.47-.87-.02-1.74-.01-2.61,0-.34,0-.47-.12-.46-.46.02-.8-.02-1.61.01-2.41.02-.45-.12-.59-.58-.59-2.94.02-5.87.01-8.81,0-1.09,0-.95.12-.96-.98,0-.64.02-1.28,0-1.92-.03-.47.13-.62.61-.62,3,.02,6,0,9,0q.74,0,.74-.76c0-2.02,0-4.03,0-6.05l.08-.09c2.08,0,4.16,0,6.24.02.46,0,.59-.14.58-.59-.02-1.93,0-3.87-.01-5.8,0-.38.11-.53.5-.52.74.02,1.47,0,2.21,0q.73,0,.73-.71c0-2.98,0-5.97,0-8.95,0-.21.03-.42.04-.63.2-.01.39-.04.59-.04,3.06,0,6.12,0,9.18,0,.4,0,.55-.12.53-.53-.03-.95-.01-1.9-.02-2.85.03-.03.06-.06.08-.08,1.52,0,3.03,0,4.55.01.76,0,1.53-.05,2.29.04.09.96.04,1.92.03,2.89,0,.41.14.54.54.53.95-.03,1.89-.01,2.84-.01.03.03.05.06.08.09Z"/>
    <path class="cls-2" d="M58.66,13.79c2.1,0,4.2.01,6.3,0,.46,0,.6.15.58.59-.03.79,0,1.58-.01,2.36-.01.39.12.51.51.51,1.94-.02,3.87,0,5.81-.02.45,0,.59.13.59.58-.02,3.25,0,6.5,0,9.74-.03.03-.05.06-.08.09-.97,0-1.94,0-2.9-.02-.38,0-.48.14-.47.49.02.8-.02,1.61.01,2.41.02.44-.15.57-.57.55-.79-.03-1.58-.03-2.36,0-.49.02-.62-.17-.6-.63.03-.79,0-1.57.01-2.36,0-.33-.09-.47-.44-.47-1.98.01-3.97,0-5.95,0-.31,0-.44.1-.44.43.01.84.02,1.67,0,2.51,0,.35.13.46.46.45.84-.02,1.67,0,2.51,0,.36,0,.49.13.48.49-.02.82-.03,1.64,0,2.46.02.47-.16.58-.6.58-1.92-.02-3.84,0-5.76-.02-.44,0-.56.14-.56.56,0,.95.06,1.9-.03,2.85-.21.01-.42.04-.63.04-1.9,0-3.8.01-5.69,0-.41,0-.54.12-.53.53.03.95.01,1.9.02,2.85-.03.03-.06.06-.08.08-2.1,0-4.2-.02-6.29,0-.43,0-.62-.11-.6-.58.03-.77-.02-1.54.02-2.31.02-.47-.15-.58-.59-.57-1.93.02-3.87,0-5.8.01-.38,0-.52-.13-.51-.51.02-.82,0-1.64.01-2.46,0-.36-.11-.49-.48-.49-2.11.02-4.23.01-6.34.01-.03-.03-.05-.06-.08-.09,0-2.1.01-4.2,0-6.3,0-.45.14-.6.59-.59.95.03,1.9,0,2.85,0,.03.03.06.05.09.08,0,.96,0,1.93-.02,2.89,0,.37.12.49.48.48,1.13-.02,2.26-.02,3.38,0,1,.01,1.99-.05,2.99.04.09.96.03,1.93.03,2.89,0,.37.09.52.5.52,1.95-.02,3.9-.02,5.85,0,.4,0,.5-.15.5-.52,0-.96-.06-1.93.03-2.89,1.14-.07,2.29-.07,3.43,0,.09.95.04,1.89.03,2.84,0,.41.09.59.54.57.77-.03,1.54-.03,2.31,0,.45.02.55-.16.55-.57,0-.95-.06-1.9.03-2.84.95-.09,1.9-.04,2.84-.03.41,0,.59-.09.57-.54-.03-.77-.03-1.54,0-2.31.02-.45-.16-.55-.57-.55-.95,0-1.9.06-2.84-.03-.07-1.14-.07-2.29,0-3.43.95-.09,1.89-.04,2.84-.03.41,0,.59-.1.57-.55-.03-.77-.03-1.54,0-2.31.02-.45-.16-.55-.57-.54-.95,0-1.9.06-2.84-.03-.09-.95,0-1.9-.05-2.84-.03-.49.13-.65.63-.64,1.93.03,3.86,0,5.79.02.36,0,.49-.11.48-.48-.02-.96-.01-1.93-.01-2.9.03-.03.06-.05.09-.08ZM68.91,22.48c0-.43-.01-.85,0-1.28.01-.33-.09-.47-.44-.47-.83.02-1.67.01-2.5,0-.31,0-.45.09-.44.42.01.85.01,1.7,0,2.55,0,.28.09.42.39.42.87-.01,1.73-.01,2.6,0,.31,0,.4-.14.39-.42-.01-.41,0-.82,0-1.23ZM60.33,20.75c-.41,0-.82.01-1.23,0-.33-.01-.48.09-.47.44.02.83.01,1.67,0,2.5,0,.31.09.45.42.44.85-.01,1.7-.01,2.55,0,.28,0,.42-.09.42-.39-.01-.87-.01-1.73,0-2.6,0-.31-.13-.4-.42-.39-.42.01-.85,0-1.28,0Z"/>
    <path class="cls-2" d="M24.19,12.13c0,3.81,0,7.61,0,11.42,0,.65,0,.65-.65.65-7.63,0-15.25,0-22.88,0-.65,0-.65,0-.65-.65,0-7.63,0-15.25,0-22.88C0,.01,0,0,.66,0c7.63,0,15.25,0,22.88,0,.65,0,.65,0,.65.65,0,3.82,0,7.64,0,11.46ZM3.71,12.1c0,2.61,0,5.22,0,7.82,0,.41.09.58.54.57,5.23-.01,10.46-.01,15.69,0,.44,0,.55-.15.55-.57-.01-5.21-.01-10.43,0-15.64,0-.47-.16-.57-.6-.57-5.2.01-10.4.01-15.6,0-.49,0-.6.16-.6.62.02,2.59,0,5.18,0,7.77Z"/>
    <path class="cls-2" d="M75.8,12.1c0-3.81,0-7.61,0-11.42,0-.68,0-.68.68-.68,7.61,0,15.22,0,22.83,0,.68,0,.68,0,.68.68,0,7.61,0,15.22,0,22.83,0,.68,0,.68-.68.68-7.61,0-15.22,0-22.83,0-.68,0-.68,0-.68-.68,0-3.81,0-7.61,0-11.42ZM96.28,12.15c0-2.62,0-5.25,0-7.87,0-.41-.1-.58-.55-.57-5.23.01-10.46.01-15.7,0-.45,0-.55.15-.55.57.01,5.22.01,10.43,0,15.65,0,.47.16.57.6.57,5.2-.01,10.4-.01,15.6,0,.49,0,.6-.16.6-.62-.02-2.57,0-5.15,0-7.72Z"/>
    <path class="cls-2" d="M24.19,87.95c0,3.79,0,7.58,0,11.37,0,.67,0,.68-.68.68-7.61,0-15.22,0-22.83,0-.67,0-.68,0-.68-.68,0-7.61,0-15.22,0-22.83,0-.67,0-.68.68-.68,7.61,0,15.22,0,22.83,0,.67,0,.68,0,.68.68,0,3.82,0,7.64,0,11.46ZM20.48,87.95c0-2.59,0-5.18,0-7.77,0-.66,0-.66-.64-.66-5.17,0-10.33,0-15.5,0-.48,0-.65.11-.65.62.02,5.18.02,10.36,0,15.55,0,.46.11.62.6.62,5.2-.02,10.4-.02,15.6,0,.49,0,.6-.16.6-.62-.02-2.57,0-5.15,0-7.72Z"/>
    <path class="cls-2" d="M10.33,55.2c-.97,0-1.94-.02-2.9,0-.41,0-.54-.14-.53-.54.02-1.93,0-3.87.02-5.8,0-.43-.11-.58-.55-.56-.79.03-1.57.02-2.36,0-.37-.01-.49.13-.48.49.02.84,0,1.67.01,2.51,0,.33-.08.47-.43.46-.87-.02-1.74-.02-2.61,0-.36,0-.48-.13-.48-.49,0-3.15,0-6.3,0-9.44,0-.36.13-.49.49-.48.84.02,1.67,0,2.51,0,.34,0,.46-.11.46-.46-.02-.84,0-1.67,0-2.51,0-.36.11-.5.48-.49.79.02,1.57-.02,2.36.01.46.02.63-.11.62-.6-.03-1.89-.01-3.77-.01-5.66,0-.64,0-.64.66-.64.77,0,1.54-.02,2.31,0,.37.01.49-.13.48-.49-.02-.84,0-1.67,0-2.51,0-.34.12-.47.46-.46.87.01,1.74.02,2.61,0,.35,0,.46.13.45.47-.01.84.01,1.67,0,2.51,0,.37.12.49.48.48.8-.02,1.61-.03,2.41,0,.41.01.5-.15.5-.52-.02-.8,0-1.61-.01-2.41,0-.36.08-.53.49-.53,2,.02,4,.01,6,0,.37,0,.48.14.47.5-.02.84-.02,1.67,0,2.51.01.43-.16.53-.55.52-.77-.02-1.54.02-2.31-.02-.49-.02-.61.16-.6.62.03.92.01,1.84.01,2.75-.03.03-.05.06-.08.09-3.26,0-6.53,0-9.79-.01-.37,0-.48.13-.47.49.02.79.02,1.57,0,2.36-.01.4.11.55.53.54.82-.03,1.64,0,2.46-.01.33,0,.47.1.47.45-.01,2.02,0,4.03,0,6.05,0,.34-.11.47-.46.46-.84-.02-1.67,0-2.51,0-.36,0-.49.1-.49.47.01,3.26.01,6.53.01,9.79-.03.03-.06.05-.09.08Z"/>
    <path class="cls-2" d="M79.32,48.32c0,.98-.01,1.97,0,2.95,0,.36-.13.48-.49.48-3.15,0-6.3,0-9.45,0-.37,0-.49-.14-.48-.49.02-.84,0-1.67,0-2.51,0-.35-.12-.46-.46-.45-.82.02-1.64-.01-2.46.01-.41.01-.54-.13-.54-.54.01-2.12,0-4.23,0-6.35.03-.03.05-.06.08-.09,2.11,0,4.23,0,6.34.01.37,0,.48-.12.48-.48-.01-4.41-.01-8.82-.01-13.23.03-.03.05-.06.08-.09.98,0,1.96.03,2.94,0,.39,0,.51.14.5.52-.02.8.01,1.6-.01,2.4-.01.4.11.55.53.54.95-.03,1.9,0,2.85-.01.03.03.06.06.08.08,0,2.26,0,4.53,0,6.79-.03.03-.05.06-.08.09-.97,0-1.93,0-2.9-.01-.32,0-.48.08-.47.44.02.84.02,1.67,0,2.51,0,.36.15.44.47.44.97-.02,1.93,0,2.9-.01.03.03.05.06.08.09,0,1.12,0,2.23,0,3.35-.03.03-.05.06-.08.09-.97,0-1.93,0-2.9-.02-.33,0-.48.08-.47.44.02.84.02,1.67,0,2.51,0,.36.15.44.47.44.97-.02,1.93,0,2.9-.01.03.03.05.06.08.09Z"/>
    <path class="cls-2" d="M96.55,34.54c0,2.08.01,4.16-.01,6.24,0,.46.14.59.59.58.8-.03,1.61,0,2.41-.01.34,0,.47.12.46.46-.01.87-.01,1.74,0,2.6,0,.34-.12.46-.46.46-2.01,0-4.03,0-6.04,0-.33,0-.47-.11-.46-.46.02-.79-.02-1.57.01-2.36.02-.48-.11-.67-.62-.65-.92.04-1.83.01-2.75.01-.03-.03-.06-.05-.09-.08,0-.96,0-1.93.01-2.89,0-.36-.12-.49-.48-.48-.96.02-1.93.01-2.89.01-.03-.03-.05-.06-.08-.09,0-2.1.01-4.2,0-6.3,0-.46.14-.6.59-.59.79.03,1.58.03,2.36,0,.47-.02.59.16.58.6-.03.77.02,1.54-.02,2.31-.02.45.15.55.57.55,2.08-.02,4.17,0,6.25-.01.03.03.05.06.08.08Z"/>
    <path class="cls-2" d="M34.46,82.68c0-2.1.01-4.2,0-6.29,0-.44.12-.6.58-.59,1.93.02,3.87,0,5.8.01.32,0,.52-.03.52-.44-.02-3.28-.02-6.55-.02-9.83.03-.03.06-.05.09-.08.92,0,1.84,0,2.75,0,.68,0,.68,0,.68.67,0,5.31,0,10.63,0,15.94,0,.11,0,.23,0,.34,0,.22-.1.34-.32.33-1.05-.01-2.1.05-3.14-.04-.09-.95-.04-1.89-.03-2.84,0-.41-.1-.59-.55-.57-.77.03-1.54.03-2.31,0-.45-.02-.55.16-.55.57,0,.95.06,1.9-.03,2.84-1.13.1-2.26,0-3.4.05l-.08-.09Z"/>
    <path class="cls-2" d="M96.46,58.65c-.97,0-1.94-.02-2.9,0-.41,0-.54-.14-.53-.54.02-1.94,0-3.87.02-5.81,0-.43-.12-.58-.56-.56-.75.03-1.51.04-2.26,0-.47-.02-.59.16-.57.6.03.79,0,1.57.01,2.36,0,.34-.09.51-.47.5-.87-.02-1.74-.01-2.61,0-.31,0-.44-.1-.44-.43,0-2.03.01-4.07,0-6.1,0-.46.28-.43.58-.43,2.92,0,5.84,0,8.76,0,1.33,0,2.66.01,3.99,0,.41,0,.54.14.53.54-.02.82-.03,1.64,0,2.46.01.42-.15.54-.55.52-.79-.02-1.58.02-2.36-.02-.45-.02-.55.15-.55.57.02,2.08,0,4.17.01,6.25-.03.03-.06.06-.08.08Z"/>
    <path class="cls-2" d="M68.9,3.52c-.93,0-1.87.02-2.8-.01-.47-.02-.58.16-.57.59.02,1.88,0,3.76,0,5.65,0,.66,0,.66-.64.66-2.08,0-4.16,0-6.24,0-.03-.03-.06-.05-.09-.08,0-.96,0-1.93.01-2.89,0-.36-.12-.49-.48-.48-.96.02-1.93.01-2.89.01-.03-.03-.05-.06-.08-.09,0-.97.02-1.94,0-2.9,0-.41.13-.54.54-.53,1.94.02,3.87,0,5.81.02.43,0,.58-.12.56-.56-.03-.82,0-1.64-.01-2.46,0-.31.1-.44.43-.44,2.03,0,4.07,0,6.1,0,.36,0,.44.17.44.48,0,.98,0,1.97,0,2.95-.03.03-.06.06-.08.08Z"/>
    <path class="cls-2" d="M37.97,3.53c0,2.08,0,4.15-.01,6.23,0,.44.11.61.58.59.93-.03,1.86-.01,2.8-.01.03.03.06.05.09.08,0,.95-.03,1.9,0,2.84.02.48-.16.61-.62.6-2.09-.02-4.18,0-6.27,0-.03-.03-.05-.06-.08-.09,0-.94-.02-1.87,0-2.81.01-.42-.1-.59-.55-.57-.79.03-1.58,0-2.36.02-.39.01-.55-.11-.55-.53.02-1.97.02-3.94,0-5.91,0-.4.13-.54.54-.54,2.12.01,4.23,0,6.35,0,.03.03.05.06.08.08Z"/>
    <path class="cls-2" d="M96.55,58.57c.97,0,1.93.02,2.9,0,.38,0,.56.09.55.52-.01,3.13-.01,6.25,0,9.38,0,.42-.16.52-.55.52-2.11-.01-4.22,0-6.33,0-.03-.03-.06-.06-.08-.09,0-2.06,0-4.13,0-6.19q0-.68.66-.69c.79,0,1.57-.01,2.36,0,.32,0,.43-.12.43-.43-.02-.98-.01-1.96-.02-2.95.03-.03.06-.06.08-.08Z"/>
    <path class="cls-2" d="M93.01,79.25c0-.98,0-1.97.02-2.95,0-.32-.11-.44-.43-.43-.85.01-1.7,0-2.56,0-.33,0-.47-.1-.47-.45.01-2.01.01-4.03,0-6.04,0-.38.15-.47.5-.47.98,0,1.97,0,2.95-.01.03.03.06.06.08.09,0,.97,0,1.93-.02,2.9,0,.37.12.48.48.48,1.93-.01,3.87,0,5.8-.02.46,0,.64.11.62.6-.04.8-.02,1.61,0,2.41,0,.38-.11.53-.5.52-.79-.02-1.57.02-2.36-.02-.49-.02-.61.16-.6.62.03.92.01,1.84.01,2.75-.03.03-.05.06-.08.09-1.12,0-2.24,0-3.36,0-.03-.03-.06-.05-.09-.08Z"/>
    <path class="cls-2" d="M75.87,58.56c.98,0,1.97,0,2.95.02.32,0,.44-.11.43-.43-.01-.85,0-1.7,0-2.56,0-.33.1-.47.45-.47.87.02,1.74.02,2.6,0,.44-.01.46.23.46.56,0,2.62,0,5.24,0,7.86,0,.48-.03.95,0,1.42.04.48-.17.58-.6.57-.95-.02-1.9,0-2.85,0-.03-.03-.05-.06-.08-.09,0-.98,0-1.96.01-2.94,0-.32-.11-.44-.43-.43-.78.01-1.57,0-2.36,0q-.66,0-.66-.64c0-.93,0-1.86,0-2.8.03-.03.05-.06.08-.09Z"/>
    <path class="cls-2" d="M31,24.19c-.98,0-1.96-.01-2.95,0-.36,0-.49-.11-.49-.48.01-2,.01-3.99,0-5.99,0-.4.16-.5.52-.5.83.02,1.67,0,2.5,0,.32,0,.43-.12.43-.43-.01-.82.01-1.64-.01-2.46-.01-.42.11-.58.55-.57.97.02,1.93,0,2.9,0,.03.03.05.06.08.09,0,2.27,0,4.54,0,6.81-.03.03-.06.06-.08.08-.98,0-1.96,0-2.94-.01-.32,0-.44.11-.43.43.02.98.01,1.96.02,2.94-.03.03-.06.05-.09.08Z"/>
    <path class="cls-2" d="M31,27.57c0-1.12,0-2.25,0-3.37.03-.03.06-.05.09-.08.96,0,1.93,0,2.89.02.37,0,.49-.12.48-.48-.02-.96-.01-1.93-.01-2.89.03-.03.06-.06.08-.08,1.13.04,2.27-.05,3.4.05.09,1.42.03,2.85.04,4.27,0,.87.05,1.74-.04,2.6-.21.01-.42.04-.63.04-2.07,0-4.14,0-6.21.01-.03-.03-.06-.05-.09-.08Z"/>
    <path class="cls-2" d="M27.57,62.1c-1.12,0-2.24,0-3.36-.01-.03-.03-.06-.05-.09-.08,0-.96,0-1.93.01-2.89,0-.36-.11-.49-.48-.48-.85.02-1.7,0-2.55,0-.24,0-.42-.04-.42-.34.02-1.04-.05-2.09.04-3.13.21-.01.42-.04.63-.04,2.07,0,4.14,0,6.21,0,.03.03.05.06.08.08,0,2.27,0,4.53,0,6.8l-.08.09Z"/>
    <path class="cls-2" d="M17.22,62.09c-2.09,0-4.19-.01-6.28,0-.48,0-.61-.15-.61-.62.02-2.09,0-4.19,0-6.28.03-.03.06-.05.09-.08,1.13.04,2.27-.05,3.4.05.09.95.04,1.89.03,2.84,0,.47.15.59.59.57.77-.03,1.54.01,2.3-.02.42-.01.58.11.57.55-.03.96,0,1.93,0,2.89-.03.03-.06.05-.09.08Z"/>
    <path class="cls-2" d="M72.43,93.11c0,.92.02,1.84-.01,2.75-.02.46.11.64.6.62.79-.04,1.57,0,2.36-.01.35,0,.51.09.5.47-.02.87-.01,1.74,0,2.61,0,.31-.1.44-.43.44-2.03,0-4.07,0-6.1,0-.31,0-.44-.11-.44-.43,0-2.03,0-4.07,0-6.1,0-.36.17-.44.48-.43.98,0,1.97,0,2.95,0,.03.03.06.06.08.08Z"/>
    <path class="cls-2" d="M96.54,93.11c0,2.08,0,4.16,0,6.23,0,.64,0,.64-.66.64-.79,0-1.57-.02-2.36,0-.39.01-.51-.14-.5-.52,0-2.13,0-4.25,0-6.38.03-.03.06-.05.09-.08,1.12,0,2.24,0,3.36,0,.03.03.05.06.08.09Z"/>
    <path class="cls-2" d="M37.89,3.45c0-.97.02-1.93,0-2.9,0-.39.09-.56.52-.55,1.98.02,3.96.02,5.94,0,.39,0,.52.13.51.51-.02.82-.03,1.64,0,2.46.01.43-.13.56-.56.56-2.11-.01-4.22,0-6.34,0-.03-.03-.05-.06-.08-.08Z"/>
    <path class="cls-2" d="M20.75,34.45c2.27,0,4.55,0,6.82,0,.03.03.05.06.08.09-.04,1.13.05,2.27-.05,3.4-.95.09-1.9.04-2.85.04-1.34,0-2.69.06-4.03-.04-.1-1.13,0-2.27-.05-3.4.03-.03.05-.06.08-.09Z"/>
    <path class="cls-2" d="M96.56,86.14c.98,0,1.96.01,2.94,0,.35,0,.5.1.49.47-.01,2.01-.01,4.02,0,6.03,0,.34-.12.46-.46.46-1,0-1.99,0-2.99.01-.03-.03-.05-.06-.08-.09,0-2.27,0-4.54,0-6.81.03-.03.06-.05.09-.08Z"/>
    <path class="cls-2" d="M48.24,10.33c0-.88,0-1.76,0-2.65q0-.78.76-.78c2.04,0,4.08,0,6.13-.01.03.03.05.06.08.09,0,1.12,0,2.24,0,3.36-.03.03-.06.06-.08.09-2.27,0-4.54,0-6.81,0-.03-.03-.05-.06-.08-.09Z"/>
    <path class="cls-2" d="M86.13,41.42c-2.27,0-4.54,0-6.81.01-.03-.03-.05-.06-.08-.09,0-1.12,0-2.24,0-3.36.03-.03.05-.06.08-.09,2.27,0,4.55,0,6.82,0,.03.03.05.06.08.09,0,1.12,0,2.24,0,3.36-.03.03-.06.05-.09.08Z"/>
    <path class="cls-2" d="M24.2,62.09c0,.98-.02,1.96,0,2.94,0,.39-.14.51-.52.5-1.98-.01-3.96-.01-5.94,0-.38,0-.52-.11-.52-.5.02-.98,0-1.96,0-2.94.03-.03.06-.05.09-.08,2.27,0,4.54,0,6.81,0,.03.03.06.05.09.08Z"/>
    <path class="cls-2" d="M0,31.05c0-1,.01-2,0-3,0-.36.12-.49.48-.49.87.02,1.74.01,2.6,0,.32,0,.43.12.43.43,0,2.03,0,4.06,0,6.09,0,.36-.17.44-.48.44-.85-.01-1.7-.02-2.56,0-.36,0-.49-.12-.48-.48.02-1,0-2,0-3Z"/>
    <path class="cls-2" d="M79.32,44.78c.98,0,1.96.02,2.94,0,.39,0,.52.13.51.51-.02.85-.02,1.7,0,2.55,0,.34-.12.46-.46.46-1,0-1.99,0-2.99,0-.03-.03-.05-.06-.08-.09,0-1.12,0-2.24,0-3.36.03-.03.05-.06.08-.09Z"/>
    <path class="cls-2" d="M51.76,51.67c.98,0,1.96.02,2.94,0,.39,0,.51.14.51.51-.02.85-.02,1.7,0,2.55,0,.34-.12.46-.46.46-.85-.01-1.7-.02-2.55,0-.38,0-.52-.12-.51-.51.02-.98,0-1.96,0-2.94.03-.03.06-.06.08-.08Z"/>
    <path class="cls-2" d="M89.67,41.42c0,.98-.02,1.96,0,2.94,0,.39-.13.52-.51.51-.83-.02-1.67-.02-2.5,0-.38,0-.52-.12-.51-.51.02-.98,0-1.96,0-2.94.03-.03.06-.05.09-.08,1.12,0,2.24,0,3.36,0,.03.03.06.05.09.08Z"/>
    <path class="cls-2" d="M62.09,41.43c0,.98-.02,1.96,0,2.93,0,.39-.14.51-.51.5-.98-.01-1.96,0-2.93.01-.03-.03-.05-.06-.08-.09.04-1.13-.05-2.27.05-3.4,1.13-.1,2.26,0,3.4-.05.03.03.05.06.08.09Z"/>
    <path class="cls-2" d="M96.46,34.46c0-.98.02-1.96,0-2.94,0-.34.08-.51.46-.51.87.02,1.73.02,2.6,0,.34,0,.46.12.46.46-.01.85-.02,1.7,0,2.55,0,.38-.12.52-.51.51-.98-.02-1.96,0-2.94,0-.03-.03-.05-.06-.08-.08Z"/>
    <path class="cls-2" d="M89.65,60.37c0,.43,0,.85,0,1.28,0,.3-.08.45-.42.45-.9-.01-1.8-.01-2.7,0-.3,0-.4-.13-.4-.41,0-.9,0-1.8,0-2.7,0-.3.13-.4.42-.4.9,0,1.8,0,2.7,0,.3,0,.41.13.4.42-.01.46,0,.92,0,1.37Z"/>
    <path class="cls-2" d="M1.74,65.53c-.44,0-.88,0-1.33,0-.29,0-.41-.12-.41-.41,0-.9,0-1.8,0-2.7,0-.29.12-.41.41-.41.9,0,1.8,0,2.7,0,.29,0,.41.12.41.41,0,.9,0,1.8,0,2.7,0,.29-.12.41-.41.41-.46-.01-.92,0-1.38,0Z"/>
    <path class="cls-2" d="M13.85,67.26c0,.43,0,.85,0,1.28,0,.3-.09.45-.42.45-.9-.01-1.8-.01-2.7,0-.3,0-.4-.14-.4-.42,0-.9,0-1.8,0-2.7,0-.3.14-.4.42-.4.9,0,1.8,0,2.7,0,.3,0,.4.14.4.42-.01.46,0,.92,0,1.37Z"/>
    <path class="cls-2" d="M3.52,70.72c0,.44,0,.88,0,1.33,0,.27-.11.38-.38.38-.92,0-1.83,0-2.75,0-.27,0-.38-.11-.38-.38,0-.92,0-1.83,0-2.75,0-.27.11-.38.38-.38.92,0,1.83,0,2.75,0,.27,0,.39.11.38.38,0,.47,0,.95,0,1.42Z"/>
    <path class="cls-2" d="M58.66,10.41c0,1.12,0,2.25,0,3.37-.03.03-.06.05-.09.08-.98,0-1.96-.02-2.93,0-.38,0-.52-.12-.51-.51.02-.98,0-1.96,0-2.93.03-.03.06-.06.08-.09,1.12,0,2.24,0,3.36,0,.03.03.06.05.09.08Z"/>
    <path class="cls-2" d="M44.88,10.34c1.12,0,2.24,0,3.36-.01.03.03.05.06.08.09,0,.98-.02,1.97,0,2.95,0,.36-.11.5-.48.49-.85-.02-1.71-.02-2.56,0-.37,0-.49-.13-.48-.49.01-.98,0-1.97,0-2.95.03-.03.06-.05.09-.08Z"/>
    <path class="cls-2" d="M31,82.76c-.98,0-1.97-.01-2.95,0-.36,0-.5-.12-.49-.48.02-.87.01-1.74,0-2.6,0-.32.12-.44.43-.43.88.01,1.77.01,2.65,0,.32,0,.43.12.43.44,0,1,0,2,0,3-.03.03-.06.05-.08.08Z"/>
    <path class="cls-2" d="M96.55,79.24c.98,0,1.96.02,2.94,0,.38,0,.52.12.51.51-.02.83-.02,1.67,0,2.5.01.42-.16.53-.55.52-.96-.02-1.93,0-2.89,0-.03-.03-.06-.05-.09-.08,0-1.12,0-2.24,0-3.36.03-.03.05-.06.08-.09Z"/>
    <path class="cls-2" d="M41.34,10.34c0-.98.02-1.96,0-2.94,0-.39.13-.52.51-.51.85.02,1.7.02,2.55,0,.34,0,.46.12.46.46,0,1,0,1.99.01,2.99-.03.03-.06.05-.09.08-1.12,0-2.24,0-3.36,0-.03-.03-.06-.05-.09-.08Z"/>
    <path class="cls-2" d="M31.08,82.68c1.12,0,2.25,0,3.37,0,.03.03.05.06.08.09,0,.98-.02,1.96,0,2.93,0,.38-.12.52-.51.51-.98-.02-1.96,0-2.93,0-.03-.03-.05-.06-.08-.09,0-1.12,0-2.24-.01-3.36.03-.03.06-.05.08-.08Z"/>
    <path class="cls-2" d="M68.98,3.44c.98,0,1.96.02,2.94,0,.39,0,.52.13.51.51-.02.85-.02,1.7,0,2.55,0,.34-.12.46-.46.46-.85-.01-1.7-.02-2.55,0-.38,0-.52-.12-.51-.51.02-.98,0-1.96,0-2.94.03-.03.06-.06.08-.08Z"/>
    <path class="cls-2" d="M65.47,41.43c-1.12,0-2.25,0-3.37,0-.03-.03-.05-.06-.08-.09,0-.98.02-1.97,0-2.95,0-.36.11-.5.48-.49.98.02,1.97,0,2.95,0,.03.03.06.06.09.09v3.36s-.05.06-.07.09Z"/>
    <path class="cls-2" d="M96.56,82.76c0,1.12,0,2.25,0,3.37-.03.03-.06.05-.09.08-1.12,0-2.24,0-3.36,0-.03-.03-.06-.06-.08-.08,0-1.12,0-2.24,0-3.36.03-.03.06-.06.09-.09,1.12,0,2.24,0,3.36,0,.03.03.06.05.09.08Z"/>
    <path class="cls-2" d="M31.01,89.67c-.98,0-1.96-.02-2.94,0-.39,0-.52-.13-.51-.51.02-.85.02-1.7,0-2.55,0-.34.12-.46.46-.46,1,0,1.99,0,2.99,0,.03.03.05.06.08.09,0,1.12,0,2.24,0,3.36-.03.03-.05.06-.08.09Z"/>
    <path class="cls-2" d="M79.24,31.01c0-.98.02-1.96,0-2.94,0-.39.14-.51.51-.51.85.02,1.7.02,2.55,0,.34,0,.46.12.46.46-.01.85-.02,1.7,0,2.55,0,.38-.12.52-.51.51-.98-.02-1.96,0-2.94,0-.03-.03-.06-.06-.08-.08Z"/>
    <path class="cls-2" d="M72.34,93.03c0-1.12,0-2.25,0-3.37.03-.03.06-.05.09-.08,1.12,0,2.24,0,3.36,0,.03.03.06.05.09.08,0,.98-.02,1.96,0,2.94,0,.38-.13.52-.51.51-.98-.02-1.96,0-2.94,0-.03-.03-.06-.06-.08-.08Z"/>
    <path class="cls-2" d="M50,3.52c-.46,0-.92,0-1.37,0-.27,0-.38-.11-.38-.38,0-.92,0-1.83,0-2.75,0-.27.11-.38.38-.38.92,0,1.83,0,2.75,0,.27,0,.38.11.38.38,0,.92,0,1.83,0,2.75,0,.27-.11.38-.38.38-.46,0-.92,0-1.37,0Z"/>
    <path class="cls-2" d="M51.73,68.95c.8-.09,1.6-.04,2.41-.04,1.49,0,2.98-.06,4.47.04.09,1.05.02,2.1.04,3.14,0,.31-.2.33-.43.33-.84,0-1.67.02-2.51,0-.39-.01-.52.12-.51.51.02.82,0,1.64.01,2.46,0,.36-.12.49-.48.49-2-.01-4-.01-6,0-.36,0-.49-.13-.48-.49.02-.85.02-1.71,0-2.56,0-.37.14-.48.49-.48.82.02,1.64-.01,2.46.01.39.01.5-.13.51-.51,0-.97-.06-1.93.03-2.9Z"/>
    <path class="cls-2" d="M65.49,75.85c.07,1.14.07,2.29,0,3.43-1.05.09-2.09.02-3.14.04-.22,0-.33-.1-.33-.33,0-.95,0-1.9,0-2.85,0-.22.11-.33.33-.33,1.05.01,2.09-.05,3.14.04Z"/>
    <path class="cls-2" d="M37.94,82.74c1.14-.07,2.29-.07,3.43,0,.07,1.14.07,2.29,0,3.43-1.05.09-2.09.02-3.14.04-.22,0-.33-.1-.33-.33.01-1.05-.05-2.09.04-3.14Z"/>
    <path class="cls-2" d="M44.82,89.61c-1.14.07-2.29.07-3.43,0-.07-1.14-.07-2.29,0-3.43,1.05-.09,2.09-.02,3.14-.04.22,0,.33.1.33.33-.01,1.05.05,2.09-.04,3.14Z"/>
    <path class="cls-2" d="M77.51,79.32c-.44,0-.88,0-1.33,0-.27,0-.38-.11-.38-.38,0-.92,0-1.83,0-2.75,0-.27.11-.38.38-.38.92,0,1.83,0,2.75,0,.27,0,.38.11.38.38,0,.92,0,1.83,0,2.75,0,.27-.11.39-.38.38-.47,0-.95,0-1.42,0Z"/>
    <path class="cls-2" d="M20.7,37.95c.09.95.04,1.9.03,2.84,0,.42.1.58.55.57,1.92-.02,3.83-.02,5.75,0,.45,0,.55-.15.55-.57,0-.95-.06-1.9.03-2.84,1.05-.09,2.09-.02,3.14-.04.35,0,.33.25.33.48,0,1.44,0,2.88,0,4.33,0,.7.05,1.41-.04,2.11-.96.09-1.92.04-2.89.03-.41,0-.54.14-.53.54.03.73,0,1.47,0,2.2q0,.71-.69.71c-.91,0-1.83,0-2.74,0-.03-.03-.06-.05-.09-.08,0-.97,0-1.93.01-2.9,0-.32-.08-.48-.44-.47-.84.02-1.67.02-2.51,0-.36,0-.44.15-.44.47.02.97,0,1.93.01,2.9-.03.03-.06.06-.08.08-1.12,0-2.24,0-3.36,0-.03-.03-.05-.06-.08-.09,0-3.23.01-6.46,0-9.69,0-.49.13-.67.63-.64.95.06,1.9-.04,2.85.05Z"/>
    <path class="cls-2" d="M20.7,55.16c-1.38.09-2.75.03-4.13.04-.92,0-1.83.05-2.75-.04-.09-.85-.03-1.7-.04-2.54-.01-1.29,0-2.58,0-3.87,0-.39.13-.51.51-.51.98.02,1.96,0,2.94,0,.03.03.05.06.08.09,0,.96,0,1.93-.01,2.89,0,.36.12.49.48.48.96-.02,1.93-.01,2.89-.01.03.03.05.06.08.09-.03,1.13.05,2.26-.04,3.39Z"/>
    <path class="cls-2" d="M31.05,44.84c1.14-.07,2.29-.07,3.43,0,.09,1.05.02,2.09.04,3.14,0,.22-.1.33-.33.33-.95,0-1.9,0-2.85,0-.22,0-.33-.11-.33-.33.01-1.05-.05-2.09.04-3.14Z"/>
    <path class="cls-2" d="M24.2,48.31c0,.98-.02,1.96,0,2.94,0,.38-.13.52-.51.51-.98-.02-1.96,0-2.94,0-.03-.03-.05-.06-.08-.09,0-1.12,0-2.24,0-3.36.03-.03.06-.06.08-.08,1.12,0,2.24,0,3.36,0l.09.08Z"/>
    <path class="cls-2" d="M27.56,55.13c0-.98.02-1.96,0-2.94,0-.39.14-.51.51-.51.85.02,1.7.02,2.55,0,.34,0,.46.12.46.46-.01.85-.02,1.7,0,2.55,0,.38-.12.52-.51.51-.98-.02-1.96,0-2.94,0-.03-.03-.05-.06-.08-.08Z"/>
    <path class="cls-2" d="M34.5,44.82c-.09-1.05-.02-2.09-.04-3.14,0-.22.1-.33.33-.33.95,0,1.9,0,2.85,0,.22,0,.33.11.33.33-.01,1.05.05,2.09-.04,3.14-1.14.07-2.29.07-3.43,0Z"/>
    <path class="cls-2" d="M55.17,37.95c1.05-.09,2.09-.02,3.14-.04.22,0,.33.1.33.33-.01,1.05.05,2.09-.04,3.14-1.14.07-2.29.07-3.43,0-.07-1.14-.07-2.29,0-3.43Z"/>
    <path class="cls-2" d="M44.82,24.15c-1.05.09-2.1.02-3.15.04-.31,0-.33-.21-.33-.43,0-.84-.02-1.67,0-2.51.01-.4-.13-.51-.51-.5-.97,0-1.93.06-2.9-.03-.09-1.06-.02-2.13-.04-3.19,0-.35.25-.28.45-.28,1.64,0,3.27,0,4.91,0,.41,0,.82,0,1.23,0,.24,0,.37.08.37.34-.02,2.19.05,4.38-.04,6.58Z"/>
    <path class="cls-2" d="M44.84,27.6c-.07-1.14-.07-2.29,0-3.43,1.14-.07,2.29-.07,3.43,0,.07,1.14.07,2.29,0,3.43-1.14.07-2.29.07-3.43,0Z"/>
    <path class="cls-2" d="M51.71,20.72c.07,1.14.07,2.29,0,3.43-1.14.07-2.29.07-3.43,0-.09-1.05-.02-2.09-.04-3.14,0-.22.1-.33.33-.33,1.05.01,2.09-.05,3.14.04Z"/>
    <path class="cls-2" d="M65.45,37.9c0-.98.02-1.96.01-2.94,0-.34.08-.51.46-.5.87.02,1.73.02,2.6,0,.34,0,.46.12.46.46-.01.85-.02,1.7,0,2.55,0,.38-.12.52-.51.51-.98-.02-1.96,0-2.94,0-.03-.03-.06-.06-.09-.08Z"/>
    <path class="cls-2" d="M37.94,27.61c1.34-.09,2.69-.03,4.03-.04.95,0,1.9-.05,2.85.04.07,1.14.07,2.29,0,3.43-.87.09-1.74.04-2.6.04-1.42,0-2.85.06-4.28-.04-.07-1.14-.07-2.29,0-3.43Z"/>
    <path class="cls-2" d="M51.71,31.04c-1.14.07-2.29.07-3.43,0-.07-1.14-.07-2.29,0-3.43,1.14-.07,2.29-.07,3.43,0,.07,1.14.07,2.29,0,3.43Z"/>
    <path class="cls-2" d="M17.3,12.1c0,1.56-.01,3.12,0,4.67,0,.4-.13.54-.53.54-3.11-.01-6.23-.01-9.34,0-.4,0-.54-.13-.54-.53.01-3.11.01-6.23,0-9.34,0-.4.13-.54.53-.54,3.11.01,6.23.01,9.34,0,.4,0,.54.13.54.53-.02,1.56,0,3.11,0,4.67Z"/>
    <path class="cls-2" d="M87.84,17.3c-1.52,0-3.05-.01-4.57,0-.45,0-.59-.14-.58-.59.02-3.08.02-6.16,0-9.25,0-.45.14-.59.59-.59,3.08.02,6.16.02,9.25,0,.45,0,.59.14.59.59-.02,3.08-.02,6.16,0,9.25,0,.45-.14.59-.59.59-1.56-.02-3.11,0-4.67,0Z"/>
    <path class="cls-2" d="M6.9,87.9c0-1.56.01-3.11,0-4.67,0-.4.13-.54.54-.54,3.11.01,6.23.01,9.34,0,.4,0,.54.13.54.54-.01,3.11-.01,6.23,0,9.34,0,.4-.13.54-.54.54-3.11-.01-6.23-.01-9.34,0-.4,0-.54-.13-.54-.54.02-1.56,0-3.11,0-4.67Z"/>
  </g>
  <rect class="cls-1" x="-108.89" y="-40.41" width="44.58" height="44.58"/>
</svg>