<?xml version="1.0" encoding="UTF-8"?>
<svg id="Layer_1" data-name="Layer 1" xmlns="http://www.w3.org/2000/svg" version="1.1" viewBox="0 0 100 100">
  <defs>
    <style>
      .cls-1 {
        fill: #000;
        stroke-width: 0px;
      }
    </style>
  </defs>
  <path class="cls-1" d="M93.1,93.09c-2.15,0-4.3.01-6.45,0-.36,0-.47.08-.47.46.02,2,0,4,.02,6,0,.38-.11.46-.47.45-2-.02-4-.02-6,0-.34,0-.45-.08-.44-.43.03-.85.03-1.71,0-2.56-.01-.35.06-.49.45-.47.85.03,1.71,0,2.56.02.32,0,.46-.05.46-.42-.02-3.18-.01-6.36,0-9.55,0-.29-.06-.4-.38-.4-.9.02-1.8.02-2.71,0-.31,0-.39.1-.38.39.02.89,0,1.77.01,2.66,0,.32-.08.42-.41.41-1.02-.02-2.03-.01-3.05-.01,0,0,.01.02.01.02,0-1.02-.01-2.03,0-3.05,0-.31-.07-.42-.4-.42-.88.02-1.77.02-2.65,0-.33,0-.41.1-.41.42.02,1.02,0,2.03,0,3.05v-.02c-3.27,0-6.55.01-9.83,0-.41,0-.52.1-.51.51.02,3.12,0,6.24.02,9.36,0,.37-.07.51-.48.5-.8-.04-1.61-.03-2.41,0-.43.02-.6-.07-.58-.55.04-.82,0-1.64.02-2.46.02-.38-.12-.46-.47-.45-.87.03-1.74.02-2.61,0-.3,0-.39.08-.39.39.02.9,0,1.81.01,2.71,0,.27-.07.37-.36.36-.92-.02-1.84-.02-2.76,0-.3,0-.34-.12-.34-.38.01-.89,0-1.77.01-2.66,0-.3-.05-.44-.4-.43-.9.02-1.81.02-2.71,0-.28,0-.36.09-.36.36.02.9,0,1.81.01,2.71,0,.3-.07.39-.38.39-3.2-.01-6.4-.01-9.6,0-.33,0-.37-.12-.37-.4.01-2,0-4,.02-6.01,0-.42-.12-.52-.52-.51-.84.03-1.67.03-2.51,0-.34,0-.44.08-.44.43.02,1.99,0,3.97.02,5.96,0,.39-.07.53-.5.52-1.97-.03-3.94-.03-5.91,0-.42,0-.52-.12-.5-.52.03-.85.02-1.71,0-2.56,0-.31.1-.39.39-.38.89.02,1.77,0,2.66.01.32,0,.41-.09.41-.41-.01-2.17,0-4.33,0-6.5h-.02c3.45,0,6.9,0,10.36,0,0,2.18,0,4.36-.01,6.54,0,.27.07.37.35.37.92-.02,1.84-.02,2.75,0,.29,0,.35-.1.35-.37-.01-2.18-.01-4.36-.01-6.54,1.02,0,2.04.02,3.05,0,.33,0,.41.1.41.41-.02.87,0,1.74-.01,2.61,0,.34.08.44.43.44,3.17-.01,6.33-.01,9.5,0,.36,0,.43-.11.43-.45-.01-2-.02-4,0-6.01,0-.37-.09-.47-.46-.46-1.99.02-3.97,0-5.96.02-.37,0-.51-.07-.5-.48.03-.85,0-1.71.02-2.56.01-.36-.11-.44-.45-.43-.89.02-1.77,0-2.66.01-.28,0-.36-.09-.36-.36.02-.9.02-1.81,0-2.71,0-.3.08-.39.38-.39,3.2.01,6.4.01,9.6,0,.33,0,.37.13.37.4-.01.85.02,1.71-.02,2.56-.02.43.13.52.52.5.85-.03,1.71,0,2.56-.02.31,0,.39.1.38.39-.02.89,0,1.77-.01,2.66,0,.32.08.41.41.41,2.03-.01,4.07-.01,6.11,0,.28,0,.41-.04.4-.37-.02-.9-.02-1.81,0-2.71,0-.31-.09-.39-.39-.39-.89.02-1.77,0-2.66.01-.32,0-.42-.08-.41-.41.02-1.02,0-2.03,0-3.05,1.03,0,2.07,0,3.1.01.27,0,.37-.07.36-.35-.02-.92-.02-1.84,0-2.75,0-.29-.09-.36-.37-.35-1.03.02-2.07.01-3.1.01,0-3.3.01-6.59,0-9.89,0-.35.07-.48.45-.47.87.03,1.74,0,2.61.02.33,0,.41-.1.4-.42-.02-.9,0-1.8-.01-2.71,0-.25.07-.34.33-.34.92.01,1.84.02,2.75,0,.33,0,.37.12.37.4-.01.87.02,1.74-.01,2.61-.01.38.11.46.47.46,2.15-.01,4.3,0,6.44,0h-.02c0,.99.02,1.99,0,2.99,0,.36.08.47.46.47,2-.02,4,0,6-.02.37,0,.46.1.46.46-.01,3.11,0,6.23-.02,9.34,0,.47.14.56.57.55,2.11-.02,4.23,0,6.34,0v-.02c-.01,1.15-.01,2.31-.01,3.46h.01c-2.16-.01-4.33,0-6.49-.01-.31,0-.43.07-.42.4.02.87.03,1.74,0,2.61-.01.38.11.46.47.45,2.15-.02,4.3,0,6.44,0,0,0-.01-.01-.01-.01v6.91-.02ZM77.58,72.41c-1.58,0-3.15,0-4.73,0-.32,0-.46.05-.45.42.01,3.18.01,6.37,0,9.55,0,.29.07.39.38.39,3.2-.01,6.4-.01,9.6,0,.31,0,.38-.1.38-.39,0-3.18-.01-6.37,0-9.55,0-.37-.14-.42-.46-.42-1.58.01-3.15,0-4.73,0Z"/>
  <path class="cls-1" d="M58.61,44.82c0,1-.01,2,.02,3,.01.37-.09.47-.46.46-1.98-.02-3.97,0-5.95-.02-.42,0-.52.11-.51.52.03.98,0,1.97,0,2.95h.01c-2.17-.01-4.33-.02-6.5,0-.33,0-.41-.1-.41-.41.02-.89,0-1.77.01-2.66,0-.3-.07-.4-.38-.39-.9.02-1.8.02-2.71,0-.32,0-.38.1-.38.39.01,2.03.02,4.07,0,6.1,0,.37.14.42.46.42,1.97-.01,3.94.01,5.91-.02.47,0,.57.14.55.57-.03.84.01,1.67-.02,2.51-.01.37.16.38.44.38,3.17,0,6.33-.01,9.5,0,.36,0,.43-.11.43-.45-.01-2,0-4-.02-6,0-.37.09-.47.46-.46.87.03,1.74.02,2.61,0,.3,0,.4.07.39.38-.02.85.02,1.71-.02,2.56-.02.46.15.52.55.52,4.23-.01,8.47,0,12.7-.02.45,0,.58.11.56.56-.04.97-.02,1.94-.02,2.9h.02c-4.4-.01-8.79,0-13.19-.02-.47,0-.63.08-.63.6.03,3.1,0,6.2.02,9.3,0,.37-.09.47-.46.46-1-.02-2,0-3,0,0-1.03,0-2.07.01-3.1,0-.27-.07-.36-.36-.36-2.07.01-4.13.01-6.2,0-.28,0-.36.09-.36.36.02,1.03.01,2.07.01,3.1-1,0-2-.02-3,0-.36,0-.47-.09-.46-.46.02-2,0-4,.02-6,0-.31-.04-.46-.41-.46-2.03.02-4.06.02-6.1,0-.33,0-.41.1-.41.42.02,1.02,0,2.03,0,3.05v-.02c-3.27,0-6.55.01-9.83,0-.41,0-.53.1-.51.51.03.82.03,1.64,0,2.46-.01.37.07.52.48.5.85-.03,1.71,0,2.56-.02.3,0,.44.04.43.39-.03.9-.02,1.81,0,2.71,0,.29-.09.36-.36.36-.9-.01-1.81,0-2.71-.01-.3,0-.39.09-.39.39.02.9,0,1.81.01,2.71,0,.27-.07.37-.36.36-.9-.02-1.81-.02-2.71,0-.35.01-.4-.13-.39-.43.02-.8-.03-1.61.02-2.41.04-.54-.17-.63-.65-.63-3.07.02-6.14,0-9.21.02-.42,0-.52-.12-.5-.52.03-.84.03-1.67,0-2.51-.01-.36.11-.43.44-.43,3.13.01,6.27,0,9.41.02.41,0,.52-.1.51-.51-.02-2.13,0-4.27,0-6.4h-.02c2.11.01,4.23,0,6.34.02.43,0,.58-.08.57-.55-.03-1.98,0-3.97-.02-5.95,0-.32.09-.42.41-.41.88.02,1.77,0,2.66.01.29,0,.4-.06.4-.37-.01-3.33-.01-6.65-.02-9.98,3.32,0,6.63,0,9.95.02.32,0,.42-.09.41-.41-.02-1.02,0-2.04,0-3.05h-.01c2.3,0,4.61,0,6.91,0,0,1.02,0,2.04-.02,3.05,0,.32.09.42.41.41,1.02-.02,2.04,0,3.05,0h-.02Z"/>
  <path class="cls-1" d="M58.61,13.81c2.16,0,4.33,0,6.49-.01.31,0,.43.07.42.4-.02.88,0,1.77-.02,2.65,0,.33.11.4.42.4,2.02-.01,4.03,0,6.05-.01.33,0,.45.06.45.42-.02,3.31-.01,6.62-.01,9.93,0,0,.01-.01.01-.01-1.03,0-2.07.01-3.1,0-.28,0-.36.08-.36.36.02.9,0,1.81.01,2.71,0,.3-.07.4-.38.39-.87-.02-1.74-.02-2.61,0-.36.01-.48-.07-.47-.45.03-.89,0-1.77.01-2.66,0-.24-.04-.35-.32-.35-2.08.01-4.17,0-6.25,0-.26,0-.34.08-.33.34.01.89.02,1.77,0,2.66-.01.36.07.49.45.47.84-.03,1.68.02,2.51-.02.43-.02.52.13.5.52-.03.82-.03,1.64,0,2.46.02.4-.12.48-.5.48-2-.02-4.01,0-6.01-.02-.32,0-.42.09-.41.41.02,1.02.01,2.04.02,3.05-2.17,0-4.33,0-6.5-.02-.32,0-.42.09-.41.41.02,1.02,0,2.04,0,3.05h.01c-2.17-.01-4.33-.02-6.5,0-.32,0-.42-.09-.41-.41.02-.85-.01-1.71.02-2.56.01-.37-.08-.5-.48-.49-1.97.02-3.94,0-5.91.02-.38,0-.55-.05-.53-.49.04-.83,0-1.67.02-2.51.01-.37-.1-.46-.46-.46-2.15.02-4.3,0-6.45,0h.02c0-2.15,0-4.32-.01-6.48,0-.32.08-.42.41-.41,1.02.02,2.03.01,3.05.01h-.01c0,1.02.01,2.05,0,3.09,0,.28.08.36.36.36,2.18-.01,4.37-.01,6.55-.01,0,1.03,0,2.07-.01,3.1,0,.27.07.36.36.36,2.07-.01,4.13-.01,6.2,0,.28,0,.36-.09.36-.36-.02-1.03-.01-2.07-.01-3.1,1.15,0,2.31,0,3.46,0,0,1.03,0,2.06-.01,3.1,0,.27.06.37.35.37.92-.02,1.84-.02,2.75,0,.29,0,.36-.09.36-.37-.02-1.03-.01-2.06-.01-3.1,1.03,0,2.06,0,3.1.01.27,0,.37-.07.37-.35-.02-.92-.02-1.84,0-2.75,0-.29-.09-.36-.37-.36-1.03.02-2.06.01-3.1.01,0-1.15,0-2.31,0-3.46,1.03,0,2.06,0,3.1.01.27,0,.37-.07.37-.36-.02-.92-.02-1.84,0-2.75,0-.29-.1-.36-.37-.35-1.03.02-2.06.01-3.1.01,0-.98.03-1.97,0-2.95-.01-.41.1-.52.51-.51,1.98.02,3.97,0,5.95.02.38,0,.46-.11.45-.47-.02-1,0-2,0-3v.02ZM67.24,24.14c.46,0,.92-.02,1.38,0,.29.01.36-.1.35-.37-.01-.92-.01-1.84,0-2.76,0-.25-.06-.34-.33-.34-.93.01-1.87.01-2.8,0-.27,0-.33.09-.33.34.01.92.01,1.84,0,2.76,0,.27.07.38.35.36.46-.02.92,0,1.38,0ZM60.36,20.69c-.48,0-.95,0-1.43,0-.22,0-.32.05-.32.3.01.95.01,1.9,0,2.85,0,.23.08.31.31.31.95,0,1.9,0,2.85,0,.2,0,.3-.05.29-.27,0-.97,0-1.93,0-2.9,0-.21-.07-.29-.28-.28-.48.01-.95,0-1.43,0Z"/>
  <path class="cls-1" d="M24.14,12.07c0,3.86,0,7.71.01,11.57,0,.41-.11.51-.51.51-7.71-.01-15.43-.01-23.14,0-.37,0-.5-.07-.5-.47C.01,15.94.01,8.22,0,.49,0,.1.11,0,.49,0,8.22.01,15.95.01,23.68,0c.41,0,.47.14.47.5-.01,3.86,0,7.71,0,11.57ZM12.05,20.51c2.66,0,5.32,0,7.97,0,.38,0,.5-.09.5-.49-.01-5.32-.01-10.63,0-15.95,0-.38-.11-.45-.47-.45-5.3.01-10.6.01-15.9,0-.4,0-.52.09-.52.51.01,5.3.01,10.6,0,15.9,0,.4.12.48.5.48,2.64-.01,5.28,0,7.92,0Z"/>
  <path class="cls-1" d="M99.99,12.13c0,3.82,0,7.65,0,11.47,0,.4-.05.56-.52.55-7.71-.02-15.43-.02-23.14,0-.38,0-.49-.09-.49-.48.01-7.73.01-15.46,0-23.19,0-.4.13-.48.49-.48,7.71.01,15.43.01,23.14,0,.4,0,.52.09.52.51-.02,3.87-.01,7.75-.01,11.62ZM96.36,12.08c0-2.64,0-5.28,0-7.92,0-.39-.07-.53-.5-.53-5.3.02-10.6.01-15.9,0-.38,0-.49.09-.49.48.01,5.28.01,10.57,0,15.85,0,.39.05.56.52.56,5.28-.02,10.57-.02,15.85,0,.4,0,.52-.09.52-.51-.02-2.64-.01-5.28,0-7.92Z"/>
  <path class="cls-1" d="M.01,87.92c0-3.86,0-7.71-.01-11.57,0-.42.12-.51.52-.5,7.71.01,15.43.01,23.14,0,.37,0,.49.08.49.48-.01,7.73-.01,15.46,0,23.19,0,.4-.12.48-.49.48-7.71-.01-15.43-.01-23.14,0-.4,0-.52-.09-.52-.5.02-3.86.01-7.71.01-11.57ZM20.51,87.94c0-2.66,0-5.32,0-7.97,0-.38-.09-.49-.48-.49-5.3.01-10.6.02-15.9,0-.42,0-.51.12-.5.52.01,5.28.01,10.57,0,15.85,0,.4.09.52.51.52,5.3-.01,10.6-.01,15.9,0,.4,0,.48-.13.48-.5-.01-2.64,0-5.28,0-7.92Z"/>
  <path class="cls-1" d="M10.36,55.16c-1.02,0-2.04,0-3.05.01-.33,0-.41-.1-.41-.41.01-2,0-4.01.02-6.01,0-.38-.09-.51-.48-.49-.84.03-1.68.03-2.51,0-.41-.02-.48.13-.47.5.02.85,0,1.71.01,2.56,0,.27-.03.42-.36.41-.92-.02-1.84-.02-2.76,0-.26,0-.33-.07-.33-.33,0-3.22.01-6.44,0-9.65,0-.33.14-.37.41-.36.87.01,1.74-.01,2.61.01.33,0,.46-.07.45-.43-.03-.84.02-1.68-.02-2.51-.02-.46.14-.54.55-.52.84.03,1.67,0,2.51.02.33,0,.41-.1.41-.42-.01-2,0-4.01-.02-6.01,0-.38.09-.5.49-.49.85.03,1.71,0,2.56.02.31,0,.43-.07.42-.4-.02-.87,0-1.74-.01-2.61,0-.33.06-.46.42-.45.87.03,1.74.03,2.61,0,.36-.01.43.12.43.45-.02.87,0,1.74-.01,2.61,0,.33.1.41.42.41.89-.02,1.77-.02,2.66,0,.3,0,.4-.07.39-.38-.02-.89,0-1.77-.01-2.66,0-.31.06-.42.4-.42,2.04.02,4.07.01,6.11,0,.28,0,.41.04.4.37-.02.9-.02,1.81,0,2.71,0,.31-.1.38-.39.38-.9-.02-1.81,0-2.71-.01-.28,0-.36.08-.36.36.01,1.03,0,2.07,0,3.1,0,0,.02-.01.02-.01-3.3,0-6.6,0-9.89,0-.36,0-.48.07-.47.45.03.87.03,1.74,0,2.61,0,.33.11.41.42.4.89-.02,1.77,0,2.66-.01.3,0,.39.08.39.38-.01,2.05-.01,4.1,0,6.15,0,.33-.13.37-.4.37-.85-.01-1.71.02-2.56-.02-.42-.02-.51.12-.5.52.02,3.28,0,6.56,0,9.84v-.02Z"/>
  <path class="cls-1" d="M79.3,41.37c0,1.15,0,2.31,0,3.46h.01c-1.03-.01-2.07,0-3.1-.01-.27,0-.37.07-.36.35.02.92.02,1.84,0,2.75,0,.29.09.36.36.35,1.03-.01,2.07,0,3.1,0h-.02c0,1.02,0,2.05.01,3.09,0,.28-.08.36-.36.36-3.2,0-6.4-.01-9.6,0-.35,0-.4-.13-.39-.43.02-.85-.02-1.71.02-2.56.02-.41-.13-.49-.5-.48-.85.03-1.71,0-2.56.02-.33,0-.41-.09-.41-.41.02-2.17.01-4.33.01-6.5h-.02c2.12.01,4.24,0,6.35.02.45,0,.56-.11.56-.56-.02-4.42,0-8.83,0-13.25,0,0-.01.01-.01.01,1.02,0,2.03,0,3.05-.01.31,0,.42.07.42.4-.02.88,0,1.77-.02,2.65,0,.33.1.41.41.41,1.01-.02,2.03,0,3.05,0h-.01c0,2.29,0,4.59,0,6.9,0,0,.02-.01.02-.01-1.03,0-2.07.01-3.1,0-.27,0-.37.07-.36.35.02.92.02,1.84,0,2.75,0,.29.09.36.36.35,1.03-.01,2.07,0,3.1,0h-.02Z"/>
  <path class="cls-1" d="M96.53,34.48c0,2.15.01,4.3,0,6.44,0,.36.08.48.46.47.87-.03,1.74,0,2.61-.01.28,0,.41.04.4.37-.02.92-.02,1.84,0,2.75,0,.26-.08.33-.34.33-2.08,0-4.16,0-6.25,0-.27,0-.32-.11-.32-.35.01-.9,0-1.8.01-2.7,0-.33-.1-.41-.41-.41-1.02.02-2.03,0-3.05,0v.02c.01-1.02,0-2.04.02-3.05,0-.32-.09-.42-.41-.41-1.02.02-2.04,0-3.05,0,0,0,.02.01.02.01,0-2.17,0-4.33-.01-6.5,0-.27.03-.42.36-.41.92.02,1.84.02,2.76,0,.26,0,.33.08.33.34-.01.89.01,1.77-.01,2.66-.01.37.09.47.46.46,2.15-.02,4.3,0,6.45,0h-.01Z"/>
  <path class="cls-1" d="M34.49,82.76c0-2.17,0-4.33-.02-6.5,0-.38.15-.41.46-.41,1.97.01,3.94-.01,5.9.02.47,0,.55-.15.55-.57-.02-3.26,0-6.53,0-9.79v.02c1,0,2.02,0,3.04-.01.32,0,.41.09.41.41,0,5.48,0,10.95,0,16.43,0,.32-.09.42-.41.41-1.02-.02-2.03,0-3.05,0,0-1.03,0-2.07.01-3.1,0-.27-.07-.37-.35-.36-.92.02-1.84.02-2.75,0-.29,0-.36.09-.35.36.02,1.03.01,2.07.01,3.1-1.15,0-2.31,0-3.46-.01h.02Z"/>
  <path class="cls-1" d="M96.55,58.61c-1.02,0-2.03,0-3.05.02-.32,0-.41-.09-.41-.41.01-2,0-4,.02-6.01,0-.37-.08-.51-.48-.5-.85.03-1.71.03-2.56,0-.36-.01-.44.11-.43.45.02.89,0,1.77.01,2.66,0,.28-.08.36-.36.36-.92-.02-1.84-.01-2.76,0-.25,0-.34-.07-.34-.33,0-2.08.01-4.17,0-6.25,0-.28.12-.32.35-.32,4.36,0,8.73,0,13.09,0,.29,0,.36.1.35.37-.01.92-.01,1.84,0,2.76,0,.26-.08.33-.34.33-.89-.01-1.77.01-2.66-.01-.37-.01-.47.09-.47.46.02,2.15,0,4.3,0,6.45h.01Z"/>
  <path class="cls-1" d="M68.97,3.44c-1,0-2,.02-3,0-.36,0-.47.08-.47.46.02,2,0,4,.02,6,0,.32-.04.46-.42.46-2.16-.02-4.33-.01-6.49-.02v.02c.01-1.02,0-2.04.02-3.05,0-.32-.09-.42-.41-.41-1.02.02-2.04,0-3.05,0h.02c0-1,0-2.02-.01-3.04,0-.32.09-.41.41-.41,1.97.01,3.94-.02,5.9.02.52.01.62-.15.6-.63-.04-.82,0-1.64-.02-2.46,0-.31.09-.38.39-.38,2.03.01,4.07.01,6.1,0,.31,0,.42.07.42.4-.02,1.02-.01,2.03-.01,3.05h.01Z"/>
  <path class="cls-1" d="M34.49,13.81c0-1.02-.02-2.04,0-3.05,0-.32-.09-.42-.41-.41-.89.02-1.77-.01-2.66.02-.35.01-.39-.14-.39-.43,0-2.02.01-4.04,0-6.06,0-.31.07-.42.41-.42,2.17.02,4.33.01,6.5.02,0,0-.02-.02-.02-.02,0,2.15.01,4.3,0,6.45,0,.37.09.47.46.46,1-.02,2,0,3,0v-.02c-.01,1.02-.02,2.03,0,3.05,0,.33-.09.41-.41.41-2.16-.01-4.33-.01-6.49-.01h.02Z"/>
  <path class="cls-1" d="M96.54,58.62c1.03,0,2.06,0,3.1,0,.28,0,.36.07.36.36,0,3.21-.01,6.42,0,9.63,0,.34-.15.36-.41.36-2.16,0-4.33,0-6.49,0,0,0,.02.01.02.01,0-2.2,0-4.4-.02-6.59,0-.28.12-.32.35-.32.89,0,1.77-.02,2.66.01.38.01.46-.11.45-.47-.02-1,0-2,0-3,0,0-.01.01-.01.01Z"/>
  <path class="cls-1" d="M93.1,68.96c0,1.02.01,2.03-.01,3.05,0,.33.1.41.41.41,2-.01,4,0,6-.01.37,0,.51.07.5.48-.03.84-.03,1.67,0,2.51.02.41-.13.49-.5.47-.87-.02-1.74,0-2.61-.01-.28,0-.36.08-.36.36.01,1.03,0,2.07,0,3.1h.02c-1.15-.01-2.31-.01-3.46-.01v.02c.01-1,0-2,.02-3,0-.36-.07-.48-.45-.47-.87.03-1.74,0-2.6.02-.33,0-.41-.1-.41-.41.01-2.03.01-4.06,0-6.1,0-.28.05-.41.37-.4,1.03.02,2.06.01,3.1.02,0,0-.01-.01-.01-.01Z"/>
  <path class="cls-1" d="M75.85,58.63c1.02,0,2.03-.02,3.05,0,.32,0,.42-.08.41-.41-.02-.87,0-1.74-.01-2.61,0-.33.06-.46.42-.45.87.03,1.74.02,2.61,0,.3,0,.43.04.43.39-.01,3.18-.01,6.37,0,9.55,0,.32-.09.42-.41.41-1.02-.02-2.03-.01-3.05-.01h.02c0-1-.01-2.02,0-3.03,0-.31-.07-.43-.4-.42-.88.02-1.77,0-2.65.02-.33,0-.41-.1-.4-.42.02-1.01.01-2.03.01-3.05h-.02Z"/>
  <path class="cls-1" d="M31.04,24.13c-1.03,0-2.07,0-3.1.01-.28,0-.36-.08-.36-.36.01-2.05.01-4.1,0-6.15,0-.35.13-.4.43-.39.87.02,1.74-.01,2.61.01.36.01.44-.11.43-.44-.02-.89,0-1.77-.01-2.66,0-.28.08-.37.36-.36,1.03.02,2.07,0,3.1.01,0,0-.02-.01-.02-.01v6.91s.01-.01.01-.01c-1.02,0-2.04.02-3.05,0-.32,0-.42.09-.41.41.02,1.02,0,2.04,0,3.05h.01Z"/>
  <path class="cls-1" d="M31.04,27.6c0-1.15,0-2.31,0-3.46,0,0-.01.01-.01.01,1.02,0,2.04-.02,3.05,0,.32,0,.42-.09.41-.41-.02-1.02,0-2.04,0-3.05,0,0-.01.01-.01.01,1.15,0,2.31,0,3.46-.01,0,2.3,0,4.61,0,6.91-2.3,0-4.61,0-6.91-.01h.01Z"/>
  <path class="cls-1" d="M27.6,62.06h-3.46s.01.01.01.01c0-1.02-.01-2.03,0-3.05,0-.31-.07-.43-.4-.42-.88.02-1.77,0-2.65.02-.33,0-.41-.1-.4-.41.02-1.01,0-2.03,0-3.05,2.3,0,4.61.01,6.91.02h-.01c0,2.29,0,4.59,0,6.89h.02Z"/>
  <path class="cls-1" d="M17.25,62.06c-2.17,0-4.33,0-6.5.01-.32,0-.41-.09-.41-.41.02-2.17.01-4.33.01-6.5,0,0-.01.02-.01.02,1.15,0,2.31,0,3.46-.01,0,1,0,2-.02,3,0,.36.07.48.45.47.87-.03,1.74,0,2.6-.02.33,0,.41.1.41.41-.02,1.02-.01,2.03-.01,3.05v-.02Z"/>
  <path class="cls-1" d="M72.4,93.09c0,1.02.02,2.03,0,3.05,0,.32.09.42.41.41.88-.02,1.77,0,2.65-.01.29,0,.4.05.4.37-.02.9-.01,1.8,0,2.7,0,.26-.04.38-.34.38-2.08-.01-4.16,0-6.24,0-.23,0-.32-.06-.32-.3,0-2.1,0-4.2,0-6.29,0-.29.14-.3.36-.3,1.03,0,2.06,0,3.1.01h-.01Z"/>
  <path class="cls-1" d="M96.53,93.09c0,2.16,0,4.33.01,6.49,0,.31-.07.43-.4.42-.88-.02-1.77-.02-2.66,0-.34,0-.4-.11-.4-.42.01-2.16,0-4.33.01-6.49v.02c1.14,0,2.29,0,3.45,0h-.02Z"/>
  <path class="cls-1" d="M37.94,3.47c0-1.03,0-2.06,0-3.1,0-.27.06-.37.35-.37,2.06.01,4.13.01,6.19,0,.28,0,.36.08.36.36-.02.9-.02,1.8,0,2.7,0,.35-.13.4-.42.39-2.16-.01-4.32,0-6.49,0,0,0,.02.02.02.02Z"/>
  <path class="cls-1" d="M20.69,34.49c2.3,0,4.61,0,6.91,0,0,0-.02-.01-.02-.01,0,1.15,0,2.31.01,3.46-2.3,0-4.61,0-6.91,0,0-1.15,0-2.31.01-3.46h-.02Z"/>
  <path class="cls-1" d="M96.54,86.21c1.03,0,2.06,0,3.1-.01.27,0,.36.07.36.36-.01,2.06-.01,4.13,0,6.19,0,.29-.09.36-.36.35-1.03-.02-2.06,0-3.1-.01,0,0,.02.01.02.01v-6.91s-.01.02-.01.02Z"/>
  <path class="cls-1" d="M48.28,10.36c0-1.02,0-2.03-.01-3.05,0-.33.09-.41.41-.41,2.17.01,4.33.01,6.5.01,0,0-.02-.01-.02-.01,0,1.15,0,2.31,0,3.46h.01c-2.3-.01-4.61-.01-6.91-.01h.02Z"/>
  <path class="cls-1" d="M86.21,41.37c-2.3,0-4.61,0-6.91,0h.02c0-1.14,0-2.29,0-3.45,0,0-.02.01-.02.01,2.3,0,4.61,0,6.91,0,0,0-.02-.01-.02-.01,0,1.15,0,2.31,0,3.46h.01Z"/>
  <path class="cls-1" d="M24.13,62.06c0,1.03,0,2.06.01,3.1,0,.27-.07.37-.35.36-2.06-.01-4.13-.01-6.19,0-.28,0-.36-.09-.35-.36.02-1.03,0-2.06.01-3.1,0,0-.01.02-.01.02h6.91v-.02Z"/>
  <path class="cls-1" d="M.01,30.99c0-1,0-2,0-3,0-.27.03-.41.37-.41.92.02,1.84.02,2.75,0,.25,0,.34.07.34.33,0,2.08,0,4.16,0,6.24,0,.27-.09.33-.34.33-.9-.01-1.8-.02-2.7,0-.32,0-.42-.08-.41-.41.02-1.03,0-2.06,0-3.1Z"/>
  <path class="cls-1" d="M79.3,44.83c1.03,0,2.06,0,3.09,0,.27,0,.37.07.37.35-.02.92-.02,1.83,0,2.75,0,.29-.1.35-.37.35-1.03-.01-2.06,0-3.09-.01,0,0,.02.01.02.01,0-1.15,0-2.31,0-3.46h-.01Z"/>
  <path class="cls-1" d="M51.71,51.73c1.03,0,2.07,0,3.1-.01.28,0,.36.08.36.36-.02.92-.01,1.84,0,2.76,0,.26-.07.34-.33.34-.9-.01-1.81-.02-2.71,0-.32,0-.42-.08-.41-.41.02-1.02,0-2.04,0-3.05,0,0-.01.01-.01.01Z"/>
  <path class="cls-1" d="M89.64,41.37c0,1.03,0,2.06.01,3.09,0,.27-.06.37-.35.37-.92-.02-1.83-.02-2.75,0-.29,0-.36-.1-.35-.37.01-1.03,0-2.06,0-3.09,0,0-.01.01-.01.01,1.15,0,2.31,0,3.46,0v-.02Z"/>
  <path class="cls-1" d="M62.06,41.37c0,1.03,0,2.07.01,3.1,0,.28-.08.36-.36.36-1.03-.02-2.07,0-3.1-.01h.02c0-1.14,0-2.29-.01-3.45,1.15,0,2.31,0,3.46.01h-.02Z"/>
  <path class="cls-1" d="M96.55,34.49c0-1.01,0-2.03-.01-3.04,0-.3.06-.43.4-.42.9.02,1.8.02,2.7,0,.28,0,.36.08.36.36-.02.92-.02,1.83,0,2.75,0,.29-.11.35-.37.35-1.03-.01-2.06,0-3.09,0,0,0,.01.01.01.01Z"/>
  <path class="cls-1" d="M89.65,60.34c0,.47-.01.95,0,1.42,0,.24-.08.31-.31.31-.95-.01-1.9-.01-2.85,0-.25,0-.3-.1-.29-.32,0-.93.01-1.87,0-2.8,0-.26.08-.34.34-.33.93.01,1.87.01,2.8,0,.28,0,.32.11.32.35-.01.46,0,.92,0,1.37Z"/>
  <path class="cls-1" d="M.01,63.76c0-.44.02-.89,0-1.33-.02-.32.1-.38.39-.38.9.02,1.8.02,2.7,0,.27,0,.37.06.37.35-.02.92-.02,1.83,0,2.75,0,.29-.1.36-.37.35-.92-.01-1.83-.01-2.75,0-.25,0-.35-.06-.34-.33.02-.47,0-.95,0-1.42Z"/>
  <path class="cls-1" d="M12.07,68.96c-.46,0-.92,0-1.37,0-.24,0-.35-.04-.35-.32.02-.95.01-1.9,0-2.85,0-.21.06-.29.28-.29.97,0,1.93,0,2.9,0,.22,0,.28.09.28.29,0,.95-.01,1.9,0,2.85,0,.28-.12.32-.35.31-.46-.01-.92,0-1.37,0Z"/>
  <path class="cls-1" d="M1.73,72.41c-.46,0-.92-.02-1.37,0-.29.01-.36-.09-.35-.36.01-.92.01-1.83,0-2.75,0-.25.06-.34.33-.34.93.01,1.87.01,2.8,0,.27,0,.33.09.33.34-.01.92-.01,1.83,0,2.75,0,.27-.06.38-.35.36-.46-.02-.92,0-1.37,0Z"/>
  <path class="cls-1" d="M58.61,10.34c0,1.15,0,2.31,0,3.46,0,0,.01-.02.01-.02-1.03,0-2.07,0-3.1.01-.28,0-.36-.08-.36-.36.02-1.03,0-2.07.01-3.1h-.01c1.15.01,2.31.01,3.46.01v-.02Z"/>
  <path class="cls-1" d="M44.82,10.36c1.15,0,2.31,0,3.46,0,0,0-.02-.01-.02-.01,0,1.03,0,2.06.01,3.09,0,.27-.07.37-.35.37-.92-.02-1.83-.02-2.75,0-.29,0-.36-.09-.35-.37.02-1.03,0-2.06.01-3.09v.02Z"/>
  <path class="cls-1" d="M31.06,82.72c-1.07,0-2.13.01-3.2.03-.23,0-.27-.1-.27-.3,0-.95,0-1.9,0-2.86,0-.19.04-.3.27-.3.97,0,1.94.01,2.91,0,.33,0,.27.19.28.39,0,1.02,0,2.04,0,3.05,0,0,.01-.02.01-.02Z"/>
  <path class="cls-1" d="M96.53,79.31c1.03,0,2.06,0,3.09-.01.27,0,.37.06.37.35-.02.92-.02,1.83,0,2.75,0,.29-.09.36-.36.35-1.03-.02-2.06,0-3.09-.01v.02c.01-1.15.01-2.31.01-3.46h-.02Z"/>
  <path class="cls-1" d="M41.39,10.36c0-1.03,0-2.06-.01-3.09,0-.27.06-.37.35-.37.92.02,1.83.02,2.75,0,.29,0,.36.1.35.37-.02,1.03,0,2.06-.01,3.09,0,0,.01-.02.01-.02-1.15,0-2.31,0-3.46,0v.02Z"/>
  <path class="cls-1" d="M31.04,86.21c0-1.16,0-2.32.01-3.48,0,0-.01.02-.01.02,1.15,0,2.3.01,3.45.02,0,0-.02-.01-.02-.01,0,1.03,0,2.07.01,3.1,0,.28-.08.36-.36.36-1.03-.02-2.07,0-3.1-.01h.01Z"/>
  <path class="cls-1" d="M68.95,3.46c1.03,0,2.06,0,3.09,0,.27,0,.37.06.37.35-.02.92-.02,1.83,0,2.75,0,.28-.09.36-.36.36-.92-.02-1.83-.02-2.75,0-.3,0-.35-.11-.35-.37.01-1.03,0-2.06.01-3.09,0,0-.01.01-.01.01Z"/>
  <path class="cls-1" d="M65.52,41.37c-1.15,0-2.31,0-3.46,0,0,0,.02.01.02.01,0-1.03,0-2.06,0-3.08,0-.25.03-.38.34-.38,1.04.02,2.09.02,3.13.03v-.02c-.02,1.15-.02,2.3-.02,3.45,0,0,.02-.01.02-.01Z"/>
  <path class="cls-1" d="M96.54,82.74c0,1.15,0,2.31,0,3.46v-.02c-1.14,0-2.29,0-3.45,0h.01c0-1.14,0-2.29,0-3.45h-.01c1.15.01,2.31.01,3.46.01v-.02Z"/>
  <path class="cls-1" d="M31.05,89.64c-1.03,0-2.06,0-3.09.01-.27,0-.37-.06-.37-.35.02-.92.02-1.83,0-2.75,0-.29.09-.36.36-.35,1.03.01,2.06,0,3.09,0,0,0-.01-.01-.01-.01,0,1.15,0,2.31,0,3.46h.02Z"/>
  <path class="cls-1" d="M79.31,31.04c0-1.03,0-2.06,0-3.09,0-.27.06-.37.35-.37.92.02,1.83.02,2.75,0,.28,0,.36.09.36.36-.02.92-.02,1.83,0,2.75,0,.3-.11.35-.37.34-1.03-.01-2.06,0-3.09-.01,0,0,.01.01.01.01Z"/>
  <path class="cls-1" d="M72.42,93.11c0-1.16,0-2.31,0-3.47v.02c1.14,0,2.29,0,3.45,0,0,0-.01-.02-.01-.02,0,1.03,0,2.07.01,3.1,0,.28-.08.37-.36.36-1.03-.02-2.07,0-3.1,0,0,0,.01.02.01.02Z"/>
  <path class="cls-1" d="M50.02,3.45c-.43,0-.85-.02-1.28,0-.35.02-.49-.05-.48-.44.03-.88.02-1.77,0-2.65,0-.28.08-.36.36-.36.92.02,1.83.01,2.75,0,.24,0,.35.04.35.32-.02.93-.01,1.87,0,2.8,0,.26-.07.35-.33.33-.46-.02-.92,0-1.38,0Z"/>
  <path class="cls-1" d="M51.72,68.95c2.3,0,4.61,0,6.91,0,0,1.02-.02,2.04,0,3.05,0,.33-.09.41-.41.41-.89-.02-1.77,0-2.66-.01-.29,0-.4.07-.39.38.02.89,0,1.77.01,2.66,0,.3-.06.43-.4.42-2.03-.02-4.07-.02-6.11,0-.34,0-.41-.11-.4-.42.02-.89.02-1.77,0-2.66,0-.31.09-.39.39-.38.9.02,1.81,0,2.71.01.28,0,.37-.08.36-.36-.02-1.03-.01-2.07-.01-3.1Z"/>
  <path class="cls-1" d="M65.52,75.85c0,1.15,0,2.31,0,3.46-1.01,0-2.03-.02-3.04,0-.31,0-.42-.07-.42-.4.02-.88.02-1.77,0-2.65,0-.33.1-.41.42-.4,1.01.02,2.03,0,3.04,0Z"/>
  <path class="cls-1" d="M37.93,82.74c1.15,0,2.31,0,3.46,0,0,1.15,0,2.31,0,3.46-1.02,0-2.03-.02-3.05,0-.32,0-.42-.09-.41-.41.02-1.02,0-2.03,0-3.05Z"/>
  <path class="cls-1" d="M44.83,89.65c-1.15,0-2.31,0-3.46,0,0-1.15,0-2.31,0-3.46,1.02,0,2.03.02,3.05,0,.32,0,.42.09.41.41-.02,1.02,0,2.03,0,3.05Z"/>
  <path class="cls-1" d="M75.86,77.59c0-.47,0-.95,0-1.42,0-.23.06-.32.3-.31.95.01,1.9.01,2.85,0,.24,0,.3.09.3.31,0,.93-.01,1.87,0,2.8,0,.25-.06.34-.33.34-.93-.01-1.87-.01-2.8,0-.27,0-.33-.09-.33-.34.02-.46,0-.92,0-1.37Z"/>
  <path class="cls-1" d="M20.7,37.93c0,1.03,0,2.07-.01,3.1,0,.27.07.37.36.36,2.07-.01,4.13-.01,6.2,0,.28,0,.36-.09.36-.36-.02-1.03-.01-2.07-.01-3.1,1.02,0,2.03.02,3.05,0,.32,0,.41.09.41.41-.01,2.17,0,4.33,0,6.5-1.02,0-2.03,0-3.05-.01-.31,0-.43.07-.42.4.02.88,0,1.77.02,2.65,0,.33-.1.41-.41.41-1.02-.02-2.03-.01-3.05-.01v.02c.01-1.03,0-2.06.01-3.1,0-.27-.07-.37-.36-.37-.92.02-1.84.02-2.75,0-.29,0-.36.09-.35.37.01,1.03,0,2.06,0,3.1h.01c-1.15-.01-2.31-.01-3.46-.01h.02c0-3.3,0-6.61-.01-9.93,0-.32.08-.42.41-.41,1.02.02,2.03,0,3.05,0Z"/>
  <path class="cls-1" d="M20.7,55.18c-2.3,0-4.61,0-6.91,0,0-2.15.02-4.3,0-6.45,0-.37.09-.47.46-.46,1,.03,2,.01,3,.01,0,0-.02-.01-.02-.01,0,1.02.02,2.04,0,3.05,0,.32.09.42.41.41,1.02-.02,2.03,0,3.05,0h-.02c0,1.14.01,2.29.02,3.45Z"/>
  <path class="cls-1" d="M31.03,44.82c1.15,0,2.31,0,3.46,0,0,1.01-.02,2.03,0,3.04,0,.31-.07.42-.4.42-.88-.02-1.77-.02-2.65,0-.33,0-.41-.1-.4-.42.02-1.01,0-2.03,0-3.04Z"/>
  <path class="cls-1" d="M24.13,48.27c0,1.03,0,2.07.01,3.1,0,.28-.08.36-.36.36-1.03-.02-2.07,0-3.1-.01h.02c0-1.14,0-2.29,0-3.45h-.01c1.15.01,2.31.01,3.46.01v-.02Z"/>
  <path class="cls-1" d="M27.6,55.18c0-1.01,0-2.03-.01-3.04,0-.3.06-.43.4-.42.9.02,1.8.02,2.7,0,.28,0,.36.08.36.36-.02.92-.02,1.83,0,2.75,0,.29-.1.35-.37.35-1.03-.01-2.06,0-3.09,0,0,0,.01.01.01.01Z"/>
  <path class="cls-1" d="M34.48,44.83c0-1.01.02-2.03,0-3.04,0-.31.07-.42.4-.42.88.02,1.77.02,2.65,0,.33,0,.41.1.4.42-.02,1.01,0,2.03,0,3.04-1.15,0-2.31,0-3.46,0Z"/>
  <path class="cls-1" d="M55.16,37.93c1.02,0,2.03.02,3.05,0,.32,0,.42.09.41.41-.02,1.02,0,2.03,0,3.05-1.15,0-2.31,0-3.46,0v-3.46Z"/>
  <path class="cls-1" d="M44.83,24.15c-1.02,0-2.03-.02-3.05,0-.32,0-.42-.08-.41-.41.02-.87,0-1.74.01-2.6,0-.32-.05-.46-.42-.45-1.01.03-2.03.01-3.05.02,0-1.02.02-2.03,0-3.05,0-.32.08-.41.41-.41,2.03.01,4.06.02,6.1,0,.33,0,.4.11.4.42,0,2.16,0,4.33,0,6.49Z"/>
  <path class="cls-1" d="M44.82,27.6c0-1.15,0-2.31,0-3.46,1.15,0,2.31,0,3.46,0,0,1.15,0,2.31,0,3.46-1.15,0-2.31,0-3.46,0Z"/>
  <path class="cls-1" d="M51.73,20.69c0,1.15,0,2.31,0,3.46-1.15,0-2.31,0-3.46,0,0-1.02.02-2.03,0-3.05,0-.32.09-.42.41-.41,1.02.02,2.03,0,3.05,0Z"/>
  <path class="cls-1" d="M65.53,37.95c0-1.05,0-2.09-.02-3.14,0-.26.08-.33.34-.33.93.01,1.87.01,2.8,0,.22,0,.32.04.32.29-.01.95-.02,1.9,0,2.85,0,.29-.13.31-.36.31-1.03,0-2.06,0-3.09,0,0,0,.01.02.01.02Z"/>
  <path class="cls-1" d="M37.93,27.58c2.3,0,4.61,0,6.91,0,0,1.15,0,2.31,0,3.46h-6.91c0-1.15,0-2.31,0-3.46Z"/>
  <path class="cls-1" d="M51.73,31.04h-3.46v-3.46c1.15,0,2.31,0,3.46,0,0,1.15,0,2.31,0,3.46Z"/>
  <path class="cls-1" d="M17.24,12.07c0,1.57,0,3.15,0,4.72,0,.32-.04.46-.41.46-3.18-.02-6.36-.01-9.55,0-.29,0-.4-.06-.39-.38.01-3.2.01-6.4,0-9.6,0-.31.09-.38.39-.38,3.18,0,6.36.01,9.55,0,.37,0,.42.13.42.45-.01,1.57,0,3.15,0,4.72Z"/>
  <path class="cls-1" d="M87.92,17.24c-1.59,0-3.18,0-4.77,0-.33,0-.41-.1-.41-.41.01-3.18.01-6.36,0-9.55,0-.29.06-.4.37-.39,3.2.01,6.4.01,9.59,0,.31,0,.38.09.38.39-.01,3.18-.01,6.36,0,9.55,0,.37-.13.42-.45.42-1.57-.01-3.15,0-4.72,0Z"/>
  <path class="cls-1" d="M12.02,93.09c-1.54,0-3.08,0-4.63,0-.36,0-.51-.05-.5-.47.02-3.15.02-6.3,0-9.45,0-.34.08-.44.43-.44,3.17.01,6.33.01,9.5,0,.36,0,.43.11.43.45-.01,3.17-.01,6.33,0,9.5,0,.32-.08.42-.41.41-1.61-.02-3.21,0-4.82,0Z"/>
</svg>