<svg class="svgicon svgicon-article" xmlns="http://www.w3.org/2000/svg" width="13" height="13" viewBox="0 0 13 13"><path d="M3.46672 9.83333H8.13338V8.5H3.46672V9.83333ZM3.46672 7.16667H10.1334V5.83333H3.46672V7.16667ZM3.46672 4.5H10.1334V3.16667H3.46672V4.5ZM2.13338 12.5C1.76672 12.5 1.45294 12.3696 1.19205 12.1087C0.93116 11.8478 0.800493 11.5338 0.800049 11.1667V1.83333C0.800049 1.46667 0.930716 1.15289 1.19205 0.892C1.45338 0.631111 1.76716 0.500444 2.13338 0.5H11.4667C11.8334 0.5 12.1474 0.630667 12.4087 0.892C12.67 1.15333 12.8005 1.46711 12.8 1.83333V11.1667C12.8 11.5333 12.6696 11.8473 12.4087 12.1087C12.1478 12.37 11.8338 12.5004 11.4667 12.5H2.13338ZM2.13338 11.1667H11.4667V1.83333H2.13338V11.1667Z"/></svg>