<svg class="svgicon svgicon-showbiz" xmlns="http://www.w3.org/2000/svg" width="24" height="24" viewBox="0 0 24 24"><path d="M22.2857 0H1.71429C1.25963 0 0.823594 0.180612 0.502103 0.502103C0.180612 0.823594 0 1.25963 0 1.71429V22.2857C0 22.7404 0.180612 23.1764 0.502103 23.4979C0.823594 23.8194 1.25963 24 1.71429 24H22.2857C22.7404 24 23.1764 23.8194 23.4979 23.4979C23.8194 23.1764 24 22.7404 24 22.2857V1.71429C24 1.25963 23.8194 0.823594 23.4979 0.502103C23.1764 0.180612 22.7404 0 22.2857 0ZM22.2857 22.2857H1.71429V1.71429H22.2857V22.2857Z"/><path d="M8.22882 16.3457C8.38514 16.4471 8.56453 16.5073 8.75034 16.5208C8.93616 16.5343 9.12236 16.5006 9.29168 16.4229L16.7745 12.9943C16.97 12.9061 17.136 12.7633 17.2523 12.5832C17.3687 12.403 17.4306 12.1931 17.4306 11.9786C17.4306 11.7641 17.3687 11.5542 17.2523 11.374C17.136 11.1938 16.97 11.0511 16.7745 10.9629L9.29168 7.5343C9.12011 7.4559 8.93144 7.42234 8.74336 7.43677C8.55528 7.45119 8.37394 7.51313 8.21633 7.61677C8.05872 7.72042 7.93 7.86238 7.84224 8.02935C7.75447 8.19633 7.71053 8.38285 7.71454 8.57144V15.4286C7.71739 15.6121 7.7659 15.7921 7.85568 15.9522C7.94547 16.1123 8.0737 16.2476 8.22882 16.3457ZM9.08596 8.9743L15.6945 12L9.08596 15.0086V8.9743Z"/><path d="M3.42858 2.57144H5.14286V5.14287H3.42858V2.57144Z"/><path d="M8.57143 2.57144H10.2857V5.14287H8.57143V2.57144Z"/><path d="M13.7143 2.57144H15.4286V5.14287H13.7143V2.57144Z"/><path d="M18.8571 2.57144H20.5714V5.14287H18.8571V2.57144Z"/><path d="M3.42858 18.8572H5.14286V21.4286H3.42858V18.8572Z"/><path d="M8.57143 18.8572H10.2857V21.4286H8.57143V18.8572Z"/><path d="M13.7143 18.8572H15.4286V21.4286H13.7143V18.8572Z"/><path d="M18.8571 18.8572H20.5714V21.4286H18.8571V18.8572Z"/></svg>