<svg class="svgicon svgicon-news" xmlns="http://www.w3.org/2000/svg" width="30" height="24" viewBox="0 0 30 24"><path d="M5.53847 6.46156C5.53847 6.21674 5.63572 5.98195 5.80883 5.80884C5.98196 5.63573 6.21673 5.53848 6.46156 5.53848H19.3846C19.6295 5.53848 19.8643 5.63573 20.0373 5.80884C20.2104 5.98195 20.3078 6.21674 20.3078 6.46156C20.3078 6.70636 20.2104 6.94116 20.0373 7.11427C19.8643 7.28738 19.6295 7.38464 19.3846 7.38464H6.46156C6.21673 7.38464 5.98196 7.28738 5.80883 7.11427C5.63572 6.94116 5.53847 6.70636 5.53847 6.46156ZM15.6923 11.0769C15.4475 11.0769 15.2128 11.1742 15.0396 11.3473C14.8665 11.5204 14.7693 11.7552 14.7693 12C14.7693 12.2448 14.8665 12.4796 15.0396 12.6527C15.2128 12.8258 15.4475 12.9231 15.6923 12.9231H19.3846C19.6295 12.9231 19.8643 12.8258 20.0373 12.6527C20.2104 12.4796 20.3078 12.2448 20.3078 12C20.3078 11.7552 20.2104 11.5204 20.0373 11.3473C19.8643 11.1742 19.6295 11.0769 19.3846 11.0769H15.6923ZM14.7693 17.5385C14.7693 17.2936 14.8665 17.059 15.0396 16.8857C15.2128 16.7127 15.4475 16.6155 15.6923 16.6155H19.3846C19.6295 16.6155 19.8643 16.7127 20.0373 16.8857C20.2104 17.059 20.3078 17.2936 20.3078 17.5385C20.3078 17.7834 20.2104 18.0182 20.0373 18.1913C19.8643 18.3643 19.6295 18.4615 19.3846 18.4615H15.6923C15.4475 18.4615 15.2128 18.3643 15.0396 18.1913C14.8665 18.0182 14.7693 17.7834 14.7693 17.5385ZM6.46156 11.0769C6.21673 11.0769 5.98196 11.1742 5.80883 11.3473C5.63572 11.5204 5.53847 11.7552 5.53847 12V17.5385C5.53847 17.7834 5.63572 18.0182 5.80883 18.1913C5.98196 18.3643 6.21673 18.4615 6.46156 18.4615H12C12.2448 18.4615 12.4796 18.3643 12.6527 18.1913C12.8258 18.0182 12.9231 17.7834 12.9231 17.5385V12C12.9231 11.7552 12.8258 11.5204 12.6527 11.3473C12.4796 11.1742 12.2448 11.0769 12 11.0769H6.46156ZM7.38464 16.6155V12.9231H11.0769V16.6155H7.38464ZM0 3.69231C0 2.71305 0.38901 1.7739 1.08145 1.08146C1.77389 0.389012 2.71306 0 3.69232 0H22.1538C23.1332 0 24.0724 0.389012 24.7647 1.08146C25.4572 1.7739 25.8463 2.71305 25.8463 3.69231V5.53848C26.8255 5.53848 27.7647 5.92748 28.457 6.61993C29.1495 7.31238 29.5386 8.25154 29.5386 9.2308V19.3847C29.5386 20.6087 29.0523 21.7826 28.1867 22.6483C27.3212 23.5137 26.1473 24 24.9231 24H4.61539C3.39132 24 2.21738 23.5137 1.35181 22.6483C0.486263 21.7826 0 20.6087 0 19.3847V3.69231ZM24.0001 3.69231C24.0001 3.20269 23.8056 2.73311 23.4594 2.38689C23.1131 2.04066 22.6436 1.84615 22.1538 1.84615H3.69232C3.20268 1.84615 2.73311 2.04066 2.38689 2.38689C2.04067 2.73311 1.84616 3.20269 1.84616 3.69231V19.3847C1.84616 20.1192 2.13792 20.8235 2.65725 21.3428C3.17658 21.8621 3.88095 22.1538 4.61539 22.1538H24.9231C25.6576 22.1538 26.3619 21.8621 26.8812 21.3428C27.4005 20.8235 27.6924 20.1192 27.6924 19.3847V9.2308C27.6924 8.74116 27.4979 8.27158 27.1517 7.92536C26.8054 7.57914 26.3359 7.38464 25.8463 7.38464V19.3847C25.8463 19.6294 25.7489 19.8643 25.5759 20.0373C25.4028 20.2105 25.168 20.3078 24.9231 20.3078C24.6784 20.3078 24.4436 20.2105 24.2704 20.0373C24.0974 19.8643 24.0001 19.6294 24.0001 19.3847V3.69231Z"/></svg>