<svg class="svgicon svgicon-lifestyle" xmlns="http://www.w3.org/2000/svg" width="23" height="24" viewBox="0 0 23 24"><path d="M7.77408 2.17325L10.6447 7.1967C10.8976 7.63932 11.4614 7.7931 11.904 7.54017C12.3467 7.28725 12.5005 6.72339 12.2475 6.28077L9.71366 1.84651H14.5299L18.9553 4.30504L20.8939 12.0595L17.1255 13.9438C16.8127 14.1002 16.6152 14.4197 16.6152 14.7694V22.1539H6.27692V14.7694C6.27692 14.4197 6.07938 14.1002 5.76666 13.9438L1.99825 12.0595L3.93687 4.30504L7.77408 2.17325ZM8.13925 0.000383327C7.98148 -0.00253696 7.82096 0.0349803 7.67349 0.117249L2.69023 2.88573C2.46689 3.00981 2.30497 3.22089 2.24301 3.46875L0.0276582 12.3302C-0.0772718 12.7499 0.123391 13.1861 0.510354 13.3796L4.4308 15.3398V23.0769C4.4308 23.5867 4.84406 24 5.35386 24H17.5383C18.0481 24 18.4613 23.5867 18.4613 23.0769V15.3398L22.3818 13.3796C22.7687 13.1861 22.9694 12.7499 22.8644 12.3302L20.6491 3.46875C20.5871 3.22089 20.4252 3.00981 20.2019 2.88573L15.2173 0.116544C15.0802 0.0403617 14.9259 0.000383327 14.7691 0.000383327H8.13925Z"/><path d="M15.2269 0.121778C15.6696 0.374706 15.8234 0.938563 15.5704 1.38119L12.2474 7.19648C12.2276 7.23118 12.2055 7.26455 12.1814 7.29639L6.08914 15.3271C5.78103 15.7332 5.202 15.8127 4.79585 15.5046C4.38971 15.1964 4.31023 14.6174 4.61835 14.2113L10.6743 6.22844L13.9676 0.465253C14.2205 0.0226286 14.7843 -0.13115 15.2269 0.121778Z"/></svg>