<svg class="svgicon svgicon-automotive" xmlns="http://www.w3.org/2000/svg" width="30" height="24" viewBox="0 0 30 24"><path d="M5.53939 11.0764C5.79899 11.0764 6.03936 11.1244 6.2605 11.2206C6.48165 11.3167 6.67395 11.4465 6.8374 11.61C7.00085 11.7734 7.13546 11.9706 7.24122 12.2013C7.34699 12.4321 7.39506 12.6724 7.38545 12.9224C7.38545 13.182 7.33737 13.4224 7.24122 13.6435C7.14508 13.8647 7.01527 14.057 6.85182 14.2204C6.68837 14.3839 6.49126 14.5185 6.2605 14.6243C6.02975 14.73 5.78937 14.7781 5.53939 14.7685C5.27978 14.7685 5.03941 14.7204 4.81827 14.6243C4.59713 14.5281 4.40483 14.3983 4.24137 14.2349C4.07792 14.0714 3.94331 13.8743 3.83755 13.6435C3.73178 13.4128 3.68371 13.1724 3.69332 12.9224C3.69332 12.6628 3.7414 12.4225 3.83755 12.2013C3.9337 11.9802 4.0635 11.7879 4.22695 11.6244C4.39041 11.461 4.58751 11.3264 4.81827 11.2206C5.04903 11.1148 5.2894 11.0668 5.53939 11.0764ZM24 11.0764C24.2596 11.0764 24.5 11.1244 24.7211 11.2206C24.9423 11.3167 25.1346 11.4465 25.298 11.61C25.4615 11.7734 25.5961 11.9706 25.7018 12.2013C25.8076 12.4321 25.8557 12.6724 25.8461 12.9224C25.8461 13.182 25.798 13.4224 25.7018 13.6435C25.6057 13.8647 25.4759 14.057 25.3124 14.2204C25.149 14.3839 24.9519 14.5185 24.7211 14.6243C24.4904 14.73 24.25 14.7781 24 14.7685C23.7404 14.7685 23.5 14.7204 23.2789 14.6243C23.0577 14.5281 22.8654 14.3983 22.702 14.2349C22.5385 14.0714 22.4039 13.8743 22.2982 13.6435C22.1924 13.4128 22.1443 13.1724 22.1539 12.9224C22.1539 12.6628 22.202 12.4225 22.2982 12.2013C22.3943 11.9802 22.5241 11.7879 22.6876 11.6244C22.851 11.461 23.0481 11.3264 23.2789 11.2206C23.5096 11.1148 23.75 11.0668 24 11.0764ZM29.0046 7.38425L28.0527 8.3217C28.0719 8.36977 28.12 8.514 28.1969 8.75437C28.2738 8.99474 28.3652 9.27838 28.4709 9.60529C28.5767 9.93219 28.6969 10.2831 28.8315 10.6581C28.9661 11.0331 29.0815 11.3744 29.1776 11.6821C29.2738 11.9898 29.3603 12.2494 29.4372 12.4609C29.5141 12.6724 29.5478 12.7782 29.5382 12.7782V22.1527C29.5382 22.4123 29.4901 22.6527 29.394 22.8739C29.2978 23.095 29.168 23.2873 29.0046 23.4507C28.8411 23.6142 28.644 23.7488 28.4132 23.8546C28.1825 23.9603 27.9421 24.0084 27.6921 23.9988H25.8461C25.5865 23.9988 25.3461 23.9507 25.1249 23.8546C24.9038 23.7584 24.7115 23.6286 24.5481 23.4652C24.3846 23.3017 24.25 23.1046 24.1442 22.8739C24.0385 22.6431 23.9904 22.4027 24 22.1527H5.53939C5.53939 22.4123 5.49131 22.6527 5.39516 22.8739C5.29901 23.095 5.16921 23.2873 5.00576 23.4507C4.84231 23.6142 4.6452 23.7488 4.41444 23.8546C4.18369 23.9603 3.94331 24.0084 3.69332 23.9988H1.84726C1.58766 23.9988 1.34729 23.9507 1.12615 23.8546C0.905003 23.7584 0.712705 23.6286 0.549251 23.4652C0.385798 23.3017 0.251189 23.1046 0.145425 22.8739C0.0396615 22.6431 -0.00841304 22.4027 0.00120186 22.1527V12.7782L0.102158 12.4753L0.361761 11.6965L0.707897 10.6581C0.832891 10.2831 0.94827 9.93219 1.05403 9.60529C1.1598 9.27838 1.25595 8.99474 1.34248 8.75437C1.42902 8.514 1.47709 8.36977 1.4867 8.3217L0.534829 7.38425H0.00120186V5.53818H1.31364L2.13571 6.37468L3.20296 3.1585C3.3568 2.68737 3.57795 2.2595 3.86639 1.87491C4.15484 1.49031 4.49617 1.1586 4.89038 0.879764C5.28459 0.600931 5.70284 0.384596 6.14513 0.230758C6.58741 0.0769192 7.06816 0 7.58736 0H21.952C22.452 0 22.9279 0.0769192 23.3798 0.230758C23.8317 0.384596 24.2548 0.596124 24.649 0.865341C25.0432 1.13456 25.3797 1.46627 25.6586 1.86048C25.9374 2.25469 26.1634 2.68737 26.3364 3.1585L27.4037 6.37468L28.2258 5.53818H29.5382V7.38425H29.0046ZM7.58736 1.84606C6.98162 1.84606 6.44319 2.01913 5.97206 2.36527C5.50093 2.7114 5.16441 3.16811 4.96249 3.73539L3.73659 7.38425H25.8028L24.5769 3.73539C24.3846 3.16811 24.0529 2.7114 23.5818 2.36527C23.1106 2.01913 22.5674 1.84606 21.952 1.84606H7.58736ZM20.3079 19.6L18.808 16.6146H10.7314L9.23151 19.6V20.3067H20.3079V19.6ZM27.6921 20.3067V13.0667L27.6056 12.8071C27.5479 12.634 27.4758 12.408 27.3893 12.1292C27.3027 11.8504 27.2018 11.5571 27.0864 11.2494C26.971 10.9418 26.8701 10.6389 26.7835 10.3408C26.697 10.0428 26.6153 9.79759 26.5383 9.60529C26.4614 9.41299 26.4181 9.288 26.4085 9.23031H3.13085C3.11162 9.27838 3.06836 9.40337 3.00105 9.60529C2.93375 9.8072 2.85202 10.0476 2.75587 10.3264C2.65972 10.6052 2.55877 10.9081 2.453 11.235C2.34724 11.5619 2.25109 11.86 2.16456 12.1292C2.07802 12.3984 2.0011 12.6196 1.9338 12.7926C1.86649 12.9657 1.83765 13.057 1.84726 13.0667V20.3067H7.38545V19.1673L9.57765 14.7685H19.9617L22.1539 19.1673V20.3067H27.6921Z"/></svg>