<svg class="svgicon svgicon-sport" xmlns="http://www.w3.org/2000/svg" width="24" height="24" viewBox="0 0 24 24"><path d="M16.0588 1.10229C16.7483 0.396505 17.6834 0 18.6585 0C19.6336 0 20.5688 0.396505 21.2583 1.10229C21.9478 1.80807 22.3351 2.76532 22.3351 3.76345C22.3351 4.76158 21.9478 5.71883 21.2583 6.42461C20.5688 7.1304 19.6336 7.5269 18.6585 7.5269C17.6834 7.5269 16.7483 7.1304 16.0588 6.42461C15.3693 5.71883 14.9819 4.76158 14.9819 3.76345C14.9819 2.76532 15.3693 1.80807 16.0588 1.10229ZM18.6585 1.84615C18.1618 1.84615 17.6853 2.04815 17.3341 2.40772C16.9828 2.76728 16.7855 3.25495 16.7855 3.76345C16.7855 4.27195 16.9828 4.75963 17.3341 5.11919C17.6853 5.47875 18.1618 5.68075 18.6585 5.68075C19.1553 5.68075 19.6317 5.47875 19.983 5.11919C20.3342 4.75963 20.5316 4.27195 20.5316 3.76345C20.5316 3.25495 20.3342 2.76728 19.983 2.40772C19.6317 2.04815 19.1553 1.84615 18.6585 1.84615Z"/><path d="M9.48564 5.16238C9.70967 5.08295 9.95526 5.09703 10.1692 5.20157L16.2722 8.1834C16.5573 8.32271 16.7504 8.60462 16.7812 8.92649C16.812 9.24837 16.676 9.56326 16.4226 9.75654L11.3511 13.6261L16.3796 17.0148C16.5874 17.1549 16.7295 17.3766 16.7721 17.6276C16.8148 17.8785 16.7543 18.1363 16.6049 18.34L12.7246 23.6311C12.4256 24.0388 11.8603 24.1212 11.462 23.8151C11.0637 23.509 10.9832 22.9304 11.2822 22.5227L14.5867 18.0169L9.28491 14.4439C9.03931 14.2784 8.88797 14.0007 8.8794 13.6999C8.87083 13.399 9.0061 13.1127 9.24186 12.9329L14.1466 9.19055L9.72628 7.03082L5.63456 8.48156C5.16395 8.64841 4.65031 8.39316 4.48731 7.91144C4.32431 7.42972 4.57367 6.90394 5.04427 6.73709L9.48564 5.16238ZM23.7554 7.37261C24.0964 7.74413 24.0787 8.3283 23.7157 8.6774L20.3871 11.8791C20.1034 12.152 19.6806 12.2077 19.3386 12.0172L17.8502 11.1884C17.4127 10.9448 17.251 10.3843 17.489 9.93645C17.727 9.48862 18.2746 9.32308 18.7121 9.56669L19.6274 10.0764L22.4807 7.33201C22.8437 6.98291 23.4144 7.00109 23.7554 7.37261ZM8.57571 15.2674C8.97238 15.5757 9.04981 16.1548 8.74866 16.5608L7.10042 18.7831C7.0256 18.884 6.93131 18.968 6.8234 19.03L1.34314 22.1771C0.908794 22.4266 0.359146 22.2683 0.115471 21.8237C-0.128205 21.3791 0.026367 20.8165 0.460716 20.567L5.77738 17.5139L7.3122 15.4445C7.61335 15.0384 8.17904 14.9592 8.57571 15.2674Z"/></svg>