<svg class="svgicon svgicon-digital" xmlns="http://www.w3.org/2000/svg" width="31" height="24" viewBox="0 0 31 24"><path d="M26.1818 19.6364H4.36364C3.78516 19.6358 3.23054 19.4057 2.8215 18.9967C2.41245 18.5876 2.1824 18.033 2.18182 17.4545V2.18182C2.1824 1.60334 2.41245 1.04872 2.8215 0.639677C3.23054 0.230632 3.78516 0.000577611 4.36364 0H26.1818C26.7603 0.000577611 27.3149 0.230632 27.724 0.639677C28.133 1.04872 28.3631 1.60334 28.3636 2.18182V17.4545C28.3628 18.0329 28.1326 18.5874 27.7236 18.9964C27.3147 19.4054 26.7602 19.6355 26.1818 19.6364ZM4.36364 2.18182V17.4545H26.1818V2.18182H4.36364ZM0 21.8182H30.5455V24H0V21.8182Z"/></svg>