<svg class="svgicon svgicon-circle-tts" xmlns="http://www.w3.org/2000/svg" width="34" height="34" viewBox="0 0 34 34"><path fill-rule="evenodd" clip-rule="evenodd" d="M17 34C26.3888 34 34 26.3889 34 17C34 7.61108 26.3888 0 17 0C7.61121 0 0 7.61108 0 17C0 26.3889 7.61121 34 17 34ZM16.6 22.552V23.3999H14.2V25H20.6V23.3999H18.2V22.552C19.7469 22.3572 21.1696 21.6042 22.2007 20.4346C23.2318 19.2649 23.8005 17.7593 23.8 16.2H22.2C22.2 17.4731 21.6943 18.6938 20.7941 19.594C19.8939 20.4944 18.6731 21 17.4 21C16.127 21 14.906 20.4944 14.0059 19.594C13.1057 18.6938 12.6 17.4731 12.6 16.2H11C10.9995 17.7593 11.5681 19.2649 12.5992 20.4346C13.6304 21.6042 15.053 22.3572 16.6 22.552ZM15.1372 9.93726C14.5371 10.5374 14.2 11.3513 14.2 12.2V16.2C14.2 17.0486 14.5371 17.8625 15.1372 18.4626C15.7374 19.0627 16.5513 19.3999 17.4 19.3999C18.2487 19.3999 19.0626 19.0627 19.6627 18.4626C20.2628 17.8625 20.6 17.0486 20.6 16.2V12.2C20.6 11.3513 20.2628 10.5374 19.6627 9.93726C19.0626 9.33716 18.2487 9 17.4 9C16.5513 9 15.7374 9.33716 15.1372 9.93726Z"/></svg>