<svg class="svgicon svgicon-share-whatsapp" xmlns="http://www.w3.org/2000/svg" width="16" height="16" viewBox="0 0 16 16"><path d="M7.75001 0C12.0303 0 15.5 3.46967 15.5 7.74999C15.5 12.0303 12.0303 15.5 7.75001 15.5C6.38039 15.5023 5.03486 15.1399 3.85176 14.4499L0.00311198 15.5L1.05091 11.6498C0.360354 10.4663 -0.00238826 9.12021 1.18332e-05 7.74999C1.18332e-05 3.46967 3.46968 0 7.75001 0ZM5.10881 4.1075L4.95381 4.1137C4.85359 4.1206 4.75568 4.14692 4.66551 4.1912C4.58148 4.23887 4.50474 4.29838 4.43766 4.3679C4.34466 4.45547 4.29196 4.53142 4.23538 4.60505C3.94873 4.97775 3.79439 5.43531 3.79673 5.9055C3.79828 6.28524 3.89748 6.65492 4.05248 7.00057C4.36946 7.69962 4.89103 8.43974 5.57923 9.12562C5.74508 9.29069 5.90783 9.45654 6.08298 9.61077C6.93814 10.3636 7.95715 10.9065 9.05898 11.1964L9.49918 11.2638C9.64255 11.2716 9.78593 11.2607 9.93008 11.2538C10.1557 11.2419 10.3761 11.1808 10.5757 11.0747C10.6771 11.0223 10.7761 10.9654 10.8725 10.9042C10.8725 10.9042 10.9053 10.882 10.9694 10.8345C11.074 10.757 11.1383 10.702 11.2251 10.6113C11.2902 10.5441 11.3445 10.4661 11.3879 10.3772C11.4483 10.2509 11.5088 10.0099 11.5336 9.80917C11.5522 9.65572 11.5467 9.57202 11.5444 9.52009C11.5413 9.43717 11.4723 9.35114 11.3972 9.31472L10.9461 9.11244C10.9461 9.11244 10.2719 8.81872 9.85955 8.63117C9.81639 8.61238 9.77017 8.60161 9.72315 8.59939C9.67012 8.59385 9.61652 8.59976 9.56598 8.61674C9.51543 8.63373 9.46913 8.66138 9.4302 8.69782C9.42633 8.69627 9.3744 8.74044 8.81408 9.41934C8.78192 9.46256 8.73762 9.49522 8.68683 9.51316C8.63603 9.5311 8.58105 9.53352 8.52888 9.52009C8.47837 9.50663 8.4289 9.48954 8.38086 9.46894C8.28476 9.42864 8.25143 9.41314 8.18556 9.38524C7.74061 9.19142 7.32875 8.92914 6.96493 8.60792C6.86728 8.52267 6.77661 8.42967 6.68361 8.33977C6.37873 8.04775 6.11301 7.71743 5.89311 7.35707L5.84738 7.28344C5.81504 7.23369 5.78851 7.18038 5.76833 7.12457C5.73888 7.01064 5.81561 6.91919 5.81561 6.91919C5.81561 6.91919 6.00393 6.71304 6.09151 6.60144C6.17676 6.49294 6.24883 6.38755 6.29533 6.31237C6.38678 6.16512 6.41546 6.014 6.36741 5.89697C6.15041 5.36687 5.92617 4.83961 5.69471 4.3152C5.64898 4.21135 5.51336 4.13695 5.39013 4.12222C5.34828 4.11705 5.30643 4.11292 5.26458 4.10982C5.16052 4.10385 5.05618 4.10489 4.95226 4.11292L5.10881 4.1075Z"/></svg>