<svg class="svgicon svgicon-circle-share" xmlns="http://www.w3.org/2000/svg" width="34" height="34" viewBox="0 0 34 34"><path fill-rule="evenodd" clip-rule="evenodd" d="M17 34C26.3888 34 34 26.3889 34 17C34 7.61108 26.3888 0 17 0C7.61121 0 0 7.61108 0 17C0 26.3889 7.61121 34 17 34ZM20.7664 9.26514C21.1539 9.09033 21.5742 9 21.9994 9C22.2512 9 22.5011 9.03174 22.7433 9.09375C22.9733 9.15259 23.1963 9.23877 23.4075 9.35107C23.8411 9.58154 24.2114 9.91479 24.4861 10.3218C24.7607 10.729 24.9313 11.197 24.9828 11.6853C25.0343 12.1736 24.9652 12.6672 24.7815 13.1226C24.5977 13.5779 24.3051 13.9812 23.9291 14.2971C23.5531 14.6128 23.1053 14.8315 22.6251 14.9341C22.145 15.0364 21.647 15.0195 21.1748 14.8845C20.7028 14.7495 20.271 14.5007 19.9175 14.1599L14.9774 16.6299C15.0079 16.8757 15.0079 17.1243 14.9774 17.3701L19.9175 19.8401C20.427 19.3489 21.0936 19.0537 21.7998 19.0066C22.5059 18.9595 23.2059 19.1636 23.7761 19.5825C24.3463 20.0017 24.75 20.6089 24.9159 21.2969C25.0817 21.9849 24.999 22.7092 24.6824 23.3423C24.3657 23.9751 23.8356 24.4756 23.1857 24.7554C22.5356 25.0354 21.8076 25.0764 21.1302 24.8713C20.453 24.6663 19.87 24.2285 19.4843 23.635C19.0985 23.0417 18.9349 22.3313 19.0225 21.6289L14.0824 19.1589C13.6587 19.5676 13.124 19.8425 12.5452 19.9495C11.9662 20.0566 11.3687 19.9907 10.8268 19.7605C10.285 19.5303 9.82288 19.1458 9.49805 18.6548C9.17322 18.1638 9 17.5881 9 16.9995C9 16.4109 9.17322 15.8352 9.49805 15.3442C9.82288 14.8533 10.285 14.4685 10.8268 14.2383C11.3687 14.0083 11.9662 13.9424 12.5452 14.0496C13.124 14.1565 13.6587 14.4314 14.0824 14.8401L19.0225 12.3701C18.97 11.948 19.0078 11.5198 19.1335 11.1135C19.2592 10.7073 19.4697 10.3325 19.7512 10.0139C20.0327 9.69507 20.3787 9.43994 20.7664 9.26514Z"/></svg>