<svg class="svgicon svgicon-enter" xmlns="http://www.w3.org/2000/svg" width="13" height="10" viewBox="0 0 13 10"><path d="M10.6872 6.8L8.38875 8.9632C8.27626 9.07305 8.21138 9.22266 8.20807 9.37986C8.20476 9.53705 8.26329 9.68927 8.37106 9.80375C8.47884 9.91823 8.62724 9.98584 8.78435 9.99202C8.94146 9.9982 9.09472 9.94246 9.21115 9.8368L12.6112 6.6368C12.6707 6.5807 12.7182 6.51302 12.7506 6.4379C12.7831 6.36278 12.7998 6.28182 12.7998 6.2C12.7998 6.11818 12.7831 6.03722 12.7506 5.9621C12.7182 5.88698 12.6707 5.8193 12.6112 5.7632L9.21115 2.5632C9.15412 2.50751 9.08656 2.46374 9.01242 2.43445C8.93827 2.40516 8.85904 2.39094 8.77934 2.39261C8.69964 2.39429 8.62108 2.41183 8.54824 2.44421C8.47539 2.4766 8.40973 2.52317 8.35509 2.58121C8.30045 2.63926 8.25792 2.70761 8.22999 2.78227C8.20206 2.85693 8.18929 2.93641 8.19243 3.01607C8.19556 3.09572 8.21454 3.17395 8.24825 3.24619C8.28195 3.31843 8.32972 3.38323 8.38875 3.4368L10.6872 5.6H2.59995C2.22865 5.6 1.87255 5.4525 1.61 5.18995C1.34745 4.9274 1.19995 4.5713 1.19995 4.2V0.6C1.19995 0.44087 1.13674 0.288258 1.02422 0.175736C0.911694 0.063214 0.759081 0 0.599951 0C0.440821 0 0.288208 0.063214 0.175686 0.175736C0.0631646 0.288258 -4.90189e-05 0.44087 -4.90189e-05 0.6V4.2C-4.90189e-05 4.88956 0.273878 5.55088 0.761473 6.03848C1.24907 6.52607 1.91039 6.8 2.59995 6.8H10.6872Z"/></svg>