<svg class="svgicon svgicon-filter" xmlns="http://www.w3.org/2000/svg" width="14" height="16" viewBox="0 0 14 16"><path d="M4.5625 2.31251C4.34701 2.31251 4.14035 2.39811 3.98798 2.55048C3.8356 2.70286 3.75 2.90952 3.75 3.12501C3.75 3.3405 3.8356 3.54716 3.98798 3.69953C4.14035 3.85191 4.34701 3.93751 4.5625 3.93751C4.77799 3.93751 4.98465 3.85191 5.13702 3.69953C5.2894 3.54716 5.375 3.3405 5.375 3.12501C5.375 2.90952 5.2894 2.70286 5.13702 2.55048C4.98465 2.39811 4.77799 2.31251 4.5625 2.31251ZM2.26313 2.31251C2.43099 1.83676 2.74229 1.4248 3.15411 1.1334C3.56594 0.842 4.05801 0.685516 4.5625 0.685516C5.06699 0.685516 5.55906 0.842 5.97089 1.1334C6.38271 1.4248 6.69401 1.83676 6.86188 2.31251H12.6875C12.903 2.31251 13.1097 2.39811 13.262 2.55048C13.4144 2.70286 13.5 2.90952 13.5 3.12501C13.5 3.3405 13.4144 3.54716 13.262 3.69953C13.1097 3.85191 12.903 3.93751 12.6875 3.93751H6.86188C6.69401 4.41325 6.38271 4.82522 5.97089 5.11662C5.55906 5.40802 5.06699 5.5645 4.5625 5.5645C4.05801 5.5645 3.56594 5.40802 3.15411 5.11662C2.74229 4.82522 2.43099 4.41325 2.26313 3.93751H1.3125C1.09701 3.93751 0.890349 3.85191 0.737976 3.69953C0.585603 3.54716 0.5 3.3405 0.5 3.12501C0.5 2.90952 0.585603 2.70286 0.737976 2.55048C0.890349 2.39811 1.09701 2.31251 1.3125 2.31251H2.26313ZM9.4375 7.18751C9.22201 7.18751 9.01535 7.27311 8.86298 7.42548C8.7106 7.57786 8.625 7.78452 8.625 8.00001C8.625 8.2155 8.7106 8.42216 8.86298 8.57453C9.01535 8.7269 9.22201 8.81251 9.4375 8.81251C9.65299 8.81251 9.85965 8.7269 10.012 8.57453C10.1644 8.42216 10.25 8.2155 10.25 8.00001C10.25 7.78452 10.1644 7.57786 10.012 7.42548C9.85965 7.27311 9.65299 7.18751 9.4375 7.18751ZM7.13812 7.18751C7.30599 6.71176 7.61729 6.2998 8.02911 6.0084C8.44094 5.717 8.93301 5.56052 9.4375 5.56052C9.94199 5.56052 10.4341 5.717 10.8459 6.0084C11.2577 6.2998 11.569 6.71176 11.7369 7.18751H12.6875C12.903 7.18751 13.1097 7.27311 13.262 7.42548C13.4144 7.57786 13.5 7.78452 13.5 8.00001C13.5 8.2155 13.4144 8.42216 13.262 8.57453C13.1097 8.7269 12.903 8.81251 12.6875 8.81251H11.7369C11.569 9.28825 11.2577 9.70022 10.8459 9.99162C10.4341 10.283 9.94199 10.4395 9.4375 10.4395C8.93301 10.4395 8.44094 10.283 8.02911 9.99162C7.61729 9.70022 7.30599 9.28825 7.13812 8.81251H1.3125C1.09701 8.81251 0.890349 8.7269 0.737976 8.57453C0.585603 8.42216 0.5 8.2155 0.5 8.00001C0.5 7.78452 0.585603 7.57786 0.737976 7.42548C0.890349 7.27311 1.09701 7.18751 1.3125 7.18751H7.13812ZM4.5625 12.0625C4.34701 12.0625 4.14035 12.1481 3.98798 12.3005C3.8356 12.4529 3.75 12.6595 3.75 12.875C3.75 13.0905 3.8356 13.2972 3.98798 13.4495C4.14035 13.6019 4.34701 13.6875 4.5625 13.6875C4.77799 13.6875 4.98465 13.6019 5.13702 13.4495C5.2894 13.2972 5.375 13.0905 5.375 12.875C5.375 12.6595 5.2894 12.4529 5.13702 12.3005C4.98465 12.1481 4.77799 12.0625 4.5625 12.0625ZM2.26313 12.0625C2.43099 11.5868 2.74229 11.1748 3.15411 10.8834C3.56594 10.592 4.05801 10.4355 4.5625 10.4355C5.06699 10.4355 5.55906 10.592 5.97089 10.8834C6.38271 11.1748 6.69401 11.5868 6.86188 12.0625H12.6875C12.903 12.0625 13.1097 12.1481 13.262 12.3005C13.4144 12.4529 13.5 12.6595 13.5 12.875C13.5 13.0905 13.4144 13.2972 13.262 13.4495C13.1097 13.6019 12.903 13.6875 12.6875 13.6875H6.86188C6.69401 14.1633 6.38271 14.5752 5.97089 14.8666C5.55906 15.158 5.06699 15.3145 4.5625 15.3145C4.05801 15.3145 3.56594 15.158 3.15411 14.8666C2.74229 14.5752 2.43099 14.1633 2.26313 13.6875H1.3125C1.09701 13.6875 0.890349 13.6019 0.737976 13.4495C0.585603 13.2972 0.5 13.0905 0.5 12.875C0.5 12.6595 0.585603 12.4529 0.737976 12.3005C0.890349 12.1481 1.09701 12.0625 1.3125 12.0625H2.26313Z"/></svg>