<svg class="svgicon svgicon-home" xmlns="http://www.w3.org/2000/svg" width="22" height="21" viewBox="0 0 22 21"><path fill-rule="evenodd" clip-rule="evenodd" d="M9.64702 1.85217C9.03708 2.13679 8.30826 2.56995 7.27618 3.18534L5.92311 3.99132C4.78581 4.66846 3.98296 5.1478 3.39401 5.59085C2.81909 6.02336 2.50435 6.38121 2.3097 6.78747C2.11486 7.19334 2.03357 7.66087 2.05801 8.3752C2.08306 9.10762 2.21459 10.0276 2.40245 11.3312L2.67497 13.2232C2.91553 14.8968 3.08764 16.0833 3.33486 16.9786C3.57646 17.8535 3.86734 18.3602 4.28963 18.7239C4.71242 19.088 5.26044 19.303 6.16928 19.417C7.09818 19.5335 8.30663 19.5349 10.009 19.5349H12.1696C13.8719 19.5349 15.0804 19.5335 16.0093 19.417C16.9181 19.303 17.4662 19.088 17.8889 18.7239C18.3112 18.3602 18.6021 17.8535 18.8437 16.9786C19.0909 16.0833 19.263 14.897 19.5036 13.2234L19.7761 11.3313C19.8338 10.9308 20.2052 10.653 20.6056 10.7106C21.0061 10.7683 21.284 11.1397 21.2263 11.5402L20.9473 13.4768C20.7153 15.0913 20.5312 16.3719 20.256 17.3686C19.9726 18.3949 19.5705 19.2093 18.8451 19.834C18.1202 20.4584 17.2529 20.7376 16.1916 20.8707C15.161 21 13.8606 21 12.22 21H9.9586C8.31795 21 7.01758 21 5.98693 20.8707C4.92568 20.7376 4.05839 20.4584 3.33351 19.834C2.60813 19.2093 2.20601 18.3949 1.9226 17.3686C1.64737 16.3719 1.4633 15.0913 1.23124 13.4768L0.946391 11.4991C0.76586 10.2464 0.621863 9.24718 0.593747 8.42529C0.564706 7.57634 0.655061 6.84883 0.988649 6.15391C1.32144 5.45961 1.83246 4.93218 2.51323 4.42004C3.17398 3.92298 4.04697 3.40321 5.14275 2.75079L6.54539 1.91529C7.54359 1.32009 8.33943 0.84556 9.02749 0.52449C9.73496 0.194362 10.3813 0 11.0893 0C11.7973 0 12.4434 0.194388 13.1508 0.524512C13.837 0.844778 14.6307 1.3178 15.6259 1.91092L17.0381 2.75218C18.1324 3.40397 19.0044 3.92335 19.6646 4.42004C20.3455 4.93224 20.8567 5.45966 21.1899 6.15391C21.365 6.51864 21.2113 6.95625 20.8465 7.13134C20.4818 7.30643 20.0442 7.15268 19.8691 6.78795C19.674 6.38141 19.3588 6.02341 18.7838 5.59085C18.1948 5.14775 17.3923 4.66847 16.2555 3.99132L14.9027 3.1855C13.87 2.57005 13.141 2.1368 12.5311 1.85215C11.9362 1.5745 11.5084 1.46512 11.0893 1.46512C10.6701 1.46512 10.242 1.57452 9.64702 1.85217ZM7.4265 16.3605C7.4265 15.9559 7.75448 15.6279 8.15906 15.6279H14.0195C14.4241 15.6279 14.7521 15.9559 14.7521 16.3605C14.7521 16.765 14.4241 17.093 14.0195 17.093H8.15906C7.75448 17.093 7.4265 16.765 7.4265 16.3605Z"/></svg>