<svg class="svgicon svgicon-user" xmlns="http://www.w3.org/2000/svg" width="22" height="21" viewBox="0 0 22 21"><path d="M21.8761 19.7222C20.2786 16.9604 17.8169 14.9801 14.9439 14.0413C16.365 13.1954 17.4691 11.9063 18.0867 10.3721C18.7042 8.83786 18.8011 7.14335 18.3624 5.54877C17.9237 3.95418 16.9736 2.54769 15.6582 1.54529C14.3428 0.542886 12.7347 0 11.0808 0C9.427 0 7.81889 0.542886 6.50346 1.54529C5.18803 2.54769 4.23801 3.95418 3.79931 5.54877C3.3606 7.14335 3.45746 8.83786 4.07501 10.3721C4.69256 11.9063 5.79665 13.1954 7.21774 14.0413C4.3448 14.9791 1.88303 16.9594 0.285552 19.7222C0.226969 19.8177 0.188112 19.924 0.171273 20.0348C0.154433 20.1456 0.159952 20.2586 0.187505 20.3672C0.215057 20.4758 0.264085 20.5778 0.331695 20.6672C0.399304 20.7565 0.484127 20.8314 0.581158 20.8875C0.678189 20.9435 0.785462 20.9796 0.896649 20.9935C1.00784 21.0074 1.12068 20.9989 1.22854 20.9685C1.33639 20.9381 1.43706 20.8864 1.5246 20.8165C1.61215 20.7465 1.68481 20.6598 1.73828 20.5613C3.71441 17.1461 7.20725 15.107 11.0808 15.107C14.9544 15.107 18.4473 17.1461 20.4234 20.5613C20.4769 20.6598 20.5495 20.7465 20.6371 20.8165C20.7246 20.8864 20.8253 20.9381 20.9331 20.9685C21.041 20.9989 21.1538 21.0074 21.265 20.9935C21.3762 20.9796 21.4835 20.9435 21.5805 20.8875C21.6775 20.8314 21.7624 20.7565 21.83 20.6672C21.8976 20.5778 21.9466 20.4758 21.9742 20.3672C22.0017 20.2586 22.0072 20.1456 21.9904 20.0348C21.9736 19.924 21.9347 19.8177 21.8761 19.7222ZM5.20699 7.55494C5.20699 6.3932 5.55149 5.25756 6.19691 4.29161C6.84234 3.32566 7.75971 2.57279 8.83301 2.12821C9.90632 1.68364 11.0874 1.56732 12.2268 1.79396C13.3662 2.0206 14.4128 2.58003 15.2343 3.4015C16.0557 4.22298 16.6152 5.26959 16.8418 6.40901C17.0685 7.54842 16.9521 8.72946 16.5076 9.80276C16.063 10.8761 15.3101 11.7934 14.3442 12.4389C13.3782 13.0843 12.2426 13.4288 11.0808 13.4288C9.52351 13.4271 8.03044 12.8077 6.92924 11.7065C5.82804 10.6053 5.20866 9.11227 5.20699 7.55494Z"/></svg>